<svg width="45" height="44" viewBox="0 0 45 44" fill="none" xmlns="http://www.w3.org/2000/svg">
<circle cx="22.1328" cy="22" r="22" fill="#1F1F1F"/>
<path d="M29.5961 24.64H13.3961C13.2894 24.4267 13.1961 24.1867 13.1161 23.92C13.0361 23.6534 12.9961 23.3467 12.9961 23C12.9961 22.4134 13.1428 21.9734 13.4361 21.68C13.7561 21.3867 14.1694 21.24 14.6761 21.24H30.8761C30.9561 21.4267 31.0361 21.6667 31.1161 21.96C31.2228 22.2534 31.2761 22.56 31.2761 22.88C31.2761 23.4667 31.1294 23.9067 30.8361 24.2C30.5428 24.4934 30.1294 24.64 29.5961 24.64ZM24.1161 15.56V32.16C23.9028 32.2134 23.6361 32.28 23.3161 32.36C23.0228 32.4134 22.7028 32.44 22.3561 32.44C21.6628 32.44 21.1428 32.3067 20.7961 32.04C20.4494 31.7467 20.2761 31.2267 20.2761 30.48V13.92C20.5161 13.84 20.7961 13.7734 21.1161 13.72C21.4361 13.64 21.7694 13.6 22.1161 13.6C22.7828 13.6 23.2761 13.7467 23.5961 14.04C23.9428 14.3067 24.1161 14.8134 24.1161 15.56Z" fill="#FFBD00"/>
</svg>
