<svg width="437" height="331" viewBox="0 0 437 331" fill="none" xmlns="http://www.w3.org/2000/svg">
<rect width="437" height="331" fill="#FFD41A"/>
<path d="M153.088 102.79C153.088 104.99 152.558 106.66 151.498 107.8C150.438 108.92 148.928 109.48 146.968 109.48C146.528 109.48 146.068 109.46 145.588 109.42C145.128 109.38 144.718 109.32 144.358 109.24V96.49C144.718 96.43 145.098 96.39 145.498 96.37C145.898 96.33 146.338 96.31 146.818 96.31C148.018 96.31 149.088 96.54 150.028 97C150.968 97.44 151.708 98.14 152.248 99.1C152.808 100.04 153.088 101.27 153.088 102.79ZM156.748 102.76C156.748 100.64 156.328 98.89 155.488 97.51C154.648 96.13 153.468 95.1 151.948 94.42C150.448 93.72 148.698 93.37 146.698 93.37C145.918 93.37 145.098 93.41 144.238 93.49C143.398 93.57 142.618 93.72 141.898 93.94C141.558 94.06 141.288 94.22 141.088 94.42C140.888 94.6 140.788 94.87 140.788 95.23V110.11C140.788 110.91 141.268 111.47 142.228 111.79C142.968 112.05 143.778 112.21 144.658 112.27C145.558 112.35 146.328 112.39 146.968 112.39C148.948 112.39 150.668 112.04 152.128 111.34C153.588 110.64 154.718 109.58 155.518 108.16C156.338 106.72 156.748 104.92 156.748 102.76ZM159.064 100.15H162.634V111.94C162.474 112 162.244 112.05 161.944 112.09C161.644 112.15 161.324 112.18 160.984 112.18C160.304 112.18 159.814 112.06 159.514 111.82C159.214 111.56 159.064 111.13 159.064 110.53V100.15ZM162.634 104.14H159.064V93.79C159.224 93.75 159.454 93.7 159.754 93.64C160.074 93.58 160.394 93.55 160.714 93.55C161.374 93.55 161.854 93.67 162.154 93.91C162.474 94.15 162.634 94.59 162.634 95.23V104.14ZM171.193 109.51C172.373 109.51 173.253 109.27 173.833 108.79C174.413 108.29 174.703 107.67 174.703 106.93C174.703 106.29 174.473 105.76 174.013 105.34C173.573 104.92 172.893 104.57 171.973 104.29L169.903 103.66C168.943 103.34 168.093 102.97 167.353 102.55C166.633 102.13 166.073 101.59 165.673 100.93C165.273 100.27 165.073 99.47 165.073 98.53C165.073 96.91 165.673 95.64 166.873 94.72C168.073 93.78 169.703 93.31 171.763 93.31C172.883 93.31 173.873 93.43 174.733 93.67C175.613 93.89 176.303 94.2 176.803 94.6C177.303 95 177.553 95.46 177.553 95.98C177.553 96.32 177.463 96.63 177.283 96.91C177.103 97.19 176.873 97.42 176.593 97.6C176.133 97.24 175.493 96.93 174.673 96.67C173.873 96.41 172.993 96.28 172.033 96.28C170.993 96.28 170.183 96.49 169.603 96.91C169.023 97.31 168.733 97.85 168.733 98.53C168.733 99.07 168.933 99.51 169.333 99.85C169.733 100.19 170.363 100.48 171.223 100.72L172.963 101.26C174.663 101.76 175.983 102.46 176.923 103.36C177.883 104.24 178.363 105.44 178.363 106.96C178.363 108.58 177.743 109.9 176.503 110.92C175.283 111.94 173.533 112.45 171.253 112.45C170.033 112.45 168.953 112.31 168.013 112.03C167.073 111.77 166.333 111.42 165.793 110.98C165.253 110.52 164.983 110.02 164.983 109.48C164.983 109.04 165.113 108.67 165.373 108.37C165.653 108.07 165.953 107.85 166.273 107.71C166.773 108.15 167.433 108.56 168.253 108.94C169.093 109.32 170.073 109.51 171.193 109.51ZM184.559 96.7L184.469 93.79H192.659C192.739 93.93 192.819 94.13 192.899 94.39C192.979 94.63 193.019 94.89 193.019 95.17C193.019 95.67 192.899 96.05 192.659 96.31C192.439 96.57 192.129 96.7 191.729 96.7H184.559ZM186.779 93.79L186.869 96.7H178.679C178.579 96.56 178.489 96.37 178.409 96.13C178.329 95.87 178.289 95.59 178.289 95.29C178.289 94.79 178.399 94.42 178.619 94.18C178.859 93.92 179.179 93.79 179.579 93.79H186.779ZM183.839 95.89H187.409V111.94C187.269 112 187.039 112.05 186.719 112.09C186.419 112.15 186.099 112.18 185.759 112.18C185.079 112.18 184.589 112.06 184.289 111.82C183.989 111.56 183.839 111.13 183.839 110.53V95.89ZM198.123 102.7H200.793C202.013 102.7 202.983 102.43 203.703 101.89C204.423 101.35 204.783 100.55 204.783 99.49C204.783 98.43 204.423 97.63 203.703 97.09C202.983 96.55 201.923 96.28 200.523 96.28C200.083 96.28 199.653 96.3 199.233 96.34C198.833 96.38 198.463 96.43 198.123 96.49V102.7ZM201.003 105.52H194.583V95.26C194.583 94.9 194.683 94.63 194.883 94.45C195.083 94.25 195.353 94.09 195.693 93.97C196.313 93.77 197.053 93.62 197.913 93.52C198.793 93.42 199.683 93.37 200.583 93.37C203.183 93.37 205.133 93.91 206.433 94.99C207.733 96.07 208.383 97.56 208.383 99.46C208.383 100.66 208.083 101.72 207.483 102.64C206.883 103.54 206.033 104.25 204.933 104.77C203.853 105.27 202.543 105.52 201.003 105.52ZM200.613 104.56L203.583 103.66C204.103 104.32 204.633 104.99 205.173 105.67C205.713 106.35 206.233 107.02 206.733 107.68C207.233 108.32 207.683 108.91 208.083 109.45C208.483 109.97 208.803 110.39 209.043 110.71C208.903 111.19 208.643 111.57 208.263 111.85C207.903 112.11 207.503 112.24 207.063 112.24C206.523 112.24 206.093 112.12 205.773 111.88C205.473 111.62 205.173 111.27 204.873 110.83L200.613 104.56ZM194.583 104.29H198.183V111.94C198.023 112 197.783 112.05 197.463 112.09C197.163 112.15 196.843 112.18 196.503 112.18C195.823 112.18 195.333 112.06 195.033 111.82C194.733 111.56 194.583 111.13 194.583 110.53V104.29ZM211.013 100.15H214.583V111.94C214.423 112 214.193 112.05 213.893 112.09C213.593 112.15 213.273 112.18 212.933 112.18C212.253 112.18 211.763 112.06 211.463 111.82C211.163 111.56 211.013 111.13 211.013 110.53V100.15ZM214.583 104.14H211.013V93.79C211.173 93.75 211.403 93.7 211.703 93.64C212.023 93.58 212.343 93.55 212.663 93.55C213.323 93.55 213.803 93.67 214.103 93.91C214.423 94.15 214.583 94.59 214.583 95.23V104.14ZM227.612 101.29V103.93H220.172V101.29H227.612ZM224.792 103.93L225.422 101.92C226.942 101.92 228.202 102.13 229.202 102.55C230.202 102.97 230.952 103.55 231.452 104.29C231.972 105.01 232.232 105.86 232.232 106.84C232.232 108.72 231.542 110.12 230.162 111.04C228.782 111.94 226.822 112.39 224.282 112.39C223.762 112.39 223.212 112.37 222.632 112.33C222.052 112.31 221.472 112.25 220.892 112.15C220.332 112.05 219.802 111.93 219.302 111.79C218.342 111.47 217.862 110.9 217.862 110.08V95.26C217.862 94.9 217.962 94.62 218.162 94.42C218.362 94.22 218.632 94.07 218.972 93.97C219.652 93.75 220.432 93.6 221.312 93.52C222.192 93.42 223.102 93.37 224.042 93.37C226.422 93.37 228.262 93.79 229.562 94.63C230.882 95.47 231.542 96.74 231.542 98.44C231.542 99.34 231.292 100.14 230.792 100.84C230.312 101.54 229.572 102.09 228.572 102.49C227.592 102.87 226.332 103.06 224.792 103.06L224.582 101.29C225.702 101.29 226.542 101.06 227.102 100.6C227.682 100.14 227.972 99.49 227.972 98.65C227.972 97.85 227.642 97.24 226.982 96.82C226.322 96.38 225.352 96.16 224.072 96.16C223.552 96.16 223.052 96.18 222.572 96.22C222.112 96.26 221.702 96.31 221.342 96.37V109.3C221.742 109.38 222.222 109.45 222.782 109.51C223.342 109.55 223.892 109.57 224.432 109.57C225.752 109.57 226.772 109.34 227.492 108.88C228.232 108.4 228.602 107.68 228.602 106.72C228.602 105.82 228.272 105.13 227.612 104.65C226.972 104.17 226.032 103.93 224.792 103.93ZM242.025 112.45C240.465 112.45 239.125 112.17 238.005 111.61C236.885 111.03 236.025 110.22 235.425 109.18C234.845 108.14 234.555 106.93 234.555 105.55V103.36H238.095V105.4C238.095 106.74 238.465 107.76 239.205 108.46C239.965 109.16 240.905 109.51 242.025 109.51C243.165 109.51 244.105 109.16 244.845 108.46C245.585 107.76 245.955 106.74 245.955 105.4V103.36H249.525V105.55C249.525 106.93 249.225 108.14 248.625 109.18C248.045 110.22 247.195 111.03 246.075 111.61C244.955 112.17 243.605 112.45 242.025 112.45ZM238.095 104.41H234.555V93.79C234.695 93.75 234.925 93.7 235.245 93.64C235.565 93.58 235.885 93.55 236.205 93.55C236.865 93.55 237.345 93.67 237.645 93.91C237.945 94.15 238.095 94.59 238.095 95.23V104.41ZM249.525 104.44H245.955V93.79C246.115 93.75 246.345 93.7 246.645 93.64C246.965 93.58 247.285 93.55 247.605 93.55C248.285 93.55 248.775 93.67 249.075 93.91C249.375 94.15 249.525 94.59 249.525 95.23V104.44ZM266.453 96.04C266.453 96.4 266.353 96.72 266.153 97C265.953 97.28 265.713 97.5 265.433 97.66C264.933 97.3 264.353 96.98 263.693 96.7C263.033 96.4 262.203 96.25 261.203 96.25C260.063 96.25 259.063 96.51 258.203 97.03C257.343 97.53 256.663 98.28 256.163 99.28C255.683 100.26 255.443 101.47 255.443 102.91C255.443 105.09 255.983 106.74 257.063 107.86C258.143 108.96 259.583 109.51 261.383 109.51C262.323 109.51 263.143 109.38 263.843 109.12C264.543 108.84 265.143 108.53 265.643 108.19C265.903 108.35 266.123 108.58 266.303 108.88C266.503 109.16 266.603 109.48 266.603 109.84C266.603 110.16 266.513 110.45 266.333 110.71C266.173 110.97 265.903 111.21 265.523 111.43C265.103 111.69 264.523 111.92 263.783 112.12C263.043 112.34 262.113 112.45 260.993 112.45C259.273 112.45 257.713 112.1 256.313 111.4C254.913 110.7 253.803 109.65 252.983 108.25C252.163 106.83 251.753 105.05 251.753 102.91C251.753 100.81 252.163 99.05 252.983 97.63C253.823 96.21 254.923 95.14 256.283 94.42C257.663 93.68 259.163 93.31 260.783 93.31C261.943 93.31 262.943 93.44 263.783 93.7C264.643 93.96 265.303 94.3 265.763 94.72C266.223 95.12 266.453 95.56 266.453 96.04ZM268.705 100.15H272.275V111.94C272.115 112 271.885 112.05 271.585 112.09C271.285 112.15 270.965 112.18 270.625 112.18C269.945 112.18 269.455 112.06 269.155 111.82C268.855 111.56 268.705 111.13 268.705 110.53V100.15ZM272.275 104.14H268.705V93.79C268.865 93.75 269.095 93.7 269.395 93.64C269.715 93.58 270.035 93.55 270.355 93.55C271.015 93.55 271.495 93.67 271.795 93.91C272.115 94.15 272.275 94.59 272.275 95.23V104.14ZM292.624 102.88C292.624 104.96 292.224 106.71 291.424 108.13C290.644 109.55 289.574 110.63 288.214 111.37C286.854 112.09 285.314 112.45 283.594 112.45C281.874 112.45 280.334 112.09 278.974 111.37C277.614 110.63 276.534 109.55 275.734 108.13C274.954 106.71 274.564 104.96 274.564 102.88C274.564 100.8 274.964 99.05 275.764 97.63C276.584 96.21 277.674 95.14 279.034 94.42C280.394 93.68 281.914 93.31 283.594 93.31C285.294 93.31 286.824 93.68 288.184 94.42C289.544 95.14 290.624 96.21 291.424 97.63C292.224 99.05 292.624 100.8 292.624 102.88ZM288.964 102.88C288.964 100.74 288.474 99.1 287.494 97.96C286.514 96.82 285.214 96.25 283.594 96.25C281.994 96.25 280.704 96.82 279.724 97.96C278.744 99.1 278.254 100.74 278.254 102.88C278.254 105.04 278.734 106.69 279.694 107.83C280.674 108.95 281.974 109.51 283.594 109.51C285.234 109.51 286.534 108.95 287.494 107.83C288.474 106.69 288.964 105.04 288.964 102.88ZM282.934 89.89L285.964 87.1C286.564 87.1 287.024 87.25 287.344 87.55C287.684 87.83 287.854 88.18 287.854 88.6C287.854 88.92 287.774 89.2 287.614 89.44C287.474 89.68 287.214 89.94 286.834 90.22L284.104 92.26C283.544 92.24 283.114 92.11 282.814 91.87C282.534 91.63 282.394 91.34 282.394 91C282.394 90.8 282.434 90.61 282.514 90.43C282.594 90.25 282.734 90.07 282.934 89.89ZM294.913 97.51L298.093 97.39C298.173 98.13 298.233 98.92 298.273 99.76C298.313 100.6 298.343 101.44 298.363 102.28C298.383 103.1 298.393 103.9 298.393 104.68V111.97C298.253 112.01 298.033 112.05 297.733 112.09C297.433 112.15 297.123 112.18 296.803 112.18C296.143 112.18 295.663 112.06 295.363 111.82C295.063 111.58 294.913 111.17 294.913 110.59V97.51ZM310.183 108.25L307.003 108.34C306.843 106.78 306.753 105.24 306.733 103.72C306.713 102.2 306.703 100.73 306.703 99.31V93.79C306.863 93.75 307.083 93.7 307.363 93.64C307.663 93.58 307.983 93.55 308.323 93.55C308.983 93.55 309.453 93.68 309.733 93.94C310.033 94.18 310.183 94.59 310.183 95.17V108.25ZM310.183 107.05V105.46V111.55C309.963 111.73 309.663 111.88 309.283 112C308.903 112.14 308.463 112.21 307.963 112.21C307.383 112.21 306.853 112.11 306.373 111.91C305.913 111.71 305.513 111.29 305.173 110.65L300.583 102.46C300.323 101.96 300.043 101.45 299.743 100.93C299.463 100.39 299.193 99.86 298.933 99.34C298.693 98.82 298.473 98.35 298.273 97.93L294.913 98.71V94.36C295.133 94.12 295.443 93.93 295.843 93.79C296.243 93.65 296.683 93.58 297.163 93.58C297.743 93.58 298.263 93.68 298.723 93.88C299.203 94.08 299.613 94.5 299.953 95.14L304.573 103.3C304.853 103.8 305.133 104.32 305.413 104.86C305.693 105.4 305.953 105.93 306.193 106.45C306.433 106.95 306.643 107.41 306.823 107.83L310.183 107.05Z" fill="black"/>
<path d="M86.6111 149.752H88.8791V159.776C88.8045 159.795 88.6645 159.841 88.4591 159.916C88.2538 159.972 88.0485 160 87.8431 160C87.4698 160 87.1711 159.888 86.9471 159.664C86.7231 159.421 86.6111 159.123 86.6111 158.768V149.752ZM88.8791 153.056L86.6111 153.028V144.208C86.6111 143.835 86.7231 143.536 86.9471 143.312C87.1711 143.088 87.4698 142.976 87.8431 142.976C88.0485 142.976 88.2538 143.004 88.4591 143.06C88.6645 143.116 88.8045 143.163 88.8791 143.2V153.056ZM87.8431 152.216V150.312H96.2711C96.3271 150.387 96.3831 150.508 96.4391 150.676C96.4951 150.844 96.5231 151.021 96.5231 151.208C96.5231 151.507 96.4485 151.749 96.2991 151.936C96.1498 152.123 95.9351 152.216 95.6551 152.216H87.8431ZM87.8431 160V158.096H97.2791C97.3351 158.171 97.3911 158.292 97.4471 158.46C97.5031 158.609 97.5311 158.787 97.5311 158.992C97.5311 159.291 97.4565 159.533 97.3071 159.72C97.1578 159.907 96.9431 160 96.6631 160H87.8431ZM87.8431 144.908V142.976H97.1391C97.1951 143.051 97.2511 143.172 97.3071 143.34C97.3631 143.508 97.3911 143.685 97.3911 143.872C97.3911 144.171 97.3165 144.423 97.1671 144.628C97.0178 144.815 96.8031 144.908 96.5231 144.908H87.8431ZM110.812 151.46V154.316H108.572V151.572C108.572 150.527 108.273 149.761 107.676 149.276C107.097 148.791 106.313 148.548 105.324 148.548C104.577 148.548 103.915 148.641 103.336 148.828C102.757 149.015 102.263 149.229 101.852 149.472V154.316H99.6121V149.584C99.6121 149.192 99.6868 148.875 99.8361 148.632C100.004 148.371 100.284 148.119 100.676 147.876C101.161 147.596 101.805 147.335 102.608 147.092C103.411 146.831 104.316 146.7 105.324 146.7C107.023 146.7 108.357 147.092 109.328 147.876C110.317 148.641 110.812 149.836 110.812 151.46ZM99.6121 152.776H101.852V159.944C101.759 159.981 101.619 160.019 101.432 160.056C101.245 160.112 101.04 160.14 100.816 160.14C100.424 160.14 100.125 160.065 99.9201 159.916C99.7148 159.748 99.6121 159.487 99.6121 159.132V152.776ZM108.572 152.776H110.812V159.944C110.719 159.981 110.569 160.019 110.364 160.056C110.177 160.112 109.981 160.14 109.776 160.14C109.365 160.14 109.057 160.065 108.852 159.916C108.665 159.748 108.572 159.487 108.572 159.132V152.776ZM113.635 152.608H115.875V156.472C115.875 157.219 116.089 157.751 116.519 158.068C116.948 158.367 117.536 158.516 118.283 158.516C118.6 158.516 118.955 158.46 119.347 158.348C119.739 158.236 120.065 158.105 120.327 157.956C120.439 158.068 120.541 158.208 120.635 158.376C120.728 158.544 120.775 158.74 120.775 158.964C120.775 159.375 120.532 159.711 120.047 159.972C119.561 160.233 118.889 160.364 118.031 160.364C116.724 160.364 115.66 160.075 114.839 159.496C114.036 158.917 113.635 157.956 113.635 156.612V152.608ZM114.783 149.192V147.344H120.467C120.523 147.419 120.579 147.54 120.635 147.708C120.691 147.876 120.719 148.053 120.719 148.24C120.719 148.539 120.644 148.772 120.495 148.94C120.345 149.108 120.14 149.192 119.879 149.192H114.783ZM115.875 153.448H113.635V143.312C113.728 143.275 113.868 143.237 114.055 143.2C114.26 143.144 114.475 143.116 114.699 143.116C115.091 143.116 115.38 143.2 115.567 143.368C115.772 143.517 115.875 143.769 115.875 144.124V153.448ZM124.865 149.472V153.896H122.625V149.64C122.625 149.211 122.699 148.875 122.849 148.632C123.017 148.371 123.287 148.119 123.661 147.876C124.146 147.559 124.809 147.288 125.649 147.064C126.489 146.821 127.422 146.7 128.449 146.7C129.942 146.7 130.689 147.073 130.689 147.82C130.689 148.007 130.661 148.184 130.605 148.352C130.549 148.501 130.474 148.632 130.381 148.744C130.194 148.707 129.951 148.669 129.653 148.632C129.354 148.595 129.055 148.576 128.757 148.576C127.898 148.576 127.142 148.669 126.489 148.856C125.835 149.024 125.294 149.229 124.865 149.472ZM122.625 152.608L124.865 152.944V159.944C124.771 159.981 124.631 160.019 124.445 160.056C124.258 160.112 124.053 160.14 123.829 160.14C123.437 160.14 123.138 160.065 122.933 159.916C122.727 159.748 122.625 159.487 122.625 159.132V152.608ZM132.455 154.96L132.343 153.196L140.799 152.048C140.724 151.021 140.369 150.181 139.735 149.528C139.1 148.856 138.223 148.52 137.103 148.52C135.945 148.52 134.984 148.94 134.219 149.78C133.472 150.601 133.099 151.787 133.099 153.336V153.952C133.229 155.445 133.715 156.584 134.555 157.368C135.413 158.133 136.58 158.516 138.055 158.516C138.839 158.516 139.548 158.385 140.183 158.124C140.817 157.863 141.321 157.583 141.695 157.284C141.9 157.415 142.059 157.573 142.171 157.76C142.301 157.928 142.367 158.124 142.367 158.348C142.367 158.703 142.161 159.039 141.751 159.356C141.359 159.655 140.827 159.897 140.155 160.084C139.501 160.271 138.764 160.364 137.943 160.364C136.505 160.364 135.255 160.103 134.191 159.58C133.145 159.057 132.333 158.283 131.755 157.256C131.195 156.211 130.915 154.941 130.915 153.448C130.915 152.384 131.064 151.441 131.363 150.62C131.68 149.78 132.109 149.071 132.651 148.492C133.211 147.913 133.873 147.475 134.639 147.176C135.404 146.859 136.235 146.7 137.131 146.7C138.269 146.7 139.268 146.943 140.127 147.428C141.004 147.913 141.685 148.595 142.171 149.472C142.675 150.331 142.927 151.32 142.927 152.44C142.927 152.851 142.833 153.149 142.647 153.336C142.46 153.504 142.199 153.607 141.863 153.644L132.455 154.96ZM150.138 159.608C149.055 159.608 148.057 159.403 147.142 158.992C146.227 158.563 145.49 157.872 144.93 156.92C144.37 155.968 144.09 154.708 144.09 153.14C144.09 151.721 144.361 150.536 144.902 149.584C145.462 148.632 146.227 147.913 147.198 147.428C148.169 146.943 149.279 146.7 150.53 146.7C151.389 146.7 152.173 146.812 152.882 147.036C153.61 147.241 154.217 147.503 154.702 147.82C154.982 148.007 155.206 148.221 155.374 148.464C155.561 148.688 155.654 148.968 155.654 149.304V157.956H153.414V149.332C153.097 149.127 152.695 148.949 152.21 148.8C151.743 148.632 151.183 148.548 150.53 148.548C149.279 148.548 148.271 148.931 147.506 149.696C146.741 150.461 146.358 151.6 146.358 153.112C146.358 154.792 146.741 155.987 147.506 156.696C148.29 157.405 149.251 157.76 150.39 157.76C151.211 157.76 151.874 157.62 152.378 157.34C152.882 157.06 153.283 156.752 153.582 156.416L153.694 158.404C153.414 158.703 152.966 158.983 152.35 159.244C151.753 159.487 151.015 159.608 150.138 159.608ZM153.414 160.42V157.48H155.654V160.56C155.654 161.792 155.383 162.781 154.842 163.528C154.319 164.275 153.591 164.816 152.658 165.152C151.743 165.488 150.707 165.656 149.55 165.656C148.617 165.656 147.814 165.553 147.142 165.348C146.47 165.143 146.013 164.975 145.77 164.844C145.21 164.527 144.93 164.125 144.93 163.64C144.93 163.379 144.986 163.155 145.098 162.968C145.229 162.8 145.387 162.669 145.574 162.576C145.966 162.875 146.517 163.145 147.226 163.388C147.954 163.649 148.729 163.78 149.55 163.78C150.801 163.78 151.753 163.509 152.406 162.968C153.078 162.427 153.414 161.577 153.414 160.42ZM163.021 160.392C161.267 160.392 159.904 160.047 158.933 159.356C157.981 158.665 157.505 157.667 157.505 156.36C157.505 155.147 157.907 154.223 158.709 153.588C159.531 152.935 160.66 152.543 162.097 152.412L166.073 152.02V151.236C166.073 150.303 165.793 149.621 165.233 149.192C164.673 148.763 163.917 148.548 162.965 148.548C162.2 148.548 161.463 148.66 160.753 148.884C160.063 149.108 159.447 149.36 158.905 149.64C158.756 149.509 158.616 149.36 158.485 149.192C158.373 149.005 158.317 148.819 158.317 148.632C158.317 148.147 158.588 147.773 159.129 147.512C159.633 147.251 160.212 147.055 160.865 146.924C161.537 146.775 162.247 146.7 162.993 146.7C164.617 146.7 165.905 147.064 166.857 147.792C167.809 148.52 168.285 149.668 168.285 151.236V157.872C168.285 158.283 168.201 158.6 168.033 158.824C167.884 159.029 167.651 159.225 167.333 159.412C166.885 159.655 166.288 159.879 165.541 160.084C164.795 160.289 163.955 160.392 163.021 160.392ZM163.021 158.544C163.805 158.544 164.449 158.469 164.953 158.32C165.476 158.152 165.849 157.993 166.073 157.844V153.784L162.601 154.148C161.631 154.223 160.912 154.437 160.445 154.792C159.979 155.147 159.745 155.66 159.745 156.332C159.745 157.023 160.016 157.564 160.557 157.956C161.117 158.348 161.939 158.544 163.021 158.544ZM180.695 160.364C179.893 160.364 179.137 160.243 178.427 160C177.737 159.776 177.233 159.524 176.915 159.244V157.172C177.289 157.527 177.755 157.844 178.315 158.124C178.894 158.385 179.585 158.516 180.387 158.516C181.694 158.516 182.739 158.124 183.523 157.34C184.326 156.537 184.727 155.259 184.727 153.504C184.727 152.272 184.522 151.301 184.111 150.592C183.719 149.864 183.187 149.341 182.515 149.024C181.862 148.707 181.153 148.548 180.387 148.548C179.715 148.548 179.146 148.632 178.679 148.8C178.213 148.968 177.793 149.155 177.419 149.36V158.656H175.179V149.416C175.179 149.043 175.245 148.744 175.375 148.52C175.506 148.296 175.777 148.063 176.187 147.82C176.691 147.54 177.289 147.288 177.979 147.064C178.689 146.821 179.491 146.7 180.387 146.7C181.619 146.7 182.73 146.943 183.719 147.428C184.727 147.895 185.521 148.632 186.099 149.64C186.697 150.629 186.995 151.917 186.995 153.504C186.995 155.035 186.725 156.313 186.183 157.34C185.661 158.348 184.923 159.104 183.971 159.608C183.019 160.112 181.927 160.364 180.695 160.364ZM176.383 165.236C175.991 165.236 175.693 165.152 175.487 164.984C175.282 164.816 175.179 164.555 175.179 164.2V157.844L177.419 157.9V165.04C177.326 165.077 177.186 165.115 176.999 165.152C176.813 165.208 176.607 165.236 176.383 165.236ZM189.876 154.96L189.764 153.196L198.22 152.048C198.146 151.021 197.791 150.181 197.156 149.528C196.522 148.856 195.644 148.52 194.524 148.52C193.367 148.52 192.406 148.94 191.64 149.78C190.894 150.601 190.52 151.787 190.52 153.336V153.952C190.651 155.445 191.136 156.584 191.976 157.368C192.835 158.133 194.002 158.516 195.476 158.516C196.26 158.516 196.97 158.385 197.604 158.124C198.239 157.863 198.743 157.583 199.116 157.284C199.322 157.415 199.48 157.573 199.592 157.76C199.723 157.928 199.788 158.124 199.788 158.348C199.788 158.703 199.583 159.039 199.172 159.356C198.78 159.655 198.248 159.897 197.576 160.084C196.923 160.271 196.186 160.364 195.364 160.364C193.927 160.364 192.676 160.103 191.612 159.58C190.567 159.057 189.755 158.283 189.176 157.256C188.616 156.211 188.336 154.941 188.336 153.448C188.336 152.384 188.486 151.441 188.784 150.62C189.102 149.78 189.531 149.071 190.072 148.492C190.632 147.913 191.295 147.475 192.06 147.176C192.826 146.859 193.656 146.7 194.552 146.7C195.691 146.7 196.69 146.943 197.548 147.428C198.426 147.913 199.107 148.595 199.592 149.472C200.096 150.331 200.348 151.32 200.348 152.44C200.348 152.851 200.255 153.149 200.068 153.336C199.882 153.504 199.62 153.607 199.284 153.644L189.876 154.96ZM204.424 149.472V153.896H202.184V149.64C202.184 149.211 202.259 148.875 202.408 148.632C202.576 148.371 202.847 148.119 203.22 147.876C203.705 147.559 204.368 147.288 205.208 147.064C206.048 146.821 206.981 146.7 208.008 146.7C209.501 146.7 210.248 147.073 210.248 147.82C210.248 148.007 210.22 148.184 210.164 148.352C210.108 148.501 210.033 148.632 209.94 148.744C209.753 148.707 209.511 148.669 209.212 148.632C208.913 148.595 208.615 148.576 208.316 148.576C207.457 148.576 206.701 148.669 206.048 148.856C205.395 149.024 204.853 149.229 204.424 149.472ZM202.184 152.608L204.424 152.944V159.944C204.331 159.981 204.191 160.019 204.004 160.056C203.817 160.112 203.612 160.14 203.388 160.14C202.996 160.14 202.697 160.065 202.492 159.916C202.287 159.748 202.184 159.487 202.184 159.132V152.608ZM220.603 156.556C220.603 157.751 220.165 158.684 219.287 159.356C218.41 160.028 217.141 160.364 215.479 160.364C214.061 160.364 212.903 160.149 212.007 159.72C211.111 159.272 210.663 158.787 210.663 158.264C210.663 158.04 210.719 157.825 210.831 157.62C210.962 157.396 211.149 157.219 211.391 157.088C211.895 157.443 212.483 157.769 213.155 158.068C213.827 158.367 214.593 158.516 215.451 158.516C217.393 158.516 218.363 157.863 218.363 156.556C218.363 156.015 218.195 155.576 217.859 155.24C217.542 154.885 217.066 154.633 216.431 154.484L214.107 153.868C212.969 153.588 212.138 153.159 211.615 152.58C211.093 151.983 210.831 151.245 210.831 150.368C210.831 149.379 211.233 148.52 212.035 147.792C212.838 147.064 214.061 146.7 215.703 146.7C216.581 146.7 217.346 146.793 217.999 146.98C218.653 147.148 219.157 147.381 219.511 147.68C219.885 147.96 220.071 148.268 220.071 148.604C220.071 148.847 220.006 149.061 219.875 149.248C219.763 149.435 219.605 149.575 219.399 149.668C219.175 149.519 218.886 149.36 218.531 149.192C218.195 149.005 217.794 148.856 217.327 148.744C216.861 148.613 216.347 148.548 215.787 148.548C214.966 148.548 214.303 148.707 213.799 149.024C213.295 149.341 213.043 149.789 213.043 150.368C213.043 150.779 213.183 151.143 213.463 151.46C213.762 151.759 214.229 151.983 214.863 152.132L216.795 152.608C218.065 152.907 219.017 153.383 219.651 154.036C220.286 154.671 220.603 155.511 220.603 156.556ZM234.748 153.532C234.748 154.913 234.486 156.117 233.964 157.144C233.441 158.171 232.704 158.964 231.752 159.524C230.8 160.084 229.68 160.364 228.392 160.364C227.104 160.364 225.974 160.084 225.004 159.524C224.052 158.964 223.314 158.171 222.792 157.144C222.269 156.117 222.008 154.913 222.008 153.532C222.008 152.132 222.269 150.928 222.792 149.92C223.333 148.893 224.08 148.1 225.032 147.54C226.002 146.98 227.122 146.7 228.392 146.7C229.661 146.7 230.772 146.98 231.724 147.54C232.676 148.1 233.413 148.893 233.936 149.92C234.477 150.928 234.748 152.132 234.748 153.532ZM228.392 148.548C227.141 148.548 226.142 148.996 225.396 149.892C224.668 150.769 224.304 151.983 224.304 153.532C224.304 155.1 224.658 156.323 225.368 157.2C226.096 158.077 227.104 158.516 228.392 158.516C229.661 158.516 230.65 158.077 231.36 157.2C232.088 156.304 232.452 155.081 232.452 153.532C232.452 151.983 232.088 150.769 231.36 149.892C230.65 148.996 229.661 148.548 228.392 148.548ZM248.012 151.46V154.316H245.772V151.572C245.772 150.527 245.473 149.761 244.876 149.276C244.297 148.791 243.513 148.548 242.524 148.548C241.777 148.548 241.115 148.641 240.536 148.828C239.957 149.015 239.463 149.229 239.052 149.472V154.316H236.812V149.584C236.812 149.192 236.887 148.875 237.036 148.632C237.204 148.371 237.484 148.119 237.876 147.876C238.361 147.596 239.005 147.335 239.808 147.092C240.611 146.831 241.516 146.7 242.524 146.7C244.223 146.7 245.557 147.092 246.528 147.876C247.517 148.641 248.012 149.836 248.012 151.46ZM236.812 152.776H239.052V159.944C238.959 159.981 238.819 160.019 238.632 160.056C238.445 160.112 238.24 160.14 238.016 160.14C237.624 160.14 237.325 160.065 237.12 159.916C236.915 159.748 236.812 159.487 236.812 159.132V152.776ZM245.772 152.776H248.012V159.944C247.919 159.981 247.769 160.019 247.564 160.056C247.377 160.112 247.181 160.14 246.976 160.14C246.565 160.14 246.257 160.065 246.052 159.916C245.865 159.748 245.772 159.487 245.772 159.132V152.776ZM255.427 160.392C253.672 160.392 252.309 160.047 251.339 159.356C250.387 158.665 249.911 157.667 249.911 156.36C249.911 155.147 250.312 154.223 251.115 153.588C251.936 152.935 253.065 152.543 254.503 152.412L258.479 152.02V151.236C258.479 150.303 258.199 149.621 257.639 149.192C257.079 148.763 256.323 148.548 255.371 148.548C254.605 148.548 253.868 148.66 253.159 148.884C252.468 149.108 251.852 149.36 251.311 149.64C251.161 149.509 251.021 149.36 250.891 149.192C250.779 149.005 250.723 148.819 250.723 148.632C250.723 148.147 250.993 147.773 251.535 147.512C252.039 147.251 252.617 147.055 253.271 146.924C253.943 146.775 254.652 146.7 255.399 146.7C257.023 146.7 258.311 147.064 259.263 147.792C260.215 148.52 260.691 149.668 260.691 151.236V157.872C260.691 158.283 260.607 158.6 260.439 158.824C260.289 159.029 260.056 159.225 259.739 159.412C259.291 159.655 258.693 159.879 257.947 160.084C257.2 160.289 256.36 160.392 255.427 160.392ZM255.427 158.544C256.211 158.544 256.855 158.469 257.359 158.32C257.881 158.152 258.255 157.993 258.479 157.844V153.784L255.007 154.148C254.036 154.223 253.317 154.437 252.851 154.792C252.384 155.147 252.151 155.66 252.151 156.332C252.151 157.023 252.421 157.564 252.963 157.956C253.523 158.348 254.344 158.544 255.427 158.544ZM263.603 152.608L265.843 152.944V159.944C265.75 159.981 265.61 160.019 265.423 160.056C265.237 160.112 265.031 160.14 264.807 160.14C264.415 160.14 264.117 160.065 263.911 159.916C263.706 159.748 263.603 159.487 263.603 159.132V152.608ZM265.843 154.008L263.603 153.7V141.856C263.697 141.819 263.837 141.781 264.023 141.744C264.229 141.688 264.434 141.66 264.639 141.66C265.05 141.66 265.349 141.744 265.535 141.912C265.741 142.061 265.843 142.313 265.843 142.668V154.008ZM268.729 142.976C268.729 142.584 268.869 142.257 269.149 141.996C269.429 141.716 269.774 141.576 270.185 141.576C270.614 141.576 270.959 141.716 271.221 141.996C271.482 142.257 271.613 142.584 271.613 142.976C271.613 143.368 271.482 143.704 271.221 143.984C270.959 144.245 270.614 144.376 270.185 144.376C269.774 144.376 269.429 144.245 269.149 143.984C268.869 143.704 268.729 143.368 268.729 142.976ZM269.065 152.608H271.305V159.944C271.211 159.981 271.071 160.019 270.885 160.056C270.698 160.112 270.493 160.14 270.269 160.14C269.877 160.14 269.578 160.065 269.373 159.916C269.167 159.748 269.065 159.487 269.065 159.132V152.608ZM271.305 153.7H269.065V147.12C269.158 147.083 269.298 147.045 269.485 147.008C269.69 146.952 269.905 146.924 270.129 146.924C270.521 146.924 270.81 147.008 270.997 147.176C271.202 147.325 271.305 147.587 271.305 147.96V153.7ZM274.783 160H273.887C273.756 159.888 273.644 159.748 273.551 159.58C273.476 159.393 273.439 159.207 273.439 159.02C273.439 158.796 273.485 158.591 273.579 158.404C273.691 158.199 273.812 158.003 273.943 157.816L282.539 147.064H283.407C283.556 147.195 283.668 147.344 283.743 147.512C283.836 147.68 283.883 147.867 283.883 148.072C283.883 148.277 283.836 148.473 283.743 148.66C283.649 148.847 283.519 149.043 283.351 149.248L274.783 160ZM283.099 147.064V148.912H273.859C273.803 148.819 273.747 148.688 273.691 148.52C273.635 148.352 273.607 148.175 273.607 147.988C273.607 147.671 273.681 147.437 273.831 147.288C273.98 147.139 274.185 147.064 274.447 147.064H283.099ZM274.055 160V158.18H283.827C283.883 158.255 283.939 158.376 283.995 158.544C284.051 158.693 284.079 158.871 284.079 159.076C284.079 159.375 284.004 159.608 283.855 159.776C283.705 159.925 283.491 160 283.211 160H274.055ZM290.624 160.392C288.869 160.392 287.506 160.047 286.536 159.356C285.584 158.665 285.108 157.667 285.108 156.36C285.108 155.147 285.509 154.223 286.312 153.588C287.133 152.935 288.262 152.543 289.7 152.412L293.676 152.02V151.236C293.676 150.303 293.396 149.621 292.836 149.192C292.276 148.763 291.52 148.548 290.568 148.548C289.802 148.548 289.065 148.66 288.356 148.884C287.665 149.108 287.049 149.36 286.508 149.64C286.358 149.509 286.218 149.36 286.088 149.192C285.976 149.005 285.92 148.819 285.92 148.632C285.92 148.147 286.19 147.773 286.732 147.512C287.236 147.251 287.814 147.055 288.468 146.924C289.14 146.775 289.849 146.7 290.596 146.7C292.22 146.7 293.508 147.064 294.46 147.792C295.412 148.52 295.888 149.668 295.888 151.236V157.872C295.888 158.283 295.804 158.6 295.636 158.824C295.486 159.029 295.253 159.225 294.936 159.412C294.488 159.655 293.89 159.879 293.144 160.084C292.397 160.289 291.557 160.392 290.624 160.392ZM290.624 158.544C291.408 158.544 292.052 158.469 292.556 158.32C293.078 158.152 293.452 157.993 293.676 157.844V153.784L290.204 154.148C289.233 154.223 288.514 154.437 288.048 154.792C287.581 155.147 287.348 155.66 287.348 156.332C287.348 157.023 287.618 157.564 288.16 157.956C288.72 158.348 289.541 158.544 290.624 158.544ZM307.396 157.788V148.38L309.636 148.352V157.872C309.636 158.227 309.552 158.516 309.384 158.74C309.235 158.945 308.992 159.151 308.656 159.356C308.283 159.599 307.751 159.823 307.06 160.028C306.369 160.252 305.576 160.364 304.68 160.364C303.336 160.364 302.151 160.131 301.124 159.664C300.097 159.197 299.295 158.469 298.716 157.48C298.137 156.472 297.848 155.175 297.848 153.588C297.848 151.964 298.128 150.648 298.688 149.64C299.267 148.632 300.041 147.895 301.012 147.428C301.983 146.943 303.047 146.7 304.204 146.7C304.932 146.7 305.623 146.803 306.276 147.008C306.929 147.213 307.443 147.465 307.816 147.764V149.836C307.461 149.481 306.995 149.183 306.416 148.94C305.856 148.679 305.193 148.548 304.428 148.548C303.663 148.548 302.953 148.716 302.3 149.052C301.647 149.369 301.124 149.901 300.732 150.648C300.34 151.395 300.144 152.393 300.144 153.644C300.144 155.343 300.555 156.584 301.376 157.368C302.197 158.133 303.289 158.516 304.652 158.516C305.305 158.516 305.837 158.451 306.248 158.32C306.677 158.171 307.06 157.993 307.396 157.788ZM309.636 148.912L307.396 148.94V141.856C307.489 141.819 307.629 141.781 307.816 141.744C308.021 141.688 308.227 141.66 308.432 141.66C308.843 141.66 309.141 141.744 309.328 141.912C309.533 142.061 309.636 142.313 309.636 142.668V148.912ZM317.109 160.392C315.354 160.392 313.991 160.047 313.021 159.356C312.069 158.665 311.593 157.667 311.593 156.36C311.593 155.147 311.994 154.223 312.797 153.588C313.618 152.935 314.747 152.543 316.185 152.412L320.161 152.02V151.236C320.161 150.303 319.881 149.621 319.321 149.192C318.761 148.763 318.005 148.548 317.053 148.548C316.287 148.548 315.55 148.66 314.841 148.884C314.15 149.108 313.534 149.36 312.993 149.64C312.843 149.509 312.703 149.36 312.573 149.192C312.461 149.005 312.405 148.819 312.405 148.632C312.405 148.147 312.675 147.773 313.217 147.512C313.721 147.251 314.299 147.055 314.953 146.924C315.625 146.775 316.334 146.7 317.081 146.7C318.705 146.7 319.993 147.064 320.945 147.792C321.897 148.52 322.373 149.668 322.373 151.236V157.872C322.373 158.283 322.289 158.6 322.121 158.824C321.971 159.029 321.738 159.225 321.421 159.412C320.973 159.655 320.375 159.879 319.629 160.084C318.882 160.289 318.042 160.392 317.109 160.392ZM317.109 158.544C317.893 158.544 318.537 158.469 319.041 158.32C319.563 158.152 319.937 157.993 320.161 157.844V153.784L316.689 154.148C315.718 154.223 314.999 154.437 314.533 154.792C314.066 155.147 313.833 155.66 313.833 156.332C313.833 157.023 314.103 157.564 314.645 157.956C315.205 158.348 316.026 158.544 317.109 158.544ZM335.259 148.576C333.989 148.576 332.935 149.005 332.095 149.864C331.255 150.723 330.835 151.955 330.835 153.56C330.835 155.147 331.236 156.369 332.039 157.228C332.86 158.087 333.933 158.516 335.259 158.516C336.043 158.516 336.696 158.413 337.219 158.208C337.741 157.984 338.208 157.732 338.619 157.452C338.824 157.564 338.992 157.704 339.123 157.872C339.253 158.04 339.319 158.245 339.319 158.488C339.319 159.011 338.927 159.459 338.143 159.832C337.377 160.187 336.416 160.364 335.259 160.364C333.971 160.364 332.813 160.121 331.787 159.636C330.779 159.132 329.985 158.376 329.407 157.368C328.828 156.36 328.539 155.091 328.539 153.56C328.539 152.048 328.837 150.788 329.435 149.78C330.032 148.753 330.835 147.988 331.843 147.484C332.869 146.961 333.989 146.7 335.203 146.7C336.36 146.7 337.312 146.896 338.059 147.288C338.824 147.68 339.207 148.128 339.207 148.632C339.207 148.856 339.141 149.052 339.011 149.22C338.88 149.388 338.712 149.519 338.507 149.612C338.096 149.332 337.639 149.089 337.135 148.884C336.649 148.679 336.024 148.576 335.259 148.576ZM352.922 153.532C352.922 154.913 352.66 156.117 352.138 157.144C351.615 158.171 350.878 158.964 349.926 159.524C348.974 160.084 347.854 160.364 346.566 160.364C345.278 160.364 344.148 160.084 343.178 159.524C342.226 158.964 341.488 158.171 340.966 157.144C340.443 156.117 340.182 154.913 340.182 153.532C340.182 152.132 340.443 150.928 340.966 149.92C341.507 148.893 342.254 148.1 343.206 147.54C344.176 146.98 345.296 146.7 346.566 146.7C347.835 146.7 348.946 146.98 349.898 147.54C350.85 148.1 351.587 148.893 352.11 149.92C352.651 150.928 352.922 152.132 352.922 153.532ZM346.566 148.548C345.315 148.548 344.316 148.996 343.57 149.892C342.842 150.769 342.478 151.983 342.478 153.532C342.478 155.1 342.832 156.323 343.542 157.2C344.27 158.077 345.278 158.516 346.566 158.516C347.835 158.516 348.824 158.077 349.534 157.2C350.262 156.304 350.626 155.081 350.626 153.532C350.626 151.983 350.262 150.769 349.534 149.892C348.824 148.996 347.835 148.548 346.566 148.548ZM366.186 151.46V154.316H363.946V151.572C363.946 150.527 363.648 149.761 363.05 149.276C362.472 148.791 361.688 148.548 360.698 148.548C359.952 148.548 359.289 148.641 358.71 148.828C358.132 149.015 357.637 149.229 357.226 149.472V154.316H354.986V149.584C354.986 149.192 355.061 148.875 355.21 148.632C355.378 148.371 355.658 148.119 356.05 147.876C356.536 147.596 357.18 147.335 357.982 147.092C358.785 146.831 359.69 146.7 360.698 146.7C362.397 146.7 363.732 147.092 364.702 147.876C365.692 148.641 366.186 149.836 366.186 151.46ZM354.986 152.776H357.226V159.944C357.133 159.981 356.993 160.019 356.806 160.056C356.62 160.112 356.414 160.14 356.19 160.14C355.798 160.14 355.5 160.065 355.294 159.916C355.089 159.748 354.986 159.487 354.986 159.132V152.776ZM363.946 152.776H366.186V159.944C366.093 159.981 365.944 160.019 365.738 160.056C365.552 160.112 365.356 160.14 365.15 160.14C364.74 160.14 364.432 160.065 364.226 159.916C364.04 159.748 363.946 159.487 363.946 159.132V152.776ZM92.9444 176.04V179.26H90.7044V176.208C90.7044 175.293 90.4337 174.621 89.8924 174.192C89.3697 173.763 88.6697 173.548 87.7924 173.548C87.2137 173.548 86.6537 173.641 86.1124 173.828C85.5711 174.015 85.1137 174.229 84.7404 174.472V179.26H82.5004V174.584C82.5004 174.211 82.5751 173.893 82.7244 173.632C82.8924 173.371 83.1724 173.119 83.5644 172.876C84.0684 172.559 84.7031 172.288 85.4684 172.064C86.2524 171.821 87.0364 171.7 87.8204 171.7C88.7724 171.7 89.6124 171.849 90.3404 172.148C91.0684 172.428 91.6097 172.82 91.9644 173.324C92.0764 173.436 92.1697 173.539 92.2444 173.632C92.3191 173.725 92.3937 173.847 92.4684 173.996C92.5991 174.22 92.7111 174.509 92.8044 174.864C92.8977 175.219 92.9444 175.611 92.9444 176.04ZM101.148 176.096V179.26H98.9084V176.208C98.9084 175.293 98.6471 174.621 98.1244 174.192C97.6017 173.763 96.9017 173.548 96.0244 173.548C95.3711 173.548 94.7364 173.688 94.1204 173.968C93.5231 174.229 92.9817 174.612 92.4964 175.116L91.6004 173.492C92.0857 173.007 92.7204 172.587 93.5044 172.232C94.2884 171.877 95.1844 171.7 96.1924 171.7C97.2004 171.7 98.0684 171.859 98.7964 172.176C99.5431 172.493 100.122 172.979 100.532 173.632C100.943 174.285 101.148 175.107 101.148 176.096ZM82.5004 177.776H84.7404V184.944C84.6471 184.981 84.5071 185.019 84.3204 185.056C84.1337 185.112 83.9284 185.14 83.7044 185.14C83.3124 185.14 83.0137 185.065 82.8084 184.916C82.6031 184.748 82.5004 184.487 82.5004 184.132V177.776ZM90.7044 177.776H92.9444V184.944C92.8511 184.981 92.7017 185.019 92.4964 185.056C92.3097 185.112 92.1137 185.14 91.9084 185.14C91.4977 185.14 91.1897 185.065 90.9844 184.916C90.7977 184.748 90.7044 184.487 90.7044 184.132V177.776ZM98.9084 177.776H101.148V184.944C101.055 184.981 100.906 185.019 100.7 185.056C100.514 185.112 100.318 185.14 100.112 185.14C99.7017 185.14 99.3937 185.065 99.1884 184.916C99.0017 184.748 98.9084 184.487 98.9084 184.132V177.776ZM104.772 179.96L104.66 178.196L113.116 177.048C113.041 176.021 112.686 175.181 112.052 174.528C111.417 173.856 110.54 173.52 109.42 173.52C108.262 173.52 107.301 173.94 106.536 174.78C105.789 175.601 105.416 176.787 105.416 178.336V178.952C105.546 180.445 106.032 181.584 106.872 182.368C107.73 183.133 108.897 183.516 110.372 183.516C111.156 183.516 111.865 183.385 112.5 183.124C113.134 182.863 113.638 182.583 114.012 182.284C114.217 182.415 114.376 182.573 114.488 182.76C114.618 182.928 114.684 183.124 114.684 183.348C114.684 183.703 114.478 184.039 114.068 184.356C113.676 184.655 113.144 184.897 112.472 185.084C111.818 185.271 111.081 185.364 110.26 185.364C108.822 185.364 107.572 185.103 106.508 184.58C105.462 184.057 104.65 183.283 104.072 182.256C103.512 181.211 103.232 179.941 103.232 178.448C103.232 177.384 103.381 176.441 103.68 175.62C103.997 174.78 104.426 174.071 104.968 173.492C105.528 172.913 106.19 172.475 106.956 172.176C107.721 171.859 108.552 171.7 109.448 171.7C110.586 171.7 111.585 171.943 112.444 172.428C113.321 172.913 114.002 173.595 114.488 174.472C114.992 175.331 115.244 176.32 115.244 177.44C115.244 177.851 115.15 178.149 114.964 178.336C114.777 178.504 114.516 178.607 114.18 178.644L104.772 179.96ZM128.279 176.46V179.316H126.039V176.572C126.039 175.527 125.741 174.761 125.143 174.276C124.565 173.791 123.781 173.548 122.791 173.548C122.045 173.548 121.382 173.641 120.803 173.828C120.225 174.015 119.73 174.229 119.319 174.472V179.316H117.079V174.584C117.079 174.192 117.154 173.875 117.303 173.632C117.471 173.371 117.751 173.119 118.143 172.876C118.629 172.596 119.273 172.335 120.075 172.092C120.878 171.831 121.783 171.7 122.791 171.7C124.49 171.7 125.825 172.092 126.795 172.876C127.785 173.641 128.279 174.836 128.279 176.46ZM117.079 177.776H119.319V184.944C119.226 184.981 119.086 185.019 118.899 185.056C118.713 185.112 118.507 185.14 118.283 185.14C117.891 185.14 117.593 185.065 117.387 184.916C117.182 184.748 117.079 184.487 117.079 184.132V177.776ZM126.039 177.776H128.279V184.944C128.186 184.981 128.037 185.019 127.831 185.056C127.645 185.112 127.449 185.14 127.243 185.14C126.833 185.14 126.525 185.065 126.319 184.916C126.133 184.748 126.039 184.487 126.039 184.132V177.776ZM140.202 181.556C140.202 182.751 139.763 183.684 138.886 184.356C138.008 185.028 136.739 185.364 135.078 185.364C133.659 185.364 132.502 185.149 131.606 184.72C130.71 184.272 130.262 183.787 130.262 183.264C130.262 183.04 130.318 182.825 130.43 182.62C130.56 182.396 130.747 182.219 130.99 182.088C131.494 182.443 132.082 182.769 132.754 183.068C133.426 183.367 134.191 183.516 135.05 183.516C136.991 183.516 137.962 182.863 137.962 181.556C137.962 181.015 137.794 180.576 137.458 180.24C137.14 179.885 136.664 179.633 136.03 179.484L133.706 178.868C132.567 178.588 131.736 178.159 131.214 177.58C130.691 176.983 130.43 176.245 130.43 175.368C130.43 174.379 130.831 173.52 131.634 172.792C132.436 172.064 133.659 171.7 135.302 171.7C136.179 171.7 136.944 171.793 137.598 171.98C138.251 172.148 138.755 172.381 139.11 172.68C139.483 172.96 139.67 173.268 139.67 173.604C139.67 173.847 139.604 174.061 139.474 174.248C139.362 174.435 139.203 174.575 138.998 174.668C138.774 174.519 138.484 174.36 138.13 174.192C137.794 174.005 137.392 173.856 136.926 173.744C136.459 173.613 135.946 173.548 135.386 173.548C134.564 173.548 133.902 173.707 133.398 174.024C132.894 174.341 132.642 174.789 132.642 175.368C132.642 175.779 132.782 176.143 133.062 176.46C133.36 176.759 133.827 176.983 134.462 177.132L136.394 177.608C137.663 177.907 138.615 178.383 139.25 179.036C139.884 179.671 140.202 180.511 140.202 181.556ZM147.118 185.392C145.363 185.392 144.001 185.047 143.03 184.356C142.078 183.665 141.602 182.667 141.602 181.36C141.602 180.147 142.003 179.223 142.806 178.588C143.627 177.935 144.757 177.543 146.194 177.412L150.17 177.02V176.236C150.17 175.303 149.89 174.621 149.33 174.192C148.77 173.763 148.014 173.548 147.062 173.548C146.297 173.548 145.559 173.66 144.85 173.884C144.159 174.108 143.543 174.36 143.002 174.64C142.853 174.509 142.713 174.36 142.582 174.192C142.47 174.005 142.414 173.819 142.414 173.632C142.414 173.147 142.685 172.773 143.226 172.512C143.73 172.251 144.309 172.055 144.962 171.924C145.634 171.775 146.343 171.7 147.09 171.7C148.714 171.7 150.002 172.064 150.954 172.792C151.906 173.52 152.382 174.668 152.382 176.236V182.872C152.382 183.283 152.298 183.6 152.13 183.824C151.981 184.029 151.747 184.225 151.43 184.412C150.982 184.655 150.385 184.879 149.638 185.084C148.891 185.289 148.051 185.392 147.118 185.392ZM147.118 183.544C147.902 183.544 148.546 183.469 149.05 183.32C149.573 183.152 149.946 182.993 150.17 182.844V178.784L146.698 179.148C145.727 179.223 145.009 179.437 144.542 179.792C144.075 180.147 143.842 180.66 143.842 181.332C143.842 182.023 144.113 182.564 144.654 182.956C145.214 183.348 146.035 183.544 147.118 183.544ZM153.139 189.088C153.587 188.883 153.969 188.668 154.287 188.444C154.604 188.22 154.847 187.903 155.015 187.492C155.201 187.1 155.295 186.549 155.295 185.84V176.516H157.535V186.26C157.535 187.343 157.348 188.183 156.975 188.78C156.601 189.396 156.172 189.825 155.687 190.068C155.201 190.329 154.781 190.46 154.427 190.46C153.96 190.46 153.633 190.32 153.447 190.04C153.279 189.779 153.176 189.461 153.139 189.088ZM154.959 167.976C154.959 167.584 155.099 167.257 155.379 166.996C155.659 166.716 156.004 166.576 156.415 166.576C156.844 166.576 157.189 166.716 157.451 166.996C157.712 167.257 157.843 167.584 157.843 167.976C157.843 168.368 157.712 168.704 157.451 168.984C157.189 169.245 156.844 169.376 156.415 169.376C156.004 169.376 155.659 169.245 155.379 168.984C155.099 168.704 154.959 168.368 154.959 167.976ZM157.535 179.008L155.295 178.7V172.12C155.388 172.083 155.528 172.045 155.715 172.008C155.92 171.952 156.135 171.924 156.359 171.924C156.751 171.924 157.04 172.008 157.227 172.176C157.432 172.325 157.535 172.587 157.535 172.96V179.008ZM161.291 179.96L161.179 178.196L169.635 177.048C169.561 176.021 169.206 175.181 168.571 174.528C167.937 173.856 167.059 173.52 165.939 173.52C164.782 173.52 163.821 173.94 163.055 174.78C162.309 175.601 161.935 176.787 161.935 178.336V178.952C162.066 180.445 162.551 181.584 163.391 182.368C164.25 183.133 165.417 183.516 166.891 183.516C167.675 183.516 168.385 183.385 169.019 183.124C169.654 182.863 170.158 182.583 170.531 182.284C170.737 182.415 170.895 182.573 171.007 182.76C171.138 182.928 171.203 183.124 171.203 183.348C171.203 183.703 170.998 184.039 170.587 184.356C170.195 184.655 169.663 184.897 168.991 185.084C168.338 185.271 167.601 185.364 166.779 185.364C165.342 185.364 164.091 185.103 163.027 184.58C161.982 184.057 161.17 183.283 160.591 182.256C160.031 181.211 159.751 179.941 159.751 178.448C159.751 177.384 159.901 176.441 160.199 175.62C160.517 174.78 160.946 174.071 161.487 173.492C162.047 172.913 162.71 172.475 163.475 172.176C164.241 171.859 165.071 171.7 165.967 171.7C167.106 171.7 168.105 171.943 168.963 172.428C169.841 172.913 170.522 173.595 171.007 174.472C171.511 175.331 171.763 176.32 171.763 177.44C171.763 177.851 171.67 178.149 171.483 178.336C171.297 178.504 171.035 178.607 170.699 178.644L161.291 179.96ZM175.839 174.472V178.896H173.599V174.64C173.599 174.211 173.673 173.875 173.823 173.632C173.991 173.371 174.261 173.119 174.635 172.876C175.12 172.559 175.783 172.288 176.623 172.064C177.463 171.821 178.396 171.7 179.423 171.7C180.916 171.7 181.663 172.073 181.663 172.82C181.663 173.007 181.635 173.184 181.579 173.352C181.523 173.501 181.448 173.632 181.355 173.744C181.168 173.707 180.925 173.669 180.627 173.632C180.328 173.595 180.029 173.576 179.731 173.576C178.872 173.576 178.116 173.669 177.463 173.856C176.809 174.024 176.268 174.229 175.839 174.472ZM173.599 177.608L175.839 177.944V184.944C175.745 184.981 175.605 185.019 175.419 185.056C175.232 185.112 175.027 185.14 174.803 185.14C174.411 185.14 174.112 185.065 173.907 184.916C173.701 184.748 173.599 184.487 173.599 184.132V177.608ZM194.629 178.532C194.629 179.913 194.367 181.117 193.845 182.144C193.322 183.171 192.585 183.964 191.633 184.524C190.681 185.084 189.561 185.364 188.273 185.364C186.985 185.364 185.855 185.084 184.885 184.524C183.933 183.964 183.195 183.171 182.673 182.144C182.15 181.117 181.889 179.913 181.889 178.532C181.889 177.132 182.15 175.928 182.673 174.92C183.214 173.893 183.961 173.1 184.913 172.54C185.883 171.98 187.003 171.7 188.273 171.7C189.542 171.7 190.653 171.98 191.605 172.54C192.557 173.1 193.294 173.893 193.817 174.92C194.358 175.928 194.629 177.132 194.629 178.532ZM188.273 173.548C187.022 173.548 186.023 173.996 185.277 174.892C184.549 175.769 184.185 176.983 184.185 178.532C184.185 180.1 184.539 181.323 185.249 182.2C185.977 183.077 186.985 183.516 188.273 183.516C189.542 183.516 190.531 183.077 191.241 182.2C191.969 181.304 192.333 180.081 192.333 178.532C192.333 176.983 191.969 175.769 191.241 174.892C190.531 173.996 189.542 173.548 188.273 173.548ZM205.821 181.556C205.821 182.751 205.383 183.684 204.505 184.356C203.628 185.028 202.359 185.364 200.697 185.364C199.279 185.364 198.121 185.149 197.225 184.72C196.329 184.272 195.881 183.787 195.881 183.264C195.881 183.04 195.937 182.825 196.049 182.62C196.18 182.396 196.367 182.219 196.609 182.088C197.113 182.443 197.701 182.769 198.373 183.068C199.045 183.367 199.811 183.516 200.669 183.516C202.611 183.516 203.581 182.863 203.581 181.556C203.581 181.015 203.413 180.576 203.077 180.24C202.76 179.885 202.284 179.633 201.649 179.484L199.325 178.868C198.187 178.588 197.356 178.159 196.833 177.58C196.311 176.983 196.049 176.245 196.049 175.368C196.049 174.379 196.451 173.52 197.253 172.792C198.056 172.064 199.279 171.7 200.921 171.7C201.799 171.7 202.564 171.793 203.217 171.98C203.871 172.148 204.375 172.381 204.729 172.68C205.103 172.96 205.289 173.268 205.289 173.604C205.289 173.847 205.224 174.061 205.093 174.248C204.981 174.435 204.823 174.575 204.617 174.668C204.393 174.519 204.104 174.36 203.749 174.192C203.413 174.005 203.012 173.856 202.545 173.744C202.079 173.613 201.565 173.548 201.005 173.548C200.184 173.548 199.521 173.707 199.017 174.024C198.513 174.341 198.261 174.789 198.261 175.368C198.261 175.779 198.401 176.143 198.681 176.46C198.98 176.759 199.447 176.983 200.081 177.132L202.013 177.608C203.283 177.907 204.235 178.383 204.869 179.036C205.504 179.671 205.821 180.511 205.821 181.556ZM218.014 173.576C216.745 173.576 215.69 174.005 214.85 174.864C214.01 175.723 213.59 176.955 213.59 178.56C213.59 180.147 213.992 181.369 214.794 182.228C215.616 183.087 216.689 183.516 218.014 183.516C218.798 183.516 219.452 183.413 219.974 183.208C220.497 182.984 220.964 182.732 221.374 182.452C221.58 182.564 221.748 182.704 221.878 182.872C222.009 183.04 222.074 183.245 222.074 183.488C222.074 184.011 221.682 184.459 220.898 184.832C220.133 185.187 219.172 185.364 218.014 185.364C216.726 185.364 215.569 185.121 214.542 184.636C213.534 184.132 212.741 183.376 212.162 182.368C211.584 181.36 211.294 180.091 211.294 178.56C211.294 177.048 211.593 175.788 212.19 174.78C212.788 173.753 213.59 172.988 214.598 172.484C215.625 171.961 216.745 171.7 217.958 171.7C219.116 171.7 220.068 171.896 220.814 172.288C221.58 172.68 221.962 173.128 221.962 173.632C221.962 173.856 221.897 174.052 221.766 174.22C221.636 174.388 221.468 174.519 221.262 174.612C220.852 174.332 220.394 174.089 219.89 173.884C219.405 173.679 218.78 173.576 218.014 173.576ZM228.723 185.392C226.968 185.392 225.605 185.047 224.635 184.356C223.683 183.665 223.207 182.667 223.207 181.36C223.207 180.147 223.608 179.223 224.411 178.588C225.232 177.935 226.361 177.543 227.799 177.412L231.775 177.02V176.236C231.775 175.303 231.495 174.621 230.935 174.192C230.375 173.763 229.619 173.548 228.667 173.548C227.901 173.548 227.164 173.66 226.455 173.884C225.764 174.108 225.148 174.36 224.607 174.64C224.457 174.509 224.317 174.36 224.187 174.192C224.075 174.005 224.019 173.819 224.019 173.632C224.019 173.147 224.289 172.773 224.831 172.512C225.335 172.251 225.913 172.055 226.567 171.924C227.239 171.775 227.948 171.7 228.695 171.7C230.319 171.7 231.607 172.064 232.559 172.792C233.511 173.52 233.987 174.668 233.987 176.236V182.872C233.987 183.283 233.903 183.6 233.735 183.824C233.585 184.029 233.352 184.225 233.035 184.412C232.587 184.655 231.989 184.879 231.243 185.084C230.496 185.289 229.656 185.392 228.723 185.392ZM228.723 183.544C229.507 183.544 230.151 183.469 230.655 183.32C231.177 183.152 231.551 182.993 231.775 182.844V178.784L228.303 179.148C227.332 179.223 226.613 179.437 226.147 179.792C225.68 180.147 225.447 180.66 225.447 181.332C225.447 182.023 225.717 182.564 226.259 182.956C226.819 183.348 227.64 183.544 228.723 183.544ZM242.191 185.364C241.389 185.364 240.633 185.243 239.923 185C239.233 184.776 238.729 184.524 238.411 184.244V182.172C238.785 182.527 239.251 182.844 239.811 183.124C240.39 183.385 241.081 183.516 241.883 183.516C243.19 183.516 244.235 183.124 245.019 182.34C245.822 181.537 246.223 180.259 246.223 178.504C246.223 177.272 246.018 176.301 245.607 175.592C245.215 174.864 244.683 174.341 244.011 174.024C243.358 173.707 242.649 173.548 241.883 173.548C241.211 173.548 240.642 173.632 240.175 173.8C239.709 173.968 239.289 174.155 238.915 174.36V183.656H236.675V174.416C236.675 174.043 236.741 173.744 236.871 173.52C237.002 173.296 237.273 173.063 237.683 172.82C238.187 172.54 238.785 172.288 239.475 172.064C240.185 171.821 240.987 171.7 241.883 171.7C243.115 171.7 244.226 171.943 245.215 172.428C246.223 172.895 247.017 173.632 247.595 174.64C248.193 175.629 248.491 176.917 248.491 178.504C248.491 180.035 248.221 181.313 247.679 182.34C247.157 183.348 246.419 184.104 245.467 184.608C244.515 185.112 243.423 185.364 242.191 185.364ZM237.879 190.236C237.487 190.236 237.189 190.152 236.983 189.984C236.778 189.816 236.675 189.555 236.675 189.2V182.844L238.915 182.9V190.04C238.822 190.077 238.682 190.115 238.495 190.152C238.309 190.208 238.103 190.236 237.879 190.236ZM255.235 185.392C253.481 185.392 252.118 185.047 251.147 184.356C250.195 183.665 249.719 182.667 249.719 181.36C249.719 180.147 250.121 179.223 250.923 178.588C251.745 177.935 252.874 177.543 254.311 177.412L258.287 177.02V176.236C258.287 175.303 258.007 174.621 257.447 174.192C256.887 173.763 256.131 173.548 255.179 173.548C254.414 173.548 253.677 173.66 252.967 173.884C252.277 174.108 251.661 174.36 251.119 174.64C250.97 174.509 250.83 174.36 250.699 174.192C250.587 174.005 250.531 173.819 250.531 173.632C250.531 173.147 250.802 172.773 251.343 172.512C251.847 172.251 252.426 172.055 253.079 171.924C253.751 171.775 254.461 171.7 255.207 171.7C256.831 171.7 258.119 172.064 259.071 172.792C260.023 173.52 260.499 174.668 260.499 176.236V182.872C260.499 183.283 260.415 183.6 260.247 183.824C260.098 184.029 259.865 184.225 259.547 184.412C259.099 184.655 258.502 184.879 257.755 185.084C257.009 185.289 256.169 185.392 255.235 185.392ZM255.235 183.544C256.019 183.544 256.663 183.469 257.167 183.32C257.69 183.152 258.063 182.993 258.287 182.844V178.784L254.815 179.148C253.845 179.223 253.126 179.437 252.659 179.792C252.193 180.147 251.959 180.66 251.959 181.332C251.959 182.023 252.23 182.564 252.771 182.956C253.331 183.348 254.153 183.544 255.235 183.544ZM269.18 173.576C267.911 173.576 266.856 174.005 266.016 174.864C265.176 175.723 264.756 176.955 264.756 178.56C264.756 180.147 265.157 181.369 265.96 182.228C266.781 183.087 267.855 183.516 269.18 183.516C269.964 183.516 270.617 183.413 271.14 183.208C271.663 182.984 272.129 182.732 272.54 182.452C272.745 182.564 272.913 182.704 273.044 182.872C273.175 183.04 273.24 183.245 273.24 183.488C273.24 184.011 272.848 184.459 272.064 184.832C271.299 185.187 270.337 185.364 269.18 185.364C267.892 185.364 266.735 185.121 265.708 184.636C264.7 184.132 263.907 183.376 263.328 182.368C262.749 181.36 262.46 180.091 262.46 178.56C262.46 177.048 262.759 175.788 263.356 174.78C263.953 173.753 264.756 172.988 265.764 172.484C266.791 171.961 267.911 171.7 269.124 171.7C270.281 171.7 271.233 171.896 271.98 172.288C272.745 172.68 273.128 173.128 273.128 173.632C273.128 173.856 273.063 174.052 272.932 174.22C272.801 174.388 272.633 174.519 272.428 174.612C272.017 174.332 271.56 174.089 271.056 173.884C270.571 173.679 269.945 173.576 269.18 173.576ZM274.963 167.976C274.963 167.584 275.103 167.257 275.383 166.996C275.663 166.716 276.008 166.576 276.419 166.576C276.848 166.576 277.194 166.716 277.455 166.996C277.716 167.257 277.847 167.584 277.847 167.976C277.847 168.368 277.716 168.704 277.455 168.984C277.194 169.245 276.848 169.376 276.419 169.376C276.008 169.376 275.663 169.245 275.383 168.984C275.103 168.704 274.963 168.368 274.963 167.976ZM275.299 177.608H277.539V184.944C277.446 184.981 277.306 185.019 277.119 185.056C276.932 185.112 276.727 185.14 276.503 185.14C276.111 185.14 275.812 185.065 275.607 184.916C275.402 184.748 275.299 184.487 275.299 184.132V177.608ZM277.539 178.7H275.299V172.12C275.392 172.083 275.532 172.045 275.719 172.008C275.924 171.952 276.139 171.924 276.363 171.924C276.755 171.924 277.044 172.008 277.231 172.176C277.436 172.325 277.539 172.587 277.539 172.96V178.7ZM280.541 177.608H282.781V181.472C282.781 182.219 282.996 182.751 283.425 183.068C283.854 183.367 284.442 183.516 285.189 183.516C285.506 183.516 285.861 183.46 286.253 183.348C286.645 183.236 286.972 183.105 287.233 182.956C287.345 183.068 287.448 183.208 287.541 183.376C287.634 183.544 287.681 183.74 287.681 183.964C287.681 184.375 287.438 184.711 286.953 184.972C286.468 185.233 285.796 185.364 284.937 185.364C283.63 185.364 282.566 185.075 281.745 184.496C280.942 183.917 280.541 182.956 280.541 181.612V177.608ZM281.689 174.192V172.344H287.373C287.429 172.419 287.485 172.54 287.541 172.708C287.597 172.876 287.625 173.053 287.625 173.24C287.625 173.539 287.55 173.772 287.401 173.94C287.252 174.108 287.046 174.192 286.785 174.192H281.689ZM282.781 178.448H280.541V168.312C280.634 168.275 280.774 168.237 280.961 168.2C281.166 168.144 281.381 168.116 281.605 168.116C281.997 168.116 282.286 168.2 282.473 168.368C282.678 168.517 282.781 168.769 282.781 169.124V178.448ZM294.315 185.392C292.56 185.392 291.198 185.047 290.227 184.356C289.275 183.665 288.799 182.667 288.799 181.36C288.799 180.147 289.2 179.223 290.003 178.588C290.824 177.935 291.954 177.543 293.391 177.412L297.367 177.02V176.236C297.367 175.303 297.087 174.621 296.527 174.192C295.967 173.763 295.211 173.548 294.259 173.548C293.494 173.548 292.756 173.66 292.047 173.884C291.356 174.108 290.74 174.36 290.199 174.64C290.05 174.509 289.91 174.36 289.779 174.192C289.667 174.005 289.611 173.819 289.611 173.632C289.611 173.147 289.882 172.773 290.423 172.512C290.927 172.251 291.506 172.055 292.159 171.924C292.831 171.775 293.54 171.7 294.287 171.7C295.911 171.7 297.199 172.064 298.151 172.792C299.103 173.52 299.579 174.668 299.579 176.236V182.872C299.579 183.283 299.495 183.6 299.327 183.824C299.178 184.029 298.944 184.225 298.627 184.412C298.179 184.655 297.582 184.879 296.835 185.084C296.088 185.289 295.248 185.392 294.315 185.392ZM294.315 183.544C295.099 183.544 295.743 183.469 296.247 183.32C296.77 183.152 297.143 182.993 297.367 182.844V178.784L293.895 179.148C292.924 179.223 292.206 179.437 291.739 179.792C291.272 180.147 291.039 180.66 291.039 181.332C291.039 182.023 291.31 182.564 291.851 182.956C292.411 183.348 293.232 183.544 294.315 183.544ZM311.088 182.788V173.38L313.328 173.352V182.872C313.328 183.227 313.244 183.516 313.076 183.74C312.926 183.945 312.684 184.151 312.348 184.356C311.974 184.599 311.442 184.823 310.752 185.028C310.061 185.252 309.268 185.364 308.372 185.364C307.028 185.364 305.842 185.131 304.816 184.664C303.789 184.197 302.986 183.469 302.408 182.48C301.829 181.472 301.54 180.175 301.54 178.588C301.54 176.964 301.82 175.648 302.38 174.64C302.958 173.632 303.733 172.895 304.704 172.428C305.674 171.943 306.738 171.7 307.896 171.7C308.624 171.7 309.314 171.803 309.968 172.008C310.621 172.213 311.134 172.465 311.508 172.764V174.836C311.153 174.481 310.686 174.183 310.108 173.94C309.548 173.679 308.885 173.548 308.12 173.548C307.354 173.548 306.645 173.716 305.992 174.052C305.338 174.369 304.816 174.901 304.424 175.648C304.032 176.395 303.836 177.393 303.836 178.644C303.836 180.343 304.246 181.584 305.068 182.368C305.889 183.133 306.981 183.516 308.344 183.516C308.997 183.516 309.529 183.451 309.94 183.32C310.369 183.171 310.752 182.993 311.088 182.788ZM313.328 173.912L311.088 173.94V166.856C311.181 166.819 311.321 166.781 311.508 166.744C311.713 166.688 311.918 166.66 312.124 166.66C312.534 166.66 312.833 166.744 313.02 166.912C313.225 167.061 313.328 167.313 313.328 167.668V173.912ZM328.192 178.532C328.192 179.913 327.931 181.117 327.408 182.144C326.885 183.171 326.148 183.964 325.196 184.524C324.244 185.084 323.124 185.364 321.836 185.364C320.548 185.364 319.419 185.084 318.448 184.524C317.496 183.964 316.759 183.171 316.236 182.144C315.713 181.117 315.452 179.913 315.452 178.532C315.452 177.132 315.713 175.928 316.236 174.92C316.777 173.893 317.524 173.1 318.476 172.54C319.447 171.98 320.567 171.7 321.836 171.7C323.105 171.7 324.216 171.98 325.168 172.54C326.12 173.1 326.857 173.893 327.38 174.92C327.921 175.928 328.192 177.132 328.192 178.532ZM321.836 173.548C320.585 173.548 319.587 173.996 318.84 174.892C318.112 175.769 317.748 176.983 317.748 178.532C317.748 180.1 318.103 181.323 318.812 182.2C319.54 183.077 320.548 183.516 321.836 183.516C323.105 183.516 324.095 183.077 324.804 182.2C325.532 181.304 325.896 180.081 325.896 178.532C325.896 176.983 325.532 175.769 324.804 174.892C324.095 173.996 323.105 173.548 321.836 173.548ZM339.385 181.556C339.385 182.751 338.946 183.684 338.069 184.356C337.191 185.028 335.922 185.364 334.261 185.364C332.842 185.364 331.685 185.149 330.789 184.72C329.893 184.272 329.445 183.787 329.445 183.264C329.445 183.04 329.501 182.825 329.613 182.62C329.743 182.396 329.93 182.219 330.173 182.088C330.677 182.443 331.265 182.769 331.937 183.068C332.609 183.367 333.374 183.516 334.233 183.516C336.174 183.516 337.145 182.863 337.145 181.556C337.145 181.015 336.977 180.576 336.641 180.24C336.323 179.885 335.847 179.633 335.213 179.484L332.889 178.868C331.75 178.588 330.919 178.159 330.397 177.58C329.874 176.983 329.613 176.245 329.613 175.368C329.613 174.379 330.014 173.52 330.817 172.792C331.619 172.064 332.842 171.7 334.485 171.7C335.362 171.7 336.127 171.793 336.781 171.98C337.434 172.148 337.938 172.381 338.293 172.68C338.666 172.96 338.853 173.268 338.853 173.604C338.853 173.847 338.787 174.061 338.657 174.248C338.545 174.435 338.386 174.575 338.181 174.668C337.957 174.519 337.667 174.36 337.313 174.192C336.977 174.005 336.575 173.856 336.109 173.744C335.642 173.613 335.129 173.548 334.569 173.548C333.747 173.548 333.085 173.707 332.581 174.024C332.077 174.341 331.825 174.789 331.825 175.368C331.825 175.779 331.965 176.143 332.245 176.46C332.543 176.759 333.01 176.983 333.645 177.132L335.577 177.608C336.846 177.907 337.798 178.383 338.433 179.036C339.067 179.671 339.385 180.511 339.385 181.556ZM346.398 179.96L346.286 178.196L354.742 177.048C354.667 176.021 354.312 175.181 353.678 174.528C353.043 173.856 352.166 173.52 351.046 173.52C349.888 173.52 348.927 173.94 348.162 174.78C347.415 175.601 347.042 176.787 347.042 178.336V178.952C347.172 180.445 347.658 181.584 348.498 182.368C349.356 183.133 350.523 183.516 351.998 183.516C352.782 183.516 353.491 183.385 354.126 183.124C354.76 182.863 355.264 182.583 355.638 182.284C355.843 182.415 356.002 182.573 356.114 182.76C356.244 182.928 356.31 183.124 356.31 183.348C356.31 183.703 356.104 184.039 355.694 184.356C355.302 184.655 354.77 184.897 354.098 185.084C353.444 185.271 352.707 185.364 351.886 185.364C350.448 185.364 349.198 185.103 348.134 184.58C347.088 184.057 346.276 183.283 345.698 182.256C345.138 181.211 344.858 179.941 344.858 178.448C344.858 177.384 345.007 176.441 345.306 175.62C345.623 174.78 346.052 174.071 346.594 173.492C347.154 172.913 347.816 172.475 348.582 172.176C349.347 171.859 350.178 171.7 351.074 171.7C352.212 171.7 353.211 171.943 354.07 172.428C354.947 172.913 355.628 173.595 356.114 174.472C356.618 175.331 356.87 176.32 356.87 177.44C356.87 177.851 356.776 178.149 356.59 178.336C356.403 178.504 356.142 178.607 355.806 178.644L346.398 179.96ZM369.905 176.46V179.316H367.665V176.572C367.665 175.527 367.366 174.761 366.769 174.276C366.19 173.791 365.406 173.548 364.417 173.548C363.67 173.548 363.008 173.641 362.429 173.828C361.85 174.015 361.356 174.229 360.945 174.472V179.316H358.705V174.584C358.705 174.192 358.78 173.875 358.929 173.632C359.097 173.371 359.377 173.119 359.769 172.876C360.254 172.596 360.898 172.335 361.701 172.092C362.504 171.831 363.409 171.7 364.417 171.7C366.116 171.7 367.45 172.092 368.421 172.876C369.41 173.641 369.905 174.836 369.905 176.46ZM358.705 177.776H360.945V184.944C360.852 184.981 360.712 185.019 360.525 185.056C360.338 185.112 360.133 185.14 359.909 185.14C359.517 185.14 359.218 185.065 359.013 184.916C358.808 184.748 358.705 184.487 358.705 184.132V177.776ZM367.665 177.776H369.905V184.944C369.812 184.981 369.662 185.019 369.457 185.056C369.27 185.112 369.074 185.14 368.869 185.14C368.458 185.14 368.15 185.065 367.945 184.916C367.758 184.748 367.665 184.487 367.665 184.132V177.776ZM133.093 194.74H132.981C132.701 195.524 132.365 196.457 131.973 197.54C131.6 198.623 131.208 199.743 130.797 200.9C130.405 202.039 130.032 203.103 129.677 204.092L129.537 204.512C129.425 204.848 129.285 205.268 129.117 205.772C128.949 206.276 128.772 206.808 128.585 207.368C128.399 207.909 128.221 208.423 128.053 208.908C127.885 209.375 127.755 209.757 127.661 210.056C127.531 210.112 127.391 210.149 127.241 210.168C127.111 210.205 126.943 210.224 126.737 210.224C126.439 210.224 126.168 210.149 125.925 210C125.701 209.832 125.589 209.571 125.589 209.216C125.589 209.048 125.617 208.88 125.673 208.712C125.729 208.525 125.795 208.329 125.869 208.124C126.093 207.489 126.364 206.715 126.681 205.8C127.017 204.885 127.381 203.887 127.773 202.804C128.165 201.721 128.576 200.611 129.005 199.472C129.435 198.333 129.855 197.223 130.265 196.14C130.676 195.057 131.059 194.068 131.413 193.172C131.563 193.097 131.787 193.023 132.085 192.948C132.384 192.873 132.692 192.836 133.009 192.836C133.383 192.836 133.737 192.892 134.073 193.004C134.428 193.116 134.652 193.303 134.745 193.564C135.193 194.647 135.669 195.879 136.173 197.26C136.696 198.623 137.219 200.051 137.741 201.544C138.264 203.019 138.759 204.456 139.225 205.856C139.711 207.256 140.14 208.525 140.513 209.664C140.383 209.832 140.205 209.963 139.981 210.056C139.776 210.168 139.543 210.224 139.281 210.224C138.927 210.224 138.656 210.149 138.469 210C138.283 209.832 138.124 209.561 137.993 209.188L136.453 204.624L136.229 203.84C135.856 202.701 135.464 201.553 135.053 200.396C134.661 199.239 134.288 198.165 133.933 197.176C133.597 196.187 133.317 195.375 133.093 194.74ZM128.445 205.464L129.173 203.588H136.985L137.433 205.464H128.445ZM142.048 202.608H144.288V206.472C144.288 207.219 144.502 207.751 144.932 208.068C145.361 208.367 145.949 208.516 146.696 208.516C147.013 208.516 147.368 208.46 147.76 208.348C148.152 208.236 148.478 208.105 148.74 207.956C148.852 208.068 148.954 208.208 149.048 208.376C149.141 208.544 149.188 208.74 149.188 208.964C149.188 209.375 148.945 209.711 148.46 209.972C147.974 210.233 147.302 210.364 146.444 210.364C145.137 210.364 144.073 210.075 143.252 209.496C142.449 208.917 142.048 207.956 142.048 206.612V202.608ZM143.196 199.192V197.344H148.88C148.936 197.419 148.992 197.54 149.048 197.708C149.104 197.876 149.132 198.053 149.132 198.24C149.132 198.539 149.057 198.772 148.908 198.94C148.758 199.108 148.553 199.192 148.292 199.192H143.196ZM144.288 203.448H142.048V193.312C142.141 193.275 142.281 193.237 142.468 193.2C142.673 193.144 142.888 193.116 143.112 193.116C143.504 193.116 143.793 193.2 143.98 193.368C144.185 193.517 144.288 193.769 144.288 194.124V203.448ZM151.439 204.96L151.327 203.196L159.783 202.048C159.709 201.021 159.354 200.181 158.719 199.528C158.085 198.856 157.207 198.52 156.087 198.52C154.93 198.52 153.969 198.94 153.203 199.78C152.457 200.601 152.083 201.787 152.083 203.336V203.952C152.214 205.445 152.699 206.584 153.539 207.368C154.398 208.133 155.565 208.516 157.039 208.516C157.823 208.516 158.533 208.385 159.167 208.124C159.802 207.863 160.306 207.583 160.679 207.284C160.885 207.415 161.043 207.573 161.155 207.76C161.286 207.928 161.351 208.124 161.351 208.348C161.351 208.703 161.146 209.039 160.735 209.356C160.343 209.655 159.811 209.897 159.139 210.084C158.486 210.271 157.749 210.364 156.927 210.364C155.49 210.364 154.239 210.103 153.175 209.58C152.13 209.057 151.318 208.283 150.739 207.256C150.179 206.211 149.899 204.941 149.899 203.448C149.899 202.384 150.049 201.441 150.347 200.62C150.665 199.78 151.094 199.071 151.635 198.492C152.195 197.913 152.858 197.475 153.623 197.176C154.389 196.859 155.219 196.7 156.115 196.7C157.254 196.7 158.253 196.943 159.111 197.428C159.989 197.913 160.67 198.595 161.155 199.472C161.659 200.331 161.911 201.32 161.911 202.44C161.911 202.851 161.818 203.149 161.631 203.336C161.445 203.504 161.183 203.607 160.847 203.644L151.439 204.96ZM174.947 201.46V204.316H172.707V201.572C172.707 200.527 172.408 199.761 171.811 199.276C171.232 198.791 170.448 198.548 169.459 198.548C168.712 198.548 168.05 198.641 167.471 198.828C166.892 199.015 166.398 199.229 165.987 199.472V204.316H163.747V199.584C163.747 199.192 163.822 198.875 163.971 198.632C164.139 198.371 164.419 198.119 164.811 197.876C165.296 197.596 165.94 197.335 166.743 197.092C167.546 196.831 168.451 196.7 169.459 196.7C171.158 196.7 172.492 197.092 173.463 197.876C174.452 198.641 174.947 199.836 174.947 201.46ZM163.747 202.776H165.987V209.944C165.894 209.981 165.754 210.019 165.567 210.056C165.38 210.112 165.175 210.14 164.951 210.14C164.559 210.14 164.26 210.065 164.055 209.916C163.85 209.748 163.747 209.487 163.747 209.132V202.776ZM172.707 202.776H174.947V209.944C174.854 209.981 174.704 210.019 174.499 210.056C174.312 210.112 174.116 210.14 173.911 210.14C173.5 210.14 173.192 210.065 172.987 209.916C172.8 209.748 172.707 209.487 172.707 209.132V202.776ZM183.733 198.576C182.464 198.576 181.409 199.005 180.569 199.864C179.729 200.723 179.309 201.955 179.309 203.56C179.309 205.147 179.711 206.369 180.513 207.228C181.335 208.087 182.408 208.516 183.733 208.516C184.517 208.516 185.171 208.413 185.693 208.208C186.216 207.984 186.683 207.732 187.093 207.452C187.299 207.564 187.467 207.704 187.597 207.872C187.728 208.04 187.793 208.245 187.793 208.488C187.793 209.011 187.401 209.459 186.617 209.832C185.852 210.187 184.891 210.364 183.733 210.364C182.445 210.364 181.288 210.121 180.261 209.636C179.253 209.132 178.46 208.376 177.881 207.368C177.303 206.36 177.013 205.091 177.013 203.56C177.013 202.048 177.312 200.788 177.909 199.78C178.507 198.753 179.309 197.988 180.317 197.484C181.344 196.961 182.464 196.7 183.677 196.7C184.835 196.7 185.787 196.896 186.533 197.288C187.299 197.68 187.681 198.128 187.681 198.632C187.681 198.856 187.616 199.052 187.485 199.22C187.355 199.388 187.187 199.519 186.981 199.612C186.571 199.332 186.113 199.089 185.609 198.884C185.124 198.679 184.499 198.576 183.733 198.576ZM189.517 192.976C189.517 192.584 189.657 192.257 189.937 191.996C190.217 191.716 190.562 191.576 190.973 191.576C191.402 191.576 191.747 191.716 192.009 191.996C192.27 192.257 192.401 192.584 192.401 192.976C192.401 193.368 192.27 193.704 192.009 193.984C191.747 194.245 191.402 194.376 190.973 194.376C190.562 194.376 190.217 194.245 189.937 193.984C189.657 193.704 189.517 193.368 189.517 192.976ZM189.853 202.608H192.093V209.944C191.999 209.981 191.859 210.019 191.673 210.056C191.486 210.112 191.281 210.14 191.057 210.14C190.665 210.14 190.366 210.065 190.161 209.916C189.955 209.748 189.853 209.487 189.853 209.132V202.608ZM192.093 203.7H189.853V197.12C189.946 197.083 190.086 197.045 190.273 197.008C190.478 196.952 190.693 196.924 190.917 196.924C191.309 196.924 191.598 197.008 191.785 197.176C191.99 197.325 192.093 197.587 192.093 197.96V203.7ZM207.078 203.532C207.078 204.913 206.817 206.117 206.294 207.144C205.772 208.171 205.034 208.964 204.082 209.524C203.13 210.084 202.01 210.364 200.722 210.364C199.434 210.364 198.305 210.084 197.334 209.524C196.382 208.964 195.645 208.171 195.122 207.144C194.6 206.117 194.338 204.913 194.338 203.532C194.338 202.132 194.6 200.928 195.122 199.92C195.664 198.893 196.41 198.1 197.362 197.54C198.333 196.98 199.453 196.7 200.722 196.7C201.992 196.7 203.102 196.98 204.054 197.54C205.006 198.1 205.744 198.893 206.266 199.92C206.808 200.928 207.078 202.132 207.078 203.532ZM200.722 198.548C199.472 198.548 198.473 198.996 197.726 199.892C196.998 200.769 196.634 201.983 196.634 203.532C196.634 205.1 196.989 206.323 197.698 207.2C198.426 208.077 199.434 208.516 200.722 208.516C201.992 208.516 202.981 208.077 203.69 207.2C204.418 206.304 204.782 205.081 204.782 203.532C204.782 201.983 204.418 200.769 203.69 199.892C202.981 198.996 201.992 198.548 200.722 198.548ZM200.638 193.816L203.354 190.764C203.765 190.783 204.092 190.904 204.334 191.128C204.596 191.333 204.726 191.567 204.726 191.828C204.726 192.071 204.67 192.276 204.558 192.444C204.446 192.612 204.26 192.817 203.998 193.06L201.45 195.552C201.096 195.552 200.797 195.459 200.554 195.272C200.33 195.067 200.218 194.843 200.218 194.6C200.218 194.432 200.265 194.292 200.358 194.18C200.452 194.049 200.545 193.928 200.638 193.816ZM220.343 201.46V204.316H218.103V201.572C218.103 200.527 217.804 199.761 217.207 199.276C216.628 198.791 215.844 198.548 214.855 198.548C214.108 198.548 213.446 198.641 212.867 198.828C212.288 199.015 211.794 199.229 211.383 199.472V204.316H209.143V199.584C209.143 199.192 209.218 198.875 209.367 198.632C209.535 198.371 209.815 198.119 210.207 197.876C210.692 197.596 211.336 197.335 212.139 197.092C212.942 196.831 213.847 196.7 214.855 196.7C216.554 196.7 217.888 197.092 218.859 197.876C219.848 198.641 220.343 199.836 220.343 201.46ZM209.143 202.776H211.383V209.944C211.29 209.981 211.15 210.019 210.963 210.056C210.776 210.112 210.571 210.14 210.347 210.14C209.955 210.14 209.656 210.065 209.451 209.916C209.246 209.748 209.143 209.487 209.143 209.132V202.776ZM218.103 202.776H220.343V209.944C220.25 209.981 220.1 210.019 219.895 210.056C219.708 210.112 219.512 210.14 219.307 210.14C218.896 210.14 218.588 210.065 218.383 209.916C218.196 209.748 218.103 209.487 218.103 209.132V202.776ZM231.963 210.392C230.208 210.392 228.846 210.047 227.875 209.356C226.923 208.665 226.447 207.667 226.447 206.36C226.447 205.147 226.848 204.223 227.651 203.588C228.472 202.935 229.602 202.543 231.039 202.412L235.015 202.02V201.236C235.015 200.303 234.735 199.621 234.175 199.192C233.615 198.763 232.859 198.548 231.907 198.548C231.142 198.548 230.404 198.66 229.695 198.884C229.004 199.108 228.388 199.36 227.847 199.64C227.698 199.509 227.558 199.36 227.427 199.192C227.315 199.005 227.259 198.819 227.259 198.632C227.259 198.147 227.53 197.773 228.071 197.512C228.575 197.251 229.154 197.055 229.807 196.924C230.479 196.775 231.188 196.7 231.935 196.7C233.559 196.7 234.847 197.064 235.799 197.792C236.751 198.52 237.227 199.668 237.227 201.236V207.872C237.227 208.283 237.143 208.6 236.975 208.824C236.826 209.029 236.592 209.225 236.275 209.412C235.827 209.655 235.23 209.879 234.483 210.084C233.736 210.289 232.896 210.392 231.963 210.392ZM231.963 208.544C232.747 208.544 233.391 208.469 233.895 208.32C234.418 208.152 234.791 207.993 235.015 207.844V203.784L231.543 204.148C230.572 204.223 229.854 204.437 229.387 204.792C228.92 205.147 228.687 205.66 228.687 206.332C228.687 207.023 228.958 207.564 229.499 207.956C230.059 208.348 230.88 208.544 231.963 208.544ZM240.14 202.608L242.38 202.944V209.944C242.286 209.981 242.146 210.019 241.96 210.056C241.773 210.112 241.568 210.14 241.344 210.14C240.952 210.14 240.653 210.065 240.448 209.916C240.242 209.748 240.14 209.487 240.14 209.132V202.608ZM242.38 204.008L240.14 203.7V191.856C240.233 191.819 240.373 191.781 240.56 191.744C240.765 191.688 240.97 191.66 241.176 191.66C241.586 191.66 241.885 191.744 242.072 191.912C242.277 192.061 242.38 192.313 242.38 192.668V204.008ZM262.436 194.852C262.436 195.095 262.352 195.319 262.184 195.524C262.034 195.711 261.857 195.851 261.652 195.944C261.185 195.608 260.616 195.291 259.944 194.992C259.29 194.693 258.441 194.544 257.396 194.544C256.257 194.544 255.23 194.805 254.316 195.328C253.42 195.851 252.701 196.635 252.16 197.68C251.637 198.707 251.376 199.985 251.376 201.516C251.376 203.812 251.936 205.539 253.056 206.696C254.194 207.853 255.669 208.432 257.48 208.432C258.45 208.432 259.3 208.292 260.028 208.012C260.756 207.732 261.353 207.415 261.82 207.06C262.006 207.135 262.184 207.275 262.352 207.48C262.52 207.667 262.604 207.891 262.604 208.152C262.604 208.339 262.548 208.525 262.436 208.712C262.342 208.88 262.174 209.048 261.932 209.216C261.502 209.515 260.914 209.776 260.168 210C259.421 210.243 258.469 210.364 257.312 210.364C255.762 210.364 254.353 210.037 253.084 209.384C251.833 208.712 250.844 207.723 250.116 206.416C249.388 205.109 249.024 203.476 249.024 201.516C249.024 199.556 249.397 197.913 250.144 196.588C250.909 195.263 251.908 194.273 253.14 193.62C254.39 192.948 255.753 192.612 257.228 192.612C258.254 192.612 259.16 192.724 259.944 192.948C260.728 193.172 261.334 193.461 261.764 193.816C262.212 194.152 262.436 194.497 262.436 194.852ZM264.897 202.608L267.137 202.944V209.944C267.043 209.981 266.903 210.019 266.717 210.056C266.53 210.112 266.325 210.14 266.101 210.14C265.709 210.14 265.41 210.065 265.205 209.916C264.999 209.748 264.897 209.487 264.897 209.132V202.608ZM267.137 204.008L264.897 203.7V191.856C264.99 191.819 265.13 191.781 265.317 191.744C265.522 191.688 265.727 191.66 265.933 191.66C266.343 191.66 266.642 191.744 266.829 191.912C267.034 192.061 267.137 192.313 267.137 192.668V204.008ZM270.022 192.976C270.022 192.584 270.162 192.257 270.442 191.996C270.722 191.716 271.067 191.576 271.478 191.576C271.907 191.576 272.253 191.716 272.514 191.996C272.775 192.257 272.906 192.584 272.906 192.976C272.906 193.368 272.775 193.704 272.514 193.984C272.253 194.245 271.907 194.376 271.478 194.376C271.067 194.376 270.722 194.245 270.442 193.984C270.162 193.704 270.022 193.368 270.022 192.976ZM270.358 202.608H272.598V209.944C272.505 209.981 272.365 210.019 272.178 210.056C271.991 210.112 271.786 210.14 271.562 210.14C271.17 210.14 270.871 210.065 270.666 209.916C270.461 209.748 270.358 209.487 270.358 209.132V202.608ZM272.598 203.7H270.358V197.12C270.451 197.083 270.591 197.045 270.778 197.008C270.983 196.952 271.198 196.924 271.422 196.924C271.814 196.924 272.103 197.008 272.29 197.176C272.495 197.325 272.598 197.587 272.598 197.96V203.7ZM276.384 204.96L276.272 203.196L284.728 202.048C284.653 201.021 284.299 200.181 283.664 199.528C283.029 198.856 282.152 198.52 281.032 198.52C279.875 198.52 278.913 198.94 278.148 199.78C277.401 200.601 277.028 201.787 277.028 203.336V203.952C277.159 205.445 277.644 206.584 278.484 207.368C279.343 208.133 280.509 208.516 281.984 208.516C282.768 208.516 283.477 208.385 284.112 208.124C284.747 207.863 285.251 207.583 285.624 207.284C285.829 207.415 285.988 207.573 286.1 207.76C286.231 207.928 286.296 208.124 286.296 208.348C286.296 208.703 286.091 209.039 285.68 209.356C285.288 209.655 284.756 209.897 284.084 210.084C283.431 210.271 282.693 210.364 281.872 210.364C280.435 210.364 279.184 210.103 278.12 209.58C277.075 209.057 276.263 208.283 275.684 207.256C275.124 206.211 274.844 204.941 274.844 203.448C274.844 202.384 274.993 201.441 275.292 200.62C275.609 199.78 276.039 199.071 276.58 198.492C277.14 197.913 277.803 197.475 278.568 197.176C279.333 196.859 280.164 196.7 281.06 196.7C282.199 196.7 283.197 196.943 284.056 197.428C284.933 197.913 285.615 198.595 286.1 199.472C286.604 200.331 286.856 201.32 286.856 202.44C286.856 202.851 286.763 203.149 286.576 203.336C286.389 203.504 286.128 203.607 285.792 203.644L276.384 204.96ZM299.891 201.46V204.316H297.651V201.572C297.651 200.527 297.353 199.761 296.755 199.276C296.177 198.791 295.393 198.548 294.403 198.548C293.657 198.548 292.994 198.641 292.415 198.828C291.837 199.015 291.342 199.229 290.931 199.472V204.316H288.691V199.584C288.691 199.192 288.766 198.875 288.915 198.632C289.083 198.371 289.363 198.119 289.755 197.876C290.241 197.596 290.885 197.335 291.687 197.092C292.49 196.831 293.395 196.7 294.403 196.7C296.102 196.7 297.437 197.092 298.407 197.876C299.397 198.641 299.891 199.836 299.891 201.46ZM288.691 202.776H290.931V209.944C290.838 209.981 290.698 210.019 290.511 210.056C290.325 210.112 290.119 210.14 289.895 210.14C289.503 210.14 289.205 210.065 288.999 209.916C288.794 209.748 288.691 209.487 288.691 209.132V202.776ZM297.651 202.776H299.891V209.944C299.798 209.981 299.649 210.019 299.443 210.056C299.257 210.112 299.061 210.14 298.855 210.14C298.445 210.14 298.137 210.065 297.931 209.916C297.745 209.748 297.651 209.487 297.651 209.132V202.776ZM302.714 202.608H304.954V206.472C304.954 207.219 305.169 207.751 305.598 208.068C306.027 208.367 306.615 208.516 307.362 208.516C307.679 208.516 308.034 208.46 308.426 208.348C308.818 208.236 309.145 208.105 309.406 207.956C309.518 208.068 309.621 208.208 309.714 208.376C309.807 208.544 309.854 208.74 309.854 208.964C309.854 209.375 309.611 209.711 309.126 209.972C308.641 210.233 307.969 210.364 307.11 210.364C305.803 210.364 304.739 210.075 303.918 209.496C303.115 208.917 302.714 207.956 302.714 206.612V202.608ZM303.862 199.192V197.344H309.546C309.602 197.419 309.658 197.54 309.714 197.708C309.77 197.876 309.798 198.053 309.798 198.24C309.798 198.539 309.723 198.772 309.574 198.94C309.425 199.108 309.219 199.192 308.958 199.192H303.862ZM304.954 203.448H302.714V193.312C302.807 193.275 302.947 193.237 303.134 193.2C303.339 193.144 303.554 193.116 303.778 193.116C304.17 193.116 304.459 193.2 304.646 193.368C304.851 193.517 304.954 193.769 304.954 194.124V203.448ZM312.106 204.96L311.994 203.196L320.45 202.048C320.375 201.021 320.02 200.181 319.386 199.528C318.751 198.856 317.874 198.52 316.754 198.52C315.596 198.52 314.635 198.94 313.87 199.78C313.123 200.601 312.75 201.787 312.75 203.336V203.952C312.88 205.445 313.366 206.584 314.206 207.368C315.064 208.133 316.231 208.516 317.706 208.516C318.49 208.516 319.199 208.385 319.834 208.124C320.468 207.863 320.972 207.583 321.346 207.284C321.551 207.415 321.71 207.573 321.822 207.76C321.952 207.928 322.018 208.124 322.018 208.348C322.018 208.703 321.812 209.039 321.402 209.356C321.01 209.655 320.478 209.897 319.806 210.084C319.152 210.271 318.415 210.364 317.594 210.364C316.156 210.364 314.906 210.103 313.842 209.58C312.796 209.057 311.984 208.283 311.406 207.256C310.846 206.211 310.566 204.941 310.566 203.448C310.566 202.384 310.715 201.441 311.014 200.62C311.331 199.78 311.76 199.071 312.302 198.492C312.862 197.913 313.524 197.475 314.29 197.176C315.055 196.859 315.886 196.7 316.782 196.7C317.92 196.7 318.919 196.943 319.778 197.428C320.655 197.913 321.336 198.595 321.822 199.472C322.326 200.331 322.578 201.32 322.578 202.44C322.578 202.851 322.484 203.149 322.298 203.336C322.111 203.504 321.85 203.607 321.514 203.644L312.106 204.96ZM322.761 208.824C322.761 208.376 322.892 208.003 323.153 207.704C323.433 207.405 323.816 207.256 324.301 207.256C324.787 207.256 325.16 207.405 325.421 207.704C325.683 208.003 325.813 208.376 325.813 208.824C325.813 209.253 325.683 209.617 325.421 209.916C325.16 210.215 324.787 210.364 324.301 210.364C323.816 210.364 323.433 210.215 323.153 209.916C322.892 209.617 322.761 209.253 322.761 208.824Z" fill="black"/>
</svg>
