<svg width="371" height="282" viewBox="0 0 371 282" fill="none" xmlns="http://www.w3.org/2000/svg">
<rect width="371" height="282" fill="#FFBD00"/>
<path d="M41.225 46.325C41.225 45.0583 40.9917 44.0333 40.525 43.25C40.075 42.45 39.4583 41.8667 38.675 41.5C37.8917 41.1167 37 40.925 36 40.925C35.6 40.925 35.2333 40.9417 34.9 40.975C34.5667 40.9917 34.25 41.025 33.95 41.075V51.7C34.25 51.7667 34.5917 51.8167 34.975 51.85C35.375 51.8833 35.7583 51.9 36.125 51.9C37.7583 51.9 39.0167 51.4333 39.9 50.5C40.7833 49.55 41.225 48.1583 41.225 46.325ZM44.275 46.3C44.275 48.1 43.9333 49.6 43.25 50.8C42.5833 51.9833 41.6417 52.8667 40.425 53.45C39.2083 54.0333 37.775 54.325 36.125 54.325C35.5917 54.325 34.95 54.2917 34.2 54.225C33.4667 54.175 32.7917 54.0417 32.175 53.825C31.375 53.5583 30.975 53.0917 30.975 52.425V40.025C30.975 39.725 31.0583 39.5 31.225 39.35C31.3917 39.1833 31.6167 39.05 31.9 38.95C32.5 38.7667 33.15 38.6417 33.85 38.575C34.5667 38.5083 35.25 38.475 35.9 38.475C37.5667 38.475 39.025 38.7667 40.275 39.35C41.5417 39.9167 42.525 40.775 43.225 41.925C43.925 43.075 44.275 44.5333 44.275 46.3ZM46.2051 44.125H49.1801V53.95C49.0467 54 48.8551 54.0417 48.6051 54.075C48.3551 54.125 48.0884 54.15 47.8051 54.15C47.2384 54.15 46.8301 54.05 46.5801 53.85C46.3301 53.6333 46.2051 53.275 46.2051 52.775V44.125ZM49.1801 47.45H46.2051V38.825C46.3384 38.7917 46.5301 38.75 46.7801 38.7C47.0467 38.65 47.3134 38.625 47.5801 38.625C48.1301 38.625 48.5301 38.725 48.7801 38.925C49.0467 39.125 49.1801 39.4917 49.1801 40.025V47.45ZM56.3125 51.925C57.2958 51.925 58.0292 51.725 58.5125 51.325C58.9958 50.9083 59.2375 50.3917 59.2375 49.775C59.2375 49.2417 59.0458 48.8 58.6625 48.45C58.2958 48.1 57.7292 47.8083 56.9625 47.575L55.2375 47.05C54.4375 46.7833 53.7292 46.475 53.1125 46.125C52.5125 45.775 52.0458 45.325 51.7125 44.775C51.3792 44.225 51.2125 43.5583 51.2125 42.775C51.2125 41.425 51.7125 40.3667 52.7125 39.6C53.7125 38.8167 55.0708 38.425 56.7875 38.425C57.7208 38.425 58.5458 38.525 59.2625 38.725C59.9958 38.9083 60.5708 39.1667 60.9875 39.5C61.4042 39.8333 61.6125 40.2167 61.6125 40.65C61.6125 40.9333 61.5375 41.1917 61.3875 41.425C61.2375 41.6583 61.0458 41.85 60.8125 42C60.4292 41.7 59.8958 41.4417 59.2125 41.225C58.5458 41.0083 57.8125 40.9 57.0125 40.9C56.1458 40.9 55.4708 41.075 54.9875 41.425C54.5042 41.7583 54.2625 42.2083 54.2625 42.775C54.2625 43.225 54.4292 43.5917 54.7625 43.875C55.0958 44.1583 55.6208 44.4 56.3375 44.6L57.7875 45.05C59.2042 45.4667 60.3042 46.05 61.0875 46.8C61.8875 47.5333 62.2875 48.5333 62.2875 49.8C62.2875 51.15 61.7708 52.25 60.7375 53.1C59.7208 53.95 58.2625 54.375 56.3625 54.375C55.3458 54.375 54.4458 54.2583 53.6625 54.025C52.8792 53.8083 52.2625 53.5167 51.8125 53.15C51.3625 52.7667 51.1375 52.35 51.1375 51.9C51.1375 51.5333 51.2458 51.225 51.4625 50.975C51.6958 50.725 51.9458 50.5417 52.2125 50.425C52.6292 50.7917 53.1792 51.1333 53.8625 51.45C54.5625 51.7667 55.3792 51.925 56.3125 51.925ZM67.4508 41.25L67.3758 38.825H74.2008C74.2674 38.9417 74.3341 39.1083 74.4008 39.325C74.4674 39.525 74.5008 39.7417 74.5008 39.975C74.5008 40.3917 74.4008 40.7083 74.2008 40.925C74.0174 41.1417 73.7591 41.25 73.4258 41.25H67.4508ZM69.3008 38.825L69.3758 41.25H62.5508C62.4674 41.1333 62.3924 40.975 62.3258 40.775C62.2591 40.5583 62.2258 40.325 62.2258 40.075C62.2258 39.6583 62.3174 39.35 62.5008 39.15C62.7008 38.9333 62.9674 38.825 63.3008 38.825H69.3008ZM66.8508 40.575H69.8258V53.95C69.7091 54 69.5174 54.0417 69.2508 54.075C69.0008 54.125 68.7341 54.15 68.4508 54.15C67.8841 54.15 67.4758 54.05 67.2258 53.85C66.9758 53.6333 66.8508 53.275 66.8508 52.775V40.575ZM78.7541 46.25H80.9791C81.9958 46.25 82.8041 46.025 83.4041 45.575C84.0041 45.125 84.3041 44.4583 84.3041 43.575C84.3041 42.6917 84.0041 42.025 83.4041 41.575C82.8041 41.125 81.9208 40.9 80.7541 40.9C80.3874 40.9 80.0291 40.9167 79.6791 40.95C79.3458 40.9833 79.0374 41.025 78.7541 41.075V46.25ZM81.1541 48.6H75.8041V40.05C75.8041 39.75 75.8874 39.525 76.0541 39.375C76.2208 39.2083 76.4458 39.075 76.7291 38.975C77.2458 38.8083 77.8624 38.6833 78.5791 38.6C79.3124 38.5167 80.0541 38.475 80.8041 38.475C82.9708 38.475 84.5958 38.925 85.6791 39.825C86.7624 40.725 87.3041 41.9667 87.3041 43.55C87.3041 44.55 87.0541 45.4333 86.5541 46.2C86.0541 46.95 85.3458 47.5417 84.4291 47.975C83.5291 48.3917 82.4374 48.6 81.1541 48.6ZM80.8291 47.8L83.3041 47.05C83.7374 47.6 84.1791 48.1583 84.6291 48.725C85.0791 49.2917 85.5124 49.85 85.9291 50.4C86.3458 50.9333 86.7208 51.425 87.0541 51.875C87.3874 52.3083 87.6541 52.6583 87.8541 52.925C87.7374 53.325 87.5208 53.6417 87.2041 53.875C86.9041 54.0917 86.5708 54.2 86.2041 54.2C85.7541 54.2 85.3958 54.1 85.1291 53.9C84.8791 53.6833 84.6291 53.3917 84.3791 53.025L80.8291 47.8ZM75.8041 47.575H78.8041V53.95C78.6708 54 78.4708 54.0417 78.2041 54.075C77.9541 54.125 77.6874 54.15 77.4041 54.15C76.8374 54.15 76.4291 54.05 76.1791 53.85C75.9291 53.6333 75.8041 53.275 75.8041 52.775V47.575ZM89.4961 44.125H92.4711V53.95C92.3378 54 92.1461 54.0417 91.8961 54.075C91.6461 54.125 91.3794 54.15 91.0961 54.15C90.5294 54.15 90.1211 54.05 89.8711 53.85C89.6211 53.6333 89.4961 53.275 89.4961 52.775V44.125ZM92.4711 47.45H89.4961V38.825C89.6294 38.7917 89.8211 38.75 90.0711 38.7C90.3378 38.65 90.6044 38.625 90.8711 38.625C91.4211 38.625 91.8211 38.725 92.0711 38.925C92.3378 39.125 92.4711 39.4917 92.4711 40.025V47.45ZM103.329 45.075V47.275H97.1285V45.075H103.329ZM100.979 47.275L101.504 45.6C102.77 45.6 103.82 45.775 104.654 46.125C105.487 46.475 106.112 46.9583 106.529 47.575C106.962 48.175 107.179 48.8833 107.179 49.7C107.179 51.2667 106.604 52.4333 105.454 53.2C104.304 53.95 102.67 54.325 100.554 54.325C100.12 54.325 99.6618 54.3083 99.1785 54.275C98.6952 54.2583 98.2118 54.2083 97.7285 54.125C97.2618 54.0417 96.8202 53.9417 96.4035 53.825C95.6035 53.5583 95.2035 53.0833 95.2035 52.4V40.05C95.2035 39.75 95.2868 39.5167 95.4535 39.35C95.6202 39.1833 95.8452 39.0583 96.1285 38.975C96.6952 38.7917 97.3452 38.6667 98.0785 38.6C98.8118 38.5167 99.5702 38.475 100.354 38.475C102.337 38.475 103.87 38.825 104.954 39.525C106.054 40.225 106.604 41.2833 106.604 42.7C106.604 43.45 106.395 44.1167 105.979 44.7C105.579 45.2833 104.962 45.7417 104.129 46.075C103.312 46.3917 102.262 46.55 100.979 46.55L100.804 45.075C101.737 45.075 102.437 44.8833 102.904 44.5C103.387 44.1167 103.629 43.575 103.629 42.875C103.629 42.2083 103.354 41.7 102.804 41.35C102.254 40.9833 101.445 40.8 100.379 40.8C99.9452 40.8 99.5285 40.8167 99.1285 40.85C98.7452 40.8833 98.4035 40.925 98.1035 40.975V51.75C98.4368 51.8167 98.8368 51.875 99.3035 51.925C99.7702 51.9583 100.229 51.975 100.679 51.975C101.779 51.975 102.629 51.7833 103.229 51.4C103.845 51 104.154 50.4 104.154 49.6C104.154 48.85 103.879 48.275 103.329 47.875C102.795 47.475 102.012 47.275 100.979 47.275ZM115.339 54.375C114.039 54.375 112.922 54.1417 111.989 53.675C111.056 53.1917 110.339 52.5167 109.839 51.65C109.356 50.7833 109.114 49.775 109.114 48.625V46.8H112.064V48.5C112.064 49.6167 112.372 50.4667 112.989 51.05C113.622 51.6333 114.406 51.925 115.339 51.925C116.289 51.925 117.072 51.6333 117.689 51.05C118.306 50.4667 118.614 49.6167 118.614 48.5V46.8H121.589V48.625C121.589 49.775 121.339 50.7833 120.839 51.65C120.356 52.5167 119.647 53.1917 118.714 53.675C117.781 54.1417 116.656 54.375 115.339 54.375ZM112.064 47.675H109.114V38.825C109.231 38.7917 109.422 38.75 109.689 38.7C109.956 38.65 110.222 38.625 110.489 38.625C111.039 38.625 111.439 38.725 111.689 38.925C111.939 39.125 112.064 39.4917 112.064 40.025V47.675ZM121.589 47.7H118.614V38.825C118.747 38.7917 118.939 38.75 119.189 38.7C119.456 38.65 119.722 38.625 119.989 38.625C120.556 38.625 120.964 38.725 121.214 38.925C121.464 39.125 121.589 39.4917 121.589 40.025V47.7ZM135.696 40.7C135.696 41 135.613 41.2667 135.446 41.5C135.279 41.7333 135.079 41.9167 134.846 42.05C134.429 41.75 133.946 41.4833 133.396 41.25C132.846 41 132.154 40.875 131.321 40.875C130.371 40.875 129.538 41.0917 128.821 41.525C128.104 41.9417 127.538 42.5667 127.121 43.4C126.721 44.2167 126.521 45.225 126.521 46.425C126.521 48.2417 126.971 49.6167 127.871 50.55C128.771 51.4667 129.971 51.925 131.471 51.925C132.254 51.925 132.938 51.8167 133.521 51.6C134.104 51.3667 134.604 51.1083 135.021 50.825C135.238 50.9583 135.421 51.15 135.571 51.4C135.738 51.6333 135.821 51.9 135.821 52.2C135.821 52.4667 135.746 52.7083 135.596 52.925C135.463 53.1417 135.238 53.3417 134.921 53.525C134.571 53.7417 134.088 53.9333 133.471 54.1C132.854 54.2833 132.079 54.375 131.146 54.375C129.713 54.375 128.413 54.0833 127.246 53.5C126.079 52.9167 125.154 52.0417 124.471 50.875C123.788 49.6917 123.446 48.2083 123.446 46.425C123.446 44.675 123.788 43.2083 124.471 42.025C125.171 40.8417 126.088 39.95 127.221 39.35C128.371 38.7333 129.621 38.425 130.971 38.425C131.938 38.425 132.771 38.5333 133.471 38.75C134.188 38.9667 134.738 39.25 135.121 39.6C135.504 39.9333 135.696 40.3 135.696 40.7ZM137.572 44.125H140.547V53.95C140.414 54 140.222 54.0417 139.972 54.075C139.722 54.125 139.456 54.15 139.172 54.15C138.606 54.15 138.197 54.05 137.947 53.85C137.697 53.6333 137.572 53.275 137.572 52.775V44.125ZM140.547 47.45H137.572V38.825C137.706 38.7917 137.897 38.75 138.147 38.7C138.414 38.65 138.681 38.625 138.947 38.625C139.497 38.625 139.897 38.725 140.147 38.925C140.414 39.125 140.547 39.4917 140.547 40.025V47.45ZM157.505 46.4C157.505 48.1333 157.171 49.5917 156.505 50.775C155.855 51.9583 154.963 52.8583 153.83 53.475C152.696 54.075 151.413 54.375 149.98 54.375C148.546 54.375 147.263 54.075 146.13 53.475C144.996 52.8583 144.096 51.9583 143.43 50.775C142.78 49.5917 142.455 48.1333 142.455 46.4C142.455 44.6667 142.788 43.2083 143.455 42.025C144.138 40.8417 145.046 39.95 146.18 39.35C147.313 38.7333 148.58 38.425 149.98 38.425C151.396 38.425 152.671 38.7333 153.805 39.35C154.938 39.95 155.838 40.8417 156.505 42.025C157.171 43.2083 157.505 44.6667 157.505 46.4ZM154.455 46.4C154.455 44.6167 154.046 43.25 153.23 42.3C152.413 41.35 151.33 40.875 149.98 40.875C148.646 40.875 147.571 41.35 146.755 42.3C145.938 43.25 145.53 44.6167 145.53 46.4C145.53 48.2 145.93 49.575 146.73 50.525C147.546 51.4583 148.63 51.925 149.98 51.925C151.346 51.925 152.43 51.4583 153.23 50.525C154.046 49.575 154.455 48.2 154.455 46.4ZM149.43 35.575L151.955 33.25C152.455 33.25 152.838 33.375 153.105 33.625C153.388 33.8583 153.53 34.15 153.53 34.5C153.53 34.7667 153.463 35 153.33 35.2C153.213 35.4 152.996 35.6167 152.68 35.85L150.405 37.55C149.938 37.5333 149.58 37.425 149.33 37.225C149.096 37.025 148.98 36.7833 148.98 36.5C148.98 36.3333 149.013 36.175 149.08 36.025C149.146 35.875 149.263 35.725 149.43 35.575ZM159.413 41.925L162.063 41.825C162.129 42.4417 162.179 43.1 162.213 43.8C162.246 44.5 162.271 45.2 162.288 45.9C162.304 46.5833 162.313 47.25 162.313 47.9V53.975C162.196 54.0083 162.013 54.0417 161.763 54.075C161.513 54.125 161.254 54.15 160.988 54.15C160.438 54.15 160.038 54.05 159.788 53.85C159.538 53.65 159.413 53.3083 159.413 52.825V41.925ZM172.137 50.875L169.488 50.95C169.354 49.65 169.279 48.3667 169.263 47.1C169.246 45.8333 169.238 44.6083 169.238 43.425V38.825C169.371 38.7917 169.554 38.75 169.788 38.7C170.038 38.65 170.304 38.625 170.588 38.625C171.138 38.625 171.529 38.7333 171.763 38.95C172.013 39.15 172.137 39.4917 172.137 39.975V50.875ZM172.137 49.875V48.55V53.625C171.954 53.775 171.704 53.9 171.388 54C171.071 54.1167 170.704 54.175 170.287 54.175C169.804 54.175 169.363 54.0917 168.963 53.925C168.579 53.7583 168.246 53.4083 167.963 52.875L164.138 46.05C163.921 45.6333 163.688 45.2083 163.438 44.775C163.204 44.325 162.979 43.8833 162.763 43.45C162.563 43.0167 162.379 42.625 162.213 42.275L159.413 42.925V39.3C159.596 39.1 159.854 38.9417 160.188 38.825C160.521 38.7083 160.888 38.65 161.288 38.65C161.771 38.65 162.204 38.7333 162.588 38.9C162.988 39.0667 163.329 39.4167 163.613 39.95L167.463 46.75C167.696 47.1667 167.929 47.6 168.163 48.05C168.396 48.5 168.613 48.9417 168.813 49.375C169.013 49.7917 169.188 50.175 169.338 50.525L172.137 49.875Z" fill="black"/>
<path d="M31.225 92.85H33.25V101.8C33.1833 101.817 33.0583 101.858 32.875 101.925C32.6917 101.975 32.5083 102 32.325 102C31.9917 102 31.725 101.9 31.525 101.7C31.325 101.483 31.225 101.217 31.225 100.9V92.85ZM33.25 95.8L31.225 95.775V87.9C31.225 87.5667 31.325 87.3 31.525 87.1C31.725 86.9 31.9917 86.8 32.325 86.8C32.5083 86.8 32.6917 86.825 32.875 86.875C33.0583 86.925 33.1833 86.9667 33.25 87V95.8ZM32.325 95.05V93.35H39.85C39.9 93.4167 39.95 93.525 40 93.675C40.05 93.825 40.075 93.9833 40.075 94.15C40.075 94.4167 40.0083 94.6333 39.875 94.8C39.7417 94.9667 39.55 95.05 39.3 95.05H32.325ZM32.325 102V100.3H40.75C40.8 100.367 40.85 100.475 40.9 100.625C40.95 100.758 40.975 100.917 40.975 101.1C40.975 101.367 40.9083 101.583 40.775 101.75C40.6417 101.917 40.45 102 40.2 102H32.325ZM32.325 88.525V86.8H40.625C40.675 86.8667 40.725 86.975 40.775 87.125C40.825 87.275 40.85 87.4333 40.85 87.6C40.85 87.8667 40.7833 88.0917 40.65 88.275C40.5167 88.4417 40.325 88.525 40.075 88.525H32.325ZM52.833 94.375V96.925H50.833V94.475C50.833 93.5417 50.5663 92.8583 50.033 92.425C49.5163 91.9917 48.8163 91.775 47.933 91.775C47.2663 91.775 46.6747 91.8583 46.158 92.025C45.6413 92.1917 45.1997 92.3833 44.833 92.6V96.925H42.833V92.7C42.833 92.35 42.8997 92.0667 43.033 91.85C43.183 91.6167 43.433 91.3917 43.783 91.175C44.2163 90.925 44.7913 90.6917 45.508 90.475C46.2247 90.2417 47.033 90.125 47.933 90.125C49.4497 90.125 50.6413 90.475 51.508 91.175C52.3913 91.8583 52.833 92.925 52.833 94.375ZM42.833 95.55H44.833V101.95C44.7497 101.983 44.6247 102.017 44.458 102.05C44.2913 102.1 44.108 102.125 43.908 102.125C43.558 102.125 43.2913 102.058 43.108 101.925C42.9247 101.775 42.833 101.542 42.833 101.225V95.55ZM50.833 95.55H52.833V101.95C52.7497 101.983 52.6163 102.017 52.433 102.05C52.2663 102.1 52.0913 102.125 51.908 102.125C51.5413 102.125 51.2663 102.058 51.083 101.925C50.9163 101.775 50.833 101.542 50.833 101.225V95.55ZM55.3531 95.4H57.3531V98.85C57.3531 99.5167 57.5448 99.9917 57.9281 100.275C58.3115 100.542 58.8365 100.675 59.5031 100.675C59.7865 100.675 60.1031 100.625 60.4531 100.525C60.8031 100.425 61.0948 100.308 61.3281 100.175C61.4281 100.275 61.5198 100.4 61.6031 100.55C61.6865 100.7 61.7281 100.875 61.7281 101.075C61.7281 101.442 61.5115 101.742 61.0781 101.975C60.6448 102.208 60.0448 102.325 59.2781 102.325C58.1115 102.325 57.1615 102.067 56.4281 101.55C55.7115 101.033 55.3531 100.175 55.3531 98.975V95.4ZM56.3781 92.35V90.7H61.4531C61.5031 90.7667 61.5531 90.875 61.6031 91.025C61.6531 91.175 61.6781 91.3333 61.6781 91.5C61.6781 91.7667 61.6115 91.975 61.4781 92.125C61.3448 92.275 61.1615 92.35 60.9281 92.35H56.3781ZM57.3531 96.15H55.3531V87.1C55.4365 87.0667 55.5615 87.0333 55.7281 87C55.9115 86.95 56.1031 86.925 56.3031 86.925C56.6531 86.925 56.9115 87 57.0781 87.15C57.2615 87.2833 57.3531 87.5083 57.3531 87.825V96.15ZM65.3799 92.6V96.55H63.3799V92.75C63.3799 92.3667 63.4465 92.0667 63.5799 91.85C63.7299 91.6167 63.9715 91.3917 64.3049 91.175C64.7382 90.8917 65.3299 90.65 66.0799 90.45C66.8299 90.2333 67.6632 90.125 68.5799 90.125C69.9132 90.125 70.5799 90.4583 70.5799 91.125C70.5799 91.2917 70.5549 91.45 70.5049 91.6C70.4549 91.7333 70.3882 91.85 70.3049 91.95C70.1382 91.9167 69.9215 91.8833 69.6549 91.85C69.3882 91.8167 69.1215 91.8 68.8549 91.8C68.0882 91.8 67.4132 91.8833 66.8299 92.05C66.2465 92.2 65.7632 92.3833 65.3799 92.6ZM63.3799 95.4L65.3799 95.7V101.95C65.2965 101.983 65.1715 102.017 65.0049 102.05C64.8382 102.1 64.6549 102.125 64.4549 102.125C64.1049 102.125 63.8382 102.058 63.6549 101.925C63.4715 101.775 63.3799 101.542 63.3799 101.225V95.4ZM72.1566 97.5L72.0566 95.925L79.6066 94.9C79.54 93.9833 79.2233 93.2333 78.6566 92.65C78.09 92.05 77.3066 91.75 76.3066 91.75C75.2733 91.75 74.415 92.125 73.7316 92.875C73.065 93.6083 72.7316 94.6667 72.7316 96.05V96.6C72.8483 97.9333 73.2816 98.95 74.0316 99.65C74.7983 100.333 75.84 100.675 77.1566 100.675C77.8566 100.675 78.49 100.558 79.0566 100.325C79.6233 100.092 80.0733 99.8417 80.4066 99.575C80.59 99.6917 80.7316 99.8333 80.8316 100C80.9483 100.15 81.0066 100.325 81.0066 100.525C81.0066 100.842 80.8233 101.142 80.4566 101.425C80.1066 101.692 79.6316 101.908 79.0316 102.075C78.4483 102.242 77.79 102.325 77.0566 102.325C75.7733 102.325 74.6566 102.092 73.7066 101.625C72.7733 101.158 72.0483 100.467 71.5316 99.55C71.0316 98.6167 70.7816 97.4833 70.7816 96.15C70.7816 95.2 70.915 94.3583 71.1816 93.625C71.465 92.875 71.8483 92.2417 72.3316 91.725C72.8316 91.2083 73.4233 90.8167 74.1066 90.55C74.79 90.2667 75.5316 90.125 76.3316 90.125C77.3483 90.125 78.24 90.3417 79.0066 90.775C79.79 91.2083 80.3983 91.8167 80.8316 92.6C81.2816 93.3667 81.5066 94.25 81.5066 95.25C81.5066 95.6167 81.4233 95.8833 81.2566 96.05C81.09 96.2 80.8566 96.2917 80.5566 96.325L72.1566 97.5ZM87.9455 101.65C86.9788 101.65 86.0872 101.467 85.2705 101.1C84.4538 100.717 83.7955 100.1 83.2955 99.25C82.7955 98.4 82.5455 97.275 82.5455 95.875C82.5455 94.6083 82.7872 93.55 83.2705 92.7C83.7705 91.85 84.4538 91.2083 85.3205 90.775C86.1872 90.3417 87.1788 90.125 88.2955 90.125C89.0622 90.125 89.7622 90.225 90.3955 90.425C91.0455 90.6083 91.5872 90.8417 92.0205 91.125C92.2705 91.2917 92.4705 91.4833 92.6205 91.7C92.7872 91.9 92.8705 92.15 92.8705 92.45V100.175H90.8705V92.475C90.5872 92.2917 90.2288 92.1333 89.7955 92C89.3788 91.85 88.8788 91.775 88.2955 91.775C87.1788 91.775 86.2788 92.1167 85.5955 92.8C84.9122 93.4833 84.5705 94.5 84.5705 95.85C84.5705 97.35 84.9122 98.4167 85.5955 99.05C86.2955 99.6833 87.1538 100 88.1705 100C88.9038 100 89.4955 99.875 89.9455 99.625C90.3955 99.375 90.7538 99.1 91.0205 98.8L91.1205 100.575C90.8705 100.842 90.4705 101.092 89.9205 101.325C89.3872 101.542 88.7288 101.65 87.9455 101.65ZM90.8705 102.375V99.75H92.8705V102.5C92.8705 103.6 92.6288 104.483 92.1455 105.15C91.6788 105.817 91.0288 106.3 90.1955 106.6C89.3788 106.9 88.4538 107.05 87.4205 107.05C86.5872 107.05 85.8705 106.958 85.2705 106.775C84.6705 106.592 84.2622 106.442 84.0455 106.325C83.5455 106.042 83.2955 105.683 83.2955 105.25C83.2955 105.017 83.3455 104.817 83.4455 104.65C83.5622 104.5 83.7038 104.383 83.8705 104.3C84.2205 104.567 84.7122 104.808 85.3455 105.025C85.9955 105.258 86.6872 105.375 87.4205 105.375C88.5372 105.375 89.3872 105.133 89.9705 104.65C90.5705 104.167 90.8705 103.408 90.8705 102.375ZM99.4482 102.35C97.8816 102.35 96.6649 102.042 95.7982 101.425C94.9482 100.808 94.5232 99.9167 94.5232 98.75C94.5232 97.6667 94.8816 96.8417 95.5982 96.275C96.3316 95.6917 97.3399 95.3417 98.6232 95.225L102.173 94.875V94.175C102.173 93.3417 101.923 92.7333 101.423 92.35C100.923 91.9667 100.248 91.775 99.3982 91.775C98.7149 91.775 98.0566 91.875 97.4232 92.075C96.8066 92.275 96.2566 92.5 95.7732 92.75C95.6399 92.6333 95.5149 92.5 95.3982 92.35C95.2982 92.1833 95.2482 92.0167 95.2482 91.85C95.2482 91.4167 95.4899 91.0833 95.9732 90.85C96.4232 90.6167 96.9399 90.4417 97.5232 90.325C98.1232 90.1917 98.7566 90.125 99.4232 90.125C100.873 90.125 102.023 90.45 102.873 91.1C103.723 91.75 104.148 92.775 104.148 94.175V100.1C104.148 100.467 104.073 100.75 103.923 100.95C103.79 101.133 103.582 101.308 103.298 101.475C102.898 101.692 102.365 101.892 101.698 102.075C101.032 102.258 100.282 102.35 99.4482 102.35ZM99.4482 100.7C100.148 100.7 100.723 100.633 101.173 100.5C101.64 100.35 101.973 100.208 102.173 100.075V96.45L99.0732 96.775C98.2066 96.8417 97.5649 97.0333 97.1482 97.35C96.7316 97.6667 96.5232 98.125 96.5232 98.725C96.5232 99.3417 96.7649 99.825 97.2482 100.175C97.7482 100.525 98.4816 100.7 99.4482 100.7ZM115.229 102.325C114.512 102.325 113.837 102.217 113.204 102C112.587 101.8 112.137 101.575 111.854 101.325V99.475C112.187 99.7917 112.604 100.075 113.104 100.325C113.62 100.558 114.237 100.675 114.954 100.675C116.12 100.675 117.054 100.325 117.754 99.625C118.47 98.9083 118.829 97.7667 118.829 96.2C118.829 95.1 118.645 94.2333 118.279 93.6C117.929 92.95 117.454 92.4833 116.854 92.2C116.27 91.9167 115.637 91.775 114.954 91.775C114.354 91.775 113.845 91.85 113.429 92C113.012 92.15 112.637 92.3167 112.304 92.5V100.8H110.304V92.55C110.304 92.2167 110.362 91.95 110.479 91.75C110.595 91.55 110.837 91.3417 111.204 91.125C111.654 90.875 112.187 90.65 112.804 90.45C113.437 90.2333 114.154 90.125 114.954 90.125C116.054 90.125 117.045 90.3417 117.929 90.775C118.829 91.1917 119.537 91.85 120.054 92.75C120.587 93.6333 120.854 94.7833 120.854 96.2C120.854 97.5667 120.612 98.7083 120.129 99.625C119.662 100.525 119.004 101.2 118.154 101.65C117.304 102.1 116.329 102.325 115.229 102.325ZM111.379 106.675C111.029 106.675 110.762 106.6 110.579 106.45C110.395 106.3 110.304 106.067 110.304 105.75V100.075L112.304 100.125V106.5C112.22 106.533 112.095 106.567 111.929 106.6C111.762 106.65 111.579 106.675 111.379 106.675ZM123.426 97.5L123.326 95.925L130.876 94.9C130.81 93.9833 130.493 93.2333 129.926 92.65C129.36 92.05 128.576 91.75 127.576 91.75C126.543 91.75 125.685 92.125 125.001 92.875C124.335 93.6083 124.001 94.6667 124.001 96.05V96.6C124.118 97.9333 124.551 98.95 125.301 99.65C126.068 100.333 127.11 100.675 128.426 100.675C129.126 100.675 129.76 100.558 130.326 100.325C130.893 100.092 131.343 99.8417 131.676 99.575C131.86 99.6917 132.001 99.8333 132.101 100C132.218 100.15 132.276 100.325 132.276 100.525C132.276 100.842 132.093 101.142 131.726 101.425C131.376 101.692 130.901 101.908 130.301 102.075C129.718 102.242 129.06 102.325 128.326 102.325C127.043 102.325 125.926 102.092 124.976 101.625C124.043 101.158 123.318 100.467 122.801 99.55C122.301 98.6167 122.051 97.4833 122.051 96.15C122.051 95.2 122.185 94.3583 122.451 93.625C122.735 92.875 123.118 92.2417 123.601 91.725C124.101 91.2083 124.693 90.8167 125.376 90.55C126.06 90.2667 126.801 90.125 127.601 90.125C128.618 90.125 129.51 90.3417 130.276 90.775C131.06 91.2083 131.668 91.8167 132.101 92.6C132.551 93.3667 132.776 94.25 132.776 95.25C132.776 95.6167 132.693 95.8833 132.526 96.05C132.36 96.2 132.126 96.2917 131.826 96.325L123.426 97.5ZM136.415 92.6V96.55H134.415V92.75C134.415 92.3667 134.482 92.0667 134.615 91.85C134.765 91.6167 135.007 91.3917 135.34 91.175C135.773 90.8917 136.365 90.65 137.115 90.45C137.865 90.2333 138.698 90.125 139.615 90.125C140.948 90.125 141.615 90.4583 141.615 91.125C141.615 91.2917 141.59 91.45 141.54 91.6C141.49 91.7333 141.423 91.85 141.34 91.95C141.173 91.9167 140.957 91.8833 140.69 91.85C140.423 91.8167 140.157 91.8 139.89 91.8C139.123 91.8 138.448 91.8833 137.865 92.05C137.282 92.2 136.798 92.3833 136.415 92.6ZM134.415 95.4L136.415 95.7V101.95C136.332 101.983 136.207 102.017 136.04 102.05C135.873 102.1 135.69 102.125 135.49 102.125C135.14 102.125 134.873 102.058 134.69 101.925C134.507 101.775 134.415 101.542 134.415 101.225V95.4ZM150.861 98.925C150.861 99.9917 150.469 100.825 149.686 101.425C148.903 102.025 147.769 102.325 146.286 102.325C145.019 102.325 143.986 102.133 143.186 101.75C142.386 101.35 141.986 100.917 141.986 100.45C141.986 100.25 142.036 100.058 142.136 99.875C142.253 99.675 142.419 99.5167 142.636 99.4C143.086 99.7167 143.611 100.008 144.211 100.275C144.811 100.542 145.494 100.675 146.261 100.675C147.994 100.675 148.861 100.092 148.861 98.925C148.861 98.4417 148.711 98.05 148.411 97.75C148.128 97.4333 147.703 97.2083 147.136 97.075L145.061 96.525C144.044 96.275 143.303 95.8917 142.836 95.375C142.369 94.8417 142.136 94.1833 142.136 93.4C142.136 92.5167 142.494 91.75 143.211 91.1C143.928 90.45 145.019 90.125 146.486 90.125C147.269 90.125 147.953 90.2083 148.536 90.375C149.119 90.525 149.569 90.7333 149.886 91C150.219 91.25 150.386 91.525 150.386 91.825C150.386 92.0417 150.328 92.2333 150.211 92.4C150.111 92.5667 149.969 92.6917 149.786 92.775C149.586 92.6417 149.328 92.5 149.011 92.35C148.711 92.1833 148.353 92.05 147.936 91.95C147.519 91.8333 147.061 91.775 146.561 91.775C145.828 91.775 145.236 91.9167 144.786 92.2C144.336 92.4833 144.111 92.8833 144.111 93.4C144.111 93.7667 144.236 94.0917 144.486 94.375C144.753 94.6417 145.169 94.8417 145.736 94.975L147.461 95.4C148.594 95.6667 149.444 96.0917 150.011 96.675C150.578 97.2417 150.861 97.9917 150.861 98.925ZM163.49 96.225C163.49 97.4583 163.256 98.5333 162.79 99.45C162.323 100.367 161.665 101.075 160.815 101.575C159.965 102.075 158.965 102.325 157.815 102.325C156.665 102.325 155.656 102.075 154.79 101.575C153.94 101.075 153.281 100.367 152.815 99.45C152.348 98.5333 152.115 97.4583 152.115 96.225C152.115 94.975 152.348 93.9 152.815 93C153.298 92.0833 153.965 91.375 154.815 90.875C155.681 90.375 156.681 90.125 157.815 90.125C158.948 90.125 159.94 90.375 160.79 90.875C161.64 91.375 162.298 92.0833 162.765 93C163.248 93.9 163.49 94.975 163.49 96.225ZM157.815 91.775C156.698 91.775 155.806 92.175 155.14 92.975C154.49 93.7583 154.165 94.8417 154.165 96.225C154.165 97.625 154.481 98.7167 155.115 99.5C155.765 100.283 156.665 100.675 157.815 100.675C158.948 100.675 159.831 100.283 160.465 99.5C161.115 98.7 161.44 97.6083 161.44 96.225C161.44 94.8417 161.115 93.7583 160.465 92.975C159.831 92.175 158.948 91.775 157.815 91.775ZM175.333 94.375V96.925H173.333V94.475C173.333 93.5417 173.066 92.8583 172.533 92.425C172.016 91.9917 171.316 91.775 170.433 91.775C169.766 91.775 169.175 91.8583 168.658 92.025C168.141 92.1917 167.7 92.3833 167.333 92.6V96.925H165.333V92.7C165.333 92.35 165.4 92.0667 165.533 91.85C165.683 91.6167 165.933 91.3917 166.283 91.175C166.716 90.925 167.291 90.6917 168.008 90.475C168.725 90.2417 169.533 90.125 170.433 90.125C171.95 90.125 173.141 90.475 174.008 91.175C174.891 91.8583 175.333 92.925 175.333 94.375ZM165.333 95.55H167.333V101.95C167.25 101.983 167.125 102.017 166.958 102.05C166.791 102.1 166.608 102.125 166.408 102.125C166.058 102.125 165.791 102.058 165.608 101.925C165.425 101.775 165.333 101.542 165.333 101.225V95.55ZM173.333 95.55H175.333V101.95C175.25 101.983 175.116 102.017 174.933 102.05C174.766 102.1 174.591 102.125 174.408 102.125C174.041 102.125 173.766 102.058 173.583 101.925C173.416 101.775 173.333 101.542 173.333 101.225V95.55ZM181.953 102.35C180.386 102.35 179.17 102.042 178.303 101.425C177.453 100.808 177.028 99.9167 177.028 98.75C177.028 97.6667 177.386 96.8417 178.103 96.275C178.836 95.6917 179.845 95.3417 181.128 95.225L184.678 94.875V94.175C184.678 93.3417 184.428 92.7333 183.928 92.35C183.428 91.9667 182.753 91.775 181.903 91.775C181.22 91.775 180.561 91.875 179.928 92.075C179.311 92.275 178.761 92.5 178.278 92.75C178.145 92.6333 178.02 92.5 177.903 92.35C177.803 92.1833 177.753 92.0167 177.753 91.85C177.753 91.4167 177.995 91.0833 178.478 90.85C178.928 90.6167 179.445 90.4417 180.028 90.325C180.628 90.1917 181.261 90.125 181.928 90.125C183.378 90.125 184.528 90.45 185.378 91.1C186.228 91.75 186.653 92.775 186.653 94.175V100.1C186.653 100.467 186.578 100.75 186.428 100.95C186.295 101.133 186.086 101.308 185.803 101.475C185.403 101.692 184.87 101.892 184.203 102.075C183.536 102.258 182.786 102.35 181.953 102.35ZM181.953 100.7C182.653 100.7 183.228 100.633 183.678 100.5C184.145 100.35 184.478 100.208 184.678 100.075V96.45L181.578 96.775C180.711 96.8417 180.07 97.0333 179.653 97.35C179.236 97.6667 179.028 98.125 179.028 98.725C179.028 99.3417 179.27 99.825 179.753 100.175C180.253 100.525 180.986 100.7 181.953 100.7ZM189.254 95.4L191.254 95.7V101.95C191.17 101.983 191.045 102.017 190.879 102.05C190.712 102.1 190.529 102.125 190.329 102.125C189.979 102.125 189.712 102.058 189.529 101.925C189.345 101.775 189.254 101.542 189.254 101.225V95.4ZM191.254 96.65L189.254 96.375V85.8C189.337 85.7667 189.462 85.7333 189.629 85.7C189.812 85.65 189.995 85.625 190.179 85.625C190.545 85.625 190.812 85.7 190.979 85.85C191.162 85.9833 191.254 86.2083 191.254 86.525V96.65ZM193.83 86.8C193.83 86.45 193.955 86.1583 194.205 85.925C194.455 85.675 194.763 85.55 195.13 85.55C195.513 85.55 195.822 85.675 196.055 85.925C196.288 86.1583 196.405 86.45 196.405 86.8C196.405 87.15 196.288 87.45 196.055 87.7C195.822 87.9333 195.513 88.05 195.13 88.05C194.763 88.05 194.455 87.9333 194.205 87.7C193.955 87.45 193.83 87.15 193.83 86.8ZM194.13 95.4H196.13V101.95C196.047 101.983 195.922 102.017 195.755 102.05C195.588 102.1 195.405 102.125 195.205 102.125C194.855 102.125 194.588 102.058 194.405 101.925C194.222 101.775 194.13 101.542 194.13 101.225V95.4ZM196.13 96.375H194.13V90.5C194.213 90.4667 194.338 90.4333 194.505 90.4C194.688 90.35 194.88 90.325 195.08 90.325C195.43 90.325 195.688 90.4 195.855 90.55C196.038 90.6833 196.13 90.9167 196.13 91.25V96.375ZM199.235 102H198.435C198.318 101.9 198.218 101.775 198.135 101.625C198.068 101.458 198.035 101.292 198.035 101.125C198.035 100.925 198.077 100.742 198.16 100.575C198.26 100.392 198.368 100.217 198.485 100.05L206.16 90.45H206.935C207.068 90.5667 207.168 90.7 207.235 90.85C207.318 91 207.36 91.1667 207.36 91.35C207.36 91.5333 207.318 91.7083 207.235 91.875C207.152 92.0417 207.035 92.2167 206.885 92.4L199.235 102ZM206.66 90.45V92.1H198.41C198.36 92.0167 198.31 91.9 198.26 91.75C198.21 91.6 198.185 91.4417 198.185 91.275C198.185 90.9917 198.252 90.7833 198.385 90.65C198.518 90.5167 198.702 90.45 198.935 90.45H206.66ZM198.585 102V100.375H207.31C207.36 100.442 207.41 100.55 207.46 100.7C207.51 100.833 207.535 100.992 207.535 101.175C207.535 101.442 207.468 101.65 207.335 101.8C207.202 101.933 207.01 102 206.76 102H198.585ZM213.379 102.35C211.812 102.35 210.596 102.042 209.729 101.425C208.879 100.808 208.454 99.9167 208.454 98.75C208.454 97.6667 208.812 96.8417 209.529 96.275C210.262 95.6917 211.271 95.3417 212.554 95.225L216.104 94.875V94.175C216.104 93.3417 215.854 92.7333 215.354 92.35C214.854 91.9667 214.179 91.775 213.329 91.775C212.646 91.775 211.987 91.875 211.354 92.075C210.737 92.275 210.187 92.5 209.704 92.75C209.571 92.6333 209.446 92.5 209.329 92.35C209.229 92.1833 209.179 92.0167 209.179 91.85C209.179 91.4167 209.421 91.0833 209.904 90.85C210.354 90.6167 210.871 90.4417 211.454 90.325C212.054 90.1917 212.687 90.125 213.354 90.125C214.804 90.125 215.954 90.45 216.804 91.1C217.654 91.75 218.079 92.775 218.079 94.175V100.1C218.079 100.467 218.004 100.75 217.854 100.95C217.721 101.133 217.512 101.308 217.229 101.475C216.829 101.692 216.296 101.892 215.629 102.075C214.962 102.258 214.212 102.35 213.379 102.35ZM213.379 100.7C214.079 100.7 214.654 100.633 215.104 100.5C215.571 100.35 215.904 100.208 216.104 100.075V96.45L213.004 96.775C212.137 96.8417 211.496 97.0333 211.079 97.35C210.662 97.6667 210.454 98.125 210.454 98.725C210.454 99.3417 210.696 99.825 211.179 100.175C211.679 100.525 212.412 100.7 213.379 100.7ZM228.354 100.025V91.625L230.354 91.6V100.1C230.354 100.417 230.279 100.675 230.129 100.875C229.996 101.058 229.779 101.242 229.479 101.425C229.146 101.642 228.671 101.842 228.054 102.025C227.438 102.225 226.729 102.325 225.929 102.325C224.729 102.325 223.671 102.117 222.754 101.7C221.838 101.283 221.121 100.633 220.604 99.75C220.088 98.85 219.829 97.6917 219.829 96.275C219.829 94.825 220.079 93.65 220.579 92.75C221.096 91.85 221.788 91.1917 222.654 90.775C223.521 90.3417 224.471 90.125 225.504 90.125C226.154 90.125 226.771 90.2167 227.354 90.4C227.938 90.5833 228.396 90.8083 228.729 91.075V92.925C228.413 92.6083 227.996 92.3417 227.479 92.125C226.979 91.8917 226.388 91.775 225.704 91.775C225.021 91.775 224.388 91.925 223.804 92.225C223.221 92.5083 222.754 92.9833 222.404 93.65C222.054 94.3167 221.879 95.2083 221.879 96.325C221.879 97.8417 222.246 98.95 222.979 99.65C223.713 100.333 224.688 100.675 225.904 100.675C226.488 100.675 226.963 100.617 227.329 100.5C227.713 100.367 228.054 100.208 228.354 100.025ZM230.354 92.1L228.354 92.125V85.8C228.438 85.7667 228.563 85.7333 228.729 85.7C228.913 85.65 229.096 85.625 229.279 85.625C229.646 85.625 229.913 85.7 230.079 85.85C230.263 85.9833 230.354 86.2083 230.354 86.525V92.1ZM237.026 102.35C235.46 102.35 234.243 102.042 233.376 101.425C232.526 100.808 232.101 99.9167 232.101 98.75C232.101 97.6667 232.46 96.8417 233.176 96.275C233.91 95.6917 234.918 95.3417 236.201 95.225L239.751 94.875V94.175C239.751 93.3417 239.501 92.7333 239.001 92.35C238.501 91.9667 237.826 91.775 236.976 91.775C236.293 91.775 235.635 91.875 235.001 92.075C234.385 92.275 233.835 92.5 233.351 92.75C233.218 92.6333 233.093 92.5 232.976 92.35C232.876 92.1833 232.826 92.0167 232.826 91.85C232.826 91.4167 233.068 91.0833 233.551 90.85C234.001 90.6167 234.518 90.4417 235.101 90.325C235.701 90.1917 236.335 90.125 237.001 90.125C238.451 90.125 239.601 90.45 240.451 91.1C241.301 91.75 241.726 92.775 241.726 94.175V100.1C241.726 100.467 241.651 100.75 241.501 100.95C241.368 101.133 241.16 101.308 240.876 101.475C240.476 101.692 239.943 101.892 239.276 102.075C238.61 102.258 237.86 102.35 237.026 102.35ZM237.026 100.7C237.726 100.7 238.301 100.633 238.751 100.5C239.218 100.35 239.551 100.208 239.751 100.075V96.45L236.651 96.775C235.785 96.8417 235.143 97.0333 234.726 97.35C234.31 97.6667 234.101 98.125 234.101 98.725C234.101 99.3417 234.343 99.825 234.826 100.175C235.326 100.525 236.06 100.7 237.026 100.7ZM253.232 91.8C252.099 91.8 251.157 92.1833 250.407 92.95C249.657 93.7167 249.282 94.8167 249.282 96.25C249.282 97.6667 249.64 98.7583 250.357 99.525C251.09 100.292 252.049 100.675 253.232 100.675C253.932 100.675 254.515 100.583 254.982 100.4C255.449 100.2 255.865 99.975 256.232 99.725C256.415 99.825 256.565 99.95 256.682 100.1C256.799 100.25 256.857 100.433 256.857 100.65C256.857 101.117 256.507 101.517 255.807 101.85C255.124 102.167 254.265 102.325 253.232 102.325C252.082 102.325 251.049 102.108 250.132 101.675C249.232 101.225 248.524 100.55 248.007 99.65C247.49 98.75 247.232 97.6167 247.232 96.25C247.232 94.9 247.499 93.775 248.032 92.875C248.565 91.9583 249.282 91.275 250.182 90.825C251.099 90.3583 252.099 90.125 253.182 90.125C254.215 90.125 255.065 90.3 255.732 90.65C256.415 91 256.757 91.4 256.757 91.85C256.757 92.05 256.699 92.225 256.582 92.375C256.465 92.525 256.315 92.6417 256.132 92.725C255.765 92.475 255.357 92.2583 254.907 92.075C254.474 91.8917 253.915 91.8 253.232 91.8ZM269.002 96.225C269.002 97.4583 268.769 98.5333 268.302 99.45C267.836 100.367 267.177 101.075 266.327 101.575C265.477 102.075 264.477 102.325 263.327 102.325C262.177 102.325 261.169 102.075 260.302 101.575C259.452 101.075 258.794 100.367 258.327 99.45C257.861 98.5333 257.627 97.4583 257.627 96.225C257.627 94.975 257.861 93.9 258.327 93C258.811 92.0833 259.477 91.375 260.327 90.875C261.194 90.375 262.194 90.125 263.327 90.125C264.461 90.125 265.452 90.375 266.302 90.875C267.152 91.375 267.811 92.0833 268.277 93C268.761 93.9 269.002 94.975 269.002 96.225ZM263.327 91.775C262.211 91.775 261.319 92.175 260.652 92.975C260.002 93.7583 259.677 94.8417 259.677 96.225C259.677 97.625 259.994 98.7167 260.627 99.5C261.277 100.283 262.177 100.675 263.327 100.675C264.461 100.675 265.344 100.283 265.977 99.5C266.627 98.7 266.952 97.6083 266.952 96.225C266.952 94.8417 266.627 93.7583 265.977 92.975C265.344 92.175 264.461 91.775 263.327 91.775ZM280.846 94.375V96.925H278.846V94.475C278.846 93.5417 278.579 92.8583 278.046 92.425C277.529 91.9917 276.829 91.775 275.946 91.775C275.279 91.775 274.687 91.8583 274.171 92.025C273.654 92.1917 273.212 92.3833 272.846 92.6V96.925H270.846V92.7C270.846 92.35 270.912 92.0667 271.046 91.85C271.196 91.6167 271.446 91.3917 271.796 91.175C272.229 90.925 272.804 90.6917 273.521 90.475C274.237 90.2417 275.046 90.125 275.946 90.125C277.462 90.125 278.654 90.475 279.521 91.175C280.404 91.8583 280.846 92.925 280.846 94.375ZM270.846 95.55H272.846V101.95C272.762 101.983 272.637 102.017 272.471 102.05C272.304 102.1 272.121 102.125 271.921 102.125C271.571 102.125 271.304 102.058 271.121 101.925C270.937 101.775 270.846 101.542 270.846 101.225V95.55ZM278.846 95.55H280.846V101.95C280.762 101.983 280.629 102.017 280.446 102.05C280.279 102.1 280.104 102.125 279.921 102.125C279.554 102.125 279.279 102.058 279.096 101.925C278.929 101.775 278.846 101.542 278.846 101.225V95.55ZM40.2 119V121.875H38.2V119.15C38.2 118.333 37.9583 117.733 37.475 117.35C37.0083 116.967 36.3833 116.775 35.6 116.775C35.0833 116.775 34.5833 116.858 34.1 117.025C33.6167 117.192 33.2083 117.383 32.875 117.6V121.875H30.875V117.7C30.875 117.367 30.9417 117.083 31.075 116.85C31.225 116.617 31.475 116.392 31.825 116.175C32.275 115.892 32.8417 115.65 33.525 115.45C34.225 115.233 34.925 115.125 35.625 115.125C36.475 115.125 37.225 115.258 37.875 115.525C38.525 115.775 39.0083 116.125 39.325 116.575C39.425 116.675 39.5083 116.767 39.575 116.85C39.6417 116.933 39.7083 117.042 39.775 117.175C39.8917 117.375 39.9917 117.633 40.075 117.95C40.1583 118.267 40.2 118.617 40.2 119ZM47.525 119.05V121.875H45.525V119.15C45.525 118.333 45.2917 117.733 44.825 117.35C44.3583 116.967 43.7333 116.775 42.95 116.775C42.3667 116.775 41.8 116.9 41.25 117.15C40.7167 117.383 40.2333 117.725 39.8 118.175L39 116.725C39.4333 116.292 40 115.917 40.7 115.6C41.4 115.283 42.2 115.125 43.1 115.125C44 115.125 44.775 115.267 45.425 115.55C46.0917 115.833 46.6083 116.267 46.975 116.85C47.3417 117.433 47.525 118.167 47.525 119.05ZM30.875 120.55H32.875V126.95C32.7917 126.983 32.6667 127.017 32.5 127.05C32.3333 127.1 32.15 127.125 31.95 127.125C31.6 127.125 31.3333 127.058 31.15 126.925C30.9667 126.775 30.875 126.542 30.875 126.225V120.55ZM38.2 120.55H40.2V126.95C40.1167 126.983 39.9833 127.017 39.8 127.05C39.6333 127.1 39.4583 127.125 39.275 127.125C38.9083 127.125 38.6333 127.058 38.45 126.925C38.2833 126.775 38.2 126.542 38.2 126.225V120.55ZM45.525 120.55H47.525V126.95C47.4417 126.983 47.3083 127.017 47.125 127.05C46.9583 127.1 46.7833 127.125 46.6 127.125C46.2333 127.125 45.9583 127.058 45.775 126.925C45.6083 126.775 45.525 126.542 45.525 126.225V120.55ZM50.7602 122.5L50.6602 120.925L58.2102 119.9C58.1435 118.983 57.8268 118.233 57.2602 117.65C56.6935 117.05 55.9102 116.75 54.9102 116.75C53.8768 116.75 53.0185 117.125 52.3352 117.875C51.6685 118.608 51.3352 119.667 51.3352 121.05V121.6C51.4518 122.933 51.8852 123.95 52.6352 124.65C53.4018 125.333 54.4435 125.675 55.7602 125.675C56.4602 125.675 57.0935 125.558 57.6602 125.325C58.2268 125.092 58.6768 124.842 59.0102 124.575C59.1935 124.692 59.3352 124.833 59.4352 125C59.5518 125.15 59.6102 125.325 59.6102 125.525C59.6102 125.842 59.4268 126.142 59.0602 126.425C58.7102 126.692 58.2352 126.908 57.6352 127.075C57.0518 127.242 56.3935 127.325 55.6602 127.325C54.3768 127.325 53.2602 127.092 52.3102 126.625C51.3768 126.158 50.6518 125.467 50.1352 124.55C49.6352 123.617 49.3852 122.483 49.3852 121.15C49.3852 120.2 49.5185 119.358 49.7852 118.625C50.0685 117.875 50.4518 117.242 50.9352 116.725C51.4352 116.208 52.0268 115.817 52.7102 115.55C53.3935 115.267 54.1352 115.125 54.9352 115.125C55.9518 115.125 56.8435 115.342 57.6102 115.775C58.3935 116.208 59.0018 116.817 59.4352 117.6C59.8852 118.367 60.1102 119.25 60.1102 120.25C60.1102 120.617 60.0268 120.883 59.8602 121.05C59.6935 121.2 59.4602 121.292 59.1602 121.325L50.7602 122.5ZM71.749 119.375V121.925H69.749V119.475C69.749 118.542 69.4824 117.858 68.949 117.425C68.4324 116.992 67.7324 116.775 66.849 116.775C66.1824 116.775 65.5907 116.858 65.074 117.025C64.5574 117.192 64.1157 117.383 63.749 117.6V121.925H61.749V117.7C61.749 117.35 61.8157 117.067 61.949 116.85C62.099 116.617 62.349 116.392 62.699 116.175C63.1324 115.925 63.7074 115.692 64.424 115.475C65.1407 115.242 65.949 115.125 66.849 115.125C68.3657 115.125 69.5574 115.475 70.424 116.175C71.3074 116.858 71.749 117.925 71.749 119.375ZM61.749 120.55H63.749V126.95C63.6657 126.983 63.5407 127.017 63.374 127.05C63.2074 127.1 63.024 127.125 62.824 127.125C62.474 127.125 62.2074 127.058 62.024 126.925C61.8407 126.775 61.749 126.542 61.749 126.225V120.55ZM69.749 120.55H71.749V126.95C71.6657 126.983 71.5324 127.017 71.349 127.05C71.1824 127.1 71.0074 127.125 70.824 127.125C70.4574 127.125 70.1824 127.058 69.999 126.925C69.8324 126.775 69.749 126.542 69.749 126.225V120.55ZM82.3941 123.925C82.3941 124.992 82.0025 125.825 81.2191 126.425C80.4358 127.025 79.3025 127.325 77.8191 127.325C76.5525 127.325 75.5191 127.133 74.7191 126.75C73.9191 126.35 73.5191 125.917 73.5191 125.45C73.5191 125.25 73.5691 125.058 73.6691 124.875C73.7858 124.675 73.9525 124.517 74.1691 124.4C74.6191 124.717 75.1441 125.008 75.7441 125.275C76.3441 125.542 77.0275 125.675 77.7941 125.675C79.5275 125.675 80.3941 125.092 80.3941 123.925C80.3941 123.442 80.2441 123.05 79.9441 122.75C79.6608 122.433 79.2358 122.208 78.6691 122.075L76.5941 121.525C75.5775 121.275 74.8358 120.892 74.3691 120.375C73.9025 119.842 73.6691 119.183 73.6691 118.4C73.6691 117.517 74.0275 116.75 74.7441 116.1C75.4608 115.45 76.5525 115.125 78.0191 115.125C78.8025 115.125 79.4858 115.208 80.0691 115.375C80.6525 115.525 81.1025 115.733 81.4191 116C81.7525 116.25 81.9191 116.525 81.9191 116.825C81.9191 117.042 81.8608 117.233 81.7441 117.4C81.6441 117.567 81.5025 117.692 81.3191 117.775C81.1191 117.642 80.8608 117.5 80.5441 117.35C80.2441 117.183 79.8858 117.05 79.4691 116.95C79.0525 116.833 78.5941 116.775 78.0941 116.775C77.3608 116.775 76.7691 116.917 76.3191 117.2C75.8691 117.483 75.6441 117.883 75.6441 118.4C75.6441 118.767 75.7691 119.092 76.0191 119.375C76.2858 119.642 76.7025 119.842 77.2691 119.975L78.9941 120.4C80.1275 120.667 80.9775 121.092 81.5441 121.675C82.1108 122.242 82.3941 122.992 82.3941 123.925ZM88.5693 127.35C87.0027 127.35 85.786 127.042 84.9193 126.425C84.0693 125.808 83.6443 124.917 83.6443 123.75C83.6443 122.667 84.0027 121.842 84.7193 121.275C85.4527 120.692 86.461 120.342 87.7443 120.225L91.2943 119.875V119.175C91.2943 118.342 91.0443 117.733 90.5443 117.35C90.0443 116.967 89.3693 116.775 88.5193 116.775C87.836 116.775 87.1777 116.875 86.5443 117.075C85.9277 117.275 85.3777 117.5 84.8943 117.75C84.761 117.633 84.636 117.5 84.5193 117.35C84.4193 117.183 84.3693 117.017 84.3693 116.85C84.3693 116.417 84.611 116.083 85.0943 115.85C85.5443 115.617 86.061 115.442 86.6443 115.325C87.2443 115.192 87.8777 115.125 88.5443 115.125C89.9943 115.125 91.1443 115.45 91.9943 116.1C92.8443 116.75 93.2693 117.775 93.2693 119.175V125.1C93.2693 125.467 93.1943 125.75 93.0443 125.95C92.911 126.133 92.7027 126.308 92.4193 126.475C92.0193 126.692 91.486 126.892 90.8193 127.075C90.1527 127.258 89.4027 127.35 88.5693 127.35ZM88.5693 125.7C89.2693 125.7 89.8443 125.633 90.2943 125.5C90.761 125.35 91.0943 125.208 91.2943 125.075V121.45L88.1943 121.775C87.3277 121.842 86.686 122.033 86.2693 122.35C85.8527 122.667 85.6443 123.125 85.6443 123.725C85.6443 124.342 85.886 124.825 86.3693 125.175C86.8693 125.525 87.6027 125.7 88.5693 125.7ZM93.9449 130.65C94.3449 130.467 94.6866 130.275 94.9699 130.075C95.2533 129.875 95.4699 129.592 95.6199 129.225C95.7866 128.875 95.8699 128.383 95.8699 127.75V119.425H97.8699V128.125C97.8699 129.092 97.7033 129.842 97.3699 130.375C97.0366 130.925 96.6533 131.308 96.2199 131.525C95.7866 131.758 95.4116 131.875 95.0949 131.875C94.6783 131.875 94.3866 131.75 94.2199 131.5C94.0699 131.267 93.9783 130.983 93.9449 130.65ZM95.5699 111.8C95.5699 111.45 95.6949 111.158 95.9449 110.925C96.1949 110.675 96.5033 110.55 96.8699 110.55C97.2533 110.55 97.5616 110.675 97.7949 110.925C98.0283 111.158 98.1449 111.45 98.1449 111.8C98.1449 112.15 98.0283 112.45 97.7949 112.7C97.5616 112.933 97.2533 113.05 96.8699 113.05C96.5033 113.05 96.1949 112.933 95.9449 112.7C95.6949 112.45 95.5699 112.15 95.5699 111.8ZM97.8699 121.65L95.8699 121.375V115.5C95.9533 115.467 96.0783 115.433 96.2449 115.4C96.4283 115.35 96.6199 115.325 96.8199 115.325C97.1699 115.325 97.4283 115.4 97.5949 115.55C97.7783 115.683 97.8699 115.917 97.8699 116.25V121.65ZM101.224 122.5L101.124 120.925L108.674 119.9C108.607 118.983 108.291 118.233 107.724 117.65C107.157 117.05 106.374 116.75 105.374 116.75C104.341 116.75 103.482 117.125 102.799 117.875C102.132 118.608 101.799 119.667 101.799 121.05V121.6C101.916 122.933 102.349 123.95 103.099 124.65C103.866 125.333 104.907 125.675 106.224 125.675C106.924 125.675 107.557 125.558 108.124 125.325C108.691 125.092 109.141 124.842 109.474 124.575C109.657 124.692 109.799 124.833 109.899 125C110.016 125.15 110.074 125.325 110.074 125.525C110.074 125.842 109.891 126.142 109.524 126.425C109.174 126.692 108.699 126.908 108.099 127.075C107.516 127.242 106.857 127.325 106.124 127.325C104.841 127.325 103.724 127.092 102.774 126.625C101.841 126.158 101.116 125.467 100.599 124.55C100.099 123.617 99.849 122.483 99.849 121.15C99.849 120.2 99.9824 119.358 100.249 118.625C100.532 117.875 100.916 117.242 101.399 116.725C101.899 116.208 102.491 115.817 103.174 115.55C103.857 115.267 104.599 115.125 105.399 115.125C106.416 115.125 107.307 115.342 108.074 115.775C108.857 116.208 109.466 116.817 109.899 117.6C110.349 118.367 110.574 119.25 110.574 120.25C110.574 120.617 110.491 120.883 110.324 121.05C110.157 121.2 109.924 121.292 109.624 121.325L101.224 122.5ZM114.213 117.6V121.55H112.213V117.75C112.213 117.367 112.28 117.067 112.413 116.85C112.563 116.617 112.805 116.392 113.138 116.175C113.571 115.892 114.163 115.65 114.913 115.45C115.663 115.233 116.496 115.125 117.413 115.125C118.746 115.125 119.413 115.458 119.413 116.125C119.413 116.292 119.388 116.45 119.338 116.6C119.288 116.733 119.221 116.85 119.138 116.95C118.971 116.917 118.755 116.883 118.488 116.85C118.221 116.817 117.955 116.8 117.688 116.8C116.921 116.8 116.246 116.883 115.663 117.05C115.08 117.2 114.596 117.383 114.213 117.6ZM112.213 120.4L114.213 120.7V126.95C114.13 126.983 114.005 127.017 113.838 127.05C113.671 127.1 113.488 127.125 113.288 127.125C112.938 127.125 112.671 127.058 112.488 126.925C112.305 126.775 112.213 126.542 112.213 126.225V120.4ZM130.99 121.225C130.99 122.458 130.756 123.533 130.29 124.45C129.823 125.367 129.165 126.075 128.315 126.575C127.465 127.075 126.465 127.325 125.315 127.325C124.165 127.325 123.156 127.075 122.29 126.575C121.44 126.075 120.781 125.367 120.315 124.45C119.848 123.533 119.615 122.458 119.615 121.225C119.615 119.975 119.848 118.9 120.315 118C120.798 117.083 121.465 116.375 122.315 115.875C123.181 115.375 124.181 115.125 125.315 115.125C126.448 115.125 127.44 115.375 128.29 115.875C129.14 116.375 129.798 117.083 130.265 118C130.748 118.9 130.99 119.975 130.99 121.225ZM125.315 116.775C124.198 116.775 123.306 117.175 122.64 117.975C121.99 118.758 121.665 119.842 121.665 121.225C121.665 122.625 121.981 123.717 122.615 124.5C123.265 125.283 124.165 125.675 125.315 125.675C126.448 125.675 127.331 125.283 127.965 124.5C128.615 123.7 128.94 122.608 128.94 121.225C128.94 119.842 128.615 118.758 127.965 117.975C127.331 117.175 126.448 116.775 125.315 116.775ZM140.983 123.925C140.983 124.992 140.591 125.825 139.808 126.425C139.025 127.025 137.891 127.325 136.408 127.325C135.141 127.325 134.108 127.133 133.308 126.75C132.508 126.35 132.108 125.917 132.108 125.45C132.108 125.25 132.158 125.058 132.258 124.875C132.375 124.675 132.541 124.517 132.758 124.4C133.208 124.717 133.733 125.008 134.333 125.275C134.933 125.542 135.616 125.675 136.383 125.675C138.116 125.675 138.983 125.092 138.983 123.925C138.983 123.442 138.833 123.05 138.533 122.75C138.25 122.433 137.825 122.208 137.258 122.075L135.183 121.525C134.166 121.275 133.425 120.892 132.958 120.375C132.491 119.842 132.258 119.183 132.258 118.4C132.258 117.517 132.616 116.75 133.333 116.1C134.05 115.45 135.141 115.125 136.608 115.125C137.391 115.125 138.075 115.208 138.658 115.375C139.241 115.525 139.691 115.733 140.008 116C140.341 116.25 140.508 116.525 140.508 116.825C140.508 117.042 140.45 117.233 140.333 117.4C140.233 117.567 140.091 117.692 139.908 117.775C139.708 117.642 139.45 117.5 139.133 117.35C138.833 117.183 138.475 117.05 138.058 116.95C137.641 116.833 137.183 116.775 136.683 116.775C135.95 116.775 135.358 116.917 134.908 117.2C134.458 117.483 134.233 117.883 134.233 118.4C134.233 118.767 134.358 119.092 134.608 119.375C134.875 119.642 135.291 119.842 135.858 119.975L137.583 120.4C138.716 120.667 139.566 121.092 140.133 121.675C140.7 122.242 140.983 122.992 140.983 123.925ZM151.87 116.8C150.736 116.8 149.795 117.183 149.045 117.95C148.295 118.717 147.92 119.817 147.92 121.25C147.92 122.667 148.278 123.758 148.995 124.525C149.728 125.292 150.686 125.675 151.87 125.675C152.57 125.675 153.153 125.583 153.62 125.4C154.086 125.2 154.503 124.975 154.87 124.725C155.053 124.825 155.203 124.95 155.32 125.1C155.436 125.25 155.495 125.433 155.495 125.65C155.495 126.117 155.145 126.517 154.445 126.85C153.761 127.167 152.903 127.325 151.87 127.325C150.72 127.325 149.686 127.108 148.77 126.675C147.87 126.225 147.161 125.55 146.645 124.65C146.128 123.75 145.87 122.617 145.87 121.25C145.87 119.9 146.136 118.775 146.67 117.875C147.203 116.958 147.92 116.275 148.82 115.825C149.736 115.358 150.736 115.125 151.82 115.125C152.853 115.125 153.703 115.3 154.37 115.65C155.053 116 155.395 116.4 155.395 116.85C155.395 117.05 155.336 117.225 155.22 117.375C155.103 117.525 154.953 117.642 154.77 117.725C154.403 117.475 153.995 117.258 153.545 117.075C153.111 116.892 152.553 116.8 151.87 116.8ZM161.431 127.35C159.864 127.35 158.647 127.042 157.781 126.425C156.931 125.808 156.506 124.917 156.506 123.75C156.506 122.667 156.864 121.842 157.581 121.275C158.314 120.692 159.322 120.342 160.606 120.225L164.156 119.875V119.175C164.156 118.342 163.906 117.733 163.406 117.35C162.906 116.967 162.231 116.775 161.381 116.775C160.697 116.775 160.039 116.875 159.406 117.075C158.789 117.275 158.239 117.5 157.756 117.75C157.622 117.633 157.497 117.5 157.381 117.35C157.281 117.183 157.231 117.017 157.231 116.85C157.231 116.417 157.472 116.083 157.956 115.85C158.406 115.617 158.922 115.442 159.506 115.325C160.106 115.192 160.739 115.125 161.406 115.125C162.856 115.125 164.006 115.45 164.856 116.1C165.706 116.75 166.131 117.775 166.131 119.175V125.1C166.131 125.467 166.056 125.75 165.906 125.95C165.772 126.133 165.564 126.308 165.281 126.475C164.881 126.692 164.347 126.892 163.681 127.075C163.014 127.258 162.264 127.35 161.431 127.35ZM161.431 125.7C162.131 125.7 162.706 125.633 163.156 125.5C163.622 125.35 163.956 125.208 164.156 125.075V121.45L161.056 121.775C160.189 121.842 159.547 122.033 159.131 122.35C158.714 122.667 158.506 123.125 158.506 123.725C158.506 124.342 158.747 124.825 159.231 125.175C159.731 125.525 160.464 125.7 161.431 125.7ZM173.456 127.325C172.74 127.325 172.065 127.217 171.431 127C170.815 126.8 170.365 126.575 170.081 126.325V124.475C170.415 124.792 170.831 125.075 171.331 125.325C171.848 125.558 172.465 125.675 173.181 125.675C174.348 125.675 175.281 125.325 175.981 124.625C176.698 123.908 177.056 122.767 177.056 121.2C177.056 120.1 176.873 119.233 176.506 118.6C176.156 117.95 175.681 117.483 175.081 117.2C174.498 116.917 173.865 116.775 173.181 116.775C172.581 116.775 172.073 116.85 171.656 117C171.24 117.15 170.865 117.317 170.531 117.5V125.8H168.531V117.55C168.531 117.217 168.59 116.95 168.706 116.75C168.823 116.55 169.065 116.342 169.431 116.125C169.881 115.875 170.415 115.65 171.031 115.45C171.665 115.233 172.381 115.125 173.181 115.125C174.281 115.125 175.273 115.342 176.156 115.775C177.056 116.192 177.765 116.85 178.281 117.75C178.815 118.633 179.081 119.783 179.081 121.2C179.081 122.567 178.84 123.708 178.356 124.625C177.89 125.525 177.231 126.2 176.381 126.65C175.531 127.1 174.556 127.325 173.456 127.325ZM169.606 131.675C169.256 131.675 168.99 131.6 168.806 131.45C168.623 131.3 168.531 131.067 168.531 130.75V125.075L170.531 125.125V131.5C170.448 131.533 170.323 131.567 170.156 131.6C169.99 131.65 169.806 131.675 169.606 131.675ZM185.103 127.35C183.536 127.35 182.319 127.042 181.453 126.425C180.603 125.808 180.178 124.917 180.178 123.75C180.178 122.667 180.536 121.842 181.253 121.275C181.986 120.692 182.994 120.342 184.278 120.225L187.828 119.875V119.175C187.828 118.342 187.578 117.733 187.078 117.35C186.578 116.967 185.903 116.775 185.053 116.775C184.369 116.775 183.711 116.875 183.078 117.075C182.461 117.275 181.911 117.5 181.428 117.75C181.294 117.633 181.169 117.5 181.053 117.35C180.953 117.183 180.903 117.017 180.903 116.85C180.903 116.417 181.144 116.083 181.628 115.85C182.078 115.617 182.594 115.442 183.178 115.325C183.778 115.192 184.411 115.125 185.078 115.125C186.528 115.125 187.678 115.45 188.528 116.1C189.378 116.75 189.803 117.775 189.803 119.175V125.1C189.803 125.467 189.728 125.75 189.578 125.95C189.444 126.133 189.236 126.308 188.953 126.475C188.553 126.692 188.019 126.892 187.353 127.075C186.686 127.258 185.936 127.35 185.103 127.35ZM185.103 125.7C185.803 125.7 186.378 125.633 186.828 125.5C187.294 125.35 187.628 125.208 187.828 125.075V121.45L184.728 121.775C183.861 121.842 183.219 122.033 182.803 122.35C182.386 122.667 182.178 123.125 182.178 123.725C182.178 124.342 182.419 124.825 182.903 125.175C183.403 125.525 184.136 125.7 185.103 125.7ZM197.553 116.8C196.42 116.8 195.478 117.183 194.728 117.95C193.978 118.717 193.603 119.817 193.603 121.25C193.603 122.667 193.961 123.758 194.678 124.525C195.411 125.292 196.37 125.675 197.553 125.675C198.253 125.675 198.836 125.583 199.303 125.4C199.77 125.2 200.186 124.975 200.553 124.725C200.736 124.825 200.886 124.95 201.003 125.1C201.12 125.25 201.178 125.433 201.178 125.65C201.178 126.117 200.828 126.517 200.128 126.85C199.445 127.167 198.586 127.325 197.553 127.325C196.403 127.325 195.37 127.108 194.453 126.675C193.553 126.225 192.845 125.55 192.328 124.65C191.811 123.75 191.553 122.617 191.553 121.25C191.553 119.9 191.82 118.775 192.353 117.875C192.886 116.958 193.603 116.275 194.503 115.825C195.42 115.358 196.42 115.125 197.503 115.125C198.536 115.125 199.386 115.3 200.053 115.65C200.736 116 201.078 116.4 201.078 116.85C201.078 117.05 201.02 117.225 200.903 117.375C200.786 117.525 200.636 117.642 200.453 117.725C200.086 117.475 199.678 117.258 199.228 117.075C198.795 116.892 198.236 116.8 197.553 116.8ZM202.717 111.8C202.717 111.45 202.842 111.158 203.092 110.925C203.342 110.675 203.65 110.55 204.017 110.55C204.4 110.55 204.708 110.675 204.942 110.925C205.175 111.158 205.292 111.45 205.292 111.8C205.292 112.15 205.175 112.45 204.942 112.7C204.708 112.933 204.4 113.05 204.017 113.05C203.65 113.05 203.342 112.933 203.092 112.7C202.842 112.45 202.717 112.15 202.717 111.8ZM203.017 120.4H205.017V126.95C204.933 126.983 204.808 127.017 204.642 127.05C204.475 127.1 204.292 127.125 204.092 127.125C203.742 127.125 203.475 127.058 203.292 126.925C203.108 126.775 203.017 126.542 203.017 126.225V120.4ZM205.017 121.375H203.017V115.5C203.1 115.467 203.225 115.433 203.392 115.4C203.575 115.35 203.767 115.325 203.967 115.325C204.317 115.325 204.575 115.4 204.742 115.55C204.925 115.683 205.017 115.917 205.017 116.25V121.375ZM207.697 120.4H209.697V123.85C209.697 124.517 209.889 124.992 210.272 125.275C210.655 125.542 211.18 125.675 211.847 125.675C212.13 125.675 212.447 125.625 212.797 125.525C213.147 125.425 213.439 125.308 213.672 125.175C213.772 125.275 213.864 125.4 213.947 125.55C214.03 125.7 214.072 125.875 214.072 126.075C214.072 126.442 213.855 126.742 213.422 126.975C212.989 127.208 212.389 127.325 211.622 127.325C210.455 127.325 209.505 127.067 208.772 126.55C208.055 126.033 207.697 125.175 207.697 123.975V120.4ZM208.722 117.35V115.7H213.797C213.847 115.767 213.897 115.875 213.947 116.025C213.997 116.175 214.022 116.333 214.022 116.5C214.022 116.767 213.955 116.975 213.822 117.125C213.689 117.275 213.505 117.35 213.272 117.35H208.722ZM209.697 121.15H207.697V112.1C207.78 112.067 207.905 112.033 208.072 112C208.255 111.95 208.447 111.925 208.647 111.925C208.997 111.925 209.255 112 209.422 112.15C209.605 112.283 209.697 112.508 209.697 112.825V121.15ZM219.995 127.35C218.428 127.35 217.212 127.042 216.345 126.425C215.495 125.808 215.07 124.917 215.07 123.75C215.07 122.667 215.428 121.842 216.145 121.275C216.878 120.692 217.887 120.342 219.17 120.225L222.72 119.875V119.175C222.72 118.342 222.47 117.733 221.97 117.35C221.47 116.967 220.795 116.775 219.945 116.775C219.262 116.775 218.603 116.875 217.97 117.075C217.353 117.275 216.803 117.5 216.32 117.75C216.187 117.633 216.062 117.5 215.945 117.35C215.845 117.183 215.795 117.017 215.795 116.85C215.795 116.417 216.037 116.083 216.52 115.85C216.97 115.617 217.487 115.442 218.07 115.325C218.67 115.192 219.303 115.125 219.97 115.125C221.42 115.125 222.57 115.45 223.42 116.1C224.27 116.75 224.695 117.775 224.695 119.175V125.1C224.695 125.467 224.62 125.75 224.47 125.95C224.337 126.133 224.128 126.308 223.845 126.475C223.445 126.692 222.912 126.892 222.245 127.075C221.578 127.258 220.828 127.35 219.995 127.35ZM219.995 125.7C220.695 125.7 221.27 125.633 221.72 125.5C222.187 125.35 222.52 125.208 222.72 125.075V121.45L219.62 121.775C218.753 121.842 218.112 122.033 217.695 122.35C217.278 122.667 217.07 123.125 217.07 123.725C217.07 124.342 217.312 124.825 217.795 125.175C218.295 125.525 219.028 125.7 219.995 125.7ZM234.971 125.025V116.625L236.971 116.6V125.1C236.971 125.417 236.896 125.675 236.746 125.875C236.612 126.058 236.396 126.242 236.096 126.425C235.762 126.642 235.287 126.842 234.671 127.025C234.054 127.225 233.346 127.325 232.546 127.325C231.346 127.325 230.287 127.117 229.371 126.7C228.454 126.283 227.737 125.633 227.221 124.75C226.704 123.85 226.446 122.692 226.446 121.275C226.446 119.825 226.696 118.65 227.196 117.75C227.712 116.85 228.404 116.192 229.271 115.775C230.137 115.342 231.087 115.125 232.121 115.125C232.771 115.125 233.387 115.217 233.971 115.4C234.554 115.583 235.012 115.808 235.346 116.075V117.925C235.029 117.608 234.612 117.342 234.096 117.125C233.596 116.892 233.004 116.775 232.321 116.775C231.637 116.775 231.004 116.925 230.421 117.225C229.837 117.508 229.371 117.983 229.021 118.65C228.671 119.317 228.496 120.208 228.496 121.325C228.496 122.842 228.862 123.95 229.596 124.65C230.329 125.333 231.304 125.675 232.521 125.675C233.104 125.675 233.579 125.617 233.946 125.5C234.329 125.367 234.671 125.208 234.971 125.025ZM236.971 117.1L234.971 117.125V110.8C235.054 110.767 235.179 110.733 235.346 110.7C235.529 110.65 235.712 110.625 235.896 110.625C236.262 110.625 236.529 110.7 236.696 110.85C236.879 110.983 236.971 111.208 236.971 111.525V117.1ZM250.243 121.225C250.243 122.458 250.009 123.533 249.543 124.45C249.076 125.367 248.418 126.075 247.568 126.575C246.718 127.075 245.718 127.325 244.568 127.325C243.418 127.325 242.409 127.075 241.543 126.575C240.693 126.075 240.034 125.367 239.568 124.45C239.101 123.533 238.868 122.458 238.868 121.225C238.868 119.975 239.101 118.9 239.568 118C240.051 117.083 240.718 116.375 241.568 115.875C242.434 115.375 243.434 115.125 244.568 115.125C245.701 115.125 246.693 115.375 247.543 115.875C248.393 116.375 249.051 117.083 249.518 118C250.001 118.9 250.243 119.975 250.243 121.225ZM244.568 116.775C243.451 116.775 242.559 117.175 241.893 117.975C241.243 118.758 240.918 119.842 240.918 121.225C240.918 122.625 241.234 123.717 241.868 124.5C242.518 125.283 243.418 125.675 244.568 125.675C245.701 125.675 246.584 125.283 247.218 124.5C247.868 123.7 248.193 122.608 248.193 121.225C248.193 119.842 247.868 118.758 247.218 117.975C246.584 117.175 245.701 116.775 244.568 116.775ZM260.236 123.925C260.236 124.992 259.844 125.825 259.061 126.425C258.278 127.025 257.144 127.325 255.661 127.325C254.394 127.325 253.361 127.133 252.561 126.75C251.761 126.35 251.361 125.917 251.361 125.45C251.361 125.25 251.411 125.058 251.511 124.875C251.628 124.675 251.794 124.517 252.011 124.4C252.461 124.717 252.986 125.008 253.586 125.275C254.186 125.542 254.869 125.675 255.636 125.675C257.369 125.675 258.236 125.092 258.236 123.925C258.236 123.442 258.086 123.05 257.786 122.75C257.503 122.433 257.078 122.208 256.511 122.075L254.436 121.525C253.419 121.275 252.678 120.892 252.211 120.375C251.744 119.842 251.511 119.183 251.511 118.4C251.511 117.517 251.869 116.75 252.586 116.1C253.303 115.45 254.394 115.125 255.861 115.125C256.644 115.125 257.328 115.208 257.911 115.375C258.494 115.525 258.944 115.733 259.261 116C259.594 116.25 259.761 116.525 259.761 116.825C259.761 117.042 259.703 117.233 259.586 117.4C259.486 117.567 259.344 117.692 259.161 117.775C258.961 117.642 258.703 117.5 258.386 117.35C258.086 117.183 257.728 117.05 257.311 116.95C256.894 116.833 256.436 116.775 255.936 116.775C255.203 116.775 254.611 116.917 254.161 117.2C253.711 117.483 253.486 117.883 253.486 118.4C253.486 118.767 253.611 119.092 253.861 119.375C254.128 119.642 254.544 119.842 255.111 119.975L256.836 120.4C257.969 120.667 258.819 121.092 259.386 121.675C259.953 122.242 260.236 122.992 260.236 123.925ZM266.497 122.5L266.397 120.925L273.947 119.9C273.881 118.983 273.564 118.233 272.997 117.65C272.431 117.05 271.647 116.75 270.647 116.75C269.614 116.75 268.756 117.125 268.072 117.875C267.406 118.608 267.072 119.667 267.072 121.05V121.6C267.189 122.933 267.622 123.95 268.372 124.65C269.139 125.333 270.181 125.675 271.497 125.675C272.197 125.675 272.831 125.558 273.397 125.325C273.964 125.092 274.414 124.842 274.747 124.575C274.931 124.692 275.072 124.833 275.172 125C275.289 125.15 275.347 125.325 275.347 125.525C275.347 125.842 275.164 126.142 274.797 126.425C274.447 126.692 273.972 126.908 273.372 127.075C272.789 127.242 272.131 127.325 271.397 127.325C270.114 127.325 268.997 127.092 268.047 126.625C267.114 126.158 266.389 125.467 265.872 124.55C265.372 123.617 265.122 122.483 265.122 121.15C265.122 120.2 265.256 119.358 265.522 118.625C265.806 117.875 266.189 117.242 266.672 116.725C267.172 116.208 267.764 115.817 268.447 115.55C269.131 115.267 269.872 115.125 270.672 115.125C271.689 115.125 272.581 115.342 273.347 115.775C274.131 116.208 274.739 116.817 275.172 117.6C275.622 118.367 275.847 119.25 275.847 120.25C275.847 120.617 275.764 120.883 275.597 121.05C275.431 121.2 275.197 121.292 274.897 121.325L266.497 122.5ZM287.486 119.375V121.925H285.486V119.475C285.486 118.542 285.22 117.858 284.686 117.425C284.17 116.992 283.47 116.775 282.586 116.775C281.92 116.775 281.328 116.858 280.811 117.025C280.295 117.192 279.853 117.383 279.486 117.6V121.925H277.486V117.7C277.486 117.35 277.553 117.067 277.686 116.85C277.836 116.617 278.086 116.392 278.436 116.175C278.87 115.925 279.445 115.692 280.161 115.475C280.878 115.242 281.686 115.125 282.586 115.125C284.103 115.125 285.295 115.475 286.161 116.175C287.045 116.858 287.486 117.925 287.486 119.375ZM277.486 120.55H279.486V126.95C279.403 126.983 279.278 127.017 279.111 127.05C278.945 127.1 278.761 127.125 278.561 127.125C278.211 127.125 277.945 127.058 277.761 126.925C277.578 126.775 277.486 126.542 277.486 126.225V120.55ZM285.486 120.55H287.486V126.95C287.403 126.983 287.27 127.017 287.086 127.05C286.92 127.1 286.745 127.125 286.561 127.125C286.195 127.125 285.92 127.058 285.736 126.925C285.57 126.775 285.486 126.542 285.486 126.225V120.55ZM36.45 138.375H36.35C36.1 139.075 35.8 139.908 35.45 140.875C35.1167 141.842 34.7667 142.842 34.4 143.875C34.05 144.892 33.7167 145.842 33.4 146.725L33.275 147.1C33.175 147.4 33.05 147.775 32.9 148.225C32.75 148.675 32.5917 149.15 32.425 149.65C32.2583 150.133 32.1 150.592 31.95 151.025C31.8 151.442 31.6833 151.783 31.6 152.05C31.4833 152.1 31.3583 152.133 31.225 152.15C31.1083 152.183 30.9583 152.2 30.775 152.2C30.5083 152.2 30.2667 152.133 30.05 152C29.85 151.85 29.75 151.617 29.75 151.3C29.75 151.15 29.775 151 29.825 150.85C29.875 150.683 29.9333 150.508 30 150.325C30.2 149.758 30.4417 149.067 30.725 148.25C31.025 147.433 31.35 146.542 31.7 145.575C32.05 144.608 32.4167 143.617 32.8 142.6C33.1833 141.583 33.5583 140.592 33.925 139.625C34.2917 138.658 34.6333 137.775 34.95 136.975C35.0833 136.908 35.2833 136.842 35.55 136.775C35.8167 136.708 36.0917 136.675 36.375 136.675C36.7083 136.675 37.025 136.725 37.325 136.825C37.6417 136.925 37.8417 137.092 37.925 137.325C38.325 138.292 38.75 139.392 39.2 140.625C39.6667 141.842 40.1333 143.117 40.6 144.45C41.0667 145.767 41.5083 147.05 41.925 148.3C42.3583 149.55 42.7417 150.683 43.075 151.7C42.9583 151.85 42.8 151.967 42.6 152.05C42.4167 152.15 42.2083 152.2 41.975 152.2C41.6583 152.2 41.4167 152.133 41.25 152C41.0833 151.85 40.9417 151.608 40.825 151.275L39.45 147.2L39.25 146.5C38.9167 145.483 38.5667 144.458 38.2 143.425C37.85 142.392 37.5167 141.433 37.2 140.55C36.9 139.667 36.65 138.942 36.45 138.375ZM32.3 147.95L32.95 146.275H39.925L40.325 147.95H32.3ZM44.4449 145.4H46.4449V148.85C46.4449 149.517 46.6366 149.992 47.0199 150.275C47.4033 150.542 47.9283 150.675 48.5949 150.675C48.8783 150.675 49.1949 150.625 49.5449 150.525C49.8949 150.425 50.1866 150.308 50.4199 150.175C50.5199 150.275 50.6116 150.4 50.6949 150.55C50.7783 150.7 50.8199 150.875 50.8199 151.075C50.8199 151.442 50.6033 151.742 50.1699 151.975C49.7366 152.208 49.1366 152.325 48.3699 152.325C47.2033 152.325 46.2533 152.067 45.5199 151.55C44.8033 151.033 44.4449 150.175 44.4449 148.975V145.4ZM45.4699 142.35V140.7H50.5449C50.5949 140.767 50.6449 140.875 50.6949 141.025C50.7449 141.175 50.7699 141.333 50.7699 141.5C50.7699 141.767 50.7033 141.975 50.5699 142.125C50.4366 142.275 50.2533 142.35 50.0199 142.35H45.4699ZM46.4449 146.15H44.4449V137.1C44.5283 137.067 44.6533 137.033 44.8199 137C45.0033 136.95 45.1949 136.925 45.3949 136.925C45.7449 136.925 46.0033 137 46.1699 137.15C46.3533 137.283 46.4449 137.508 46.4449 137.825V146.15ZM52.8305 147.5L52.7305 145.925L60.2805 144.9C60.2138 143.983 59.8971 143.233 59.3305 142.65C58.7638 142.05 57.9805 141.75 56.9805 141.75C55.9471 141.75 55.0888 142.125 54.4055 142.875C53.7388 143.608 53.4055 144.667 53.4055 146.05V146.6C53.5221 147.933 53.9555 148.95 54.7055 149.65C55.4721 150.333 56.5138 150.675 57.8305 150.675C58.5305 150.675 59.1638 150.558 59.7305 150.325C60.2971 150.092 60.7471 149.842 61.0805 149.575C61.2638 149.692 61.4055 149.833 61.5055 150C61.6221 150.15 61.6805 150.325 61.6805 150.525C61.6805 150.842 61.4971 151.142 61.1305 151.425C60.7805 151.692 60.3055 151.908 59.7055 152.075C59.1221 152.242 58.4638 152.325 57.7305 152.325C56.4471 152.325 55.3305 152.092 54.3805 151.625C53.4471 151.158 52.7221 150.467 52.2055 149.55C51.7055 148.617 51.4555 147.483 51.4555 146.15C51.4555 145.2 51.5888 144.358 51.8555 143.625C52.1388 142.875 52.5221 142.242 53.0055 141.725C53.5055 141.208 54.0971 140.817 54.7805 140.55C55.4638 140.267 56.2055 140.125 57.0055 140.125C58.0221 140.125 58.9138 140.342 59.6805 140.775C60.4638 141.208 61.0721 141.817 61.5055 142.6C61.9555 143.367 62.1805 144.25 62.1805 145.25C62.1805 145.617 62.0971 145.883 61.9305 146.05C61.7638 146.2 61.5305 146.292 61.2305 146.325L52.8305 147.5ZM73.8193 144.375V146.925H71.8193V144.475C71.8193 143.542 71.5527 142.858 71.0193 142.425C70.5027 141.992 69.8027 141.775 68.9193 141.775C68.2527 141.775 67.661 141.858 67.1443 142.025C66.6277 142.192 66.186 142.383 65.8193 142.6V146.925H63.8193V142.7C63.8193 142.35 63.886 142.067 64.0193 141.85C64.1693 141.617 64.4193 141.392 64.7693 141.175C65.2027 140.925 65.7777 140.692 66.4943 140.475C67.211 140.242 68.0193 140.125 68.9193 140.125C70.436 140.125 71.6277 140.475 72.4943 141.175C73.3777 141.858 73.8193 142.925 73.8193 144.375ZM63.8193 145.55H65.8193V151.95C65.736 151.983 65.611 152.017 65.4443 152.05C65.2777 152.1 65.0943 152.125 64.8943 152.125C64.5443 152.125 64.2777 152.058 64.0943 151.925C63.911 151.775 63.8193 151.542 63.8193 151.225V145.55ZM71.8193 145.55H73.8193V151.95C73.736 151.983 73.6027 152.017 73.4193 152.05C73.2527 152.1 73.0777 152.125 72.8943 152.125C72.5277 152.125 72.2527 152.058 72.0693 151.925C71.9027 151.775 71.8193 151.542 71.8193 151.225V145.55ZM81.6645 141.8C80.5311 141.8 79.5895 142.183 78.8395 142.95C78.0895 143.717 77.7145 144.817 77.7145 146.25C77.7145 147.667 78.0728 148.758 78.7895 149.525C79.5228 150.292 80.4811 150.675 81.6645 150.675C82.3645 150.675 82.9478 150.583 83.4145 150.4C83.8811 150.2 84.2978 149.975 84.6645 149.725C84.8478 149.825 84.9978 149.95 85.1145 150.1C85.2311 150.25 85.2895 150.433 85.2895 150.65C85.2895 151.117 84.9395 151.517 84.2395 151.85C83.5561 152.167 82.6978 152.325 81.6645 152.325C80.5145 152.325 79.4811 152.108 78.5645 151.675C77.6645 151.225 76.9561 150.55 76.4395 149.65C75.9228 148.75 75.6645 147.617 75.6645 146.25C75.6645 144.9 75.9311 143.775 76.4645 142.875C76.9978 141.958 77.7145 141.275 78.6145 140.825C79.5311 140.358 80.5311 140.125 81.6145 140.125C82.6478 140.125 83.4978 140.3 84.1645 140.65C84.8478 141 85.1895 141.4 85.1895 141.85C85.1895 142.05 85.1311 142.225 85.0145 142.375C84.8978 142.525 84.7478 142.642 84.5645 142.725C84.1978 142.475 83.7895 142.258 83.3395 142.075C82.9061 141.892 82.3478 141.8 81.6645 141.8ZM86.8279 136.8C86.8279 136.45 86.9529 136.158 87.2029 135.925C87.4529 135.675 87.7613 135.55 88.1279 135.55C88.5113 135.55 88.8196 135.675 89.0529 135.925C89.2863 136.158 89.4029 136.45 89.4029 136.8C89.4029 137.15 89.2863 137.45 89.0529 137.7C88.8196 137.933 88.5113 138.05 88.1279 138.05C87.7613 138.05 87.4529 137.933 87.2029 137.7C86.9529 137.45 86.8279 137.15 86.8279 136.8ZM87.1279 145.4H89.1279V151.95C89.0446 151.983 88.9196 152.017 88.7529 152.05C88.5863 152.1 88.4029 152.125 88.2029 152.125C87.8529 152.125 87.5863 152.058 87.4029 151.925C87.2196 151.775 87.1279 151.542 87.1279 151.225V145.4ZM89.1279 146.375H87.1279V140.5C87.2113 140.467 87.3363 140.433 87.5029 140.4C87.6863 140.35 87.8779 140.325 88.0779 140.325C88.4279 140.325 88.6863 140.4 88.8529 140.55C89.0363 140.683 89.1279 140.917 89.1279 141.25V146.375ZM102.508 146.225C102.508 147.458 102.275 148.533 101.808 149.45C101.342 150.367 100.683 151.075 99.8332 151.575C98.9832 152.075 97.9832 152.325 96.8332 152.325C95.6832 152.325 94.6749 152.075 93.8082 151.575C92.9582 151.075 92.2999 150.367 91.8332 149.45C91.3665 148.533 91.1332 147.458 91.1332 146.225C91.1332 144.975 91.3665 143.9 91.8332 143C92.3165 142.083 92.9832 141.375 93.8332 140.875C94.6999 140.375 95.6999 140.125 96.8332 140.125C97.9665 140.125 98.9582 140.375 99.8082 140.875C100.658 141.375 101.317 142.083 101.783 143C102.267 143.9 102.508 144.975 102.508 146.225ZM96.8332 141.775C95.7165 141.775 94.8249 142.175 94.1582 142.975C93.5082 143.758 93.1832 144.842 93.1832 146.225C93.1832 147.625 93.4999 148.717 94.1332 149.5C94.7832 150.283 95.6832 150.675 96.8332 150.675C97.9665 150.675 98.8499 150.283 99.4832 149.5C100.133 148.7 100.458 147.608 100.458 146.225C100.458 144.842 100.133 143.758 99.4832 142.975C98.8499 142.175 97.9665 141.775 96.8332 141.775ZM96.7582 137.55L99.1832 134.825C99.5499 134.842 99.8415 134.95 100.058 135.15C100.292 135.333 100.408 135.542 100.408 135.775C100.408 135.992 100.358 136.175 100.258 136.325C100.158 136.475 99.9915 136.658 99.7582 136.875L97.4832 139.1C97.1665 139.1 96.8999 139.017 96.6832 138.85C96.4832 138.667 96.3832 138.467 96.3832 138.25C96.3832 138.1 96.4249 137.975 96.5082 137.875C96.5915 137.758 96.6749 137.65 96.7582 137.55ZM114.352 144.375V146.925H112.352V144.475C112.352 143.542 112.085 142.858 111.552 142.425C111.035 141.992 110.335 141.775 109.452 141.775C108.785 141.775 108.193 141.858 107.677 142.025C107.16 142.192 106.718 142.383 106.352 142.6V146.925H104.352V142.7C104.352 142.35 104.418 142.067 104.552 141.85C104.702 141.617 104.952 141.392 105.302 141.175C105.735 140.925 106.31 140.692 107.027 140.475C107.743 140.242 108.552 140.125 109.452 140.125C110.968 140.125 112.16 140.475 113.027 141.175C113.91 141.858 114.352 142.925 114.352 144.375ZM104.352 145.55H106.352V151.95C106.268 151.983 106.143 152.017 105.977 152.05C105.81 152.1 105.627 152.125 105.427 152.125C105.077 152.125 104.81 152.058 104.627 151.925C104.443 151.775 104.352 151.542 104.352 151.225V145.55ZM112.352 145.55H114.352V151.95C114.268 151.983 114.135 152.017 113.952 152.05C113.785 152.1 113.61 152.125 113.427 152.125C113.06 152.125 112.785 152.058 112.602 151.925C112.435 151.775 112.352 151.542 112.352 151.225V145.55ZM124.727 152.35C123.16 152.35 121.943 152.042 121.077 151.425C120.227 150.808 119.802 149.917 119.802 148.75C119.802 147.667 120.16 146.842 120.877 146.275C121.61 145.692 122.618 145.342 123.902 145.225L127.452 144.875V144.175C127.452 143.342 127.202 142.733 126.702 142.35C126.202 141.967 125.527 141.775 124.677 141.775C123.993 141.775 123.335 141.875 122.702 142.075C122.085 142.275 121.535 142.5 121.052 142.75C120.918 142.633 120.793 142.5 120.677 142.35C120.577 142.183 120.527 142.017 120.527 141.85C120.527 141.417 120.768 141.083 121.252 140.85C121.702 140.617 122.218 140.442 122.802 140.325C123.402 140.192 124.035 140.125 124.702 140.125C126.152 140.125 127.302 140.45 128.152 141.1C129.002 141.75 129.427 142.775 129.427 144.175V150.1C129.427 150.467 129.352 150.75 129.202 150.95C129.068 151.133 128.86 151.308 128.577 151.475C128.177 151.692 127.643 151.892 126.977 152.075C126.31 152.258 125.56 152.35 124.727 152.35ZM124.727 150.7C125.427 150.7 126.002 150.633 126.452 150.5C126.918 150.35 127.252 150.208 127.452 150.075V146.45L124.352 146.775C123.485 146.842 122.843 147.033 122.427 147.35C122.01 147.667 121.802 148.125 121.802 148.725C121.802 149.342 122.043 149.825 122.527 150.175C123.027 150.525 123.76 150.7 124.727 150.7ZM132.027 145.4L134.027 145.7V151.95C133.944 151.983 133.819 152.017 133.652 152.05C133.485 152.1 133.302 152.125 133.102 152.125C132.752 152.125 132.485 152.058 132.302 151.925C132.119 151.775 132.027 151.542 132.027 151.225V145.4ZM134.027 146.65L132.027 146.375V135.8C132.11 135.767 132.235 135.733 132.402 135.7C132.585 135.65 132.769 135.625 132.952 135.625C133.319 135.625 133.585 135.7 133.752 135.85C133.935 135.983 134.027 136.208 134.027 136.525V146.65ZM151.934 138.475C151.934 138.692 151.859 138.892 151.709 139.075C151.576 139.242 151.418 139.367 151.234 139.45C150.818 139.15 150.309 138.867 149.709 138.6C149.126 138.333 148.368 138.2 147.434 138.2C146.418 138.2 145.501 138.433 144.684 138.9C143.884 139.367 143.243 140.067 142.759 141C142.293 141.917 142.059 143.058 142.059 144.425C142.059 146.475 142.559 148.017 143.559 149.05C144.576 150.083 145.893 150.6 147.509 150.6C148.376 150.6 149.134 150.475 149.784 150.225C150.434 149.975 150.968 149.692 151.384 149.375C151.551 149.442 151.709 149.567 151.859 149.75C152.009 149.917 152.084 150.117 152.084 150.35C152.084 150.517 152.034 150.683 151.934 150.85C151.851 151 151.701 151.15 151.484 151.3C151.101 151.567 150.576 151.8 149.909 152C149.243 152.217 148.393 152.325 147.359 152.325C145.976 152.325 144.718 152.033 143.584 151.45C142.468 150.85 141.584 149.967 140.934 148.8C140.284 147.633 139.959 146.175 139.959 144.425C139.959 142.675 140.293 141.208 140.959 140.025C141.643 138.842 142.534 137.958 143.634 137.375C144.751 136.775 145.968 136.475 147.284 136.475C148.201 136.475 149.009 136.575 149.709 136.775C150.409 136.975 150.951 137.233 151.334 137.55C151.734 137.85 151.934 138.158 151.934 138.475ZM154.132 145.4L156.132 145.7V151.95C156.048 151.983 155.923 152.017 155.757 152.05C155.59 152.1 155.407 152.125 155.207 152.125C154.857 152.125 154.59 152.058 154.407 151.925C154.223 151.775 154.132 151.542 154.132 151.225V145.4ZM156.132 146.65L154.132 146.375V135.8C154.215 135.767 154.34 135.733 154.507 135.7C154.69 135.65 154.873 135.625 155.057 135.625C155.423 135.625 155.69 135.7 155.857 135.85C156.04 135.983 156.132 136.208 156.132 136.525V146.65ZM158.708 136.8C158.708 136.45 158.833 136.158 159.083 135.925C159.333 135.675 159.641 135.55 160.008 135.55C160.391 135.55 160.699 135.675 160.933 135.925C161.166 136.158 161.283 136.45 161.283 136.8C161.283 137.15 161.166 137.45 160.933 137.7C160.699 137.933 160.391 138.05 160.008 138.05C159.641 138.05 159.333 137.933 159.083 137.7C158.833 137.45 158.708 137.15 158.708 136.8ZM159.008 145.4H161.008V151.95C160.924 151.983 160.799 152.017 160.633 152.05C160.466 152.1 160.283 152.125 160.083 152.125C159.733 152.125 159.466 152.058 159.283 151.925C159.099 151.775 159.008 151.542 159.008 151.225V145.4ZM161.008 146.375H159.008V140.5C159.091 140.467 159.216 140.433 159.383 140.4C159.566 140.35 159.758 140.325 159.958 140.325C160.308 140.325 160.566 140.4 160.733 140.55C160.916 140.683 161.008 140.917 161.008 141.25V146.375ZM164.388 147.5L164.288 145.925L171.838 144.9C171.771 143.983 171.455 143.233 170.888 142.65C170.321 142.05 169.538 141.75 168.538 141.75C167.505 141.75 166.646 142.125 165.963 142.875C165.296 143.608 164.963 144.667 164.963 146.05V146.6C165.08 147.933 165.513 148.95 166.263 149.65C167.03 150.333 168.071 150.675 169.388 150.675C170.088 150.675 170.721 150.558 171.288 150.325C171.855 150.092 172.305 149.842 172.638 149.575C172.821 149.692 172.963 149.833 173.063 150C173.18 150.15 173.238 150.325 173.238 150.525C173.238 150.842 173.055 151.142 172.688 151.425C172.338 151.692 171.863 151.908 171.263 152.075C170.68 152.242 170.021 152.325 169.288 152.325C168.005 152.325 166.888 152.092 165.938 151.625C165.005 151.158 164.28 150.467 163.763 149.55C163.263 148.617 163.013 147.483 163.013 146.15C163.013 145.2 163.146 144.358 163.413 143.625C163.696 142.875 164.08 142.242 164.563 141.725C165.063 141.208 165.655 140.817 166.338 140.55C167.021 140.267 167.763 140.125 168.563 140.125C169.58 140.125 170.471 140.342 171.238 140.775C172.021 141.208 172.63 141.817 173.063 142.6C173.513 143.367 173.738 144.25 173.738 145.25C173.738 145.617 173.655 145.883 173.488 146.05C173.321 146.2 173.088 146.292 172.788 146.325L164.388 147.5ZM185.377 144.375V146.925H183.377V144.475C183.377 143.542 183.11 142.858 182.577 142.425C182.06 141.992 181.36 141.775 180.477 141.775C179.81 141.775 179.219 141.858 178.702 142.025C178.185 142.192 177.744 142.383 177.377 142.6V146.925H175.377V142.7C175.377 142.35 175.444 142.067 175.577 141.85C175.727 141.617 175.977 141.392 176.327 141.175C176.76 140.925 177.335 140.692 178.052 140.475C178.769 140.242 179.577 140.125 180.477 140.125C181.994 140.125 183.185 140.475 184.052 141.175C184.935 141.858 185.377 142.925 185.377 144.375ZM175.377 145.55H177.377V151.95C177.294 151.983 177.169 152.017 177.002 152.05C176.835 152.1 176.652 152.125 176.452 152.125C176.102 152.125 175.835 152.058 175.652 151.925C175.469 151.775 175.377 151.542 175.377 151.225V145.55ZM183.377 145.55H185.377V151.95C185.294 151.983 185.16 152.017 184.977 152.05C184.81 152.1 184.635 152.125 184.452 152.125C184.085 152.125 183.81 152.058 183.627 151.925C183.46 151.775 183.377 151.542 183.377 151.225V145.55ZM187.897 145.4H189.897V148.85C189.897 149.517 190.089 149.992 190.472 150.275C190.855 150.542 191.38 150.675 192.047 150.675C192.33 150.675 192.647 150.625 192.997 150.525C193.347 150.425 193.639 150.308 193.872 150.175C193.972 150.275 194.064 150.4 194.147 150.55C194.23 150.7 194.272 150.875 194.272 151.075C194.272 151.442 194.055 151.742 193.622 151.975C193.189 152.208 192.589 152.325 191.822 152.325C190.655 152.325 189.705 152.067 188.972 151.55C188.255 151.033 187.897 150.175 187.897 148.975V145.4ZM188.922 142.35V140.7H193.997C194.047 140.767 194.097 140.875 194.147 141.025C194.197 141.175 194.222 141.333 194.222 141.5C194.222 141.767 194.155 141.975 194.022 142.125C193.889 142.275 193.705 142.35 193.472 142.35H188.922ZM189.897 146.15H187.897V137.1C187.98 137.067 188.105 137.033 188.272 137C188.455 136.95 188.647 136.925 188.847 136.925C189.197 136.925 189.455 137 189.622 137.15C189.805 137.283 189.897 137.508 189.897 137.825V146.15ZM196.283 147.5L196.183 145.925L203.733 144.9C203.666 143.983 203.349 143.233 202.783 142.65C202.216 142.05 201.433 141.75 200.433 141.75C199.399 141.75 198.541 142.125 197.858 142.875C197.191 143.608 196.858 144.667 196.858 146.05V146.6C196.974 147.933 197.408 148.95 198.158 149.65C198.924 150.333 199.966 150.675 201.283 150.675C201.983 150.675 202.616 150.558 203.183 150.325C203.749 150.092 204.199 149.842 204.533 149.575C204.716 149.692 204.858 149.833 204.958 150C205.074 150.15 205.133 150.325 205.133 150.525C205.133 150.842 204.949 151.142 204.583 151.425C204.233 151.692 203.758 151.908 203.158 152.075C202.574 152.242 201.916 152.325 201.183 152.325C199.899 152.325 198.783 152.092 197.833 151.625C196.899 151.158 196.174 150.467 195.658 149.55C195.158 148.617 194.908 147.483 194.908 146.15C194.908 145.2 195.041 144.358 195.308 143.625C195.591 142.875 195.974 142.242 196.458 141.725C196.958 141.208 197.549 140.817 198.233 140.55C198.916 140.267 199.658 140.125 200.458 140.125C201.474 140.125 202.366 140.342 203.133 140.775C203.916 141.208 204.524 141.817 204.958 142.6C205.408 143.367 205.633 144.25 205.633 145.25C205.633 145.617 205.549 145.883 205.383 146.05C205.216 146.2 204.983 146.292 204.683 146.325L196.283 147.5ZM205.796 150.95C205.796 150.55 205.913 150.217 206.146 149.95C206.396 149.683 206.738 149.55 207.171 149.55C207.605 149.55 207.938 149.683 208.171 149.95C208.405 150.217 208.521 150.55 208.521 150.95C208.521 151.333 208.405 151.658 208.171 151.925C207.938 152.192 207.605 152.325 207.171 152.325C206.738 152.325 206.396 152.192 206.146 151.925C205.913 151.658 205.796 151.333 205.796 150.95Z" fill="black"/>
</svg>
