<svg width="832" height="201" viewBox="0 0 832 201" fill="none" xmlns="http://www.w3.org/2000/svg">
<path d="M2 201V114H830V201" stroke="black" stroke-width="3" stroke-dasharray="10 10"/>
<path d="M435 15.5L442.16 0.5L424.84 0.5L432 15.5L435 15.5ZM432 98.5L432 100L435 100L435 98.5L432 98.5ZM432 5.4L432 6.9L435 6.9L435 5.4L432 5.4ZM435 15.2L435 13.7L432 13.7L432 15.2L435 15.2ZM432 25L432 26.5L435 26.5L435 25L432 25ZM435 34.8L435 33.3L432 33.3L432 34.8L435 34.8ZM432 44.6L432 46.1L435 46.1L435 44.6L432 44.6ZM435 54.4L435 52.9L432 52.9L432 54.4L435 54.4ZM432 64.2L432 65.7L435 65.7L435 64.2L432 64.2ZM435 74L435 72.5L432 72.5L432 74L435 74ZM432 83.8L432 85.3L435 85.3L435 83.8L432 83.8ZM435 93.6L435 92.1L432 92.1L432 93.6L435 93.6ZM432 15.2L432 25L435 25L435 15.2L432 15.2ZM432 34.8L432 44.6L435 44.6L435 34.8L432 34.8ZM432 54.4L432 64.2L435 64.2L435 54.4L432 54.4ZM432 74L432 83.8L435 83.8L435 74L432 74ZM432 93.6L432 98.5L435 98.5L435 93.6L432 93.6Z" fill="black"/>
</svg>
