<svg width="18" height="100" viewBox="0 0 18 100" fill="none" xmlns="http://www.w3.org/2000/svg">
<path d="M10.5 15L17.6603 -3.78552e-07L0.339746 3.78552e-07L7.5 15L10.5 15ZM7.5 98L7.5 99.5L10.5 99.5L10.5 98L7.5 98ZM7.5 4.9L7.5 6.4L10.5 6.4L10.5 4.9L7.5 4.9ZM10.5 14.7L10.5 13.2L7.5 13.2L7.5 14.7L10.5 14.7ZM7.5 24.5L7.5 26L10.5 26L10.5 24.5L7.5 24.5ZM10.5 34.3L10.5 32.8L7.5 32.8L7.5 34.3L10.5 34.3ZM7.5 44.1L7.5 45.6L10.5 45.6L10.5 44.1L7.5 44.1ZM10.5 53.9L10.5 52.4L7.5 52.4L7.5 53.9L10.5 53.9ZM7.5 63.7L7.5 65.2L10.5 65.2L10.5 63.7L7.5 63.7ZM10.5 73.5L10.5 72L7.5 72L7.5 73.5L10.5 73.5ZM7.5 83.3L7.5 84.8L10.5 84.8L10.5 83.3L7.5 83.3ZM10.5 93.1L10.5 91.6L7.5 91.6L7.5 93.1L10.5 93.1ZM7.5 14.7L7.5 24.5L10.5 24.5L10.5 14.7L7.5 14.7ZM7.5 34.3L7.5 44.1L10.5 44.1L10.5 34.3L7.5 34.3ZM7.5 53.9L7.5 63.7L10.5 63.7L10.5 53.9L7.5 53.9ZM7.5 73.5L7.5 83.3L10.5 83.3L10.5 73.5L7.5 73.5ZM7.5 93.1L7.5 98L10.5 98L10.5 93.1L7.5 93.1Z" fill="black"/>
</svg>