<svg width="33" height="25" viewBox="0 0 33 25" fill="none" xmlns="http://www.w3.org/2000/svg">
<path d="M31.9996 8.61527V22.1535C31.9996 23.513 30.8976 24.6151 29.5381 24.6151H2.46151C1.10202 24.6151 0 23.513 0 22.1535V8.61527C0 7.93565 0.551131 7.38452 1.23075 7.38452C1.40109 7.3471 1.57733 7.3471 1.74767 7.38452L15.9998 17.2305L30.2765 7.38452C30.439 7.35055 30.6064 7.35055 30.7688 7.38452C31.4484 7.38452 31.9996 7.93565 31.9996 8.61527ZM0.615376 2.26459L0.812297 2.46151L15.9998 12.3075L31.2365 2.46151H31.3842C31.8263 2.22003 32.0714 1.72921 31.9996 1.23075C31.9996 0.551131 31.4484 0 30.7688 0H1.23075C0.551131 0 0 0.551131 0 1.23075C0.00639991 1.66029 0.240735 2.05413 0.615376 2.26459Z" fill="#FFBD00"/>
</svg>
