<svg width="30" height="30" viewBox="0 0 30 30" fill="none" xmlns="http://www.w3.org/2000/svg">
<circle cx="15" cy="15" r="15" fill="#1F1F1F"/>
<path d="M22.4625 16.84H6.2625C6.15583 16.6267 6.0625 16.3867 5.9825 16.12C5.9025 15.8533 5.8625 15.5467 5.8625 15.2C5.8625 14.6133 6.00917 14.1733 6.3025 13.88C6.6225 13.5867 7.03583 13.44 7.5425 13.44H23.7425C23.8225 13.6267 23.9025 13.8667 23.9825 14.16C24.0892 14.4533 24.1425 14.76 24.1425 15.08C24.1425 15.6667 23.9958 16.1067 23.7025 16.4C23.4092 16.6933 22.9958 16.84 22.4625 16.84ZM16.9825 7.76V24.36C16.7692 24.4133 16.5025 24.48 16.1825 24.56C15.8892 24.6133 15.5692 24.64 15.2225 24.64C14.5292 24.64 14.0092 24.5067 13.6625 24.24C13.3158 23.9467 13.1425 23.4267 13.1425 22.68V6.12C13.3825 6.04 13.6625 5.97333 13.9825 5.92C14.3025 5.84 14.6358 5.8 14.9825 5.8C15.6492 5.8 16.1425 5.94667 16.4625 6.24C16.8092 6.50667 16.9825 7.01333 16.9825 7.76Z" fill="#FFBD00"/>
</svg>
