<svg width="239" height="33" viewBox="0 0 239 33" fill="none" xmlns="http://www.w3.org/2000/svg">
<path d="M120.59 13.075C121.905 13.075 122.908 13.534 123.599 14.452C124.211 15.2453 124.517 16.322 124.517 17.682C124.517 19.2007 124.12 20.3567 123.327 21.15C122.647 21.8413 121.729 22.187 120.573 22.187C119.236 22.187 118.216 21.7393 117.513 20.844C116.901 20.062 116.595 19.008 116.595 17.682C116.595 16.1407 116.997 14.9563 117.802 14.129C118.493 13.4263 119.423 13.075 120.59 13.075ZM120.59 14.35C119.797 14.35 119.173 14.6503 118.72 15.251C118.267 15.8403 118.04 16.6507 118.04 17.682C118.04 18.7587 118.295 19.5803 118.805 20.147C119.247 20.6457 119.836 20.895 120.573 20.895C121.355 20.895 121.961 20.6117 122.392 20.045C122.834 19.4783 123.055 18.6907 123.055 17.682C123.055 16.5713 122.806 15.7213 122.307 15.132C121.876 14.6107 121.304 14.35 120.59 14.35Z" fill="#676767"/>
<line x1="239" y1="17.5" x2="139" y2="17.5" stroke="#C9C9C9"/>
<line x1="100" y1="17.5" y2="17.5" stroke="#C9C9C9"/>
</svg>
