<svg width="372" height="282" viewBox="0 0 372 282" fill="none" xmlns="http://www.w3.org/2000/svg">
<rect width="372" height="282" fill="#FFD41A"/>
<path d="M34.25 94.55H37.125C38.3583 94.55 39.325 94.2833 40.025 93.75C40.725 93.2167 41.075 92.425 41.075 91.375C41.075 90.3417 40.7083 89.5583 39.975 89.025C39.2417 88.4917 38.1917 88.225 36.825 88.225C36.375 88.225 35.9167 88.25 35.45 88.3C35 88.3333 34.6 88.3833 34.25 88.45V94.55ZM37.125 96.25H32.225V87.9C32.225 87.6333 32.2917 87.4333 32.425 87.3C32.575 87.15 32.7833 87.0333 33.05 86.95C33.5333 86.8 34.125 86.6917 34.825 86.625C35.5417 86.5583 36.2333 86.525 36.9 86.525C38.9833 86.525 40.5417 86.95 41.575 87.8C42.6083 88.65 43.125 89.8417 43.125 91.375C43.125 92.3583 42.9 93.2167 42.45 93.95C42 94.6833 41.3333 95.25 40.45 95.65C39.5667 96.05 38.4583 96.25 37.125 96.25ZM37.175 95.6L38.675 94.85C39.1417 95.4333 39.625 96.0417 40.125 96.675C40.625 97.3083 41.1083 97.925 41.575 98.525C42.0417 99.125 42.4583 99.6667 42.825 100.15C43.1917 100.617 43.475 100.983 43.675 101.25C43.6083 101.533 43.4583 101.758 43.225 101.925C43.0083 102.092 42.7833 102.175 42.55 102.175C42.2667 102.175 42.0333 102.108 41.85 101.975C41.6667 101.825 41.475 101.617 41.275 101.35L37.175 95.6ZM32.225 95.7H34.275V101.95C34.175 101.983 34.0417 102.017 33.875 102.05C33.7083 102.1 33.525 102.125 33.325 102.125C32.9583 102.125 32.6833 102.05 32.5 101.9C32.3167 101.75 32.225 101.517 32.225 101.2V95.7ZM45.8275 97.5L45.7275 95.925L53.2775 94.9C53.2109 93.9833 52.8942 93.2333 52.3275 92.65C51.7609 92.05 50.9775 91.75 49.9775 91.75C48.9442 91.75 48.0859 92.125 47.4025 92.875C46.7359 93.6083 46.4025 94.6667 46.4025 96.05V96.6C46.5192 97.9333 46.9525 98.95 47.7025 99.65C48.4692 100.333 49.5109 100.675 50.8275 100.675C51.5275 100.675 52.1609 100.558 52.7275 100.325C53.2942 100.092 53.7442 99.8417 54.0775 99.575C54.2609 99.6917 54.4025 99.8333 54.5025 100C54.6192 100.15 54.6775 100.325 54.6775 100.525C54.6775 100.842 54.4942 101.142 54.1275 101.425C53.7775 101.692 53.3025 101.908 52.7025 102.075C52.1192 102.242 51.4609 102.325 50.7275 102.325C49.4442 102.325 48.3275 102.092 47.3775 101.625C46.4442 101.158 45.7192 100.467 45.2025 99.55C44.7025 98.6167 44.4525 97.4833 44.4525 96.15C44.4525 95.2 44.5859 94.3583 44.8525 93.625C45.1359 92.875 45.5192 92.2417 46.0025 91.725C46.5025 91.2083 47.0942 90.8167 47.7775 90.55C48.4609 90.2667 49.2025 90.125 50.0025 90.125C51.0192 90.125 51.9109 90.3417 52.6775 90.775C53.4609 91.2083 54.0692 91.8167 54.5025 92.6C54.9525 93.3667 55.1775 94.25 55.1775 95.25C55.1775 95.6167 55.0942 95.8833 54.9275 96.05C54.7609 96.2 54.5275 96.2917 54.2275 96.325L45.8275 97.5ZM62.1664 91.8C61.0331 91.8 60.0914 92.1833 59.3414 92.95C58.5914 93.7167 58.2164 94.8167 58.2164 96.25C58.2164 97.6667 58.5747 98.7583 59.2914 99.525C60.0247 100.292 60.9831 100.675 62.1664 100.675C62.8664 100.675 63.4497 100.583 63.9164 100.4C64.3831 100.2 64.7997 99.975 65.1664 99.725C65.3497 99.825 65.4997 99.95 65.6164 100.1C65.7331 100.25 65.7914 100.433 65.7914 100.65C65.7914 101.117 65.4414 101.517 64.7414 101.85C64.0581 102.167 63.1997 102.325 62.1664 102.325C61.0164 102.325 59.9831 102.108 59.0664 101.675C58.1664 101.225 57.4581 100.55 56.9414 99.65C56.4247 98.75 56.1664 97.6167 56.1664 96.25C56.1664 94.9 56.4331 93.775 56.9664 92.875C57.4997 91.9583 58.2164 91.275 59.1164 90.825C60.0331 90.3583 61.0331 90.125 62.1164 90.125C63.1497 90.125 63.9997 90.3 64.6664 90.65C65.3497 91 65.6914 91.4 65.6914 91.85C65.6914 92.05 65.6331 92.225 65.5164 92.375C65.3997 92.525 65.2497 92.6417 65.0664 92.725C64.6997 92.475 64.2914 92.2583 63.8414 92.075C63.4081 91.8917 62.8497 91.8 62.1664 91.8ZM67.9369 97.5L67.8369 95.925L75.3869 94.9C75.3202 93.9833 75.0036 93.2333 74.4369 92.65C73.8702 92.05 73.0869 91.75 72.0869 91.75C71.0536 91.75 70.1952 92.125 69.5119 92.875C68.8452 93.6083 68.5119 94.6667 68.5119 96.05V96.6C68.6286 97.9333 69.0619 98.95 69.8119 99.65C70.5786 100.333 71.6202 100.675 72.9369 100.675C73.6369 100.675 74.2702 100.558 74.8369 100.325C75.4036 100.092 75.8536 99.8417 76.1869 99.575C76.3702 99.6917 76.5119 99.8333 76.6119 100C76.7286 100.15 76.7869 100.325 76.7869 100.525C76.7869 100.842 76.6036 101.142 76.2369 101.425C75.8869 101.692 75.4119 101.908 74.8119 102.075C74.2286 102.242 73.5702 102.325 72.8369 102.325C71.5536 102.325 70.4369 102.092 69.4869 101.625C68.5536 101.158 67.8286 100.467 67.3119 99.55C66.8119 98.6167 66.5619 97.4833 66.5619 96.15C66.5619 95.2 66.6952 94.3583 66.9619 93.625C67.2452 92.875 67.6286 92.2417 68.1119 91.725C68.6119 91.2083 69.2036 90.8167 69.8869 90.55C70.5702 90.2667 71.3119 90.125 72.1119 90.125C73.1286 90.125 74.0202 90.3417 74.7869 90.775C75.5702 91.2083 76.1786 91.8167 76.6119 92.6C77.0619 93.3667 77.2869 94.25 77.2869 95.25C77.2869 95.6167 77.2036 95.8833 77.0369 96.05C76.8702 96.2 76.6369 96.2917 76.3369 96.325L67.9369 97.5ZM83.8508 102.325C83.1341 102.325 82.4591 102.217 81.8258 102C81.2091 101.8 80.7591 101.575 80.4758 101.325V99.475C80.8091 99.7917 81.2258 100.075 81.7258 100.325C82.2424 100.558 82.8591 100.675 83.5758 100.675C84.7424 100.675 85.6758 100.325 86.3758 99.625C87.0924 98.9083 87.4508 97.7667 87.4508 96.2C87.4508 95.1 87.2674 94.2333 86.9008 93.6C86.5508 92.95 86.0758 92.4833 85.4758 92.2C84.8924 91.9167 84.2591 91.775 83.5758 91.775C82.9758 91.775 82.4674 91.85 82.0508 92C81.6341 92.15 81.2591 92.3167 80.9258 92.5V100.8H78.9258V92.55C78.9258 92.2167 78.9841 91.95 79.1008 91.75C79.2174 91.55 79.4591 91.3417 79.8258 91.125C80.2758 90.875 80.8091 90.65 81.4258 90.45C82.0591 90.2333 82.7758 90.125 83.5758 90.125C84.6758 90.125 85.6674 90.3417 86.5508 90.775C87.4508 91.1917 88.1591 91.85 88.6758 92.75C89.2091 93.6333 89.4758 94.7833 89.4758 96.2C89.4758 97.5667 89.2341 98.7083 88.7508 99.625C88.2841 100.525 87.6258 101.2 86.7758 101.65C85.9258 102.1 84.9508 102.325 83.8508 102.325ZM80.0008 106.675C79.6508 106.675 79.3841 106.6 79.2008 106.45C79.0174 106.3 78.9258 106.067 78.9258 105.75V100.075L80.9258 100.125V106.5C80.8424 106.533 80.7174 106.567 80.5508 106.6C80.3841 106.65 80.2008 106.675 80.0008 106.675ZM96.6732 91.8C95.5399 91.8 94.5982 92.1833 93.8482 92.95C93.0982 93.7167 92.7232 94.8167 92.7232 96.25C92.7232 97.6667 93.0816 98.7583 93.7982 99.525C94.5316 100.292 95.4899 100.675 96.6732 100.675C97.3732 100.675 97.9566 100.583 98.4232 100.4C98.8899 100.2 99.3066 99.975 99.6732 99.725C99.8566 99.825 100.007 99.95 100.123 100.1C100.24 100.25 100.298 100.433 100.298 100.65C100.298 101.117 99.9482 101.517 99.2482 101.85C98.5649 102.167 97.7066 102.325 96.6732 102.325C95.5232 102.325 94.4899 102.108 93.5732 101.675C92.6732 101.225 91.9649 100.55 91.4482 99.65C90.9316 98.75 90.6732 97.6167 90.6732 96.25C90.6732 94.9 90.9399 93.775 91.4732 92.875C92.0066 91.9583 92.7232 91.275 93.6232 90.825C94.5399 90.3583 95.5399 90.125 96.6232 90.125C97.6566 90.125 98.5066 90.3 99.1732 90.65C99.8566 91 100.198 91.4 100.198 91.85C100.198 92.05 100.14 92.225 100.023 92.375C99.9066 92.525 99.7566 92.6417 99.5732 92.725C99.2066 92.475 98.7982 92.2583 98.3482 92.075C97.9149 91.8917 97.3566 91.8 96.6732 91.8ZM101.837 86.8C101.837 86.45 101.962 86.1583 102.212 85.925C102.462 85.675 102.77 85.55 103.137 85.55C103.52 85.55 103.828 85.675 104.062 85.925C104.295 86.1583 104.412 86.45 104.412 86.8C104.412 87.15 104.295 87.45 104.062 87.7C103.828 87.9333 103.52 88.05 103.137 88.05C102.77 88.05 102.462 87.9333 102.212 87.7C101.962 87.45 101.837 87.15 101.837 86.8ZM102.137 95.4H104.137V101.95C104.053 101.983 103.928 102.017 103.762 102.05C103.595 102.1 103.412 102.125 103.212 102.125C102.862 102.125 102.595 102.058 102.412 101.925C102.228 101.775 102.137 101.542 102.137 101.225V95.4ZM104.137 96.375H102.137V90.5C102.22 90.4667 102.345 90.4333 102.512 90.4C102.695 90.35 102.887 90.325 103.087 90.325C103.437 90.325 103.695 90.4 103.862 90.55C104.045 90.6833 104.137 90.9167 104.137 91.25V96.375ZM117.517 96.225C117.517 97.4583 117.284 98.5333 116.817 99.45C116.35 100.367 115.692 101.075 114.842 101.575C113.992 102.075 112.992 102.325 111.842 102.325C110.692 102.325 109.684 102.075 108.817 101.575C107.967 101.075 107.309 100.367 106.842 99.45C106.375 98.5333 106.142 97.4583 106.142 96.225C106.142 94.975 106.375 93.9 106.842 93C107.325 92.0833 107.992 91.375 108.842 90.875C109.709 90.375 110.709 90.125 111.842 90.125C112.975 90.125 113.967 90.375 114.817 90.875C115.667 91.375 116.325 92.0833 116.792 93C117.275 93.9 117.517 94.975 117.517 96.225ZM111.842 91.775C110.725 91.775 109.834 92.175 109.167 92.975C108.517 93.7583 108.192 94.8417 108.192 96.225C108.192 97.625 108.509 98.7167 109.142 99.5C109.792 100.283 110.692 100.675 111.842 100.675C112.975 100.675 113.859 100.283 114.492 99.5C115.142 98.7 115.467 97.6083 115.467 96.225C115.467 94.8417 115.142 93.7583 114.492 92.975C113.859 92.175 112.975 91.775 111.842 91.775ZM129.36 94.375V96.925H127.36V94.475C127.36 93.5417 127.094 92.8583 126.56 92.425C126.044 91.9917 125.344 91.775 124.46 91.775C123.794 91.775 123.202 91.8583 122.685 92.025C122.169 92.1917 121.727 92.3833 121.36 92.6V96.925H119.36V92.7C119.36 92.35 119.427 92.0667 119.56 91.85C119.71 91.6167 119.96 91.3917 120.31 91.175C120.744 90.925 121.319 90.6917 122.035 90.475C122.752 90.2417 123.56 90.125 124.46 90.125C125.977 90.125 127.169 90.475 128.035 91.175C128.919 91.8583 129.36 92.925 129.36 94.375ZM119.36 95.55H121.36V101.95C121.277 101.983 121.152 102.017 120.985 102.05C120.819 102.1 120.635 102.125 120.435 102.125C120.085 102.125 119.819 102.058 119.635 101.925C119.452 101.775 119.36 101.542 119.36 101.225V95.55ZM127.36 95.55H129.36V101.95C129.277 101.983 129.144 102.017 128.96 102.05C128.794 102.1 128.619 102.125 128.435 102.125C128.069 102.125 127.794 102.058 127.61 101.925C127.444 101.775 127.36 101.542 127.36 101.225V95.55ZM135.98 102.35C134.414 102.35 133.197 102.042 132.33 101.425C131.48 100.808 131.055 99.9167 131.055 98.75C131.055 97.6667 131.414 96.8417 132.13 96.275C132.864 95.6917 133.872 95.3417 135.155 95.225L138.705 94.875V94.175C138.705 93.3417 138.455 92.7333 137.955 92.35C137.455 91.9667 136.78 91.775 135.93 91.775C135.247 91.775 134.589 91.875 133.955 92.075C133.339 92.275 132.789 92.5 132.305 92.75C132.172 92.6333 132.047 92.5 131.93 92.35C131.83 92.1833 131.78 92.0167 131.78 91.85C131.78 91.4167 132.022 91.0833 132.505 90.85C132.955 90.6167 133.472 90.4417 134.055 90.325C134.655 90.1917 135.289 90.125 135.955 90.125C137.405 90.125 138.555 90.45 139.405 91.1C140.255 91.75 140.68 92.775 140.68 94.175V100.1C140.68 100.467 140.605 100.75 140.455 100.95C140.322 101.133 140.114 101.308 139.83 101.475C139.43 101.692 138.897 101.892 138.23 102.075C137.564 102.258 136.814 102.35 135.98 102.35ZM135.98 100.7C136.68 100.7 137.255 100.633 137.705 100.5C138.172 100.35 138.505 100.208 138.705 100.075V96.45L135.605 96.775C134.739 96.8417 134.097 97.0333 133.68 97.35C133.264 97.6667 133.055 98.125 133.055 98.725C133.055 99.3417 133.297 99.825 133.78 100.175C134.28 100.525 135.014 100.7 135.98 100.7ZM152.406 94V96.875H150.406V94.15C150.406 93.3333 150.164 92.7333 149.681 92.35C149.214 91.9667 148.589 91.775 147.806 91.775C147.289 91.775 146.789 91.8583 146.306 92.025C145.823 92.1917 145.414 92.3833 145.081 92.6V96.875H143.081V92.7C143.081 92.3667 143.148 92.0833 143.281 91.85C143.431 91.6167 143.681 91.3917 144.031 91.175C144.481 90.8917 145.048 90.65 145.731 90.45C146.431 90.2333 147.131 90.125 147.831 90.125C148.681 90.125 149.431 90.2583 150.081 90.525C150.731 90.775 151.214 91.125 151.531 91.575C151.631 91.675 151.714 91.7667 151.781 91.85C151.848 91.9333 151.914 92.0417 151.981 92.175C152.098 92.375 152.198 92.6333 152.281 92.95C152.364 93.2667 152.406 93.6167 152.406 94ZM159.731 94.05V96.875H157.731V94.15C157.731 93.3333 157.498 92.7333 157.031 92.35C156.564 91.9667 155.939 91.775 155.156 91.775C154.573 91.775 154.006 91.9 153.456 92.15C152.923 92.3833 152.439 92.725 152.006 93.175L151.206 91.725C151.639 91.2917 152.206 90.9167 152.906 90.6C153.606 90.2833 154.406 90.125 155.306 90.125C156.206 90.125 156.981 90.2667 157.631 90.55C158.298 90.8333 158.814 91.2667 159.181 91.85C159.548 92.4333 159.731 93.1667 159.731 94.05ZM143.081 95.55H145.081V101.95C144.998 101.983 144.873 102.017 144.706 102.05C144.539 102.1 144.356 102.125 144.156 102.125C143.806 102.125 143.539 102.058 143.356 101.925C143.173 101.775 143.081 101.542 143.081 101.225V95.55ZM150.406 95.55H152.406V101.95C152.323 101.983 152.189 102.017 152.006 102.05C151.839 102.1 151.664 102.125 151.481 102.125C151.114 102.125 150.839 102.058 150.656 101.925C150.489 101.775 150.406 101.542 150.406 101.225V95.55ZM157.731 95.55H159.731V101.95C159.648 101.983 159.514 102.017 159.331 102.05C159.164 102.1 158.989 102.125 158.806 102.125C158.439 102.125 158.164 102.058 157.981 101.925C157.814 101.775 157.731 101.542 157.731 101.225V95.55ZM172.966 96.225C172.966 97.4583 172.733 98.5333 172.266 99.45C171.8 100.367 171.141 101.075 170.291 101.575C169.441 102.075 168.441 102.325 167.291 102.325C166.141 102.325 165.133 102.075 164.266 101.575C163.416 101.075 162.758 100.367 162.291 99.45C161.825 98.5333 161.591 97.4583 161.591 96.225C161.591 94.975 161.825 93.9 162.291 93C162.775 92.0833 163.441 91.375 164.291 90.875C165.158 90.375 166.158 90.125 167.291 90.125C168.425 90.125 169.416 90.375 170.266 90.875C171.116 91.375 171.775 92.0833 172.241 93C172.725 93.9 172.966 94.975 172.966 96.225ZM167.291 91.775C166.175 91.775 165.283 92.175 164.616 92.975C163.966 93.7583 163.641 94.8417 163.641 96.225C163.641 97.625 163.958 98.7167 164.591 99.5C165.241 100.283 166.141 100.675 167.291 100.675C168.425 100.675 169.308 100.283 169.941 99.5C170.591 98.7 170.916 97.6083 170.916 96.225C170.916 94.8417 170.591 93.7583 169.941 92.975C169.308 92.175 168.425 91.775 167.291 91.775ZM182.96 98.925C182.96 99.9917 182.568 100.825 181.785 101.425C181.001 102.025 179.868 102.325 178.385 102.325C177.118 102.325 176.085 102.133 175.285 101.75C174.485 101.35 174.085 100.917 174.085 100.45C174.085 100.25 174.135 100.058 174.235 99.875C174.351 99.675 174.518 99.5167 174.735 99.4C175.185 99.7167 175.71 100.008 176.31 100.275C176.91 100.542 177.593 100.675 178.36 100.675C180.093 100.675 180.96 100.092 180.96 98.925C180.96 98.4417 180.81 98.05 180.51 97.75C180.226 97.4333 179.801 97.2083 179.235 97.075L177.16 96.525C176.143 96.275 175.401 95.8917 174.935 95.375C174.468 94.8417 174.235 94.1833 174.235 93.4C174.235 92.5167 174.593 91.75 175.31 91.1C176.026 90.45 177.118 90.125 178.585 90.125C179.368 90.125 180.051 90.2083 180.635 90.375C181.218 90.525 181.668 90.7333 181.985 91C182.318 91.25 182.485 91.525 182.485 91.825C182.485 92.0417 182.426 92.2333 182.31 92.4C182.21 92.5667 182.068 92.6917 181.885 92.775C181.685 92.6417 181.426 92.5 181.11 92.35C180.81 92.1833 180.451 92.05 180.035 91.95C179.618 91.8333 179.16 91.775 178.66 91.775C177.926 91.775 177.335 91.9167 176.885 92.2C176.435 92.4833 176.21 92.8833 176.21 93.4C176.21 93.7667 176.335 94.0917 176.585 94.375C176.851 94.6417 177.268 94.8417 177.835 94.975L179.56 95.4C180.693 95.6667 181.543 96.0917 182.11 96.675C182.676 97.2417 182.96 97.9917 182.96 98.925ZM188.521 95.4H190.521V98.85C190.521 99.5167 190.713 99.9917 191.096 100.275C191.479 100.542 192.004 100.675 192.671 100.675C192.954 100.675 193.271 100.625 193.621 100.525C193.971 100.425 194.263 100.308 194.496 100.175C194.596 100.275 194.688 100.4 194.771 100.55C194.854 100.7 194.896 100.875 194.896 101.075C194.896 101.442 194.679 101.742 194.246 101.975C193.813 102.208 193.213 102.325 192.446 102.325C191.279 102.325 190.329 102.067 189.596 101.55C188.879 101.033 188.521 100.175 188.521 98.975V95.4ZM189.546 92.35V90.7H194.621C194.671 90.7667 194.721 90.875 194.771 91.025C194.821 91.175 194.846 91.3333 194.846 91.5C194.846 91.7667 194.779 91.975 194.646 92.125C194.513 92.275 194.329 92.35 194.096 92.35H189.546ZM190.521 96.15H188.521V87.1C188.604 87.0667 188.729 87.0333 188.896 87C189.079 86.95 189.271 86.925 189.471 86.925C189.821 86.925 190.079 87 190.246 87.15C190.429 87.2833 190.521 87.5083 190.521 87.825V96.15ZM196.426 97.775V95.5H198.426V97.675C198.426 98.7417 198.709 99.5083 199.276 99.975C199.842 100.442 200.626 100.675 201.626 100.675C202.292 100.675 202.859 100.608 203.326 100.475C203.792 100.325 204.159 100.175 204.426 100.025V95.5H206.426V99.95C206.426 100.3 206.376 100.583 206.276 100.8C206.192 101 205.976 101.2 205.626 101.4C205.259 101.617 204.734 101.825 204.051 102.025C203.367 102.225 202.551 102.325 201.601 102.325C200.501 102.325 199.559 102.167 198.776 101.85C198.009 101.517 197.426 101.017 197.026 100.35C196.626 99.6667 196.426 98.8083 196.426 97.775ZM206.426 96.8H204.426V90.5C204.509 90.4667 204.634 90.4333 204.801 90.4C204.984 90.35 205.167 90.325 205.351 90.325C205.717 90.325 205.984 90.4 206.151 90.55C206.334 90.6833 206.426 90.9167 206.426 91.25V96.8ZM198.426 96.8H196.426V90.5C196.509 90.4667 196.634 90.4333 196.801 90.4C196.984 90.35 197.176 90.325 197.376 90.325C197.726 90.325 197.984 90.4 198.151 90.55C198.334 90.6833 198.426 90.9167 198.426 91.25V96.8ZM220.826 98.925C220.826 99.9917 220.434 100.825 219.651 101.425C218.867 102.025 217.734 102.325 216.251 102.325C214.984 102.325 213.951 102.133 213.151 101.75C212.351 101.35 211.951 100.917 211.951 100.45C211.951 100.25 212.001 100.058 212.101 99.875C212.217 99.675 212.384 99.5167 212.601 99.4C213.051 99.7167 213.576 100.008 214.176 100.275C214.776 100.542 215.459 100.675 216.226 100.675C217.959 100.675 218.826 100.092 218.826 98.925C218.826 98.4417 218.676 98.05 218.376 97.75C218.092 97.4333 217.667 97.2083 217.101 97.075L215.026 96.525C214.009 96.275 213.267 95.8917 212.801 95.375C212.334 94.8417 212.101 94.1833 212.101 93.4C212.101 92.5167 212.459 91.75 213.176 91.1C213.892 90.45 214.984 90.125 216.451 90.125C217.234 90.125 217.917 90.2083 218.501 90.375C219.084 90.525 219.534 90.7333 219.851 91C220.184 91.25 220.351 91.525 220.351 91.825C220.351 92.0417 220.292 92.2333 220.176 92.4C220.076 92.5667 219.934 92.6917 219.751 92.775C219.551 92.6417 219.292 92.5 218.976 92.35C218.676 92.1833 218.317 92.05 217.901 91.95C217.484 91.8333 217.026 91.775 216.526 91.775C215.792 91.775 215.201 91.9167 214.751 92.2C214.301 92.4833 214.076 92.8833 214.076 93.4C214.076 93.7667 214.201 94.0917 214.451 94.375C214.717 94.6417 215.134 94.8417 215.701 94.975L217.426 95.4C218.559 95.6667 219.409 96.0917 219.976 96.675C220.542 97.2417 220.826 97.9917 220.826 98.925ZM233.454 96.225C233.454 97.4583 233.221 98.5333 232.754 99.45C232.288 100.367 231.629 101.075 230.779 101.575C229.929 102.075 228.929 102.325 227.779 102.325C226.629 102.325 225.621 102.075 224.754 101.575C223.904 101.075 223.246 100.367 222.779 99.45C222.313 98.5333 222.079 97.4583 222.079 96.225C222.079 94.975 222.313 93.9 222.779 93C223.263 92.0833 223.929 91.375 224.779 90.875C225.646 90.375 226.646 90.125 227.779 90.125C228.913 90.125 229.904 90.375 230.754 90.875C231.604 91.375 232.263 92.0833 232.729 93C233.213 93.9 233.454 94.975 233.454 96.225ZM227.779 91.775C226.663 91.775 225.771 92.175 225.104 92.975C224.454 93.7583 224.129 94.8417 224.129 96.225C224.129 97.625 224.446 98.7167 225.079 99.5C225.729 100.283 226.629 100.675 227.779 100.675C228.913 100.675 229.796 100.283 230.429 99.5C231.079 98.7 231.404 97.6083 231.404 96.225C231.404 94.8417 231.079 93.7583 230.429 92.975C229.796 92.175 228.913 91.775 227.779 91.775ZM235.498 95.4L237.498 95.7V101.95C237.415 101.983 237.29 102.017 237.123 102.05C236.956 102.1 236.773 102.125 236.573 102.125C236.223 102.125 235.956 102.058 235.773 101.925C235.59 101.775 235.498 101.542 235.498 101.225V95.4ZM237.498 96.65L235.498 96.375V85.8C235.581 85.7667 235.706 85.7333 235.873 85.7C236.056 85.65 236.24 85.625 236.423 85.625C236.79 85.625 237.056 85.7 237.223 85.85C237.406 85.9833 237.498 86.2083 237.498 86.525V96.65ZM240.074 86.8C240.074 86.45 240.199 86.1583 240.449 85.925C240.699 85.675 241.007 85.55 241.374 85.55C241.757 85.55 242.066 85.675 242.299 85.925C242.532 86.1583 242.649 86.45 242.649 86.8C242.649 87.15 242.532 87.45 242.299 87.7C242.066 87.9333 241.757 88.05 241.374 88.05C241.007 88.05 240.699 87.9333 240.449 87.7C240.199 87.45 240.074 87.15 240.074 86.8ZM240.374 95.4H242.374V101.95C242.291 101.983 242.166 102.017 241.999 102.05C241.832 102.1 241.649 102.125 241.449 102.125C241.099 102.125 240.832 102.058 240.649 101.925C240.466 101.775 240.374 101.542 240.374 101.225V95.4ZM242.374 96.375H240.374V90.5C240.457 90.4667 240.582 90.4333 240.749 90.4C240.932 90.35 241.124 90.325 241.324 90.325C241.674 90.325 241.932 90.4 242.099 90.55C242.282 90.6833 242.374 90.9167 242.374 91.25V96.375ZM250.379 91.8C249.246 91.8 248.304 92.1833 247.554 92.95C246.804 93.7167 246.429 94.8167 246.429 96.25C246.429 97.6667 246.788 98.7583 247.504 99.525C248.238 100.292 249.196 100.675 250.379 100.675C251.079 100.675 251.663 100.583 252.129 100.4C252.596 100.2 253.013 99.975 253.379 99.725C253.563 99.825 253.713 99.95 253.829 100.1C253.946 100.25 254.004 100.433 254.004 100.65C254.004 101.117 253.654 101.517 252.954 101.85C252.271 102.167 251.413 102.325 250.379 102.325C249.229 102.325 248.196 102.108 247.279 101.675C246.379 101.225 245.671 100.55 245.154 99.65C244.638 98.75 244.379 97.6167 244.379 96.25C244.379 94.9 244.646 93.775 245.179 92.875C245.713 91.9583 246.429 91.275 247.329 90.825C248.246 90.3583 249.246 90.125 250.329 90.125C251.363 90.125 252.213 90.3 252.879 90.65C253.563 91 253.904 91.4 253.904 91.85C253.904 92.05 253.846 92.225 253.729 92.375C253.613 92.525 253.463 92.6417 253.279 92.725C252.913 92.475 252.504 92.2583 252.054 92.075C251.621 91.8917 251.063 91.8 250.379 91.8ZM255.543 86.8C255.543 86.45 255.668 86.1583 255.918 85.925C256.168 85.675 256.476 85.55 256.843 85.55C257.226 85.55 257.534 85.675 257.768 85.925C258.001 86.1583 258.118 86.45 258.118 86.8C258.118 87.15 258.001 87.45 257.768 87.7C257.534 87.9333 257.226 88.05 256.843 88.05C256.476 88.05 256.168 87.9333 255.918 87.7C255.668 87.45 255.543 87.15 255.543 86.8ZM255.843 95.4H257.843V101.95C257.759 101.983 257.634 102.017 257.468 102.05C257.301 102.1 257.118 102.125 256.918 102.125C256.568 102.125 256.301 102.058 256.118 101.925C255.934 101.775 255.843 101.542 255.843 101.225V95.4ZM257.843 96.375H255.843V90.5C255.926 90.4667 256.051 90.4333 256.218 90.4C256.401 90.35 256.593 90.325 256.793 90.325C257.143 90.325 257.401 90.4 257.568 90.55C257.751 90.6833 257.843 90.9167 257.843 91.25V96.375ZM260.523 95.4H262.523V98.85C262.523 99.5167 262.715 99.9917 263.098 100.275C263.481 100.542 264.006 100.675 264.673 100.675C264.956 100.675 265.273 100.625 265.623 100.525C265.973 100.425 266.265 100.308 266.498 100.175C266.598 100.275 266.69 100.4 266.773 100.55C266.856 100.7 266.898 100.875 266.898 101.075C266.898 101.442 266.681 101.742 266.248 101.975C265.815 102.208 265.215 102.325 264.448 102.325C263.281 102.325 262.331 102.067 261.598 101.55C260.881 101.033 260.523 100.175 260.523 98.975V95.4ZM261.548 92.35V90.7H266.623C266.673 90.7667 266.723 90.875 266.773 91.025C266.823 91.175 266.848 91.3333 266.848 91.5C266.848 91.7667 266.781 91.975 266.648 92.125C266.515 92.275 266.331 92.35 266.098 92.35H261.548ZM262.523 96.15H260.523V87.1C260.606 87.0667 260.731 87.0333 260.898 87C261.081 86.95 261.273 86.925 261.473 86.925C261.823 86.925 262.081 87 262.248 87.15C262.431 87.2833 262.523 87.5083 262.523 87.825V96.15ZM268.428 97.775V95.5H270.428V97.675C270.428 98.7417 270.711 99.5083 271.278 99.975C271.844 100.442 272.628 100.675 273.628 100.675C274.294 100.675 274.861 100.608 275.328 100.475C275.794 100.325 276.161 100.175 276.428 100.025V95.5H278.428V99.95C278.428 100.3 278.378 100.583 278.278 100.8C278.194 101 277.978 101.2 277.628 101.4C277.261 101.617 276.736 101.825 276.053 102.025C275.369 102.225 274.553 102.325 273.603 102.325C272.503 102.325 271.561 102.167 270.778 101.85C270.011 101.517 269.428 101.017 269.028 100.35C268.628 99.6667 268.428 98.8083 268.428 97.775ZM278.428 96.8H276.428V90.5C276.511 90.4667 276.636 90.4333 276.803 90.4C276.986 90.35 277.169 90.325 277.353 90.325C277.719 90.325 277.986 90.4 278.153 90.55C278.336 90.6833 278.428 90.9167 278.428 91.25V96.8ZM270.428 96.8H268.428V90.5C268.511 90.4667 268.636 90.4333 268.803 90.4C268.986 90.35 269.178 90.325 269.378 90.325C269.728 90.325 269.986 90.4 270.153 90.55C270.336 90.6833 270.428 90.9167 270.428 91.25V96.8ZM288.798 100.025V91.625L290.798 91.6V100.1C290.798 100.417 290.723 100.675 290.573 100.875C290.44 101.058 290.223 101.242 289.923 101.425C289.59 101.642 289.115 101.842 288.498 102.025C287.881 102.225 287.173 102.325 286.373 102.325C285.173 102.325 284.115 102.117 283.198 101.7C282.281 101.283 281.565 100.633 281.048 99.75C280.531 98.85 280.273 97.6917 280.273 96.275C280.273 94.825 280.523 93.65 281.023 92.75C281.54 91.85 282.231 91.1917 283.098 90.775C283.965 90.3417 284.915 90.125 285.948 90.125C286.598 90.125 287.215 90.2167 287.798 90.4C288.381 90.5833 288.84 90.8083 289.173 91.075V92.925C288.856 92.6083 288.44 92.3417 287.923 92.125C287.423 91.8917 286.831 91.775 286.148 91.775C285.465 91.775 284.831 91.925 284.248 92.225C283.665 92.5083 283.198 92.9833 282.848 93.65C282.498 94.3167 282.323 95.2083 282.323 96.325C282.323 97.8417 282.69 98.95 283.423 99.65C284.156 100.333 285.131 100.675 286.348 100.675C286.931 100.675 287.406 100.617 287.773 100.5C288.156 100.367 288.498 100.208 288.798 100.025ZM290.798 92.1L288.798 92.125V85.8C288.881 85.7667 289.006 85.7333 289.173 85.7C289.356 85.65 289.54 85.625 289.723 85.625C290.09 85.625 290.356 85.7 290.523 85.85C290.706 85.9833 290.798 86.2083 290.798 86.525V92.1ZM39.75 125.025V116.625L41.75 116.6V125.1C41.75 125.417 41.675 125.675 41.525 125.875C41.3917 126.058 41.175 126.242 40.875 126.425C40.5417 126.642 40.0667 126.842 39.45 127.025C38.8333 127.225 38.125 127.325 37.325 127.325C36.125 127.325 35.0667 127.117 34.15 126.7C33.2333 126.283 32.5167 125.633 32 124.75C31.4833 123.85 31.225 122.692 31.225 121.275C31.225 119.825 31.475 118.65 31.975 117.75C32.4917 116.85 33.1833 116.192 34.05 115.775C34.9167 115.342 35.8667 115.125 36.9 115.125C37.55 115.125 38.1667 115.217 38.75 115.4C39.3333 115.583 39.7917 115.808 40.125 116.075V117.925C39.8083 117.608 39.3917 117.342 38.875 117.125C38.375 116.892 37.7833 116.775 37.1 116.775C36.4167 116.775 35.7833 116.925 35.2 117.225C34.6167 117.508 34.15 117.983 33.8 118.65C33.45 119.317 33.275 120.208 33.275 121.325C33.275 122.842 33.6417 123.95 34.375 124.65C35.1083 125.333 36.0833 125.675 37.3 125.675C37.8833 125.675 38.3583 125.617 38.725 125.5C39.1083 125.367 39.45 125.208 39.75 125.025ZM41.75 117.1L39.75 117.125V110.8C39.8333 110.767 39.9583 110.733 40.125 110.7C40.3083 110.65 40.4917 110.625 40.675 110.625C41.0417 110.625 41.3083 110.7 41.475 110.85C41.6583 110.983 41.75 111.208 41.75 111.525V117.1ZM45.0219 122.5L44.9219 120.925L52.4719 119.9C52.4052 118.983 52.0885 118.233 51.5219 117.65C50.9552 117.05 50.1719 116.75 49.1719 116.75C48.1385 116.75 47.2802 117.125 46.5969 117.875C45.9302 118.608 45.5969 119.667 45.5969 121.05V121.6C45.7135 122.933 46.1469 123.95 46.8969 124.65C47.6635 125.333 48.7052 125.675 50.0219 125.675C50.7219 125.675 51.3552 125.558 51.9219 125.325C52.4885 125.092 52.9385 124.842 53.2719 124.575C53.4552 124.692 53.5969 124.833 53.6969 125C53.8135 125.15 53.8719 125.325 53.8719 125.525C53.8719 125.842 53.6885 126.142 53.3219 126.425C52.9719 126.692 52.4969 126.908 51.8969 127.075C51.3135 127.242 50.6552 127.325 49.9219 127.325C48.6385 127.325 47.5219 127.092 46.5719 126.625C45.6385 126.158 44.9135 125.467 44.3969 124.55C43.8969 123.617 43.6469 122.483 43.6469 121.15C43.6469 120.2 43.7802 119.358 44.0469 118.625C44.3302 117.875 44.7135 117.242 45.1969 116.725C45.6969 116.208 46.2885 115.817 46.9719 115.55C47.6552 115.267 48.3969 115.125 49.1969 115.125C50.2135 115.125 51.1052 115.342 51.8719 115.775C52.6552 116.208 53.2635 116.817 53.6969 117.6C54.1469 118.367 54.3719 119.25 54.3719 120.25C54.3719 120.617 54.2885 120.883 54.1219 121.05C53.9552 121.2 53.7219 121.292 53.4219 121.325L45.0219 122.5ZM60.4906 122.5L60.3906 120.925L67.9406 119.9C67.874 118.983 67.5573 118.233 66.9906 117.65C66.424 117.05 65.6406 116.75 64.6406 116.75C63.6073 116.75 62.749 117.125 62.0656 117.875C61.399 118.608 61.0656 119.667 61.0656 121.05V121.6C61.1823 122.933 61.6156 123.95 62.3656 124.65C63.1323 125.333 64.174 125.675 65.4906 125.675C66.1906 125.675 66.824 125.558 67.3906 125.325C67.9573 125.092 68.4073 124.842 68.7406 124.575C68.924 124.692 69.0656 124.833 69.1656 125C69.2823 125.15 69.3406 125.325 69.3406 125.525C69.3406 125.842 69.1573 126.142 68.7906 126.425C68.4406 126.692 67.9656 126.908 67.3656 127.075C66.7823 127.242 66.124 127.325 65.3906 127.325C64.1073 127.325 62.9906 127.092 62.0406 126.625C61.1073 126.158 60.3823 125.467 59.8656 124.55C59.3656 123.617 59.1156 122.483 59.1156 121.15C59.1156 120.2 59.249 119.358 59.5156 118.625C59.799 117.875 60.1823 117.242 60.6656 116.725C61.1656 116.208 61.7573 115.817 62.4406 115.55C63.124 115.267 63.8656 115.125 64.6656 115.125C65.6823 115.125 66.574 115.342 67.3406 115.775C68.124 116.208 68.7323 116.817 69.1656 117.6C69.6156 118.367 69.8406 119.25 69.8406 120.25C69.8406 120.617 69.7573 120.883 69.5906 121.05C69.424 121.2 69.1906 121.292 68.8906 121.325L60.4906 122.5ZM81.4795 119.375V121.925H79.4795V119.475C79.4795 118.542 79.2128 117.858 78.6795 117.425C78.1628 116.992 77.4628 116.775 76.5795 116.775C75.9128 116.775 75.3212 116.858 74.8045 117.025C74.2878 117.192 73.8462 117.383 73.4795 117.6V121.925H71.4795V117.7C71.4795 117.35 71.5462 117.067 71.6795 116.85C71.8295 116.617 72.0795 116.392 72.4295 116.175C72.8628 115.925 73.4378 115.692 74.1545 115.475C74.8712 115.242 75.6795 115.125 76.5795 115.125C78.0962 115.125 79.2878 115.475 80.1545 116.175C81.0378 116.858 81.4795 117.925 81.4795 119.375ZM71.4795 120.55H73.4795V126.95C73.3962 126.983 73.2712 127.017 73.1045 127.05C72.9378 127.1 72.7545 127.125 72.5545 127.125C72.2045 127.125 71.9378 127.058 71.7545 126.925C71.5712 126.775 71.4795 126.542 71.4795 126.225V120.55ZM79.4795 120.55H81.4795V126.95C81.3962 126.983 81.2628 127.017 81.0795 127.05C80.9128 127.1 80.7378 127.125 80.5545 127.125C80.1878 127.125 79.9128 127.058 79.7295 126.925C79.5628 126.775 79.4795 126.542 79.4795 126.225V120.55ZM92.3072 115.225C92.5906 115.225 92.8156 115.3 92.9822 115.45C93.1656 115.6 93.2572 115.817 93.2572 116.1C93.2572 116.317 93.1656 116.725 92.9822 117.325C92.7989 117.925 92.5572 118.642 92.2572 119.475C91.9572 120.308 91.6239 121.183 91.2572 122.1C90.9072 123 90.5406 123.875 90.1572 124.725C89.7906 125.558 89.4489 126.283 89.1322 126.9C89.0489 126.967 88.8989 127.025 88.6822 127.075C88.4822 127.125 88.2656 127.15 88.0322 127.15C87.7489 127.15 87.4989 127.1 87.2822 127C87.0656 126.917 86.9156 126.792 86.8322 126.625C86.6489 126.292 86.4072 125.808 86.1072 125.175C85.8239 124.525 85.5156 123.792 85.1822 122.975C84.8489 122.158 84.5072 121.317 84.1572 120.45C83.8239 119.567 83.5156 118.725 83.2322 117.925C82.9489 117.108 82.7156 116.392 82.5322 115.775C82.6489 115.608 82.8072 115.475 83.0072 115.375C83.2072 115.275 83.4072 115.225 83.6072 115.225C83.9072 115.225 84.1406 115.3 84.3072 115.45C84.4739 115.6 84.6156 115.85 84.7322 116.2L86.2822 120.675C86.4156 121.058 86.5906 121.533 86.8072 122.1C87.0239 122.667 87.2406 123.233 87.4572 123.8C87.6739 124.367 87.8489 124.842 87.9822 125.225H88.0822C88.7489 123.542 89.3739 121.883 89.9572 120.25C90.5406 118.6 91.0406 116.992 91.4572 115.425C91.6739 115.292 91.9572 115.225 92.3072 115.225ZM94.9102 118.425H96.9102V127.05C96.8435 127.067 96.7268 127.092 96.5602 127.125C96.3935 127.175 96.2185 127.2 96.0352 127.2C95.6685 127.2 95.3852 127.125 95.1852 126.975C95.0018 126.808 94.9102 126.575 94.9102 126.275V118.425ZM96.9102 119.7H94.9102V115.525C94.9935 115.492 95.1185 115.458 95.2852 115.425C95.4518 115.392 95.6268 115.375 95.8102 115.375C96.1768 115.375 96.4518 115.458 96.6352 115.625C96.8185 115.775 96.9102 116 96.9102 116.3V119.7ZM95.5102 112.55L97.9352 109.825C98.3018 109.842 98.5935 109.95 98.8102 110.15C99.0435 110.333 99.1602 110.542 99.1602 110.775C99.1602 110.992 99.1102 111.175 99.0102 111.325C98.9102 111.475 98.7435 111.658 98.5102 111.875L96.2352 114.1C95.9185 114.1 95.6518 114.017 95.4352 113.85C95.2352 113.667 95.1352 113.467 95.1352 113.25C95.1352 113.1 95.1768 112.975 95.2602 112.875C95.3435 112.758 95.4268 112.65 95.5102 112.55ZM110.29 121.225C110.29 122.458 110.057 123.533 109.59 124.45C109.124 125.367 108.465 126.075 107.615 126.575C106.765 127.075 105.765 127.325 104.615 127.325C103.465 127.325 102.457 127.075 101.59 126.575C100.74 126.075 100.082 125.367 99.6154 124.45C99.1488 123.533 98.9154 122.458 98.9154 121.225C98.9154 119.975 99.1488 118.9 99.6154 118C100.099 117.083 100.765 116.375 101.615 115.875C102.482 115.375 103.482 115.125 104.615 115.125C105.749 115.125 106.74 115.375 107.59 115.875C108.44 116.375 109.099 117.083 109.565 118C110.049 118.9 110.29 119.975 110.29 121.225ZM104.615 116.775C103.499 116.775 102.607 117.175 101.94 117.975C101.29 118.758 100.965 119.842 100.965 121.225C100.965 122.625 101.282 123.717 101.915 124.5C102.565 125.283 103.465 125.675 104.615 125.675C105.749 125.675 106.632 125.283 107.265 124.5C107.915 123.7 108.24 122.608 108.24 121.225C108.24 119.842 107.915 118.758 107.265 117.975C106.632 117.175 105.749 116.775 104.615 116.775ZM111.715 129.35C111.448 129.8 111.123 130.025 110.74 130.025C110.373 130.025 110.073 129.883 109.84 129.6C109.99 129.167 110.156 128.65 110.34 128.05C110.54 127.467 110.723 126.867 110.89 126.25C111.056 125.633 111.181 125.1 111.265 124.65C111.398 124.583 111.54 124.533 111.69 124.5C111.856 124.45 112.031 124.425 112.215 124.425C112.515 124.425 112.748 124.5 112.915 124.65C113.081 124.783 113.165 125.017 113.165 125.35C113.165 125.717 113.073 126.175 112.89 126.725C112.723 127.258 112.523 127.767 112.29 128.25C112.056 128.75 111.865 129.117 111.715 129.35ZM124.113 124.425C123.829 123.892 123.488 123.175 123.088 122.275C122.688 121.358 122.271 120.342 121.838 119.225C121.421 118.092 121.021 116.942 120.638 115.775C120.754 115.608 120.904 115.475 121.088 115.375C121.288 115.275 121.496 115.225 121.713 115.225C121.996 115.225 122.229 115.3 122.413 115.45C122.596 115.6 122.746 115.85 122.863 116.2C123.363 117.6 123.888 118.992 124.438 120.375C124.988 121.758 125.596 123.192 126.263 124.675H126.363C126.713 123.975 127.079 123.1 127.463 122.05C127.846 121 128.213 119.892 128.563 118.725C128.913 117.558 129.204 116.458 129.438 115.425C129.554 115.375 129.679 115.333 129.813 115.3C129.963 115.25 130.121 115.225 130.288 115.225C130.571 115.225 130.804 115.3 130.988 115.45C131.171 115.583 131.263 115.792 131.263 116.075C131.263 116.342 131.188 116.792 131.038 117.425C130.888 118.042 130.679 118.767 130.413 119.6C130.163 120.417 129.863 121.292 129.513 122.225C129.179 123.142 128.813 124.05 128.413 124.95C128.029 125.833 127.638 126.633 127.238 127.35C126.471 128.767 125.771 129.85 125.138 130.6C124.504 131.367 123.921 131.75 123.388 131.75C123.004 131.75 122.704 131.65 122.488 131.45C122.288 131.25 122.163 131.017 122.113 130.75C122.479 130.433 122.888 130.008 123.338 129.475C123.804 128.958 124.246 128.392 124.663 127.775C125.096 127.175 125.446 126.6 125.713 126.05C125.429 125.967 125.163 125.817 124.913 125.6C124.679 125.383 124.413 124.992 124.113 124.425ZM141.424 127.325C140.707 127.325 140.032 127.217 139.399 127C138.782 126.8 138.332 126.575 138.049 126.325V124.475C138.382 124.792 138.799 125.075 139.299 125.325C139.816 125.558 140.432 125.675 141.149 125.675C142.316 125.675 143.249 125.325 143.949 124.625C144.666 123.908 145.024 122.767 145.024 121.2C145.024 120.1 144.841 119.233 144.474 118.6C144.124 117.95 143.649 117.483 143.049 117.2C142.466 116.917 141.832 116.775 141.149 116.775C140.549 116.775 140.041 116.85 139.624 117C139.207 117.15 138.832 117.317 138.499 117.5V125.8H136.499V117.55C136.499 117.217 136.557 116.95 136.674 116.75C136.791 116.55 137.032 116.342 137.399 116.125C137.849 115.875 138.382 115.65 138.999 115.45C139.632 115.233 140.349 115.125 141.149 115.125C142.249 115.125 143.241 115.342 144.124 115.775C145.024 116.192 145.732 116.85 146.249 117.75C146.782 118.633 147.049 119.783 147.049 121.2C147.049 122.567 146.807 123.708 146.324 124.625C145.857 125.525 145.199 126.2 144.349 126.65C143.499 127.1 142.524 127.325 141.424 127.325ZM137.574 131.675C137.224 131.675 136.957 131.6 136.774 131.45C136.591 131.3 136.499 131.067 136.499 130.75V125.075L138.499 125.125V131.5C138.416 131.533 138.291 131.567 138.124 131.6C137.957 131.65 137.774 131.675 137.574 131.675ZM150.896 117.6V121.55H148.896V117.75C148.896 117.367 148.963 117.067 149.096 116.85C149.246 116.617 149.488 116.392 149.821 116.175C150.255 115.892 150.846 115.65 151.596 115.45C152.346 115.233 153.18 115.125 154.096 115.125C155.43 115.125 156.096 115.458 156.096 116.125C156.096 116.292 156.071 116.45 156.021 116.6C155.971 116.733 155.905 116.85 155.821 116.95C155.655 116.917 155.438 116.883 155.171 116.85C154.905 116.817 154.638 116.8 154.371 116.8C153.605 116.8 152.93 116.883 152.346 117.05C151.763 117.2 151.28 117.383 150.896 117.6ZM148.896 120.4L150.896 120.7V126.95C150.813 126.983 150.688 127.017 150.521 127.05C150.355 127.1 150.171 127.125 149.971 127.125C149.621 127.125 149.355 127.058 149.171 126.925C148.988 126.775 148.896 126.542 148.896 126.225V120.4ZM157.673 122.5L157.573 120.925L165.123 119.9C165.057 118.983 164.74 118.233 164.173 117.65C163.607 117.05 162.823 116.75 161.823 116.75C160.79 116.75 159.932 117.125 159.248 117.875C158.582 118.608 158.248 119.667 158.248 121.05V121.6C158.365 122.933 158.798 123.95 159.548 124.65C160.315 125.333 161.357 125.675 162.673 125.675C163.373 125.675 164.007 125.558 164.573 125.325C165.14 125.092 165.59 124.842 165.923 124.575C166.107 124.692 166.248 124.833 166.348 125C166.465 125.15 166.523 125.325 166.523 125.525C166.523 125.842 166.34 126.142 165.973 126.425C165.623 126.692 165.148 126.908 164.548 127.075C163.965 127.242 163.307 127.325 162.573 127.325C161.29 127.325 160.173 127.092 159.223 126.625C158.29 126.158 157.565 125.467 157.048 124.55C156.548 123.617 156.298 122.483 156.298 121.15C156.298 120.2 156.432 119.358 156.698 118.625C156.982 117.875 157.365 117.242 157.848 116.725C158.348 116.208 158.94 115.817 159.623 115.55C160.307 115.267 161.048 115.125 161.848 115.125C162.865 115.125 163.757 115.342 164.523 115.775C165.307 116.208 165.915 116.817 166.348 117.6C166.798 118.367 167.023 119.25 167.023 120.25C167.023 120.617 166.94 120.883 166.773 121.05C166.607 121.2 166.373 121.292 166.073 121.325L157.673 122.5ZM173.587 127.325C172.87 127.325 172.195 127.217 171.562 127C170.945 126.8 170.495 126.575 170.212 126.325V124.475C170.545 124.792 170.962 125.075 171.462 125.325C171.979 125.558 172.595 125.675 173.312 125.675C174.479 125.675 175.412 125.325 176.112 124.625C176.829 123.908 177.187 122.767 177.187 121.2C177.187 120.1 177.004 119.233 176.637 118.6C176.287 117.95 175.812 117.483 175.212 117.2C174.629 116.917 173.995 116.775 173.312 116.775C172.712 116.775 172.204 116.85 171.787 117C171.37 117.15 170.995 117.317 170.662 117.5V125.8H168.662V117.55C168.662 117.217 168.72 116.95 168.837 116.75C168.954 116.55 169.195 116.342 169.562 116.125C170.012 115.875 170.545 115.65 171.162 115.45C171.795 115.233 172.512 115.125 173.312 115.125C174.412 115.125 175.404 115.342 176.287 115.775C177.187 116.192 177.895 116.85 178.412 117.75C178.945 118.633 179.212 119.783 179.212 121.2C179.212 122.567 178.97 123.708 178.487 124.625C178.02 125.525 177.362 126.2 176.512 126.65C175.662 127.1 174.687 127.325 173.587 127.325ZM169.737 131.675C169.387 131.675 169.12 131.6 168.937 131.45C168.754 131.3 168.662 131.067 168.662 130.75V125.075L170.662 125.125V131.5C170.579 131.533 170.454 131.567 170.287 131.6C170.12 131.65 169.937 131.675 169.737 131.675ZM185.233 127.35C183.667 127.35 182.45 127.042 181.583 126.425C180.733 125.808 180.308 124.917 180.308 123.75C180.308 122.667 180.667 121.842 181.383 121.275C182.117 120.692 183.125 120.342 184.408 120.225L187.958 119.875V119.175C187.958 118.342 187.708 117.733 187.208 117.35C186.708 116.967 186.033 116.775 185.183 116.775C184.5 116.775 183.842 116.875 183.208 117.075C182.592 117.275 182.042 117.5 181.558 117.75C181.425 117.633 181.3 117.5 181.183 117.35C181.083 117.183 181.033 117.017 181.033 116.85C181.033 116.417 181.275 116.083 181.758 115.85C182.208 115.617 182.725 115.442 183.308 115.325C183.908 115.192 184.542 115.125 185.208 115.125C186.658 115.125 187.808 115.45 188.658 116.1C189.508 116.75 189.933 117.775 189.933 119.175V125.1C189.933 125.467 189.858 125.75 189.708 125.95C189.575 126.133 189.367 126.308 189.083 126.475C188.683 126.692 188.15 126.892 187.483 127.075C186.817 127.258 186.067 127.35 185.233 127.35ZM185.233 125.7C185.933 125.7 186.508 125.633 186.958 125.5C187.425 125.35 187.758 125.208 187.958 125.075V121.45L184.858 121.775C183.992 121.842 183.35 122.033 182.933 122.35C182.517 122.667 182.308 123.125 182.308 123.725C182.308 124.342 182.55 124.825 183.033 125.175C183.533 125.525 184.267 125.7 185.233 125.7ZM194.334 117.6V121.55H192.334V117.75C192.334 117.367 192.401 117.067 192.534 116.85C192.684 116.617 192.926 116.392 193.259 116.175C193.692 115.892 194.284 115.65 195.034 115.45C195.784 115.233 196.617 115.125 197.534 115.125C198.867 115.125 199.534 115.458 199.534 116.125C199.534 116.292 199.509 116.45 199.459 116.6C199.409 116.733 199.342 116.85 199.259 116.95C199.092 116.917 198.876 116.883 198.609 116.85C198.342 116.817 198.076 116.8 197.809 116.8C197.042 116.8 196.367 116.883 195.784 117.05C195.201 117.2 194.717 117.383 194.334 117.6ZM192.334 120.4L194.334 120.7V126.95C194.251 126.983 194.126 127.017 193.959 127.05C193.792 127.1 193.609 127.125 193.409 127.125C193.059 127.125 192.792 127.058 192.609 126.925C192.426 126.775 192.334 126.542 192.334 126.225V120.4ZM204.633 127.35C203.066 127.35 201.849 127.042 200.983 126.425C200.133 125.808 199.708 124.917 199.708 123.75C199.708 122.667 200.066 121.842 200.783 121.275C201.516 120.692 202.524 120.342 203.808 120.225L207.358 119.875V119.175C207.358 118.342 207.108 117.733 206.608 117.35C206.108 116.967 205.433 116.775 204.583 116.775C203.899 116.775 203.241 116.875 202.608 117.075C201.991 117.275 201.441 117.5 200.958 117.75C200.824 117.633 200.699 117.5 200.583 117.35C200.483 117.183 200.433 117.017 200.433 116.85C200.433 116.417 200.674 116.083 201.158 115.85C201.608 115.617 202.124 115.442 202.708 115.325C203.308 115.192 203.941 115.125 204.608 115.125C206.058 115.125 207.208 115.45 208.058 116.1C208.908 116.75 209.333 117.775 209.333 119.175V125.1C209.333 125.467 209.258 125.75 209.108 125.95C208.974 126.133 208.766 126.308 208.483 126.475C208.083 126.692 207.549 126.892 206.883 127.075C206.216 127.258 205.466 127.35 204.633 127.35ZM204.633 125.7C205.333 125.7 205.908 125.633 206.358 125.5C206.824 125.35 207.158 125.208 207.358 125.075V121.45L204.258 121.775C203.391 121.842 202.749 122.033 202.333 122.35C201.916 122.667 201.708 123.125 201.708 123.725C201.708 124.342 201.949 124.825 202.433 125.175C202.933 125.525 203.666 125.7 204.633 125.7ZM221.058 119V121.875H219.058V119.15C219.058 118.333 218.817 117.733 218.333 117.35C217.867 116.967 217.242 116.775 216.458 116.775C215.942 116.775 215.442 116.858 214.958 117.025C214.475 117.192 214.067 117.383 213.733 117.6V121.875H211.733V117.7C211.733 117.367 211.8 117.083 211.933 116.85C212.083 116.617 212.333 116.392 212.683 116.175C213.133 115.892 213.7 115.65 214.383 115.45C215.083 115.233 215.783 115.125 216.483 115.125C217.333 115.125 218.083 115.258 218.733 115.525C219.383 115.775 219.867 116.125 220.183 116.575C220.283 116.675 220.367 116.767 220.433 116.85C220.5 116.933 220.567 117.042 220.633 117.175C220.75 117.375 220.85 117.633 220.933 117.95C221.017 118.267 221.058 118.617 221.058 119ZM228.383 119.05V121.875H226.383V119.15C226.383 118.333 226.15 117.733 225.683 117.35C225.217 116.967 224.592 116.775 223.808 116.775C223.225 116.775 222.658 116.9 222.108 117.15C221.575 117.383 221.092 117.725 220.658 118.175L219.858 116.725C220.292 116.292 220.858 115.917 221.558 115.6C222.258 115.283 223.058 115.125 223.958 115.125C224.858 115.125 225.633 115.267 226.283 115.55C226.95 115.833 227.467 116.267 227.833 116.85C228.2 117.433 228.383 118.167 228.383 119.05ZM211.733 120.55H213.733V126.95C213.65 126.983 213.525 127.017 213.358 127.05C213.192 127.1 213.008 127.125 212.808 127.125C212.458 127.125 212.192 127.058 212.008 126.925C211.825 126.775 211.733 126.542 211.733 126.225V120.55ZM219.058 120.55H221.058V126.95C220.975 126.983 220.842 127.017 220.658 127.05C220.492 127.1 220.317 127.125 220.133 127.125C219.767 127.125 219.492 127.058 219.308 126.925C219.142 126.775 219.058 126.542 219.058 126.225V120.55ZM226.383 120.55H228.383V126.95C228.3 126.983 228.167 127.017 227.983 127.05C227.817 127.1 227.642 127.125 227.458 127.125C227.092 127.125 226.817 127.058 226.633 126.925C226.467 126.775 226.383 126.542 226.383 126.225V120.55ZM241.619 121.225C241.619 122.458 241.385 123.533 240.919 124.45C240.452 125.367 239.794 126.075 238.944 126.575C238.094 127.075 237.094 127.325 235.944 127.325C234.794 127.325 233.785 127.075 232.919 126.575C232.069 126.075 231.41 125.367 230.944 124.45C230.477 123.533 230.244 122.458 230.244 121.225C230.244 119.975 230.477 118.9 230.944 118C231.427 117.083 232.094 116.375 232.944 115.875C233.81 115.375 234.81 115.125 235.944 115.125C237.077 115.125 238.069 115.375 238.919 115.875C239.769 116.375 240.427 117.083 240.894 118C241.377 118.9 241.619 119.975 241.619 121.225ZM235.944 116.775C234.827 116.775 233.935 117.175 233.269 117.975C232.619 118.758 232.294 119.842 232.294 121.225C232.294 122.625 232.61 123.717 233.244 124.5C233.894 125.283 234.794 125.675 235.944 125.675C237.077 125.675 237.96 125.283 238.594 124.5C239.244 123.7 239.569 122.608 239.569 121.225C239.569 119.842 239.244 118.758 238.594 117.975C237.96 117.175 237.077 116.775 235.944 116.775ZM251.612 123.925C251.612 124.992 251.22 125.825 250.437 126.425C249.654 127.025 248.52 127.325 247.037 127.325C245.77 127.325 244.737 127.133 243.937 126.75C243.137 126.35 242.737 125.917 242.737 125.45C242.737 125.25 242.787 125.058 242.887 124.875C243.004 124.675 243.17 124.517 243.387 124.4C243.837 124.717 244.362 125.008 244.962 125.275C245.562 125.542 246.245 125.675 247.012 125.675C248.745 125.675 249.612 125.092 249.612 123.925C249.612 123.442 249.462 123.05 249.162 122.75C248.879 122.433 248.454 122.208 247.887 122.075L245.812 121.525C244.795 121.275 244.054 120.892 243.587 120.375C243.12 119.842 242.887 119.183 242.887 118.4C242.887 117.517 243.245 116.75 243.962 116.1C244.679 115.45 245.77 115.125 247.237 115.125C248.02 115.125 248.704 115.208 249.287 115.375C249.87 115.525 250.32 115.733 250.637 116C250.97 116.25 251.137 116.525 251.137 116.825C251.137 117.042 251.079 117.233 250.962 117.4C250.862 117.567 250.72 117.692 250.537 117.775C250.337 117.642 250.079 117.5 249.762 117.35C249.462 117.183 249.104 117.05 248.687 116.95C248.27 116.833 247.812 116.775 247.312 116.775C246.579 116.775 245.987 116.917 245.537 117.2C245.087 117.483 244.862 117.883 244.862 118.4C244.862 118.767 244.987 119.092 245.237 119.375C245.504 119.642 245.92 119.842 246.487 119.975L248.212 120.4C249.345 120.667 250.195 121.092 250.762 121.675C251.329 122.242 251.612 122.992 251.612 123.925ZM257.173 120.4H259.173V123.85C259.173 124.517 259.365 124.992 259.748 125.275C260.132 125.542 260.657 125.675 261.323 125.675C261.607 125.675 261.923 125.625 262.273 125.525C262.623 125.425 262.915 125.308 263.148 125.175C263.248 125.275 263.34 125.4 263.423 125.55C263.507 125.7 263.548 125.875 263.548 126.075C263.548 126.442 263.332 126.742 262.898 126.975C262.465 127.208 261.865 127.325 261.098 127.325C259.932 127.325 258.982 127.067 258.248 126.55C257.532 126.033 257.173 125.175 257.173 123.975V120.4ZM258.198 117.35V115.7H263.273C263.323 115.767 263.373 115.875 263.423 116.025C263.473 116.175 263.498 116.333 263.498 116.5C263.498 116.767 263.432 116.975 263.298 117.125C263.165 117.275 262.982 117.35 262.748 117.35H258.198ZM259.173 121.15H257.173V112.1C257.257 112.067 257.382 112.033 257.548 112C257.732 111.95 257.923 111.925 258.123 111.925C258.473 111.925 258.732 112 258.898 112.15C259.082 112.283 259.173 112.508 259.173 112.825V121.15ZM265.078 122.775V120.5H267.078V122.675C267.078 123.742 267.361 124.508 267.928 124.975C268.495 125.442 269.278 125.675 270.278 125.675C270.945 125.675 271.511 125.608 271.978 125.475C272.445 125.325 272.811 125.175 273.078 125.025V120.5H275.078V124.95C275.078 125.3 275.028 125.583 274.928 125.8C274.845 126 274.628 126.2 274.278 126.4C273.911 126.617 273.386 126.825 272.703 127.025C272.02 127.225 271.203 127.325 270.253 127.325C269.153 127.325 268.211 127.167 267.428 126.85C266.661 126.517 266.078 126.017 265.678 125.35C265.278 124.667 265.078 123.808 265.078 122.775ZM275.078 121.8H273.078V115.5C273.161 115.467 273.286 115.433 273.453 115.4C273.636 115.35 273.82 115.325 274.003 115.325C274.37 115.325 274.636 115.4 274.803 115.55C274.986 115.683 275.078 115.917 275.078 116.25V121.8ZM267.078 121.8H265.078V115.5C265.161 115.467 265.286 115.433 265.453 115.4C265.636 115.35 265.828 115.325 266.028 115.325C266.378 115.325 266.636 115.4 266.803 115.55C266.986 115.683 267.078 115.917 267.078 116.25V121.8ZM36.8 152.325C36.0833 152.325 35.4083 152.217 34.775 152C34.1583 151.8 33.7083 151.575 33.425 151.325V149.475C33.7583 149.792 34.175 150.075 34.675 150.325C35.1917 150.558 35.8083 150.675 36.525 150.675C37.6917 150.675 38.625 150.325 39.325 149.625C40.0417 148.908 40.4 147.767 40.4 146.2C40.4 145.1 40.2167 144.233 39.85 143.6C39.5 142.95 39.025 142.483 38.425 142.2C37.8417 141.917 37.2083 141.775 36.525 141.775C35.925 141.775 35.4167 141.85 35 142C34.5833 142.15 34.2083 142.317 33.875 142.5V150.8H31.875V142.55C31.875 142.217 31.9333 141.95 32.05 141.75C32.1667 141.55 32.4083 141.342 32.775 141.125C33.225 140.875 33.7583 140.65 34.375 140.45C35.0083 140.233 35.725 140.125 36.525 140.125C37.625 140.125 38.6167 140.342 39.5 140.775C40.4 141.192 41.1083 141.85 41.625 142.75C42.1583 143.633 42.425 144.783 42.425 146.2C42.425 147.567 42.1833 148.708 41.7 149.625C41.2333 150.525 40.575 151.2 39.725 151.65C38.875 152.1 37.9 152.325 36.8 152.325ZM32.95 156.675C32.6 156.675 32.3333 156.6 32.15 156.45C31.9667 156.3 31.875 156.067 31.875 155.75V150.075L33.875 150.125V156.5C33.7917 156.533 33.6667 156.567 33.5 156.6C33.3333 156.65 33.15 156.675 32.95 156.675ZM44.9975 147.5L44.8975 145.925L52.4475 144.9C52.3808 143.983 52.0641 143.233 51.4975 142.65C50.9308 142.05 50.1475 141.75 49.1475 141.75C48.1141 141.75 47.2558 142.125 46.5725 142.875C45.9058 143.608 45.5725 144.667 45.5725 146.05V146.6C45.6891 147.933 46.1225 148.95 46.8725 149.65C47.6391 150.333 48.6808 150.675 49.9975 150.675C50.6975 150.675 51.3308 150.558 51.8975 150.325C52.4641 150.092 52.9141 149.842 53.2475 149.575C53.4308 149.692 53.5725 149.833 53.6725 150C53.7891 150.15 53.8475 150.325 53.8475 150.525C53.8475 150.842 53.6641 151.142 53.2975 151.425C52.9475 151.692 52.4725 151.908 51.8725 152.075C51.2891 152.242 50.6308 152.325 49.8975 152.325C48.6141 152.325 47.4975 152.092 46.5475 151.625C45.6141 151.158 44.8891 150.467 44.3725 149.55C43.8725 148.617 43.6225 147.483 43.6225 146.15C43.6225 145.2 43.7558 144.358 44.0225 143.625C44.3058 142.875 44.6891 142.242 45.1725 141.725C45.6725 141.208 46.2641 140.817 46.9475 140.55C47.6308 140.267 48.3725 140.125 49.1725 140.125C50.1891 140.125 51.0808 140.342 51.8475 140.775C52.6308 141.208 53.2391 141.817 53.6725 142.6C54.1225 143.367 54.3475 144.25 54.3475 145.25C54.3475 145.617 54.2641 145.883 54.0975 146.05C53.9308 146.2 53.6975 146.292 53.3975 146.325L44.9975 147.5ZM63.8613 150.025V141.625L65.8613 141.6V150.1C65.8613 150.417 65.7863 150.675 65.6363 150.875C65.503 151.058 65.2863 151.242 64.9863 151.425C64.653 151.642 64.178 151.842 63.5613 152.025C62.9447 152.225 62.2363 152.325 61.4363 152.325C60.2363 152.325 59.178 152.117 58.2613 151.7C57.3447 151.283 56.628 150.633 56.1113 149.75C55.5947 148.85 55.3363 147.692 55.3363 146.275C55.3363 144.825 55.5863 143.65 56.0863 142.75C56.603 141.85 57.2947 141.192 58.1613 140.775C59.028 140.342 59.978 140.125 61.0113 140.125C61.6613 140.125 62.278 140.217 62.8613 140.4C63.4447 140.583 63.903 140.808 64.2363 141.075V142.925C63.9197 142.608 63.503 142.342 62.9863 142.125C62.4863 141.892 61.8947 141.775 61.2113 141.775C60.528 141.775 59.8947 141.925 59.3113 142.225C58.728 142.508 58.2613 142.983 57.9113 143.65C57.5613 144.317 57.3863 145.208 57.3863 146.325C57.3863 147.842 57.753 148.95 58.4863 149.65C59.2197 150.333 60.1947 150.675 61.4113 150.675C61.9947 150.675 62.4697 150.617 62.8363 150.5C63.2197 150.367 63.5613 150.208 63.8613 150.025ZM65.8613 142.1L63.8613 142.125V135.8C63.9447 135.767 64.0697 135.733 64.2363 135.7C64.4197 135.65 64.603 135.625 64.7863 135.625C65.153 135.625 65.4197 135.7 65.5863 135.85C65.7697 135.983 65.8613 136.208 65.8613 136.525V142.1ZM68.2332 136.8C68.2332 136.45 68.3582 136.158 68.6082 135.925C68.8582 135.675 69.1665 135.55 69.5332 135.55C69.9165 135.55 70.2249 135.675 70.4582 135.925C70.6915 136.158 70.8082 136.45 70.8082 136.8C70.8082 137.15 70.6915 137.45 70.4582 137.7C70.2249 137.933 69.9165 138.05 69.5332 138.05C69.1665 138.05 68.8582 137.933 68.6082 137.7C68.3582 137.45 68.2332 137.15 68.2332 136.8ZM68.5332 145.4H70.5332V151.95C70.4499 151.983 70.3249 152.017 70.1582 152.05C69.9915 152.1 69.8082 152.125 69.6082 152.125C69.2582 152.125 68.9915 152.058 68.8082 151.925C68.6249 151.775 68.5332 151.542 68.5332 151.225V145.4ZM70.5332 146.375H68.5332V140.5C68.6165 140.467 68.7415 140.433 68.9082 140.4C69.0915 140.35 69.2832 140.325 69.4832 140.325C69.8332 140.325 70.0915 140.4 70.2582 140.55C70.4415 140.683 70.5332 140.917 70.5332 141.25V146.375ZM81.0635 150.025V141.625L83.0635 141.6V150.1C83.0635 150.417 82.9885 150.675 82.8385 150.875C82.7051 151.058 82.4885 151.242 82.1885 151.425C81.8551 151.642 81.3801 151.842 80.7635 152.025C80.1468 152.225 79.4385 152.325 78.6385 152.325C77.4385 152.325 76.3801 152.117 75.4635 151.7C74.5468 151.283 73.8301 150.633 73.3135 149.75C72.7968 148.85 72.5385 147.692 72.5385 146.275C72.5385 144.825 72.7885 143.65 73.2885 142.75C73.8051 141.85 74.4968 141.192 75.3635 140.775C76.2301 140.342 77.1801 140.125 78.2135 140.125C78.8635 140.125 79.4801 140.217 80.0635 140.4C80.6468 140.583 81.1051 140.808 81.4385 141.075V142.925C81.1218 142.608 80.7051 142.342 80.1885 142.125C79.6885 141.892 79.0968 141.775 78.4135 141.775C77.7301 141.775 77.0968 141.925 76.5135 142.225C75.9301 142.508 75.4635 142.983 75.1135 143.65C74.7635 144.317 74.5885 145.208 74.5885 146.325C74.5885 147.842 74.9551 148.95 75.6885 149.65C76.4218 150.333 77.3968 150.675 78.6135 150.675C79.1968 150.675 79.6718 150.617 80.0385 150.5C80.4218 150.367 80.7635 150.208 81.0635 150.025ZM83.0635 142.1L81.0635 142.125V135.8C81.1468 135.767 81.2718 135.733 81.4385 135.7C81.6218 135.65 81.8051 135.625 81.9885 135.625C82.3551 135.625 82.6218 135.7 82.7885 135.85C82.9718 135.983 83.0635 136.208 83.0635 136.525V142.1ZM96.3354 146.225C96.3354 147.458 96.102 148.533 95.6354 149.45C95.1687 150.367 94.5104 151.075 93.6604 151.575C92.8104 152.075 91.8104 152.325 90.6604 152.325C89.5104 152.325 88.502 152.075 87.6354 151.575C86.7854 151.075 86.127 150.367 85.6604 149.45C85.1937 148.533 84.9604 147.458 84.9604 146.225C84.9604 144.975 85.1937 143.9 85.6604 143C86.1437 142.083 86.8104 141.375 87.6604 140.875C88.527 140.375 89.527 140.125 90.6604 140.125C91.7937 140.125 92.7854 140.375 93.6354 140.875C94.4854 141.375 95.1437 142.083 95.6104 143C96.0937 143.9 96.3354 144.975 96.3354 146.225ZM90.6604 141.775C89.5437 141.775 88.652 142.175 87.9854 142.975C87.3354 143.758 87.0104 144.842 87.0104 146.225C87.0104 147.625 87.327 148.717 87.9604 149.5C88.6104 150.283 89.5104 150.675 90.6604 150.675C91.7937 150.675 92.677 150.283 93.3104 149.5C93.9604 148.7 94.2854 147.608 94.2854 146.225C94.2854 144.842 93.9604 143.758 93.3104 142.975C92.677 142.175 91.7937 141.775 90.6604 141.775ZM106.859 152.325C106.142 152.325 105.467 152.217 104.834 152C104.217 151.8 103.767 151.575 103.484 151.325V149.475C103.817 149.792 104.234 150.075 104.734 150.325C105.25 150.558 105.867 150.675 106.584 150.675C107.75 150.675 108.684 150.325 109.384 149.625C110.1 148.908 110.459 147.767 110.459 146.2C110.459 145.1 110.275 144.233 109.909 143.6C109.559 142.95 109.084 142.483 108.484 142.2C107.9 141.917 107.267 141.775 106.584 141.775C105.984 141.775 105.475 141.85 105.059 142C104.642 142.15 104.267 142.317 103.934 142.5V150.8H101.934V142.55C101.934 142.217 101.992 141.95 102.109 141.75C102.225 141.55 102.467 141.342 102.834 141.125C103.284 140.875 103.817 140.65 104.434 140.45C105.067 140.233 105.784 140.125 106.584 140.125C107.684 140.125 108.675 140.342 109.559 140.775C110.459 141.192 111.167 141.85 111.684 142.75C112.217 143.633 112.484 144.783 112.484 146.2C112.484 147.567 112.242 148.708 111.759 149.625C111.292 150.525 110.634 151.2 109.784 151.65C108.934 152.1 107.959 152.325 106.859 152.325ZM103.009 156.675C102.659 156.675 102.392 156.6 102.209 156.45C102.025 156.3 101.934 156.067 101.934 155.75V150.075L103.934 150.125V156.5C103.85 156.533 103.725 156.567 103.559 156.6C103.392 156.65 103.209 156.675 103.009 156.675ZM118.505 152.35C116.938 152.35 115.722 152.042 114.855 151.425C114.005 150.808 113.58 149.917 113.58 148.75C113.58 147.667 113.938 146.842 114.655 146.275C115.388 145.692 116.397 145.342 117.68 145.225L121.23 144.875V144.175C121.23 143.342 120.98 142.733 120.48 142.35C119.98 141.967 119.305 141.775 118.455 141.775C117.772 141.775 117.113 141.875 116.48 142.075C115.863 142.275 115.313 142.5 114.83 142.75C114.697 142.633 114.572 142.5 114.455 142.35C114.355 142.183 114.305 142.017 114.305 141.85C114.305 141.417 114.547 141.083 115.03 140.85C115.48 140.617 115.997 140.442 116.58 140.325C117.18 140.192 117.813 140.125 118.48 140.125C119.93 140.125 121.08 140.45 121.93 141.1C122.78 141.75 123.205 142.775 123.205 144.175V150.1C123.205 150.467 123.13 150.75 122.98 150.95C122.847 151.133 122.638 151.308 122.355 151.475C121.955 151.692 121.422 151.892 120.755 152.075C120.088 152.258 119.338 152.35 118.505 152.35ZM118.505 150.7C119.205 150.7 119.78 150.633 120.23 150.5C120.697 150.35 121.03 150.208 121.23 150.075V146.45L118.13 146.775C117.263 146.842 116.622 147.033 116.205 147.35C115.788 147.667 115.58 148.125 115.58 148.725C115.58 149.342 115.822 149.825 116.305 150.175C116.805 150.525 117.538 150.7 118.505 150.7ZM127.605 142.6V146.55H125.605V142.75C125.605 142.367 125.672 142.067 125.805 141.85C125.955 141.617 126.197 141.392 126.53 141.175C126.964 140.892 127.555 140.65 128.305 140.45C129.055 140.233 129.889 140.125 130.805 140.125C132.139 140.125 132.805 140.458 132.805 141.125C132.805 141.292 132.78 141.45 132.73 141.6C132.68 141.733 132.614 141.85 132.53 141.95C132.364 141.917 132.147 141.883 131.88 141.85C131.614 141.817 131.347 141.8 131.08 141.8C130.314 141.8 129.639 141.883 129.055 142.05C128.472 142.2 127.989 142.383 127.605 142.6ZM125.605 145.4L127.605 145.7V151.95C127.522 151.983 127.397 152.017 127.23 152.05C127.064 152.1 126.88 152.125 126.68 152.125C126.33 152.125 126.064 152.058 125.88 151.925C125.697 151.775 125.605 151.542 125.605 151.225V145.4ZM137.904 152.35C136.338 152.35 135.121 152.042 134.254 151.425C133.404 150.808 132.979 149.917 132.979 148.75C132.979 147.667 133.338 146.842 134.054 146.275C134.788 145.692 135.796 145.342 137.079 145.225L140.629 144.875V144.175C140.629 143.342 140.379 142.733 139.879 142.35C139.379 141.967 138.704 141.775 137.854 141.775C137.171 141.775 136.513 141.875 135.879 142.075C135.263 142.275 134.713 142.5 134.229 142.75C134.096 142.633 133.971 142.5 133.854 142.35C133.754 142.183 133.704 142.017 133.704 141.85C133.704 141.417 133.946 141.083 134.429 140.85C134.879 140.617 135.396 140.442 135.979 140.325C136.579 140.192 137.213 140.125 137.879 140.125C139.329 140.125 140.479 140.45 141.329 141.1C142.179 141.75 142.604 142.775 142.604 144.175V150.1C142.604 150.467 142.529 150.75 142.379 150.95C142.246 151.133 142.038 151.308 141.754 151.475C141.354 151.692 140.821 151.892 140.154 152.075C139.488 152.258 138.738 152.35 137.904 152.35ZM137.904 150.7C138.604 150.7 139.179 150.633 139.629 150.5C140.096 150.35 140.429 150.208 140.629 150.075V146.45L137.529 146.775C136.663 146.842 136.021 147.033 135.604 147.35C135.188 147.667 134.979 148.125 134.979 148.725C134.979 149.342 135.221 149.825 135.704 150.175C136.204 150.525 136.938 150.7 137.904 150.7ZM156.91 148.925C156.91 149.992 156.518 150.825 155.735 151.425C154.951 152.025 153.818 152.325 152.335 152.325C151.068 152.325 150.035 152.133 149.235 151.75C148.435 151.35 148.035 150.917 148.035 150.45C148.035 150.25 148.085 150.058 148.185 149.875C148.301 149.675 148.468 149.517 148.685 149.4C149.135 149.717 149.66 150.008 150.26 150.275C150.86 150.542 151.543 150.675 152.31 150.675C154.043 150.675 154.91 150.092 154.91 148.925C154.91 148.442 154.76 148.05 154.46 147.75C154.176 147.433 153.751 147.208 153.185 147.075L151.11 146.525C150.093 146.275 149.351 145.892 148.885 145.375C148.418 144.842 148.185 144.183 148.185 143.4C148.185 142.517 148.543 141.75 149.26 141.1C149.976 140.45 151.068 140.125 152.535 140.125C153.318 140.125 154.001 140.208 154.585 140.375C155.168 140.525 155.618 140.733 155.935 141C156.268 141.25 156.435 141.525 156.435 141.825C156.435 142.042 156.376 142.233 156.26 142.4C156.16 142.567 156.018 142.692 155.835 142.775C155.635 142.642 155.376 142.5 155.06 142.35C154.76 142.183 154.401 142.05 153.985 141.95C153.568 141.833 153.11 141.775 152.61 141.775C151.876 141.775 151.285 141.917 150.835 142.2C150.385 142.483 150.16 142.883 150.16 143.4C150.16 143.767 150.285 144.092 150.535 144.375C150.801 144.642 151.218 144.842 151.785 144.975L153.51 145.4C154.643 145.667 155.493 146.092 156.06 146.675C156.626 147.242 156.91 147.992 156.91 148.925ZM158.691 147.775V145.5H160.691V147.675C160.691 148.742 160.975 149.508 161.541 149.975C162.108 150.442 162.891 150.675 163.891 150.675C164.558 150.675 165.125 150.608 165.591 150.475C166.058 150.325 166.425 150.175 166.691 150.025V145.5H168.691V149.95C168.691 150.3 168.641 150.583 168.541 150.8C168.458 151 168.241 151.2 167.891 151.4C167.525 151.617 167 151.825 166.316 152.025C165.633 152.225 164.816 152.325 163.866 152.325C162.766 152.325 161.825 152.167 161.041 151.85C160.275 151.517 159.691 151.017 159.291 150.35C158.891 149.667 158.691 148.808 158.691 147.775ZM168.691 146.8H166.691V140.5C166.775 140.467 166.9 140.433 167.066 140.4C167.25 140.35 167.433 140.325 167.616 140.325C167.983 140.325 168.25 140.4 168.416 140.55C168.6 140.683 168.691 140.917 168.691 141.25V146.8ZM160.691 146.8H158.691V140.5C158.775 140.467 158.9 140.433 159.066 140.4C159.25 140.35 159.441 140.325 159.641 140.325C159.991 140.325 160.25 140.4 160.416 140.55C160.6 140.683 160.691 140.917 160.691 141.25V146.8ZM182.816 150.025V141.625L184.816 141.6V150.1C184.816 150.417 184.741 150.675 184.591 150.875C184.458 151.058 184.241 151.242 183.941 151.425C183.608 151.642 183.133 151.842 182.516 152.025C181.9 152.225 181.191 152.325 180.391 152.325C179.191 152.325 178.133 152.117 177.216 151.7C176.3 151.283 175.583 150.633 175.066 149.75C174.55 148.85 174.291 147.692 174.291 146.275C174.291 144.825 174.541 143.65 175.041 142.75C175.558 141.85 176.25 141.192 177.116 140.775C177.983 140.342 178.933 140.125 179.966 140.125C180.616 140.125 181.233 140.217 181.816 140.4C182.4 140.583 182.858 140.808 183.191 141.075V142.925C182.875 142.608 182.458 142.342 181.941 142.125C181.441 141.892 180.85 141.775 180.166 141.775C179.483 141.775 178.85 141.925 178.266 142.225C177.683 142.508 177.216 142.983 176.866 143.65C176.516 144.317 176.341 145.208 176.341 146.325C176.341 147.842 176.708 148.95 177.441 149.65C178.175 150.333 179.15 150.675 180.366 150.675C180.95 150.675 181.425 150.617 181.791 150.5C182.175 150.367 182.516 150.208 182.816 150.025ZM184.816 142.1L182.816 142.125V135.8C182.9 135.767 183.025 135.733 183.191 135.7C183.375 135.65 183.558 135.625 183.741 135.625C184.108 135.625 184.375 135.7 184.541 135.85C184.725 135.983 184.816 136.208 184.816 136.525V142.1ZM187.188 136.8C187.188 136.45 187.313 136.158 187.563 135.925C187.813 135.675 188.122 135.55 188.488 135.55C188.872 135.55 189.18 135.675 189.413 135.925C189.647 136.158 189.763 136.45 189.763 136.8C189.763 137.15 189.647 137.45 189.413 137.7C189.18 137.933 188.872 138.05 188.488 138.05C188.122 138.05 187.813 137.933 187.563 137.7C187.313 137.45 187.188 137.15 187.188 136.8ZM187.488 145.4H189.488V151.95C189.405 151.983 189.28 152.017 189.113 152.05C188.947 152.1 188.763 152.125 188.563 152.125C188.213 152.125 187.947 152.058 187.763 151.925C187.58 151.775 187.488 151.542 187.488 151.225V145.4ZM189.488 146.375H187.488V140.5C187.572 140.467 187.697 140.433 187.863 140.4C188.047 140.35 188.238 140.325 188.438 140.325C188.788 140.325 189.047 140.4 189.213 140.55C189.397 140.683 189.488 140.917 189.488 141.25V146.375ZM200.294 148.925C200.294 149.992 199.902 150.825 199.119 151.425C198.335 152.025 197.202 152.325 195.719 152.325C194.452 152.325 193.419 152.133 192.619 151.75C191.819 151.35 191.419 150.917 191.419 150.45C191.419 150.25 191.469 150.058 191.569 149.875C191.685 149.675 191.852 149.517 192.069 149.4C192.519 149.717 193.044 150.008 193.644 150.275C194.244 150.542 194.927 150.675 195.694 150.675C197.427 150.675 198.294 150.092 198.294 148.925C198.294 148.442 198.144 148.05 197.844 147.75C197.56 147.433 197.135 147.208 196.569 147.075L194.494 146.525C193.477 146.275 192.735 145.892 192.269 145.375C191.802 144.842 191.569 144.183 191.569 143.4C191.569 142.517 191.927 141.75 192.644 141.1C193.36 140.45 194.452 140.125 195.919 140.125C196.702 140.125 197.385 140.208 197.969 140.375C198.552 140.525 199.002 140.733 199.319 141C199.652 141.25 199.819 141.525 199.819 141.825C199.819 142.042 199.76 142.233 199.644 142.4C199.544 142.567 199.402 142.692 199.219 142.775C199.019 142.642 198.76 142.5 198.444 142.35C198.144 142.183 197.785 142.05 197.369 141.95C196.952 141.833 196.494 141.775 195.994 141.775C195.26 141.775 194.669 141.917 194.219 142.2C193.769 142.483 193.544 142.883 193.544 143.4C193.544 143.767 193.669 144.092 193.919 144.375C194.185 144.642 194.602 144.842 195.169 144.975L196.894 145.4C198.027 145.667 198.877 146.092 199.444 146.675C200.01 147.242 200.294 147.992 200.294 148.925ZM202.1 145.4H204.1V148.85C204.1 149.517 204.292 149.992 204.675 150.275C205.059 150.542 205.584 150.675 206.25 150.675C206.534 150.675 206.85 150.625 207.2 150.525C207.55 150.425 207.842 150.308 208.075 150.175C208.175 150.275 208.267 150.4 208.35 150.55C208.434 150.7 208.475 150.875 208.475 151.075C208.475 151.442 208.259 151.742 207.825 151.975C207.392 152.208 206.792 152.325 206.025 152.325C204.859 152.325 203.909 152.067 203.175 151.55C202.459 151.033 202.1 150.175 202.1 148.975V145.4ZM203.125 142.35V140.7H208.2C208.25 140.767 208.3 140.875 208.35 141.025C208.4 141.175 208.425 141.333 208.425 141.5C208.425 141.767 208.359 141.975 208.225 142.125C208.092 142.275 207.909 142.35 207.675 142.35H203.125ZM204.1 146.15H202.1V137.1C202.184 137.067 202.309 137.033 202.475 137C202.659 136.95 202.85 136.925 203.05 136.925C203.4 136.925 203.659 137 203.825 137.15C204.009 137.283 204.1 137.508 204.1 137.825V146.15ZM212.127 142.6V146.55H210.127V142.75C210.127 142.367 210.194 142.067 210.327 141.85C210.477 141.617 210.719 141.392 211.052 141.175C211.485 140.892 212.077 140.65 212.827 140.45C213.577 140.233 214.41 140.125 215.327 140.125C216.66 140.125 217.327 140.458 217.327 141.125C217.327 141.292 217.302 141.45 217.252 141.6C217.202 141.733 217.135 141.85 217.052 141.95C216.885 141.917 216.669 141.883 216.402 141.85C216.135 141.817 215.869 141.8 215.602 141.8C214.835 141.8 214.16 141.883 213.577 142.05C212.994 142.2 212.51 142.383 212.127 142.6ZM210.127 145.4L212.127 145.7V151.95C212.044 151.983 211.919 152.017 211.752 152.05C211.585 152.1 211.402 152.125 211.202 152.125C210.852 152.125 210.585 152.058 210.402 151.925C210.219 151.775 210.127 151.542 210.127 151.225V145.4ZM218.248 136.8C218.248 136.45 218.373 136.158 218.623 135.925C218.873 135.675 219.181 135.55 219.548 135.55C219.931 135.55 220.24 135.675 220.473 135.925C220.706 136.158 220.823 136.45 220.823 136.8C220.823 137.15 220.706 137.45 220.473 137.7C220.24 137.933 219.931 138.05 219.548 138.05C219.181 138.05 218.873 137.933 218.623 137.7C218.373 137.45 218.248 137.15 218.248 136.8ZM218.548 145.4H220.548V151.95C220.465 151.983 220.34 152.017 220.173 152.05C220.006 152.1 219.823 152.125 219.623 152.125C219.273 152.125 219.006 152.058 218.823 151.925C218.64 151.775 218.548 151.542 218.548 151.225V145.4ZM220.548 146.375H218.548V140.5C218.631 140.467 218.756 140.433 218.923 140.4C219.106 140.35 219.298 140.325 219.498 140.325C219.848 140.325 220.106 140.4 220.273 140.55C220.456 140.683 220.548 140.917 220.548 141.25V146.375ZM228.353 140.125C229.386 140.125 230.311 140.35 231.128 140.8C231.961 141.233 232.611 141.9 233.078 142.8C233.561 143.7 233.803 144.842 233.803 146.225C233.803 147.625 233.553 148.775 233.053 149.675C232.57 150.575 231.895 151.242 231.028 151.675C230.161 152.108 229.153 152.325 228.003 152.325C227.186 152.325 226.445 152.225 225.778 152.025C225.128 151.825 224.595 151.608 224.178 151.375C223.828 151.142 223.586 150.925 223.453 150.725C223.32 150.525 223.253 150.25 223.253 149.9V141.575H225.253V149.9C225.503 150.083 225.87 150.258 226.353 150.425C226.836 150.592 227.386 150.675 228.003 150.675C229.136 150.675 230.045 150.317 230.728 149.6C231.428 148.883 231.778 147.758 231.778 146.225C231.778 144.675 231.428 143.55 230.728 142.85C230.028 142.133 229.136 141.775 228.053 141.775C227.386 141.775 226.795 141.908 226.278 142.175C225.761 142.425 225.336 142.717 225.003 143.05L224.628 141.425C224.995 141.142 225.486 140.858 226.103 140.575C226.72 140.275 227.47 140.125 228.353 140.125ZM225.253 141.975H223.253V135.8C223.336 135.767 223.461 135.733 223.628 135.7C223.811 135.65 224.003 135.625 224.203 135.625C224.553 135.625 224.811 135.7 224.978 135.85C225.161 135.983 225.253 136.208 225.253 136.525V141.975ZM235.674 147.775V145.5H237.674V147.675C237.674 148.742 237.957 149.508 238.524 149.975C239.09 150.442 239.874 150.675 240.874 150.675C241.54 150.675 242.107 150.608 242.574 150.475C243.04 150.325 243.407 150.175 243.674 150.025V145.5H245.674V149.95C245.674 150.3 245.624 150.583 245.524 150.8C245.44 151 245.224 151.2 244.874 151.4C244.507 151.617 243.982 151.825 243.299 152.025C242.615 152.225 241.799 152.325 240.849 152.325C239.749 152.325 238.807 152.167 238.024 151.85C237.257 151.517 236.674 151.017 236.274 150.35C235.874 149.667 235.674 148.808 235.674 147.775ZM245.674 146.8H243.674V140.5C243.757 140.467 243.882 140.433 244.049 140.4C244.232 140.35 244.415 140.325 244.599 140.325C244.965 140.325 245.232 140.4 245.399 140.55C245.582 140.683 245.674 140.917 245.674 141.25V146.8ZM237.674 146.8H235.674V140.5C235.757 140.467 235.882 140.433 236.049 140.4C236.232 140.35 236.424 140.325 236.624 140.325C236.974 140.325 237.232 140.4 237.399 140.55C237.582 140.683 237.674 140.917 237.674 141.25V146.8ZM253.519 141.8C252.386 141.8 251.444 142.183 250.694 142.95C249.944 143.717 249.569 144.817 249.569 146.25C249.569 147.667 249.927 148.758 250.644 149.525C251.377 150.292 252.336 150.675 253.519 150.675C254.219 150.675 254.802 150.583 255.269 150.4C255.736 150.2 256.152 149.975 256.519 149.725C256.702 149.825 256.852 149.95 256.969 150.1C257.086 150.25 257.144 150.433 257.144 150.65C257.144 151.117 256.794 151.517 256.094 151.85C255.411 152.167 254.552 152.325 253.519 152.325C252.369 152.325 251.336 152.108 250.419 151.675C249.519 151.225 248.811 150.55 248.294 149.65C247.777 148.75 247.519 147.617 247.519 146.25C247.519 144.9 247.786 143.775 248.319 142.875C248.852 141.958 249.569 141.275 250.469 140.825C251.386 140.358 252.386 140.125 253.469 140.125C254.502 140.125 255.352 140.3 256.019 140.65C256.702 141 257.044 141.4 257.044 141.85C257.044 142.05 256.986 142.225 256.869 142.375C256.752 142.525 256.602 142.642 256.419 142.725C256.052 142.475 255.644 142.258 255.194 142.075C254.761 141.892 254.202 141.8 253.519 141.8ZM258.682 136.8C258.682 136.45 258.807 136.158 259.057 135.925C259.307 135.675 259.616 135.55 259.982 135.55C260.366 135.55 260.674 135.675 260.907 135.925C261.141 136.158 261.257 136.45 261.257 136.8C261.257 137.15 261.141 137.45 260.907 137.7C260.674 137.933 260.366 138.05 259.982 138.05C259.616 138.05 259.307 137.933 259.057 137.7C258.807 137.45 258.682 137.15 258.682 136.8ZM258.982 145.4H260.982V151.95C260.899 151.983 260.774 152.017 260.607 152.05C260.441 152.1 260.257 152.125 260.057 152.125C259.707 152.125 259.441 152.058 259.257 151.925C259.074 151.775 258.982 151.542 258.982 151.225V145.4ZM260.982 146.375H258.982V140.5C259.066 140.467 259.191 140.433 259.357 140.4C259.541 140.35 259.732 140.325 259.932 140.325C260.282 140.325 260.541 140.4 260.707 140.55C260.891 140.683 260.982 140.917 260.982 141.25V146.375ZM274.363 146.225C274.363 147.458 274.129 148.533 273.663 149.45C273.196 150.367 272.538 151.075 271.688 151.575C270.838 152.075 269.838 152.325 268.688 152.325C267.538 152.325 266.529 152.075 265.663 151.575C264.813 151.075 264.154 150.367 263.688 149.45C263.221 148.533 262.988 147.458 262.988 146.225C262.988 144.975 263.221 143.9 263.688 143C264.171 142.083 264.838 141.375 265.688 140.875C266.554 140.375 267.554 140.125 268.688 140.125C269.821 140.125 270.813 140.375 271.663 140.875C272.513 141.375 273.171 142.083 273.638 143C274.121 143.9 274.363 144.975 274.363 146.225ZM268.688 141.775C267.571 141.775 266.679 142.175 266.013 142.975C265.363 143.758 265.038 144.842 265.038 146.225C265.038 147.625 265.354 148.717 265.988 149.5C266.638 150.283 267.538 150.675 268.688 150.675C269.821 150.675 270.704 150.283 271.338 149.5C271.988 148.7 272.313 147.608 272.313 146.225C272.313 144.842 271.988 143.758 271.338 142.975C270.704 142.175 269.821 141.775 268.688 141.775ZM268.613 137.55L271.038 134.825C271.404 134.842 271.696 134.95 271.913 135.15C272.146 135.333 272.263 135.542 272.263 135.775C272.263 135.992 272.213 136.175 272.113 136.325C272.013 136.475 271.846 136.658 271.613 136.875L269.338 139.1C269.021 139.1 268.754 139.017 268.538 138.85C268.338 138.667 268.238 138.467 268.238 138.25C268.238 138.1 268.279 137.975 268.363 137.875C268.446 137.758 268.529 137.65 268.613 137.55ZM286.206 144.375V146.925H284.206V144.475C284.206 143.542 283.939 142.858 283.406 142.425C282.889 141.992 282.189 141.775 281.306 141.775C280.639 141.775 280.048 141.858 279.531 142.025C279.014 142.192 278.573 142.383 278.206 142.6V146.925H276.206V142.7C276.206 142.35 276.273 142.067 276.406 141.85C276.556 141.617 276.806 141.392 277.156 141.175C277.589 140.925 278.164 140.692 278.881 140.475C279.598 140.242 280.406 140.125 281.306 140.125C282.823 140.125 284.014 140.475 284.881 141.175C285.764 141.858 286.206 142.925 286.206 144.375ZM276.206 145.55H278.206V151.95C278.123 151.983 277.998 152.017 277.831 152.05C277.664 152.1 277.481 152.125 277.281 152.125C276.931 152.125 276.664 152.058 276.481 151.925C276.298 151.775 276.206 151.542 276.206 151.225V145.55ZM284.206 145.55H286.206V151.95C286.123 151.983 285.989 152.017 285.806 152.05C285.639 152.1 285.464 152.125 285.281 152.125C284.914 152.125 284.639 152.058 284.456 151.925C284.289 151.775 284.206 151.542 284.206 151.225V145.55ZM287.226 150.95C287.226 150.55 287.343 150.217 287.576 149.95C287.826 149.683 288.168 149.55 288.601 149.55C289.035 149.55 289.368 149.683 289.601 149.95C289.835 150.217 289.951 150.55 289.951 150.95C289.951 151.333 289.835 151.658 289.601 151.925C289.368 152.192 289.035 152.325 288.601 152.325C288.168 152.325 287.826 152.192 287.576 151.925C287.343 151.658 287.226 151.333 287.226 150.95Z" fill="black"/>
<path d="M46.2 46.4C46.2 48.1333 45.8667 49.5917 45.2 50.775C44.55 51.9583 43.6583 52.8583 42.525 53.475C41.3917 54.075 40.1083 54.375 38.675 54.375C37.2417 54.375 35.9583 54.075 34.825 53.475C33.6917 52.8583 32.7917 51.9583 32.125 50.775C31.475 49.5917 31.15 48.1333 31.15 46.4C31.15 44.6667 31.4833 43.2083 32.15 42.025C32.8333 40.8417 33.7417 39.95 34.875 39.35C36.0083 38.7333 37.275 38.425 38.675 38.425C40.0917 38.425 41.3667 38.7333 42.5 39.35C43.6333 39.95 44.5333 40.8417 45.2 42.025C45.8667 43.2083 46.2 44.6667 46.2 46.4ZM43.15 46.4C43.15 44.6167 42.7417 43.25 41.925 42.3C41.1083 41.35 40.025 40.875 38.675 40.875C37.3417 40.875 36.2667 41.35 35.45 42.3C34.6333 43.25 34.225 44.6167 34.225 46.4C34.225 48.2 34.625 49.575 35.425 50.525C36.2417 51.4583 37.325 51.925 38.675 51.925C40.0417 51.925 41.125 51.4583 41.925 50.525C42.7417 49.575 43.15 48.2 43.15 46.4ZM51.0578 46.25H53.2828C54.2995 46.25 55.1078 46.025 55.7078 45.575C56.3078 45.125 56.6078 44.4583 56.6078 43.575C56.6078 42.6917 56.3078 42.025 55.7078 41.575C55.1078 41.125 54.2245 40.9 53.0578 40.9C52.6911 40.9 52.3328 40.9167 51.9828 40.95C51.6495 40.9833 51.3411 41.025 51.0578 41.075V46.25ZM53.4578 48.6H48.1078V40.05C48.1078 39.75 48.1911 39.525 48.3578 39.375C48.5245 39.2083 48.7495 39.075 49.0328 38.975C49.5495 38.8083 50.1661 38.6833 50.8828 38.6C51.6161 38.5167 52.3578 38.475 53.1078 38.475C55.2745 38.475 56.8995 38.925 57.9828 39.825C59.0661 40.725 59.6078 41.9667 59.6078 43.55C59.6078 44.55 59.3578 45.4333 58.8578 46.2C58.3578 46.95 57.6495 47.5417 56.7328 47.975C55.8328 48.3917 54.7411 48.6 53.4578 48.6ZM53.1328 47.8L55.6078 47.05C56.0411 47.6 56.4828 48.1583 56.9328 48.725C57.3828 49.2917 57.8161 49.85 58.2328 50.4C58.6495 50.9333 59.0245 51.425 59.3578 51.875C59.6911 52.3083 59.9578 52.6583 60.1578 52.925C60.0411 53.325 59.8245 53.6417 59.5078 53.875C59.2078 54.0917 58.8745 54.2 58.5078 54.2C58.0578 54.2 57.6995 54.1 57.4328 53.9C57.1828 53.6833 56.9328 53.3917 56.6828 53.025L53.1328 47.8ZM48.1078 47.575H51.1078V53.95C50.9745 54 50.7745 54.0417 50.5078 54.075C50.2578 54.125 49.9911 54.15 49.7078 54.15C49.1411 54.15 48.7328 54.05 48.4828 53.85C48.2328 53.6333 48.1078 53.275 48.1078 52.775V47.575ZM72.0248 46.325C72.0248 45.0583 71.7915 44.0333 71.3248 43.25C70.8748 42.45 70.2581 41.8667 69.4748 41.5C68.6915 41.1167 67.7998 40.925 66.7998 40.925C66.3998 40.925 66.0331 40.9417 65.6998 40.975C65.3665 40.9917 65.0498 41.025 64.7498 41.075V51.7C65.0498 51.7667 65.3915 51.8167 65.7748 51.85C66.1748 51.8833 66.5581 51.9 66.9248 51.9C68.5581 51.9 69.8165 51.4333 70.6998 50.5C71.5831 49.55 72.0248 48.1583 72.0248 46.325ZM75.0748 46.3C75.0748 48.1 74.7331 49.6 74.0498 50.8C73.3831 51.9833 72.4415 52.8667 71.2248 53.45C70.0081 54.0333 68.5748 54.325 66.9248 54.325C66.3915 54.325 65.7498 54.2917 64.9998 54.225C64.2665 54.175 63.5915 54.0417 62.9748 53.825C62.1748 53.5583 61.7748 53.0917 61.7748 52.425V40.025C61.7748 39.725 61.8581 39.5 62.0248 39.35C62.1915 39.1833 62.4165 39.05 62.6998 38.95C63.2998 38.7667 63.9498 38.6417 64.6498 38.575C65.3665 38.5083 66.0498 38.475 66.6998 38.475C68.3665 38.475 69.8248 38.7667 71.0748 39.35C72.3415 39.9167 73.3248 40.775 74.0248 41.925C74.7248 43.075 75.0748 44.5333 75.0748 46.3ZM76.9799 44.1H79.9049V53.825C79.7882 53.8583 79.6049 53.9 79.3549 53.95C79.1049 54 78.8465 54.025 78.5799 54.025C78.0965 54.025 77.7049 53.8833 77.4049 53.6C77.1215 53.3 76.9799 52.9167 76.9799 52.45V44.1ZM79.9049 48.675L76.9799 48.65V40.4C76.9799 39.9167 77.1215 39.5333 77.4049 39.25C77.7049 38.9667 78.0965 38.825 78.5799 38.825C78.8465 38.825 79.1049 38.85 79.3549 38.9C79.6049 38.95 79.7882 38.9917 79.9049 39.025V48.675ZM78.5799 47.425V45.05H86.1049C86.1882 45.1667 86.2632 45.325 86.3299 45.525C86.3965 45.725 86.4299 45.95 86.4299 46.2C86.4299 46.6 86.3382 46.9083 86.1549 47.125C85.9716 47.325 85.7049 47.425 85.3549 47.425H78.5799ZM78.5799 54.025V51.625H86.9799C87.0465 51.7417 87.1132 51.9083 87.1799 52.125C87.2466 52.325 87.2799 52.55 87.2799 52.8C87.2799 53.2 87.1882 53.5083 87.0049 53.725C86.8215 53.925 86.5632 54.025 86.2299 54.025H78.5799ZM78.5799 41.225V38.825H86.8549C86.9382 38.9417 87.0132 39.1 87.0799 39.3C87.1465 39.5 87.1799 39.7167 87.1799 39.95C87.1799 40.3667 87.0799 40.6833 86.8799 40.9C86.6965 41.1167 86.4382 41.225 86.1049 41.225H78.5799ZM89.182 41.925L91.832 41.825C91.8987 42.4417 91.9487 43.1 91.982 43.8C92.0154 44.5 92.0404 45.2 92.057 45.9C92.0737 46.5833 92.082 47.25 92.082 47.9V53.975C91.9654 54.0083 91.782 54.0417 91.532 54.075C91.282 54.125 91.0237 54.15 90.757 54.15C90.207 54.15 89.807 54.05 89.557 53.85C89.307 53.65 89.182 53.3083 89.182 52.825V41.925ZM101.907 50.875L99.257 50.95C99.1237 49.65 99.0487 48.3667 99.032 47.1C99.0154 45.8333 99.007 44.6083 99.007 43.425V38.825C99.1404 38.7917 99.3237 38.75 99.557 38.7C99.807 38.65 100.074 38.625 100.357 38.625C100.907 38.625 101.299 38.7333 101.532 38.95C101.782 39.15 101.907 39.4917 101.907 39.975V50.875ZM101.907 49.875V48.55V53.625C101.724 53.775 101.474 53.9 101.157 54C100.84 54.1167 100.474 54.175 100.057 54.175C99.5737 54.175 99.132 54.0917 98.732 53.925C98.3487 53.7583 98.0154 53.4083 97.732 52.875L93.907 46.05C93.6904 45.6333 93.457 45.2083 93.207 44.775C92.9737 44.325 92.7487 43.8833 92.532 43.45C92.332 43.0167 92.1487 42.625 91.982 42.275L89.182 42.925V39.3C89.3654 39.1 89.6237 38.9417 89.957 38.825C90.2904 38.7083 90.657 38.65 91.057 38.65C91.5404 38.65 91.9737 38.7333 92.357 38.9C92.757 39.0667 93.0987 39.4167 93.382 39.95L97.232 46.75C97.4654 47.1667 97.6987 47.6 97.932 48.05C98.1654 48.5 98.382 48.9417 98.582 49.375C98.782 49.7917 98.957 50.175 99.107 50.525L101.907 49.875ZM118.636 46.325C118.636 45.0583 118.403 44.0333 117.936 43.25C117.486 42.45 116.869 41.8667 116.086 41.5C115.303 41.1167 114.411 40.925 113.411 40.925C113.011 40.925 112.644 40.9417 112.311 40.975C111.978 40.9917 111.661 41.025 111.361 41.075V51.7C111.661 51.7667 112.003 51.8167 112.386 51.85C112.786 51.8833 113.169 51.9 113.536 51.9C115.169 51.9 116.428 51.4333 117.311 50.5C118.194 49.55 118.636 48.1583 118.636 46.325ZM121.686 46.3C121.686 48.1 121.344 49.6 120.661 50.8C119.994 51.9833 119.053 52.8667 117.836 53.45C116.619 54.0333 115.186 54.325 113.536 54.325C113.003 54.325 112.361 54.2917 111.611 54.225C110.878 54.175 110.203 54.0417 109.586 53.825C108.786 53.5583 108.386 53.0917 108.386 52.425V40.025C108.386 39.725 108.469 39.5 108.636 39.35C108.803 39.1833 109.028 39.05 109.311 38.95C109.911 38.7667 110.561 38.6417 111.261 38.575C111.978 38.5083 112.661 38.475 113.311 38.475C114.978 38.475 116.436 38.7667 117.686 39.35C118.953 39.9167 119.936 40.775 120.636 41.925C121.336 43.075 121.686 44.5333 121.686 46.3ZM123.591 44.1H126.516V53.825C126.4 53.8583 126.216 53.9 125.966 53.95C125.716 54 125.458 54.025 125.191 54.025C124.708 54.025 124.316 53.8833 124.016 53.6C123.733 53.3 123.591 52.9167 123.591 52.45V44.1ZM126.516 48.675L123.591 48.65V40.4C123.591 39.9167 123.733 39.5333 124.016 39.25C124.316 38.9667 124.708 38.825 125.191 38.825C125.458 38.825 125.716 38.85 125.966 38.9C126.216 38.95 126.4 38.9917 126.516 39.025V48.675ZM125.191 47.425V45.05H132.716C132.8 45.1667 132.875 45.325 132.941 45.525C133.008 45.725 133.041 45.95 133.041 46.2C133.041 46.6 132.95 46.9083 132.766 47.125C132.583 47.325 132.316 47.425 131.966 47.425H125.191ZM125.191 54.025V51.625H133.591C133.658 51.7417 133.725 51.9083 133.791 52.125C133.858 52.325 133.891 52.55 133.891 52.8C133.891 53.2 133.8 53.5083 133.616 53.725C133.433 53.925 133.175 54.025 132.841 54.025H125.191ZM125.191 41.225V38.825H133.466C133.55 38.9417 133.625 39.1 133.691 39.3C133.758 39.5 133.791 39.7167 133.791 39.95C133.791 40.3667 133.691 40.6833 133.491 40.9C133.308 41.1167 133.05 41.225 132.716 41.225H125.191ZM139.548 44.1H142.473V53.825C142.357 53.8583 142.173 53.9 141.923 53.95C141.673 54 141.415 54.025 141.148 54.025C140.665 54.025 140.273 53.8833 139.973 53.6C139.69 53.3 139.548 52.9167 139.548 52.45V44.1ZM142.473 48.675L139.548 48.65V40.4C139.548 39.9167 139.69 39.5333 139.973 39.25C140.273 38.9667 140.665 38.825 141.148 38.825C141.415 38.825 141.673 38.85 141.923 38.9C142.173 38.95 142.357 38.9917 142.473 39.025V48.675ZM141.148 47.425V45.05H148.673C148.757 45.1667 148.832 45.325 148.898 45.525C148.965 45.725 148.998 45.95 148.998 46.2C148.998 46.6 148.907 46.9083 148.723 47.125C148.54 47.325 148.273 47.425 147.923 47.425H141.148ZM141.148 54.025V51.625H149.548C149.615 51.7417 149.682 51.9083 149.748 52.125C149.815 52.325 149.848 52.55 149.848 52.8C149.848 53.2 149.757 53.5083 149.573 53.725C149.39 53.925 149.132 54.025 148.798 54.025H141.148ZM141.148 41.225V38.825H149.423C149.507 38.9417 149.582 39.1 149.648 39.3C149.715 39.5 149.748 39.7167 149.748 39.95C149.748 40.3667 149.648 40.6833 149.448 40.9C149.265 41.1167 149.007 41.225 148.673 41.225H141.148ZM151.75 41.925L154.4 41.825C154.467 42.4417 154.517 43.1 154.55 43.8C154.584 44.5 154.609 45.2 154.625 45.9C154.642 46.5833 154.65 47.25 154.65 47.9V53.975C154.534 54.0083 154.35 54.0417 154.1 54.075C153.85 54.125 153.592 54.15 153.325 54.15C152.775 54.15 152.375 54.05 152.125 53.85C151.875 53.65 151.75 53.3083 151.75 52.825V41.925ZM164.475 50.875L161.825 50.95C161.692 49.65 161.617 48.3667 161.6 47.1C161.584 45.8333 161.575 44.6083 161.575 43.425V38.825C161.709 38.7917 161.892 38.75 162.125 38.7C162.375 38.65 162.642 38.625 162.925 38.625C163.475 38.625 163.867 38.7333 164.1 38.95C164.35 39.15 164.475 39.4917 164.475 39.975V50.875ZM164.475 49.875V48.55V53.625C164.292 53.775 164.042 53.9 163.725 54C163.409 54.1167 163.042 54.175 162.625 54.175C162.142 54.175 161.7 54.0917 161.3 53.925C160.917 53.7583 160.584 53.4083 160.3 52.875L156.475 46.05C156.259 45.6333 156.025 45.2083 155.775 44.775C155.542 44.325 155.317 43.8833 155.1 43.45C154.9 43.0167 154.717 42.625 154.55 42.275L151.75 42.925V39.3C151.934 39.1 152.192 38.9417 152.525 38.825C152.859 38.7083 153.225 38.65 153.625 38.65C154.109 38.65 154.542 38.7333 154.925 38.9C155.325 39.0667 155.667 39.4167 155.95 39.95L159.8 46.75C160.034 47.1667 160.267 47.6 160.5 48.05C160.734 48.5 160.95 48.9417 161.15 49.375C161.35 49.7917 161.525 50.175 161.675 50.525L164.475 49.875ZM174.7 53.675C174.566 53.7917 174.325 53.9 173.975 54C173.641 54.1167 173.275 54.175 172.875 54.175C172.408 54.175 172 54.1083 171.65 53.975C171.3 53.825 171.066 53.625 170.95 53.375C170.683 52.875 170.375 52.2167 170.025 51.4C169.691 50.5667 169.325 49.6333 168.925 48.6C168.541 47.5667 168.158 46.5083 167.775 45.425C167.391 44.3417 167.033 43.275 166.7 42.225C166.383 41.175 166.1 40.2333 165.85 39.4C166.016 39.2333 166.241 39.075 166.525 38.925C166.825 38.775 167.15 38.7 167.5 38.7C167.933 38.7 168.275 38.8 168.525 39C168.775 39.2 168.966 39.525 169.1 39.975C169.716 41.925 170.325 43.8167 170.925 45.65C171.525 47.4667 172.166 49.325 172.85 51.225H172.975C173.391 50.0583 173.816 48.8 174.25 47.45C174.683 46.0833 175.108 44.6833 175.525 43.25C175.958 41.8 176.35 40.3917 176.7 39.025C176.883 38.925 177.083 38.85 177.3 38.8C177.533 38.7333 177.783 38.7 178.05 38.7C178.483 38.7 178.841 38.8 179.125 39C179.408 39.2 179.55 39.5167 179.55 39.95C179.55 40.2333 179.458 40.725 179.275 41.425C179.091 42.1083 178.85 42.9083 178.55 43.825C178.266 44.7417 177.941 45.7 177.575 46.7C177.225 47.7 176.866 48.6667 176.5 49.6C176.133 50.5333 175.791 51.3583 175.475 52.075C175.175 52.7917 174.916 53.325 174.7 53.675ZM181.038 44.125H184.013V53.95C183.88 54 183.688 54.0417 183.438 54.075C183.188 54.125 182.921 54.15 182.638 54.15C182.071 54.15 181.663 54.05 181.413 53.85C181.163 53.6333 181.038 53.275 181.038 52.775V44.125ZM184.013 47.45H181.038V38.825C181.171 38.7917 181.363 38.75 181.613 38.7C181.88 38.65 182.146 38.625 182.413 38.625C182.963 38.625 183.363 38.725 183.613 38.925C183.88 39.125 184.013 39.4917 184.013 40.025V47.45ZM181.738 35.575L184.263 33.25C184.763 33.25 185.146 33.375 185.413 33.625C185.696 33.8583 185.838 34.15 185.838 34.5C185.838 34.7667 185.771 35 185.638 35.2C185.521 35.4 185.305 35.6167 184.988 35.85L182.713 37.55C182.246 37.5333 181.888 37.425 181.638 37.225C181.405 37.025 181.288 36.7833 181.288 36.5C181.288 36.3333 181.321 36.175 181.388 36.025C181.455 35.875 181.571 35.725 181.738 35.575ZM200.971 46.4C200.971 48.1333 200.637 49.5917 199.971 50.775C199.321 51.9583 198.429 52.8583 197.296 53.475C196.162 54.075 194.879 54.375 193.446 54.375C192.012 54.375 190.729 54.075 189.596 53.475C188.462 52.8583 187.562 51.9583 186.896 50.775C186.246 49.5917 185.921 48.1333 185.921 46.4C185.921 44.6667 186.254 43.2083 186.921 42.025C187.604 40.8417 188.512 39.95 189.646 39.35C190.779 38.7333 192.046 38.425 193.446 38.425C194.862 38.425 196.137 38.7333 197.271 39.35C198.404 39.95 199.304 40.8417 199.971 42.025C200.637 43.2083 200.971 44.6667 200.971 46.4ZM197.921 46.4C197.921 44.6167 197.512 43.25 196.696 42.3C195.879 41.35 194.796 40.875 193.446 40.875C192.112 40.875 191.037 41.35 190.221 42.3C189.404 43.25 188.996 44.6167 188.996 46.4C188.996 48.2 189.396 49.575 190.196 50.525C191.012 51.4583 192.096 51.925 193.446 51.925C194.812 51.925 195.896 51.4583 196.696 50.525C197.512 49.575 197.921 48.2 197.921 46.4Z" fill="black"/>
</svg>
