<svg width="437" height="331" viewBox="0 0 437 331" fill="none" xmlns="http://www.w3.org/2000/svg">
<rect width="437" height="331" fill="#FFD41A"/>
<path d="M68.2182 151.656H71.4382C72.8195 151.656 73.9022 151.357 74.6862 150.76C75.4702 150.163 75.8622 149.276 75.8622 148.1C75.8622 146.943 75.4515 146.065 74.6302 145.468C73.8089 144.871 72.6329 144.572 71.1022 144.572C70.5982 144.572 70.0849 144.6 69.5622 144.656C69.0582 144.693 68.6102 144.749 68.2182 144.824V151.656ZM71.4382 153.56H65.9502V144.208C65.9502 143.909 66.0249 143.685 66.1742 143.536C66.3422 143.368 66.5755 143.237 66.8742 143.144C67.4155 142.976 68.0782 142.855 68.8622 142.78C69.6649 142.705 70.4395 142.668 71.1862 142.668C73.5195 142.668 75.2649 143.144 76.4222 144.096C77.5795 145.048 78.1582 146.383 78.1582 148.1C78.1582 149.201 77.9062 150.163 77.4022 150.984C76.8982 151.805 76.1515 152.44 75.1622 152.888C74.1729 153.336 72.9315 153.56 71.4382 153.56ZM71.4942 152.832L73.1742 151.992C73.6969 152.645 74.2382 153.327 74.7982 154.036C75.3582 154.745 75.8995 155.436 76.4222 156.108C76.9449 156.78 77.4115 157.387 77.8222 157.928C78.2329 158.451 78.5502 158.861 78.7742 159.16C78.6995 159.477 78.5315 159.729 78.2702 159.916C78.0275 160.103 77.7755 160.196 77.5142 160.196C77.1969 160.196 76.9355 160.121 76.7302 159.972C76.5249 159.804 76.3102 159.571 76.0862 159.272L71.4942 152.832ZM65.9502 152.944H68.2462V159.944C68.1342 159.981 67.9849 160.019 67.7982 160.056C67.6115 160.112 67.4062 160.14 67.1822 160.14C66.7715 160.14 66.4635 160.056 66.2582 159.888C66.0529 159.72 65.9502 159.459 65.9502 159.104V152.944ZM81.185 154.96L81.073 153.196L89.529 152.048C89.4544 151.021 89.0997 150.181 88.465 149.528C87.8304 148.856 86.953 148.52 85.833 148.52C84.6757 148.52 83.7144 148.94 82.949 149.78C82.2024 150.601 81.829 151.787 81.829 153.336V153.952C81.9597 155.445 82.445 156.584 83.285 157.368C84.1437 158.133 85.3104 158.516 86.785 158.516C87.569 158.516 88.2784 158.385 88.913 158.124C89.5477 157.863 90.0517 157.583 90.425 157.284C90.6304 157.415 90.789 157.573 90.901 157.76C91.0317 157.928 91.097 158.124 91.097 158.348C91.097 158.703 90.8917 159.039 90.481 159.356C90.089 159.655 89.557 159.897 88.885 160.084C88.2317 160.271 87.4944 160.364 86.673 160.364C85.2357 160.364 83.985 160.103 82.921 159.58C81.8757 159.057 81.0637 158.283 80.485 157.256C79.925 156.211 79.645 154.941 79.645 153.448C79.645 152.384 79.7944 151.441 80.093 150.62C80.4104 149.78 80.8397 149.071 81.381 148.492C81.941 147.913 82.6037 147.475 83.369 147.176C84.1344 146.859 84.965 146.7 85.861 146.7C86.9997 146.7 87.9984 146.943 88.857 147.428C89.7344 147.913 90.4157 148.595 90.901 149.472C91.405 150.331 91.657 151.32 91.657 152.44C91.657 152.851 91.5637 153.149 91.377 153.336C91.1904 153.504 90.929 153.607 90.593 153.644L81.185 154.96ZM99.4846 148.576C98.2152 148.576 97.1606 149.005 96.3206 149.864C95.4806 150.723 95.0606 151.955 95.0606 153.56C95.0606 155.147 95.4619 156.369 96.2646 157.228C97.0859 158.087 98.1592 158.516 99.4846 158.516C100.269 158.516 100.922 158.413 101.445 158.208C101.967 157.984 102.434 157.732 102.845 157.452C103.05 157.564 103.218 157.704 103.349 157.872C103.479 158.04 103.545 158.245 103.545 158.488C103.545 159.011 103.153 159.459 102.369 159.832C101.603 160.187 100.642 160.364 99.4846 160.364C98.1966 160.364 97.0392 160.121 96.0126 159.636C95.0046 159.132 94.2112 158.376 93.6326 157.368C93.0539 156.36 92.7646 155.091 92.7646 153.56C92.7646 152.048 93.0632 150.788 93.6606 149.78C94.2579 148.753 95.0606 147.988 96.0686 147.484C97.0952 146.961 98.2152 146.7 99.4286 146.7C100.586 146.7 101.538 146.896 102.285 147.288C103.05 147.68 103.433 148.128 103.433 148.632C103.433 148.856 103.367 149.052 103.237 149.22C103.106 149.388 102.938 149.519 102.733 149.612C102.322 149.332 101.865 149.089 101.361 148.884C100.875 148.679 100.25 148.576 99.4846 148.576ZM105.948 154.96L105.836 153.196L114.292 152.048C114.217 151.021 113.862 150.181 113.228 149.528C112.593 148.856 111.716 148.52 110.596 148.52C109.438 148.52 108.477 148.94 107.712 149.78C106.965 150.601 106.592 151.787 106.592 153.336V153.952C106.722 155.445 107.208 156.584 108.048 157.368C108.906 158.133 110.073 158.516 111.548 158.516C112.332 158.516 113.041 158.385 113.676 158.124C114.31 157.863 114.814 157.583 115.188 157.284C115.393 157.415 115.552 157.573 115.664 157.76C115.794 157.928 115.86 158.124 115.86 158.348C115.86 158.703 115.654 159.039 115.244 159.356C114.852 159.655 114.32 159.897 113.648 160.084C112.994 160.271 112.257 160.364 111.436 160.364C109.998 160.364 108.748 160.103 107.684 159.58C106.638 159.057 105.826 158.283 105.248 157.256C104.688 156.211 104.408 154.941 104.408 153.448C104.408 152.384 104.557 151.441 104.856 150.62C105.173 149.78 105.602 149.071 106.144 148.492C106.704 147.913 107.366 147.475 108.132 147.176C108.897 146.859 109.728 146.7 110.624 146.7C111.762 146.7 112.761 146.943 113.62 147.428C114.497 147.913 115.178 148.595 115.664 149.472C116.168 150.331 116.42 151.32 116.42 152.44C116.42 152.851 116.326 153.149 116.14 153.336C115.953 153.504 115.692 153.607 115.356 153.644L105.948 154.96ZM123.771 160.364C122.968 160.364 122.212 160.243 121.503 160C120.812 159.776 120.308 159.524 119.991 159.244V157.172C120.364 157.527 120.831 157.844 121.391 158.124C121.97 158.385 122.66 158.516 123.463 158.516C124.77 158.516 125.815 158.124 126.599 157.34C127.402 156.537 127.803 155.259 127.803 153.504C127.803 152.272 127.598 151.301 127.187 150.592C126.795 149.864 126.263 149.341 125.591 149.024C124.938 148.707 124.228 148.548 123.463 148.548C122.791 148.548 122.222 148.632 121.755 148.8C121.288 148.968 120.868 149.155 120.495 149.36V158.656H118.255V149.416C118.255 149.043 118.32 148.744 118.451 148.52C118.582 148.296 118.852 148.063 119.263 147.82C119.767 147.54 120.364 147.288 121.055 147.064C121.764 146.821 122.567 146.7 123.463 146.7C124.695 146.7 125.806 146.943 126.795 147.428C127.803 147.895 128.596 148.632 129.175 149.64C129.772 150.629 130.071 151.917 130.071 153.504C130.071 155.035 129.8 156.313 129.259 157.34C128.736 158.348 127.999 159.104 127.047 159.608C126.095 160.112 125.003 160.364 123.771 160.364ZM119.459 165.236C119.067 165.236 118.768 165.152 118.563 164.984C118.358 164.816 118.255 164.555 118.255 164.2V157.844L120.495 157.9V165.04C120.402 165.077 120.262 165.115 120.075 165.152C119.888 165.208 119.683 165.236 119.459 165.236ZM138.132 148.576C136.863 148.576 135.808 149.005 134.968 149.864C134.128 150.723 133.708 151.955 133.708 153.56C133.708 155.147 134.11 156.369 134.912 157.228C135.734 158.087 136.807 158.516 138.132 158.516C138.916 158.516 139.57 158.413 140.092 158.208C140.615 157.984 141.082 157.732 141.492 157.452C141.698 157.564 141.866 157.704 141.996 157.872C142.127 158.04 142.192 158.245 142.192 158.488C142.192 159.011 141.8 159.459 141.016 159.832C140.251 160.187 139.29 160.364 138.132 160.364C136.844 160.364 135.687 160.121 134.66 159.636C133.652 159.132 132.859 158.376 132.28 157.368C131.702 156.36 131.412 155.091 131.412 153.56C131.412 152.048 131.711 150.788 132.308 149.78C132.906 148.753 133.708 147.988 134.716 147.484C135.743 146.961 136.863 146.7 138.076 146.7C139.234 146.7 140.186 146.896 140.932 147.288C141.698 147.68 142.08 148.128 142.08 148.632C142.08 148.856 142.015 149.052 141.884 149.22C141.754 149.388 141.586 149.519 141.38 149.612C140.97 149.332 140.512 149.089 140.008 148.884C139.523 148.679 138.898 148.576 138.132 148.576ZM143.915 142.976C143.915 142.584 144.055 142.257 144.335 141.996C144.615 141.716 144.961 141.576 145.371 141.576C145.801 141.576 146.146 141.716 146.407 141.996C146.669 142.257 146.799 142.584 146.799 142.976C146.799 143.368 146.669 143.704 146.407 143.984C146.146 144.245 145.801 144.376 145.371 144.376C144.961 144.376 144.615 144.245 144.335 143.984C144.055 143.704 143.915 143.368 143.915 142.976ZM144.251 152.608H146.491V159.944C146.398 159.981 146.258 160.019 146.071 160.056C145.885 160.112 145.679 160.14 145.455 160.14C145.063 160.14 144.765 160.065 144.559 159.916C144.354 159.748 144.251 159.487 144.251 159.132V152.608ZM146.491 153.7H144.251V147.12C144.345 147.083 144.485 147.045 144.671 147.008C144.877 146.952 145.091 146.924 145.315 146.924C145.707 146.924 145.997 147.008 146.183 147.176C146.389 147.325 146.491 147.587 146.491 147.96V153.7ZM161.477 153.532C161.477 154.913 161.216 156.117 160.693 157.144C160.171 158.171 159.433 158.964 158.481 159.524C157.529 160.084 156.409 160.364 155.121 160.364C153.833 160.364 152.704 160.084 151.733 159.524C150.781 158.964 150.044 158.171 149.521 157.144C148.999 156.117 148.737 154.913 148.737 153.532C148.737 152.132 148.999 150.928 149.521 149.92C150.063 148.893 150.809 148.1 151.761 147.54C152.732 146.98 153.852 146.7 155.121 146.7C156.391 146.7 157.501 146.98 158.453 147.54C159.405 148.1 160.143 148.893 160.665 149.92C161.207 150.928 161.477 152.132 161.477 153.532ZM155.121 148.548C153.871 148.548 152.872 148.996 152.125 149.892C151.397 150.769 151.033 151.983 151.033 153.532C151.033 155.1 151.388 156.323 152.097 157.2C152.825 158.077 153.833 158.516 155.121 158.516C156.391 158.516 157.38 158.077 158.089 157.2C158.817 156.304 159.181 155.081 159.181 153.532C159.181 151.983 158.817 150.769 158.089 149.892C157.38 148.996 156.391 148.548 155.121 148.548ZM174.742 151.46V154.316H172.502V151.572C172.502 150.527 172.203 149.761 171.606 149.276C171.027 148.791 170.243 148.548 169.254 148.548C168.507 148.548 167.844 148.641 167.266 148.828C166.687 149.015 166.192 149.229 165.782 149.472V154.316H163.542V149.584C163.542 149.192 163.616 148.875 163.766 148.632C163.934 148.371 164.214 148.119 164.606 147.876C165.091 147.596 165.735 147.335 166.538 147.092C167.34 146.831 168.246 146.7 169.254 146.7C170.952 146.7 172.287 147.092 173.258 147.876C174.247 148.641 174.742 149.836 174.742 151.46ZM163.542 152.776H165.782V159.944C165.688 159.981 165.548 160.019 165.362 160.056C165.175 160.112 164.97 160.14 164.746 160.14C164.354 160.14 164.055 160.065 163.85 159.916C163.644 159.748 163.542 159.487 163.542 159.132V152.776ZM172.502 152.776H174.742V159.944C174.648 159.981 174.499 160.019 174.294 160.056C174.107 160.112 173.911 160.14 173.706 160.14C173.295 160.14 172.987 160.065 172.782 159.916C172.595 159.748 172.502 159.487 172.502 159.132V152.776ZM182.156 160.392C180.402 160.392 179.039 160.047 178.068 159.356C177.116 158.665 176.64 157.667 176.64 156.36C176.64 155.147 177.042 154.223 177.844 153.588C178.666 152.935 179.795 152.543 181.232 152.412L185.208 152.02V151.236C185.208 150.303 184.928 149.621 184.368 149.192C183.808 148.763 183.052 148.548 182.1 148.548C181.335 148.548 180.598 148.66 179.888 148.884C179.198 149.108 178.582 149.36 178.04 149.64C177.891 149.509 177.751 149.36 177.62 149.192C177.508 149.005 177.452 148.819 177.452 148.632C177.452 148.147 177.723 147.773 178.264 147.512C178.768 147.251 179.347 147.055 180 146.924C180.672 146.775 181.382 146.7 182.128 146.7C183.752 146.7 185.04 147.064 185.992 147.792C186.944 148.52 187.42 149.668 187.42 151.236V157.872C187.42 158.283 187.336 158.6 187.168 158.824C187.019 159.029 186.786 159.225 186.468 159.412C186.02 159.655 185.423 159.879 184.676 160.084C183.93 160.289 183.09 160.392 182.156 160.392ZM182.156 158.544C182.94 158.544 183.584 158.469 184.088 158.32C184.611 158.152 184.984 157.993 185.208 157.844V153.784L181.736 154.148C180.766 154.223 180.047 154.437 179.58 154.792C179.114 155.147 178.88 155.66 178.88 156.332C178.88 157.023 179.151 157.564 179.692 157.956C180.252 158.348 181.074 158.544 182.156 158.544ZM200.553 151.04V154.26H198.313V151.208C198.313 150.293 198.042 149.621 197.501 149.192C196.978 148.763 196.278 148.548 195.401 148.548C194.822 148.548 194.262 148.641 193.721 148.828C193.18 149.015 192.722 149.229 192.349 149.472V154.26H190.109V149.584C190.109 149.211 190.184 148.893 190.333 148.632C190.501 148.371 190.781 148.119 191.173 147.876C191.677 147.559 192.312 147.288 193.077 147.064C193.861 146.821 194.645 146.7 195.429 146.7C196.381 146.7 197.221 146.849 197.949 147.148C198.677 147.428 199.218 147.82 199.573 148.324C199.685 148.436 199.778 148.539 199.853 148.632C199.928 148.725 200.002 148.847 200.077 148.996C200.208 149.22 200.32 149.509 200.413 149.864C200.506 150.219 200.553 150.611 200.553 151.04ZM208.757 151.096V154.26H206.517V151.208C206.517 150.293 206.256 149.621 205.733 149.192C205.21 148.763 204.51 148.548 203.633 148.548C202.98 148.548 202.345 148.688 201.729 148.968C201.132 149.229 200.59 149.612 200.105 150.116L199.209 148.492C199.694 148.007 200.329 147.587 201.113 147.232C201.897 146.877 202.793 146.7 203.801 146.7C204.809 146.7 205.677 146.859 206.405 147.176C207.152 147.493 207.73 147.979 208.141 148.632C208.552 149.285 208.757 150.107 208.757 151.096ZM190.109 152.776H192.349V159.944C192.256 159.981 192.116 160.019 191.929 160.056C191.742 160.112 191.537 160.14 191.313 160.14C190.921 160.14 190.622 160.065 190.417 159.916C190.212 159.748 190.109 159.487 190.109 159.132V152.776ZM198.313 152.776H200.553V159.944C200.46 159.981 200.31 160.019 200.105 160.056C199.918 160.112 199.722 160.14 199.517 160.14C199.106 160.14 198.798 160.065 198.593 159.916C198.406 159.748 198.313 159.487 198.313 159.132V152.776ZM206.517 152.776H208.757V159.944C208.664 159.981 208.514 160.019 208.309 160.056C208.122 160.112 207.926 160.14 207.721 160.14C207.31 160.14 207.002 160.065 206.797 159.916C206.61 159.748 206.517 159.487 206.517 159.132V152.776ZM223.58 153.532C223.58 154.913 223.319 156.117 222.796 157.144C222.274 158.171 221.536 158.964 220.584 159.524C219.632 160.084 218.512 160.364 217.224 160.364C215.936 160.364 214.807 160.084 213.836 159.524C212.884 158.964 212.147 158.171 211.624 157.144C211.102 156.117 210.84 154.913 210.84 153.532C210.84 152.132 211.102 150.928 211.624 149.92C212.166 148.893 212.912 148.1 213.864 147.54C214.835 146.98 215.955 146.7 217.224 146.7C218.494 146.7 219.604 146.98 220.556 147.54C221.508 148.1 222.246 148.893 222.768 149.92C223.31 150.928 223.58 152.132 223.58 153.532ZM217.224 148.548C215.974 148.548 214.975 148.996 214.228 149.892C213.5 150.769 213.136 151.983 213.136 153.532C213.136 155.1 213.491 156.323 214.2 157.2C214.928 158.077 215.936 158.516 217.224 158.516C218.494 158.516 219.483 158.077 220.192 157.2C220.92 156.304 221.284 155.081 221.284 153.532C221.284 151.983 220.92 150.769 220.192 149.892C219.483 148.996 218.494 148.548 217.224 148.548ZM234.773 156.556C234.773 157.751 234.334 158.684 233.457 159.356C232.58 160.028 231.31 160.364 229.649 160.364C228.23 160.364 227.073 160.149 226.177 159.72C225.281 159.272 224.833 158.787 224.833 158.264C224.833 158.04 224.889 157.825 225.001 157.62C225.132 157.396 225.318 157.219 225.561 157.088C226.065 157.443 226.653 157.769 227.325 158.068C227.997 158.367 228.762 158.516 229.621 158.516C231.562 158.516 232.533 157.863 232.533 156.556C232.533 156.015 232.365 155.576 232.029 155.24C231.712 154.885 231.236 154.633 230.601 154.484L228.277 153.868C227.138 153.588 226.308 153.159 225.785 152.58C225.262 151.983 225.001 151.245 225.001 150.368C225.001 149.379 225.402 148.52 226.205 147.792C227.008 147.064 228.23 146.7 229.873 146.7C230.75 146.7 231.516 146.793 232.169 146.98C232.822 147.148 233.326 147.381 233.681 147.68C234.054 147.96 234.241 148.268 234.241 148.604C234.241 148.847 234.176 149.061 234.045 149.248C233.933 149.435 233.774 149.575 233.569 149.668C233.345 149.519 233.056 149.36 232.701 149.192C232.365 149.005 231.964 148.856 231.497 148.744C231.03 148.613 230.517 148.548 229.957 148.548C229.136 148.548 228.473 148.707 227.969 149.024C227.465 149.341 227.213 149.789 227.213 150.368C227.213 150.779 227.353 151.143 227.633 151.46C227.932 151.759 228.398 151.983 229.033 152.132L230.965 152.608C232.234 152.907 233.186 153.383 233.821 154.036C234.456 154.671 234.773 155.511 234.773 156.556ZM241.002 152.608H243.242V156.472C243.242 157.219 243.456 157.751 243.886 158.068C244.315 158.367 244.903 158.516 245.65 158.516C245.967 158.516 246.322 158.46 246.714 158.348C247.106 158.236 247.432 158.105 247.694 157.956C247.806 158.068 247.908 158.208 248.002 158.376C248.095 158.544 248.142 158.74 248.142 158.964C248.142 159.375 247.899 159.711 247.414 159.972C246.928 160.233 246.256 160.364 245.398 160.364C244.091 160.364 243.027 160.075 242.206 159.496C241.403 158.917 241.002 157.956 241.002 156.612V152.608ZM242.15 149.192V147.344H247.834C247.89 147.419 247.946 147.54 248.002 147.708C248.058 147.876 248.086 148.053 248.086 148.24C248.086 148.539 248.011 148.772 247.862 148.94C247.712 149.108 247.507 149.192 247.246 149.192H242.15ZM243.242 153.448H241.002V143.312C241.095 143.275 241.235 143.237 241.422 143.2C241.627 143.144 241.842 143.116 242.066 143.116C242.458 143.116 242.747 143.2 242.934 143.368C243.139 143.517 243.242 143.769 243.242 144.124V153.448ZM249.855 155.268V152.72H252.095V155.156C252.095 156.351 252.412 157.209 253.047 157.732C253.682 158.255 254.559 158.516 255.679 158.516C256.426 158.516 257.06 158.441 257.583 158.292C258.106 158.124 258.516 157.956 258.815 157.788V152.72H261.055V157.704C261.055 158.096 260.999 158.413 260.887 158.656C260.794 158.88 260.551 159.104 260.159 159.328C259.748 159.571 259.16 159.804 258.395 160.028C257.63 160.252 256.715 160.364 255.651 160.364C254.419 160.364 253.364 160.187 252.487 159.832C251.628 159.459 250.975 158.899 250.527 158.152C250.079 157.387 249.855 156.425 249.855 155.268ZM261.055 154.176H258.815V147.12C258.908 147.083 259.048 147.045 259.235 147.008C259.44 146.952 259.646 146.924 259.851 146.924C260.262 146.924 260.56 147.008 260.747 147.176C260.952 147.325 261.055 147.587 261.055 147.96V154.176ZM252.095 154.176H249.855V147.12C249.948 147.083 250.088 147.045 250.275 147.008C250.48 146.952 250.695 146.924 250.919 146.924C251.311 146.924 251.6 147.008 251.787 147.176C251.992 147.325 252.095 147.587 252.095 147.96V154.176ZM277.183 156.556C277.183 157.751 276.744 158.684 275.867 159.356C274.99 160.028 273.72 160.364 272.059 160.364C270.64 160.364 269.483 160.149 268.587 159.72C267.691 159.272 267.243 158.787 267.243 158.264C267.243 158.04 267.299 157.825 267.411 157.62C267.542 157.396 267.728 157.219 267.971 157.088C268.475 157.443 269.063 157.769 269.735 158.068C270.407 158.367 271.172 158.516 272.031 158.516C273.972 158.516 274.943 157.863 274.943 156.556C274.943 156.015 274.775 155.576 274.439 155.24C274.122 154.885 273.646 154.633 273.011 154.484L270.687 153.868C269.548 153.588 268.718 153.159 268.195 152.58C267.672 151.983 267.411 151.245 267.411 150.368C267.411 149.379 267.812 148.52 268.615 147.792C269.418 147.064 270.64 146.7 272.283 146.7C273.16 146.7 273.926 146.793 274.579 146.98C275.232 147.148 275.736 147.381 276.091 147.68C276.464 147.96 276.651 148.268 276.651 148.604C276.651 148.847 276.586 149.061 276.455 149.248C276.343 149.435 276.184 149.575 275.979 149.668C275.755 149.519 275.466 149.36 275.111 149.192C274.775 149.005 274.374 148.856 273.907 148.744C273.44 148.613 272.927 148.548 272.367 148.548C271.546 148.548 270.883 148.707 270.379 149.024C269.875 149.341 269.623 149.789 269.623 150.368C269.623 150.779 269.763 151.143 270.043 151.46C270.342 151.759 270.808 151.983 271.443 152.132L273.375 152.608C274.644 152.907 275.596 153.383 276.231 154.036C276.866 154.671 277.183 155.511 277.183 156.556ZM291.327 153.532C291.327 154.913 291.066 156.117 290.543 157.144C290.021 158.171 289.283 158.964 288.331 159.524C287.379 160.084 286.259 160.364 284.971 160.364C283.683 160.364 282.554 160.084 281.583 159.524C280.631 158.964 279.894 158.171 279.371 157.144C278.849 156.117 278.587 154.913 278.587 153.532C278.587 152.132 278.849 150.928 279.371 149.92C279.913 148.893 280.659 148.1 281.611 147.54C282.582 146.98 283.702 146.7 284.971 146.7C286.241 146.7 287.351 146.98 288.303 147.54C289.255 148.1 289.993 148.893 290.515 149.92C291.057 150.928 291.327 152.132 291.327 153.532ZM284.971 148.548C283.721 148.548 282.722 148.996 281.975 149.892C281.247 150.769 280.883 151.983 280.883 153.532C280.883 155.1 281.238 156.323 281.947 157.2C282.675 158.077 283.683 158.516 284.971 158.516C286.241 158.516 287.23 158.077 287.939 157.2C288.667 156.304 289.031 155.081 289.031 153.532C289.031 151.983 288.667 150.769 287.939 149.892C287.23 148.996 286.241 148.548 284.971 148.548ZM293.616 152.608L295.856 152.944V159.944C295.762 159.981 295.622 160.019 295.436 160.056C295.249 160.112 295.044 160.14 294.82 160.14C294.428 160.14 294.129 160.065 293.924 159.916C293.718 159.748 293.616 159.487 293.616 159.132V152.608ZM295.856 154.008L293.616 153.7V141.856C293.709 141.819 293.849 141.781 294.036 141.744C294.241 141.688 294.446 141.66 294.652 141.66C295.062 141.66 295.361 141.744 295.548 141.912C295.753 142.061 295.856 142.313 295.856 142.668V154.008ZM298.741 142.976C298.741 142.584 298.881 142.257 299.161 141.996C299.441 141.716 299.786 141.576 300.197 141.576C300.626 141.576 300.972 141.716 301.233 141.996C301.494 142.257 301.625 142.584 301.625 142.976C301.625 143.368 301.494 143.704 301.233 143.984C300.972 144.245 300.626 144.376 300.197 144.376C299.786 144.376 299.441 144.245 299.161 143.984C298.881 143.704 298.741 143.368 298.741 142.976ZM299.077 152.608H301.317V159.944C301.224 159.981 301.084 160.019 300.897 160.056C300.71 160.112 300.505 160.14 300.281 160.14C299.889 160.14 299.59 160.065 299.385 159.916C299.18 159.748 299.077 159.487 299.077 159.132V152.608ZM301.317 153.7H299.077V147.12C299.17 147.083 299.31 147.045 299.497 147.008C299.702 146.952 299.917 146.924 300.141 146.924C300.533 146.924 300.822 147.008 301.009 147.176C301.214 147.325 301.317 147.587 301.317 147.96V153.7ZM310.283 148.576C309.014 148.576 307.959 149.005 307.119 149.864C306.279 150.723 305.859 151.955 305.859 153.56C305.859 155.147 306.26 156.369 307.063 157.228C307.884 158.087 308.958 158.516 310.283 158.516C311.067 158.516 311.72 158.413 312.243 158.208C312.766 157.984 313.232 157.732 313.643 157.452C313.848 157.564 314.016 157.704 314.147 157.872C314.278 158.04 314.343 158.245 314.343 158.488C314.343 159.011 313.951 159.459 313.167 159.832C312.402 160.187 311.44 160.364 310.283 160.364C308.995 160.364 307.838 160.121 306.811 159.636C305.803 159.132 305.01 158.376 304.431 157.368C303.852 156.36 303.563 155.091 303.563 153.56C303.563 152.048 303.862 150.788 304.459 149.78C305.056 148.753 305.859 147.988 306.867 147.484C307.894 146.961 309.014 146.7 310.227 146.7C311.384 146.7 312.336 146.896 313.083 147.288C313.848 147.68 314.231 148.128 314.231 148.632C314.231 148.856 314.166 149.052 314.035 149.22C313.904 149.388 313.736 149.519 313.531 149.612C313.12 149.332 312.663 149.089 312.159 148.884C311.674 148.679 311.048 148.576 310.283 148.576ZM316.066 142.976C316.066 142.584 316.206 142.257 316.486 141.996C316.766 141.716 317.111 141.576 317.522 141.576C317.951 141.576 318.297 141.716 318.558 141.996C318.819 142.257 318.95 142.584 318.95 142.976C318.95 143.368 318.819 143.704 318.558 143.984C318.297 144.245 317.951 144.376 317.522 144.376C317.111 144.376 316.766 144.245 316.486 143.984C316.206 143.704 316.066 143.368 316.066 142.976ZM316.402 152.608H318.642V159.944C318.549 159.981 318.409 160.019 318.222 160.056C318.035 160.112 317.83 160.14 317.606 160.14C317.214 160.14 316.915 160.065 316.71 159.916C316.505 159.748 316.402 159.487 316.402 159.132V152.608ZM318.642 153.7H316.402V147.12C316.495 147.083 316.635 147.045 316.822 147.008C317.027 146.952 317.242 146.924 317.466 146.924C317.858 146.924 318.147 147.008 318.334 147.176C318.539 147.325 318.642 147.587 318.642 147.96V153.7ZM321.644 152.608H323.884V156.472C323.884 157.219 324.099 157.751 324.528 158.068C324.957 158.367 325.545 158.516 326.292 158.516C326.609 158.516 326.964 158.46 327.356 158.348C327.748 158.236 328.075 158.105 328.336 157.956C328.448 158.068 328.551 158.208 328.644 158.376C328.737 158.544 328.784 158.74 328.784 158.964C328.784 159.375 328.541 159.711 328.056 159.972C327.571 160.233 326.899 160.364 326.04 160.364C324.733 160.364 323.669 160.075 322.848 159.496C322.045 158.917 321.644 157.956 321.644 156.612V152.608ZM322.792 149.192V147.344H328.476C328.532 147.419 328.588 147.54 328.644 147.708C328.7 147.876 328.728 148.053 328.728 148.24C328.728 148.539 328.653 148.772 328.504 148.94C328.355 149.108 328.149 149.192 327.888 149.192H322.792ZM323.884 153.448H321.644V143.312C321.737 143.275 321.877 143.237 322.064 143.2C322.269 143.144 322.484 143.116 322.708 143.116C323.1 143.116 323.389 143.2 323.576 143.368C323.781 143.517 323.884 143.769 323.884 144.124V153.448ZM330.497 155.268V152.72H332.737V155.156C332.737 156.351 333.055 157.209 333.689 157.732C334.324 158.255 335.201 158.516 336.321 158.516C337.068 158.516 337.703 158.441 338.225 158.292C338.748 158.124 339.159 157.956 339.457 157.788V152.72H341.697V157.704C341.697 158.096 341.641 158.413 341.529 158.656C341.436 158.88 341.193 159.104 340.801 159.328C340.391 159.571 339.803 159.804 339.037 160.028C338.272 160.252 337.357 160.364 336.293 160.364C335.061 160.364 334.007 160.187 333.129 159.832C332.271 159.459 331.617 158.899 331.169 158.152C330.721 157.387 330.497 156.425 330.497 155.268ZM341.697 154.176H339.457V147.12C339.551 147.083 339.691 147.045 339.877 147.008C340.083 146.952 340.288 146.924 340.493 146.924C340.904 146.924 341.203 147.008 341.389 147.176C341.595 147.325 341.697 147.587 341.697 147.96V154.176ZM332.737 154.176H330.497V147.12C330.591 147.083 330.731 147.045 330.917 147.008C331.123 146.952 331.337 146.924 331.561 146.924C331.953 146.924 332.243 147.008 332.429 147.176C332.635 147.325 332.737 147.587 332.737 147.96V154.176ZM353.312 157.788V148.38L355.552 148.352V157.872C355.552 158.227 355.468 158.516 355.3 158.74C355.15 158.945 354.908 159.151 354.572 159.356C354.198 159.599 353.666 159.823 352.976 160.028C352.285 160.252 351.492 160.364 350.596 160.364C349.252 160.364 348.066 160.131 347.04 159.664C346.013 159.197 345.21 158.469 344.632 157.48C344.053 156.472 343.764 155.175 343.764 153.588C343.764 151.964 344.044 150.648 344.604 149.64C345.182 148.632 345.957 147.895 346.928 147.428C347.898 146.943 348.962 146.7 350.12 146.7C350.848 146.7 351.538 146.803 352.192 147.008C352.845 147.213 353.358 147.465 353.732 147.764V149.836C353.377 149.481 352.91 149.183 352.332 148.94C351.772 148.679 351.109 148.548 350.344 148.548C349.578 148.548 348.869 148.716 348.216 149.052C347.562 149.369 347.04 149.901 346.648 150.648C346.256 151.395 346.06 152.393 346.06 153.644C346.06 155.343 346.47 156.584 347.292 157.368C348.113 158.133 349.205 158.516 350.568 158.516C351.221 158.516 351.753 158.451 352.164 158.32C352.593 158.171 352.976 157.993 353.312 157.788ZM355.552 148.912L353.312 148.94V141.856C353.405 141.819 353.545 141.781 353.732 141.744C353.937 141.688 354.142 141.66 354.348 141.66C354.758 141.66 355.057 141.744 355.244 141.912C355.449 142.061 355.552 142.313 355.552 142.668V148.912ZM371.43 157.788V148.38L373.67 148.352V157.872C373.67 158.227 373.586 158.516 373.418 158.74C373.268 158.945 373.026 159.151 372.69 159.356C372.316 159.599 371.784 159.823 371.094 160.028C370.403 160.252 369.61 160.364 368.714 160.364C367.37 160.364 366.184 160.131 365.158 159.664C364.131 159.197 363.328 158.469 362.75 157.48C362.171 156.472 361.882 155.175 361.882 153.588C361.882 151.964 362.162 150.648 362.722 149.64C363.3 148.632 364.075 147.895 365.046 147.428C366.016 146.943 367.08 146.7 368.238 146.7C368.966 146.7 369.656 146.803 370.31 147.008C370.963 147.213 371.476 147.465 371.85 147.764V149.836C371.495 149.481 371.028 149.183 370.45 148.94C369.89 148.679 369.227 148.548 368.462 148.548C367.696 148.548 366.987 148.716 366.334 149.052C365.68 149.369 365.158 149.901 364.766 150.648C364.374 151.395 364.178 152.393 364.178 153.644C364.178 155.343 364.588 156.584 365.41 157.368C366.231 158.133 367.323 158.516 368.686 158.516C369.339 158.516 369.871 158.451 370.282 158.32C370.711 158.171 371.094 157.993 371.43 157.788ZM373.67 148.912L371.43 148.94V141.856C371.523 141.819 371.663 141.781 371.85 141.744C372.055 141.688 372.26 141.66 372.466 141.66C372.876 141.66 373.175 141.744 373.362 141.912C373.567 142.061 373.67 142.313 373.67 142.668V148.912ZM377.334 154.96L377.222 153.196L385.678 152.048C385.604 151.021 385.249 150.181 384.614 149.528C383.98 148.856 383.102 148.52 381.982 148.52C380.825 148.52 379.864 148.94 379.098 149.78C378.352 150.601 377.978 151.787 377.978 153.336V153.952C378.109 155.445 378.594 156.584 379.434 157.368C380.293 158.133 381.46 158.516 382.934 158.516C383.718 158.516 384.428 158.385 385.062 158.124C385.697 157.863 386.201 157.583 386.574 157.284C386.78 157.415 386.938 157.573 387.05 157.76C387.181 157.928 387.246 158.124 387.246 158.348C387.246 158.703 387.041 159.039 386.63 159.356C386.238 159.655 385.706 159.897 385.034 160.084C384.381 160.271 383.644 160.364 382.822 160.364C381.385 160.364 380.134 160.103 379.07 159.58C378.025 159.057 377.213 158.283 376.634 157.256C376.074 156.211 375.794 154.941 375.794 153.448C375.794 152.384 375.944 151.441 376.242 150.62C376.56 149.78 376.989 149.071 377.53 148.492C378.09 147.913 378.753 147.475 379.518 147.176C380.284 146.859 381.114 146.7 382.01 146.7C383.149 146.7 384.148 146.943 385.006 147.428C385.884 147.913 386.565 148.595 387.05 149.472C387.554 150.331 387.806 151.32 387.806 152.44C387.806 152.851 387.713 153.149 387.526 153.336C387.34 153.504 387.078 153.607 386.742 153.644L377.334 154.96ZM67.2069 179.96L67.0949 178.196L75.5509 177.048C75.4763 176.021 75.1216 175.181 74.4869 174.528C73.8523 173.856 72.9749 173.52 71.8549 173.52C70.6976 173.52 69.7363 173.94 68.9709 174.78C68.2243 175.601 67.8509 176.787 67.8509 178.336V178.952C67.9816 180.445 68.4669 181.584 69.3069 182.368C70.1656 183.133 71.3323 183.516 72.8069 183.516C73.5909 183.516 74.3003 183.385 74.9349 183.124C75.5696 182.863 76.0736 182.583 76.4469 182.284C76.6523 182.415 76.8109 182.573 76.9229 182.76C77.0536 182.928 77.1189 183.124 77.1189 183.348C77.1189 183.703 76.9136 184.039 76.5029 184.356C76.1109 184.655 75.5789 184.897 74.9069 185.084C74.2536 185.271 73.5163 185.364 72.6949 185.364C71.2576 185.364 70.0069 185.103 68.9429 184.58C67.8976 184.057 67.0856 183.283 66.5069 182.256C65.9469 181.211 65.6669 179.941 65.6669 178.448C65.6669 177.384 65.8163 176.441 66.1149 175.62C66.4323 174.78 66.8616 174.071 67.4029 173.492C67.9629 172.913 68.6256 172.475 69.3909 172.176C70.1563 171.859 70.9869 171.7 71.8829 171.7C73.0216 171.7 74.0203 171.943 74.8789 172.428C75.7563 172.913 76.4376 173.595 76.9229 174.472C77.4269 175.331 77.6789 176.32 77.6789 177.44C77.6789 177.851 77.5856 178.149 77.3989 178.336C77.2123 178.504 76.9509 178.607 76.6149 178.644L67.2069 179.96ZM90.7145 176.46V179.316H88.4745V176.572C88.4745 175.527 88.1758 174.761 87.5785 174.276C86.9998 173.791 86.2158 173.548 85.2265 173.548C84.4798 173.548 83.8171 173.641 83.2385 173.828C82.6598 174.015 82.1651 174.229 81.7545 174.472V179.316H79.5145V174.584C79.5145 174.192 79.5891 173.875 79.7385 173.632C79.9065 173.371 80.1865 173.119 80.5785 172.876C81.0638 172.596 81.7078 172.335 82.5105 172.092C83.3131 171.831 84.2185 171.7 85.2265 171.7C86.9251 171.7 88.2598 172.092 89.2305 172.876C90.2198 173.641 90.7145 174.836 90.7145 176.46ZM79.5145 177.776H81.7545V184.944C81.6611 184.981 81.5211 185.019 81.3345 185.056C81.1478 185.112 80.9425 185.14 80.7185 185.14C80.3265 185.14 80.0278 185.065 79.8225 184.916C79.6171 184.748 79.5145 184.487 79.5145 184.132V177.776ZM88.4745 177.776H90.7145V184.944C90.6211 184.981 90.4718 185.019 90.2665 185.056C90.0798 185.112 89.8838 185.14 89.6785 185.14C89.2678 185.14 88.9598 185.065 88.7545 184.916C88.5678 184.748 88.4745 184.487 88.4745 184.132V177.776ZM102.842 171.812C103.159 171.812 103.411 171.896 103.598 172.064C103.803 172.232 103.906 172.475 103.906 172.792C103.906 173.035 103.803 173.492 103.598 174.164C103.392 174.836 103.122 175.639 102.786 176.572C102.45 177.505 102.076 178.485 101.666 179.512C101.274 180.52 100.863 181.5 100.434 182.452C100.023 183.385 99.6402 184.197 99.2855 184.888C99.1922 184.963 99.0242 185.028 98.7815 185.084C98.5575 185.14 98.3148 185.168 98.0535 185.168C97.7362 185.168 97.4562 185.112 97.2135 185C96.9709 184.907 96.8029 184.767 96.7095 184.58C96.5042 184.207 96.2335 183.665 95.8975 182.956C95.5802 182.228 95.2348 181.407 94.8615 180.492C94.4882 179.577 94.1055 178.635 93.7135 177.664C93.3402 176.675 92.9948 175.732 92.6775 174.836C92.3602 173.921 92.0988 173.119 91.8935 172.428C92.0242 172.241 92.2015 172.092 92.4255 171.98C92.6495 171.868 92.8735 171.812 93.0975 171.812C93.4335 171.812 93.6948 171.896 93.8815 172.064C94.0682 172.232 94.2268 172.512 94.3575 172.904L96.0935 177.916C96.2428 178.345 96.4388 178.877 96.6815 179.512C96.9242 180.147 97.1669 180.781 97.4095 181.416C97.6522 182.051 97.8482 182.583 97.9975 183.012H98.1095C98.8562 181.127 99.5562 179.269 100.21 177.44C100.863 175.592 101.423 173.791 101.89 172.036C102.132 171.887 102.45 171.812 102.842 171.812ZM105.757 175.396H107.997V185.056C107.922 185.075 107.791 185.103 107.605 185.14C107.418 185.196 107.222 185.224 107.017 185.224C106.606 185.224 106.289 185.14 106.065 184.972C105.859 184.785 105.757 184.524 105.757 184.188V175.396ZM107.997 176.824H105.757V172.148C105.85 172.111 105.99 172.073 106.177 172.036C106.363 171.999 106.559 171.98 106.765 171.98C107.175 171.98 107.483 172.073 107.689 172.26C107.894 172.428 107.997 172.68 107.997 173.016V176.824ZM106.429 168.816L109.145 165.764C109.555 165.783 109.882 165.904 110.125 166.128C110.386 166.333 110.517 166.567 110.517 166.828C110.517 167.071 110.461 167.276 110.349 167.444C110.237 167.612 110.05 167.817 109.789 168.06L107.241 170.552C106.886 170.552 106.587 170.459 106.345 170.272C106.121 170.067 106.009 169.843 106.009 169.6C106.009 169.432 106.055 169.292 106.149 169.18C106.242 169.049 106.335 168.928 106.429 168.816ZM122.983 178.532C122.983 179.913 122.721 181.117 122.199 182.144C121.676 183.171 120.939 183.964 119.987 184.524C119.035 185.084 117.915 185.364 116.627 185.364C115.339 185.364 114.209 185.084 113.239 184.524C112.287 183.964 111.549 183.171 111.027 182.144C110.504 181.117 110.243 179.913 110.243 178.532C110.243 177.132 110.504 175.928 111.027 174.92C111.568 173.893 112.315 173.1 113.267 172.54C114.237 171.98 115.357 171.7 116.627 171.7C117.896 171.7 119.007 171.98 119.959 172.54C120.911 173.1 121.648 173.893 122.171 174.92C122.712 175.928 122.983 177.132 122.983 178.532ZM116.627 173.548C115.376 173.548 114.377 173.996 113.631 174.892C112.903 175.769 112.539 176.983 112.539 178.532C112.539 180.1 112.893 181.323 113.603 182.2C114.331 183.077 115.339 183.516 116.627 183.516C117.896 183.516 118.885 183.077 119.595 182.2C120.323 181.304 120.687 180.081 120.687 178.532C120.687 176.983 120.323 175.769 119.595 174.892C118.885 173.996 117.896 173.548 116.627 173.548ZM124.578 187.632C124.279 188.136 123.915 188.388 123.486 188.388C123.075 188.388 122.739 188.229 122.478 187.912C122.646 187.427 122.832 186.848 123.038 186.176C123.262 185.523 123.467 184.851 123.654 184.16C123.84 183.469 123.98 182.872 124.074 182.368C124.223 182.293 124.382 182.237 124.55 182.2C124.736 182.144 124.932 182.116 125.138 182.116C125.474 182.116 125.735 182.2 125.922 182.368C126.108 182.517 126.202 182.779 126.202 183.152C126.202 183.563 126.099 184.076 125.894 184.692C125.707 185.289 125.483 185.859 125.222 186.4C124.96 186.96 124.746 187.371 124.578 187.632ZM138.464 182.116C138.146 181.519 137.764 180.716 137.316 179.708C136.868 178.681 136.401 177.543 135.916 176.292C135.449 175.023 135.001 173.735 134.572 172.428C134.702 172.241 134.87 172.092 135.076 171.98C135.3 171.868 135.533 171.812 135.776 171.812C136.093 171.812 136.354 171.896 136.56 172.064C136.765 172.232 136.933 172.512 137.064 172.904C137.624 174.472 138.212 176.031 138.828 177.58C139.444 179.129 140.125 180.735 140.872 182.396H140.984C141.376 181.612 141.786 180.632 142.216 179.456C142.645 178.28 143.056 177.039 143.448 175.732C143.84 174.425 144.166 173.193 144.428 172.036C144.558 171.98 144.698 171.933 144.848 171.896C145.016 171.84 145.193 171.812 145.38 171.812C145.697 171.812 145.958 171.896 146.164 172.064C146.369 172.213 146.472 172.447 146.472 172.764C146.472 173.063 146.388 173.567 146.22 174.276C146.052 174.967 145.818 175.779 145.52 176.712C145.24 177.627 144.904 178.607 144.512 179.652C144.138 180.679 143.728 181.696 143.28 182.704C142.85 183.693 142.412 184.589 141.964 185.392C141.105 186.979 140.321 188.192 139.612 189.032C138.902 189.891 138.249 190.32 137.652 190.32C137.222 190.32 136.886 190.208 136.644 189.984C136.42 189.76 136.28 189.499 136.224 189.2C136.634 188.845 137.092 188.369 137.596 187.772C138.118 187.193 138.613 186.559 139.08 185.868C139.565 185.196 139.957 184.552 140.256 183.936C139.938 183.843 139.64 183.675 139.36 183.432C139.098 183.189 138.8 182.751 138.464 182.116ZM157.852 185.364C157.05 185.364 156.294 185.243 155.584 185C154.894 184.776 154.39 184.524 154.072 184.244V182.172C154.446 182.527 154.912 182.844 155.472 183.124C156.051 183.385 156.742 183.516 157.544 183.516C158.851 183.516 159.896 183.124 160.68 182.34C161.483 181.537 161.884 180.259 161.884 178.504C161.884 177.272 161.679 176.301 161.268 175.592C160.876 174.864 160.344 174.341 159.672 174.024C159.019 173.707 158.31 173.548 157.544 173.548C156.872 173.548 156.303 173.632 155.836 173.8C155.37 173.968 154.95 174.155 154.576 174.36V183.656H152.336V174.416C152.336 174.043 152.402 173.744 152.532 173.52C152.663 173.296 152.934 173.063 153.344 172.82C153.848 172.54 154.446 172.288 155.136 172.064C155.846 171.821 156.648 171.7 157.544 171.7C158.776 171.7 159.887 171.943 160.876 172.428C161.884 172.895 162.678 173.632 163.256 174.64C163.854 175.629 164.152 176.917 164.152 178.504C164.152 180.035 163.882 181.313 163.34 182.34C162.818 183.348 162.08 184.104 161.128 184.608C160.176 185.112 159.084 185.364 157.852 185.364ZM153.54 190.236C153.148 190.236 152.85 190.152 152.644 189.984C152.439 189.816 152.336 189.555 152.336 189.2V182.844L154.576 182.9V190.04C154.483 190.077 154.343 190.115 154.156 190.152C153.97 190.208 153.764 190.236 153.54 190.236ZM168.461 174.472V178.896H166.221V174.64C166.221 174.211 166.296 173.875 166.445 173.632C166.613 173.371 166.884 173.119 167.257 172.876C167.743 172.559 168.405 172.288 169.245 172.064C170.085 171.821 171.019 171.7 172.045 171.7C173.539 171.7 174.285 172.073 174.285 172.82C174.285 173.007 174.257 173.184 174.201 173.352C174.145 173.501 174.071 173.632 173.977 173.744C173.791 173.707 173.548 173.669 173.249 173.632C172.951 173.595 172.652 173.576 172.353 173.576C171.495 173.576 170.739 173.669 170.085 173.856C169.432 174.024 168.891 174.229 168.461 174.472ZM166.221 177.608L168.461 177.944V184.944C168.368 184.981 168.228 185.019 168.041 185.056C167.855 185.112 167.649 185.14 167.425 185.14C167.033 185.14 166.735 185.065 166.529 184.916C166.324 184.748 166.221 184.487 166.221 184.132V177.608ZM176.051 179.96L175.939 178.196L184.395 177.048C184.321 176.021 183.966 175.181 183.331 174.528C182.697 173.856 181.819 173.52 180.699 173.52C179.542 173.52 178.581 173.94 177.815 174.78C177.069 175.601 176.695 176.787 176.695 178.336V178.952C176.826 180.445 177.311 181.584 178.151 182.368C179.01 183.133 180.177 183.516 181.651 183.516C182.435 183.516 183.145 183.385 183.779 183.124C184.414 182.863 184.918 182.583 185.291 182.284C185.497 182.415 185.655 182.573 185.767 182.76C185.898 182.928 185.963 183.124 185.963 183.348C185.963 183.703 185.758 184.039 185.347 184.356C184.955 184.655 184.423 184.897 183.751 185.084C183.098 185.271 182.361 185.364 181.539 185.364C180.102 185.364 178.851 185.103 177.787 184.58C176.742 184.057 175.93 183.283 175.351 182.256C174.791 181.211 174.511 179.941 174.511 178.448C174.511 177.384 174.661 176.441 174.959 175.62C175.277 174.78 175.706 174.071 176.247 173.492C176.807 172.913 177.47 172.475 178.235 172.176C179.001 171.859 179.831 171.7 180.727 171.7C181.866 171.7 182.865 171.943 183.723 172.428C184.601 172.913 185.282 173.595 185.767 174.472C186.271 175.331 186.523 176.32 186.523 177.44C186.523 177.851 186.43 178.149 186.243 178.336C186.057 178.504 185.795 178.607 185.459 178.644L176.051 179.96ZM193.875 185.364C193.072 185.364 192.316 185.243 191.607 185C190.916 184.776 190.412 184.524 190.095 184.244V182.172C190.468 182.527 190.935 182.844 191.495 183.124C192.074 183.385 192.764 183.516 193.567 183.516C194.874 183.516 195.919 183.124 196.703 182.34C197.506 181.537 197.907 180.259 197.907 178.504C197.907 177.272 197.702 176.301 197.291 175.592C196.899 174.864 196.367 174.341 195.695 174.024C195.042 173.707 194.332 173.548 193.567 173.548C192.895 173.548 192.326 173.632 191.859 173.8C191.392 173.968 190.972 174.155 190.599 174.36V183.656H188.359V174.416C188.359 174.043 188.424 173.744 188.555 173.52C188.686 173.296 188.956 173.063 189.367 172.82C189.871 172.54 190.468 172.288 191.159 172.064C191.868 171.821 192.671 171.7 193.567 171.7C194.799 171.7 195.91 171.943 196.899 172.428C197.907 172.895 198.7 173.632 199.279 174.64C199.876 175.629 200.175 176.917 200.175 178.504C200.175 180.035 199.904 181.313 199.363 182.34C198.84 183.348 198.103 184.104 197.151 184.608C196.199 185.112 195.107 185.364 193.875 185.364ZM189.563 190.236C189.171 190.236 188.872 190.152 188.667 189.984C188.462 189.816 188.359 189.555 188.359 189.2V182.844L190.599 182.9V190.04C190.506 190.077 190.366 190.115 190.179 190.152C189.992 190.208 189.787 190.236 189.563 190.236ZM206.919 185.392C205.164 185.392 203.801 185.047 202.831 184.356C201.879 183.665 201.403 182.667 201.403 181.36C201.403 180.147 201.804 179.223 202.607 178.588C203.428 177.935 204.557 177.543 205.995 177.412L209.971 177.02V176.236C209.971 175.303 209.691 174.621 209.131 174.192C208.571 173.763 207.815 173.548 206.863 173.548C206.097 173.548 205.36 173.66 204.651 173.884C203.96 174.108 203.344 174.36 202.803 174.64C202.653 174.509 202.513 174.36 202.383 174.192C202.271 174.005 202.215 173.819 202.215 173.632C202.215 173.147 202.485 172.773 203.027 172.512C203.531 172.251 204.109 172.055 204.763 171.924C205.435 171.775 206.144 171.7 206.891 171.7C208.515 171.7 209.803 172.064 210.755 172.792C211.707 173.52 212.183 174.668 212.183 176.236V182.872C212.183 183.283 212.099 183.6 211.931 183.824C211.781 184.029 211.548 184.225 211.231 184.412C210.783 184.655 210.185 184.879 209.439 185.084C208.692 185.289 207.852 185.392 206.919 185.392ZM206.919 183.544C207.703 183.544 208.347 183.469 208.851 183.32C209.373 183.152 209.747 182.993 209.971 182.844V178.784L206.499 179.148C205.528 179.223 204.809 179.437 204.343 179.792C203.876 180.147 203.643 180.66 203.643 181.332C203.643 182.023 203.913 182.564 204.455 182.956C205.015 183.348 205.836 183.544 206.919 183.544ZM217.111 174.472V178.896H214.871V174.64C214.871 174.211 214.946 173.875 215.095 173.632C215.263 173.371 215.534 173.119 215.907 172.876C216.393 172.559 217.055 172.288 217.895 172.064C218.735 171.821 219.669 171.7 220.695 171.7C222.189 171.7 222.935 172.073 222.935 172.82C222.935 173.007 222.907 173.184 222.851 173.352C222.795 173.501 222.721 173.632 222.627 173.744C222.441 173.707 222.198 173.669 221.899 173.632C221.601 173.595 221.302 173.576 221.003 173.576C220.145 173.576 219.389 173.669 218.735 173.856C218.082 174.024 217.541 174.229 217.111 174.472ZM214.871 177.608L217.111 177.944V184.944C217.018 184.981 216.878 185.019 216.691 185.056C216.505 185.112 216.299 185.14 216.075 185.14C215.683 185.14 215.385 185.065 215.179 184.916C214.974 184.748 214.871 184.487 214.871 184.132V177.608ZM228.646 185.392C226.892 185.392 225.529 185.047 224.558 184.356C223.606 183.665 223.13 182.667 223.13 181.36C223.13 180.147 223.532 179.223 224.334 178.588C225.156 177.935 226.285 177.543 227.722 177.412L231.698 177.02V176.236C231.698 175.303 231.418 174.621 230.858 174.192C230.298 173.763 229.542 173.548 228.59 173.548C227.825 173.548 227.088 173.66 226.378 173.884C225.688 174.108 225.072 174.36 224.53 174.64C224.381 174.509 224.241 174.36 224.11 174.192C223.998 174.005 223.942 173.819 223.942 173.632C223.942 173.147 224.213 172.773 224.754 172.512C225.258 172.251 225.837 172.055 226.49 171.924C227.162 171.775 227.872 171.7 228.618 171.7C230.242 171.7 231.53 172.064 232.482 172.792C233.434 173.52 233.91 174.668 233.91 176.236V182.872C233.91 183.283 233.826 183.6 233.658 183.824C233.509 184.029 233.276 184.225 232.958 184.412C232.51 184.655 231.913 184.879 231.166 185.084C230.42 185.289 229.58 185.392 228.646 185.392ZM228.646 183.544C229.43 183.544 230.074 183.469 230.578 183.32C231.101 183.152 231.474 182.993 231.698 182.844V178.784L228.226 179.148C227.256 179.223 226.537 179.437 226.07 179.792C225.604 180.147 225.37 180.66 225.37 181.332C225.37 182.023 225.641 182.564 226.182 182.956C226.742 183.348 227.564 183.544 228.646 183.544ZM247.043 176.04V179.26H244.803V176.208C244.803 175.293 244.532 174.621 243.991 174.192C243.468 173.763 242.768 173.548 241.891 173.548C241.312 173.548 240.752 173.641 240.211 173.828C239.669 174.015 239.212 174.229 238.839 174.472V179.26H236.599V174.584C236.599 174.211 236.673 173.893 236.823 173.632C236.991 173.371 237.271 173.119 237.663 172.876C238.167 172.559 238.801 172.288 239.567 172.064C240.351 171.821 241.135 171.7 241.919 171.7C242.871 171.7 243.711 171.849 244.439 172.148C245.167 172.428 245.708 172.82 246.063 173.324C246.175 173.436 246.268 173.539 246.343 173.632C246.417 173.725 246.492 173.847 246.567 173.996C246.697 174.22 246.809 174.509 246.903 174.864C246.996 175.219 247.043 175.611 247.043 176.04ZM255.247 176.096V179.26H253.007V176.208C253.007 175.293 252.745 174.621 252.223 174.192C251.7 173.763 251 173.548 250.123 173.548C249.469 173.548 248.835 173.688 248.219 173.968C247.621 174.229 247.08 174.612 246.595 175.116L245.699 173.492C246.184 173.007 246.819 172.587 247.603 172.232C248.387 171.877 249.283 171.7 250.291 171.7C251.299 171.7 252.167 171.859 252.895 172.176C253.641 172.493 254.22 172.979 254.631 173.632C255.041 174.285 255.247 175.107 255.247 176.096ZM236.599 177.776H238.839V184.944C238.745 184.981 238.605 185.019 238.419 185.056C238.232 185.112 238.027 185.14 237.803 185.14C237.411 185.14 237.112 185.065 236.907 184.916C236.701 184.748 236.599 184.487 236.599 184.132V177.776ZM244.803 177.776H247.043V184.944C246.949 184.981 246.8 185.019 246.595 185.056C246.408 185.112 246.212 185.14 246.007 185.14C245.596 185.14 245.288 185.065 245.083 184.916C244.896 184.748 244.803 184.487 244.803 184.132V177.776ZM253.007 177.776H255.247V184.944C255.153 184.981 255.004 185.019 254.799 185.056C254.612 185.112 254.416 185.14 254.211 185.14C253.8 185.14 253.492 185.065 253.287 184.916C253.1 184.748 253.007 184.487 253.007 184.132V177.776ZM270.07 178.532C270.07 179.913 269.809 181.117 269.286 182.144C268.764 183.171 268.026 183.964 267.074 184.524C266.122 185.084 265.002 185.364 263.714 185.364C262.426 185.364 261.297 185.084 260.326 184.524C259.374 183.964 258.637 183.171 258.114 182.144C257.592 181.117 257.33 179.913 257.33 178.532C257.33 177.132 257.592 175.928 258.114 174.92C258.656 173.893 259.402 173.1 260.354 172.54C261.325 171.98 262.445 171.7 263.714 171.7C264.984 171.7 266.094 171.98 267.046 172.54C267.998 173.1 268.736 173.893 269.258 174.92C269.8 175.928 270.07 177.132 270.07 178.532ZM263.714 173.548C262.464 173.548 261.465 173.996 260.718 174.892C259.99 175.769 259.626 176.983 259.626 178.532C259.626 180.1 259.981 181.323 260.69 182.2C261.418 183.077 262.426 183.516 263.714 183.516C264.984 183.516 265.973 183.077 266.682 182.2C267.41 181.304 267.774 180.081 267.774 178.532C267.774 176.983 267.41 175.769 266.682 174.892C265.973 173.996 264.984 173.548 263.714 173.548ZM281.263 181.556C281.263 182.751 280.824 183.684 279.947 184.356C279.069 185.028 277.8 185.364 276.139 185.364C274.72 185.364 273.563 185.149 272.667 184.72C271.771 184.272 271.323 183.787 271.323 183.264C271.323 183.04 271.379 182.825 271.491 182.62C271.621 182.396 271.808 182.219 272.051 182.088C272.555 182.443 273.143 182.769 273.815 183.068C274.487 183.367 275.252 183.516 276.111 183.516C278.052 183.516 279.023 182.863 279.023 181.556C279.023 181.015 278.855 180.576 278.519 180.24C278.201 179.885 277.725 179.633 277.091 179.484L274.767 178.868C273.628 178.588 272.797 178.159 272.275 177.58C271.752 176.983 271.491 176.245 271.491 175.368C271.491 174.379 271.892 173.52 272.695 172.792C273.497 172.064 274.72 171.7 276.363 171.7C277.24 171.7 278.005 171.793 278.659 171.98C279.312 172.148 279.816 172.381 280.171 172.68C280.544 172.96 280.731 173.268 280.731 173.604C280.731 173.847 280.665 174.061 280.535 174.248C280.423 174.435 280.264 174.575 280.059 174.668C279.835 174.519 279.545 174.36 279.191 174.192C278.855 174.005 278.453 173.856 277.987 173.744C277.52 173.613 277.007 173.548 276.447 173.548C275.625 173.548 274.963 173.707 274.459 174.024C273.955 174.341 273.703 174.789 273.703 175.368C273.703 175.779 273.843 176.143 274.123 176.46C274.421 176.759 274.888 176.983 275.523 177.132L277.455 177.608C278.724 177.907 279.676 178.383 280.311 179.036C280.945 179.671 281.263 180.511 281.263 181.556ZM287.492 177.608H289.732V181.472C289.732 182.219 289.946 182.751 290.376 183.068C290.805 183.367 291.393 183.516 292.14 183.516C292.457 183.516 292.812 183.46 293.204 183.348C293.596 183.236 293.922 183.105 294.184 182.956C294.296 183.068 294.398 183.208 294.492 183.376C294.585 183.544 294.632 183.74 294.632 183.964C294.632 184.375 294.389 184.711 293.904 184.972C293.418 185.233 292.746 185.364 291.888 185.364C290.581 185.364 289.517 185.075 288.696 184.496C287.893 183.917 287.492 182.956 287.492 181.612V177.608ZM288.64 174.192V172.344H294.324C294.38 172.419 294.436 172.54 294.492 172.708C294.548 172.876 294.576 173.053 294.576 173.24C294.576 173.539 294.501 173.772 294.352 173.94C294.202 174.108 293.997 174.192 293.736 174.192H288.64ZM289.732 178.448H287.492V168.312C287.585 168.275 287.725 168.237 287.912 168.2C288.117 168.144 288.332 168.116 288.556 168.116C288.948 168.116 289.237 168.2 289.424 168.368C289.629 168.517 289.732 168.769 289.732 169.124V178.448ZM296.345 180.268V177.72H298.585V180.156C298.585 181.351 298.902 182.209 299.537 182.732C300.172 183.255 301.049 183.516 302.169 183.516C302.916 183.516 303.55 183.441 304.073 183.292C304.596 183.124 305.006 182.956 305.305 182.788V177.72H307.545V182.704C307.545 183.096 307.489 183.413 307.377 183.656C307.284 183.88 307.041 184.104 306.649 184.328C306.238 184.571 305.65 184.804 304.885 185.028C304.12 185.252 303.205 185.364 302.141 185.364C300.909 185.364 299.854 185.187 298.977 184.832C298.118 184.459 297.465 183.899 297.017 183.152C296.569 182.387 296.345 181.425 296.345 180.268ZM307.545 179.176H305.305V172.12C305.398 172.083 305.538 172.045 305.725 172.008C305.93 171.952 306.136 171.924 306.341 171.924C306.752 171.924 307.05 172.008 307.237 172.176C307.442 172.325 307.545 172.587 307.545 172.96V179.176ZM298.585 179.176H296.345V172.12C296.438 172.083 296.578 172.045 296.765 172.008C296.97 171.952 297.185 171.924 297.409 171.924C297.801 171.924 298.09 172.008 298.277 172.176C298.482 172.325 298.585 172.587 298.585 172.96V179.176ZM320.061 185.364C319.258 185.364 318.502 185.243 317.793 185C317.102 184.776 316.598 184.524 316.281 184.244V182.172C316.654 182.527 317.121 182.844 317.681 183.124C318.26 183.385 318.95 183.516 319.753 183.516C321.06 183.516 322.105 183.124 322.889 182.34C323.692 181.537 324.093 180.259 324.093 178.504C324.093 177.272 323.888 176.301 323.477 175.592C323.085 174.864 322.553 174.341 321.881 174.024C321.228 173.707 320.518 173.548 319.753 173.548C319.081 173.548 318.512 173.632 318.045 173.8C317.578 173.968 317.158 174.155 316.785 174.36V183.656H314.545V174.416C314.545 174.043 314.61 173.744 314.741 173.52C314.872 173.296 315.142 173.063 315.553 172.82C316.057 172.54 316.654 172.288 317.345 172.064C318.054 171.821 318.857 171.7 319.753 171.7C320.985 171.7 322.096 171.943 323.085 172.428C324.093 172.895 324.886 173.632 325.465 174.64C326.062 175.629 326.361 176.917 326.361 178.504C326.361 180.035 326.09 181.313 325.549 182.34C325.026 183.348 324.289 184.104 323.337 184.608C322.385 185.112 321.293 185.364 320.061 185.364ZM315.749 190.236C315.357 190.236 315.058 190.152 314.853 189.984C314.648 189.816 314.545 189.555 314.545 189.2V182.844L316.785 182.9V190.04C316.692 190.077 316.552 190.115 316.365 190.152C316.178 190.208 315.973 190.236 315.749 190.236ZM329.242 179.96L329.13 178.196L337.586 177.048C337.511 176.021 337.157 175.181 336.522 174.528C335.887 173.856 335.01 173.52 333.89 173.52C332.733 173.52 331.771 173.94 331.006 174.78C330.259 175.601 329.886 176.787 329.886 178.336V178.952C330.017 180.445 330.502 181.584 331.342 182.368C332.201 183.133 333.367 183.516 334.842 183.516C335.626 183.516 336.335 183.385 336.97 183.124C337.605 182.863 338.109 182.583 338.482 182.284C338.687 182.415 338.846 182.573 338.958 182.76C339.089 182.928 339.154 183.124 339.154 183.348C339.154 183.703 338.949 184.039 338.538 184.356C338.146 184.655 337.614 184.897 336.942 185.084C336.289 185.271 335.551 185.364 334.73 185.364C333.293 185.364 332.042 185.103 330.978 184.58C329.933 184.057 329.121 183.283 328.542 182.256C327.982 181.211 327.702 179.941 327.702 178.448C327.702 177.384 327.851 176.441 328.15 175.62C328.467 174.78 328.897 174.071 329.438 173.492C329.998 172.913 330.661 172.475 331.426 172.176C332.191 171.859 333.022 171.7 333.918 171.7C335.057 171.7 336.055 171.943 336.914 172.428C337.791 172.913 338.473 173.595 338.958 174.472C339.462 175.331 339.714 176.32 339.714 177.44C339.714 177.851 339.621 178.149 339.434 178.336C339.247 178.504 338.986 178.607 338.65 178.644L329.242 179.96ZM350.37 182.788V173.38L352.61 173.352V182.872C352.61 183.227 352.526 183.516 352.358 183.74C352.208 183.945 351.966 184.151 351.63 184.356C351.256 184.599 350.724 184.823 350.034 185.028C349.343 185.252 348.55 185.364 347.654 185.364C346.31 185.364 345.124 185.131 344.098 184.664C343.071 184.197 342.268 183.469 341.69 182.48C341.111 181.472 340.822 180.175 340.822 178.588C340.822 176.964 341.102 175.648 341.662 174.64C342.24 173.632 343.015 172.895 343.986 172.428C344.956 171.943 346.02 171.7 347.178 171.7C347.906 171.7 348.596 171.803 349.25 172.008C349.903 172.213 350.416 172.465 350.79 172.764V174.836C350.435 174.481 349.968 174.183 349.39 173.94C348.83 173.679 348.167 173.548 347.402 173.548C346.636 173.548 345.927 173.716 345.274 174.052C344.62 174.369 344.098 174.901 343.706 175.648C343.314 176.395 343.118 177.393 343.118 178.644C343.118 180.343 343.528 181.584 344.35 182.368C345.171 183.133 346.263 183.516 347.626 183.516C348.279 183.516 348.811 183.451 349.222 183.32C349.651 183.171 350.034 182.993 350.37 182.788ZM352.61 173.912L350.37 173.94V166.856C350.463 166.819 350.603 166.781 350.79 166.744C350.995 166.688 351.2 166.66 351.406 166.66C351.816 166.66 352.115 166.744 352.302 166.912C352.507 167.061 352.61 167.313 352.61 167.668V173.912ZM355.266 167.976C355.266 167.584 355.406 167.257 355.686 166.996C355.966 166.716 356.311 166.576 356.722 166.576C357.151 166.576 357.497 166.716 357.758 166.996C358.019 167.257 358.15 167.584 358.15 167.976C358.15 168.368 358.019 168.704 357.758 168.984C357.497 169.245 357.151 169.376 356.722 169.376C356.311 169.376 355.966 169.245 355.686 168.984C355.406 168.704 355.266 168.368 355.266 167.976ZM355.602 177.608H357.842V184.944C357.749 184.981 357.609 185.019 357.422 185.056C357.235 185.112 357.03 185.14 356.806 185.14C356.414 185.14 356.115 185.065 355.91 184.916C355.705 184.748 355.602 184.487 355.602 184.132V177.608ZM357.842 178.7H355.602V172.12C355.695 172.083 355.835 172.045 356.022 172.008C356.227 171.952 356.442 171.924 356.666 171.924C357.058 171.924 357.347 172.008 357.534 172.176C357.739 172.325 357.842 172.587 357.842 172.96V178.7ZM369.636 182.788V173.38L371.876 173.352V182.872C371.876 183.227 371.792 183.516 371.624 183.74C371.475 183.945 371.232 184.151 370.896 184.356C370.523 184.599 369.991 184.823 369.3 185.028C368.609 185.252 367.816 185.364 366.92 185.364C365.576 185.364 364.391 185.131 363.364 184.664C362.337 184.197 361.535 183.469 360.956 182.48C360.377 181.472 360.088 180.175 360.088 178.588C360.088 176.964 360.368 175.648 360.928 174.64C361.507 173.632 362.281 172.895 363.252 172.428C364.223 171.943 365.287 171.7 366.444 171.7C367.172 171.7 367.863 171.803 368.516 172.008C369.169 172.213 369.683 172.465 370.056 172.764V174.836C369.701 174.481 369.235 174.183 368.656 173.94C368.096 173.679 367.433 173.548 366.668 173.548C365.903 173.548 365.193 173.716 364.54 174.052C363.887 174.369 363.364 174.901 362.972 175.648C362.58 176.395 362.384 177.393 362.384 178.644C362.384 180.343 362.795 181.584 363.616 182.368C364.437 183.133 365.529 183.516 366.892 183.516C367.545 183.516 368.077 183.451 368.488 183.32C368.917 183.171 369.3 182.993 369.636 182.788ZM371.876 173.912L369.636 173.94V166.856C369.729 166.819 369.869 166.781 370.056 166.744C370.261 166.688 370.467 166.66 370.672 166.66C371.083 166.66 371.381 166.744 371.568 166.912C371.773 167.061 371.876 167.313 371.876 167.668V173.912ZM386.741 178.532C386.741 179.913 386.479 181.117 385.957 182.144C385.434 183.171 384.697 183.964 383.745 184.524C382.793 185.084 381.673 185.364 380.385 185.364C379.097 185.364 377.967 185.084 376.997 184.524C376.045 183.964 375.307 183.171 374.785 182.144C374.262 181.117 374.001 179.913 374.001 178.532C374.001 177.132 374.262 175.928 374.785 174.92C375.326 173.893 376.073 173.1 377.025 172.54C377.995 171.98 379.115 171.7 380.385 171.7C381.654 171.7 382.765 171.98 383.717 172.54C384.669 173.1 385.406 173.893 385.929 174.92C386.47 175.928 386.741 177.132 386.741 178.532ZM380.385 173.548C379.134 173.548 378.135 173.996 377.389 174.892C376.661 175.769 376.297 176.983 376.297 178.532C376.297 180.1 376.651 181.323 377.361 182.2C378.089 183.077 379.097 183.516 380.385 183.516C381.654 183.516 382.643 183.077 383.353 182.2C384.081 181.304 384.445 180.081 384.445 178.532C384.445 176.983 384.081 175.769 383.353 174.892C382.643 173.996 381.654 173.548 380.385 173.548ZM126.557 210.364C125.755 210.364 124.999 210.243 124.289 210C123.599 209.776 123.095 209.524 122.777 209.244V207.172C123.151 207.527 123.617 207.844 124.177 208.124C124.756 208.385 125.447 208.516 126.249 208.516C127.556 208.516 128.601 208.124 129.385 207.34C130.188 206.537 130.589 205.259 130.589 203.504C130.589 202.272 130.384 201.301 129.973 200.592C129.581 199.864 129.049 199.341 128.377 199.024C127.724 198.707 127.015 198.548 126.249 198.548C125.577 198.548 125.008 198.632 124.541 198.8C124.075 198.968 123.655 199.155 123.281 199.36V208.656H121.041V199.416C121.041 199.043 121.107 198.744 121.237 198.52C121.368 198.296 121.639 198.063 122.049 197.82C122.553 197.54 123.151 197.288 123.841 197.064C124.551 196.821 125.353 196.7 126.249 196.7C127.481 196.7 128.592 196.943 129.581 197.428C130.589 197.895 131.383 198.632 131.961 199.64C132.559 200.629 132.857 201.917 132.857 203.504C132.857 205.035 132.587 206.313 132.045 207.34C131.523 208.348 130.785 209.104 129.833 209.608C128.881 210.112 127.789 210.364 126.557 210.364ZM122.245 215.236C121.853 215.236 121.555 215.152 121.349 214.984C121.144 214.816 121.041 214.555 121.041 214.2V207.844L123.281 207.9V215.04C123.188 215.077 123.048 215.115 122.861 215.152C122.675 215.208 122.469 215.236 122.245 215.236ZM139.601 210.392C137.847 210.392 136.484 210.047 135.513 209.356C134.561 208.665 134.085 207.667 134.085 206.36C134.085 205.147 134.487 204.223 135.289 203.588C136.111 202.935 137.24 202.543 138.677 202.412L142.653 202.02V201.236C142.653 200.303 142.373 199.621 141.813 199.192C141.253 198.763 140.497 198.548 139.545 198.548C138.78 198.548 138.043 198.66 137.333 198.884C136.643 199.108 136.027 199.36 135.485 199.64C135.336 199.509 135.196 199.36 135.065 199.192C134.953 199.005 134.897 198.819 134.897 198.632C134.897 198.147 135.168 197.773 135.709 197.512C136.213 197.251 136.792 197.055 137.445 196.924C138.117 196.775 138.827 196.7 139.573 196.7C141.197 196.7 142.485 197.064 143.437 197.792C144.389 198.52 144.865 199.668 144.865 201.236V207.872C144.865 208.283 144.781 208.6 144.613 208.824C144.464 209.029 144.231 209.225 143.913 209.412C143.465 209.655 142.868 209.879 142.121 210.084C141.375 210.289 140.535 210.392 139.601 210.392ZM139.601 208.544C140.385 208.544 141.029 208.469 141.533 208.32C142.056 208.152 142.429 207.993 142.653 207.844V203.784L139.181 204.148C138.211 204.223 137.492 204.437 137.025 204.792C136.559 205.147 136.325 205.66 136.325 206.332C136.325 207.023 136.596 207.564 137.137 207.956C137.697 208.348 138.519 208.544 139.601 208.544ZM149.794 199.472V203.896H147.554V199.64C147.554 199.211 147.629 198.875 147.778 198.632C147.946 198.371 148.217 198.119 148.59 197.876C149.075 197.559 149.738 197.288 150.578 197.064C151.418 196.821 152.351 196.7 153.378 196.7C154.871 196.7 155.618 197.073 155.618 197.82C155.618 198.007 155.59 198.184 155.534 198.352C155.478 198.501 155.403 198.632 155.31 198.744C155.123 198.707 154.881 198.669 154.582 198.632C154.283 198.595 153.985 198.576 153.686 198.576C152.827 198.576 152.071 198.669 151.418 198.856C150.765 199.024 150.223 199.229 149.794 199.472ZM147.554 202.608L149.794 202.944V209.944C149.701 209.981 149.561 210.019 149.374 210.056C149.187 210.112 148.982 210.14 148.758 210.14C148.366 210.14 148.067 210.065 147.862 209.916C147.657 209.748 147.554 209.487 147.554 209.132V202.608ZM161.329 210.392C159.574 210.392 158.211 210.047 157.241 209.356C156.289 208.665 155.813 207.667 155.813 206.36C155.813 205.147 156.214 204.223 157.017 203.588C157.838 202.935 158.967 202.543 160.405 202.412L164.381 202.02V201.236C164.381 200.303 164.101 199.621 163.541 199.192C162.981 198.763 162.225 198.548 161.273 198.548C160.507 198.548 159.77 198.66 159.061 198.884C158.37 199.108 157.754 199.36 157.213 199.64C157.063 199.509 156.923 199.36 156.793 199.192C156.681 199.005 156.625 198.819 156.625 198.632C156.625 198.147 156.895 197.773 157.437 197.512C157.941 197.251 158.519 197.055 159.173 196.924C159.845 196.775 160.554 196.7 161.301 196.7C162.925 196.7 164.213 197.064 165.165 197.792C166.117 198.52 166.593 199.668 166.593 201.236V207.872C166.593 208.283 166.509 208.6 166.341 208.824C166.191 209.029 165.958 209.225 165.641 209.412C165.193 209.655 164.595 209.879 163.849 210.084C163.102 210.289 162.262 210.392 161.329 210.392ZM161.329 208.544C162.113 208.544 162.757 208.469 163.261 208.32C163.783 208.152 164.157 207.993 164.381 207.844V203.784L160.909 204.148C159.938 204.223 159.219 204.437 158.753 204.792C158.286 205.147 158.053 205.66 158.053 206.332C158.053 207.023 158.323 207.564 158.865 207.956C159.425 208.348 160.246 208.544 161.329 208.544ZM182.615 206.556C182.615 207.751 182.176 208.684 181.299 209.356C180.421 210.028 179.152 210.364 177.491 210.364C176.072 210.364 174.915 210.149 174.019 209.72C173.123 209.272 172.675 208.787 172.675 208.264C172.675 208.04 172.731 207.825 172.843 207.62C172.973 207.396 173.16 207.219 173.403 207.088C173.907 207.443 174.495 207.769 175.167 208.068C175.839 208.367 176.604 208.516 177.463 208.516C179.404 208.516 180.375 207.863 180.375 206.556C180.375 206.015 180.207 205.576 179.871 205.24C179.553 204.885 179.077 204.633 178.443 204.484L176.119 203.868C174.98 203.588 174.149 203.159 173.627 202.58C173.104 201.983 172.843 201.245 172.843 200.368C172.843 199.379 173.244 198.52 174.047 197.792C174.849 197.064 176.072 196.7 177.715 196.7C178.592 196.7 179.357 196.793 180.011 196.98C180.664 197.148 181.168 197.381 181.523 197.68C181.896 197.96 182.083 198.268 182.083 198.604C182.083 198.847 182.017 199.061 181.887 199.248C181.775 199.435 181.616 199.575 181.411 199.668C181.187 199.519 180.897 199.36 180.543 199.192C180.207 199.005 179.805 198.856 179.339 198.744C178.872 198.613 178.359 198.548 177.799 198.548C176.977 198.548 176.315 198.707 175.811 199.024C175.307 199.341 175.055 199.789 175.055 200.368C175.055 200.779 175.195 201.143 175.475 201.46C175.773 201.759 176.24 201.983 176.875 202.132L178.807 202.608C180.076 202.907 181.028 203.383 181.663 204.036C182.297 204.671 182.615 205.511 182.615 206.556ZM184.61 205.268V202.72H186.85V205.156C186.85 206.351 187.167 207.209 187.802 207.732C188.437 208.255 189.314 208.516 190.434 208.516C191.181 208.516 191.815 208.441 192.338 208.292C192.861 208.124 193.271 207.956 193.57 207.788V202.72H195.81V207.704C195.81 208.096 195.754 208.413 195.642 208.656C195.549 208.88 195.306 209.104 194.914 209.328C194.503 209.571 193.915 209.804 193.15 210.028C192.385 210.252 191.47 210.364 190.406 210.364C189.174 210.364 188.119 210.187 187.242 209.832C186.383 209.459 185.73 208.899 185.282 208.152C184.834 207.387 184.61 206.425 184.61 205.268ZM195.81 204.176H193.57V197.12C193.663 197.083 193.803 197.045 193.99 197.008C194.195 196.952 194.401 196.924 194.606 196.924C195.017 196.924 195.315 197.008 195.502 197.176C195.707 197.325 195.81 197.587 195.81 197.96V204.176ZM186.85 204.176H184.61V197.12C184.703 197.083 184.843 197.045 185.03 197.008C185.235 196.952 185.45 196.924 185.674 196.924C186.066 196.924 186.355 197.008 186.542 197.176C186.747 197.325 186.85 197.587 186.85 197.96V204.176ZM211.63 207.788V198.38L213.87 198.352V207.872C213.87 208.227 213.786 208.516 213.618 208.74C213.469 208.945 213.226 209.151 212.89 209.356C212.517 209.599 211.985 209.823 211.294 210.028C210.603 210.252 209.81 210.364 208.914 210.364C207.57 210.364 206.385 210.131 205.358 209.664C204.331 209.197 203.529 208.469 202.95 207.48C202.371 206.472 202.082 205.175 202.082 203.588C202.082 201.964 202.362 200.648 202.922 199.64C203.501 198.632 204.275 197.895 205.246 197.428C206.217 196.943 207.281 196.7 208.438 196.7C209.166 196.7 209.857 196.803 210.51 197.008C211.163 197.213 211.677 197.465 212.05 197.764V199.836C211.695 199.481 211.229 199.183 210.65 198.94C210.09 198.679 209.427 198.548 208.662 198.548C207.897 198.548 207.187 198.716 206.534 199.052C205.881 199.369 205.358 199.901 204.966 200.648C204.574 201.395 204.378 202.393 204.378 203.644C204.378 205.343 204.789 206.584 205.61 207.368C206.431 208.133 207.523 208.516 208.886 208.516C209.539 208.516 210.071 208.451 210.482 208.32C210.911 208.171 211.294 207.993 211.63 207.788ZM213.87 198.912L211.63 198.94V191.856C211.723 191.819 211.863 191.781 212.05 191.744C212.255 191.688 212.461 191.66 212.666 191.66C213.077 191.66 213.375 191.744 213.562 191.912C213.767 192.061 213.87 192.313 213.87 192.668V198.912ZM216.527 192.976C216.527 192.584 216.667 192.257 216.947 191.996C217.227 191.716 217.572 191.576 217.983 191.576C218.412 191.576 218.757 191.716 219.019 191.996C219.28 192.257 219.411 192.584 219.411 192.976C219.411 193.368 219.28 193.704 219.019 193.984C218.757 194.245 218.412 194.376 217.983 194.376C217.572 194.376 217.227 194.245 216.947 193.984C216.667 193.704 216.527 193.368 216.527 192.976ZM216.863 202.608H219.103V209.944C219.009 209.981 218.869 210.019 218.683 210.056C218.496 210.112 218.291 210.14 218.067 210.14C217.675 210.14 217.376 210.065 217.171 209.916C216.965 209.748 216.863 209.487 216.863 209.132V202.608ZM219.103 203.7H216.863V197.12C216.956 197.083 217.096 197.045 217.283 197.008C217.488 196.952 217.703 196.924 217.927 196.924C218.319 196.924 218.608 197.008 218.795 197.176C219 197.325 219.103 197.587 219.103 197.96V203.7ZM231.205 206.556C231.205 207.751 230.766 208.684 229.889 209.356C229.011 210.028 227.742 210.364 226.081 210.364C224.662 210.364 223.505 210.149 222.609 209.72C221.713 209.272 221.265 208.787 221.265 208.264C221.265 208.04 221.321 207.825 221.433 207.62C221.563 207.396 221.75 207.219 221.993 207.088C222.497 207.443 223.085 207.769 223.757 208.068C224.429 208.367 225.194 208.516 226.053 208.516C227.994 208.516 228.965 207.863 228.965 206.556C228.965 206.015 228.797 205.576 228.461 205.24C228.143 204.885 227.667 204.633 227.033 204.484L224.709 203.868C223.57 203.588 222.739 203.159 222.217 202.58C221.694 201.983 221.433 201.245 221.433 200.368C221.433 199.379 221.834 198.52 222.637 197.792C223.439 197.064 224.662 196.7 226.305 196.7C227.182 196.7 227.947 196.793 228.601 196.98C229.254 197.148 229.758 197.381 230.113 197.68C230.486 197.96 230.673 198.268 230.673 198.604C230.673 198.847 230.607 199.061 230.477 199.248C230.365 199.435 230.206 199.575 230.001 199.668C229.777 199.519 229.487 199.36 229.133 199.192C228.797 199.005 228.395 198.856 227.929 198.744C227.462 198.613 226.949 198.548 226.389 198.548C225.567 198.548 224.905 198.707 224.401 199.024C223.897 199.341 223.645 199.789 223.645 200.368C223.645 200.779 223.785 201.143 224.065 201.46C224.363 201.759 224.83 201.983 225.465 202.132L227.397 202.608C228.666 202.907 229.618 203.383 230.253 204.036C230.887 204.671 231.205 205.511 231.205 206.556ZM233.228 202.608H235.468V206.472C235.468 207.219 235.683 207.751 236.112 208.068C236.541 208.367 237.129 208.516 237.876 208.516C238.193 208.516 238.548 208.46 238.94 208.348C239.332 208.236 239.659 208.105 239.92 207.956C240.032 208.068 240.135 208.208 240.228 208.376C240.321 208.544 240.368 208.74 240.368 208.964C240.368 209.375 240.125 209.711 239.64 209.972C239.155 210.233 238.483 210.364 237.624 210.364C236.317 210.364 235.253 210.075 234.432 209.496C233.629 208.917 233.228 207.956 233.228 206.612V202.608ZM234.376 199.192V197.344H240.06C240.116 197.419 240.172 197.54 240.228 197.708C240.284 197.876 240.312 198.053 240.312 198.24C240.312 198.539 240.237 198.772 240.088 198.94C239.939 199.108 239.733 199.192 239.472 199.192H234.376ZM235.468 203.448H233.228V193.312C233.321 193.275 233.461 193.237 233.648 193.2C233.853 193.144 234.068 193.116 234.292 193.116C234.684 193.116 234.973 193.2 235.16 193.368C235.365 193.517 235.468 193.769 235.468 194.124V203.448ZM244.458 199.472V203.896H242.218V199.64C242.218 199.211 242.293 198.875 242.442 198.632C242.61 198.371 242.881 198.119 243.254 197.876C243.739 197.559 244.402 197.288 245.242 197.064C246.082 196.821 247.015 196.7 248.042 196.7C249.535 196.7 250.282 197.073 250.282 197.82C250.282 198.007 250.254 198.184 250.198 198.352C250.142 198.501 250.067 198.632 249.974 198.744C249.787 198.707 249.545 198.669 249.246 198.632C248.947 198.595 248.649 198.576 248.35 198.576C247.491 198.576 246.735 198.669 246.082 198.856C245.429 199.024 244.887 199.229 244.458 199.472ZM242.218 202.608L244.458 202.944V209.944C244.365 209.981 244.225 210.019 244.038 210.056C243.851 210.112 243.646 210.14 243.422 210.14C243.03 210.14 242.731 210.065 242.526 209.916C242.321 209.748 242.218 209.487 242.218 209.132V202.608ZM251.313 192.976C251.313 192.584 251.453 192.257 251.733 191.996C252.013 191.716 252.359 191.576 252.769 191.576C253.199 191.576 253.544 191.716 253.805 191.996C254.067 192.257 254.197 192.584 254.197 192.976C254.197 193.368 254.067 193.704 253.805 193.984C253.544 194.245 253.199 194.376 252.769 194.376C252.359 194.376 252.013 194.245 251.733 193.984C251.453 193.704 251.313 193.368 251.313 192.976ZM251.649 202.608H253.889V209.944C253.796 209.981 253.656 210.019 253.469 210.056C253.283 210.112 253.077 210.14 252.853 210.14C252.461 210.14 252.163 210.065 251.957 209.916C251.752 209.748 251.649 209.487 251.649 209.132V202.608ZM253.889 203.7H251.649V197.12C251.743 197.083 251.883 197.045 252.069 197.008C252.275 196.952 252.489 196.924 252.713 196.924C253.105 196.924 253.395 197.008 253.581 197.176C253.787 197.325 253.889 197.587 253.889 197.96V203.7ZM262.631 196.7C263.789 196.7 264.825 196.952 265.739 197.456C266.673 197.941 267.401 198.688 267.923 199.696C268.465 200.704 268.735 201.983 268.735 203.532C268.735 205.1 268.455 206.388 267.895 207.396C267.354 208.404 266.598 209.151 265.627 209.636C264.657 210.121 263.527 210.364 262.239 210.364C261.325 210.364 260.494 210.252 259.747 210.028C259.019 209.804 258.422 209.561 257.955 209.3C257.563 209.039 257.293 208.796 257.143 208.572C256.994 208.348 256.919 208.04 256.919 207.648V198.324H259.159V207.648C259.439 207.853 259.85 208.049 260.391 208.236C260.933 208.423 261.549 208.516 262.239 208.516C263.509 208.516 264.526 208.115 265.291 207.312C266.075 206.509 266.467 205.249 266.467 203.532C266.467 201.796 266.075 200.536 265.291 199.752C264.507 198.949 263.509 198.548 262.295 198.548C261.549 198.548 260.886 198.697 260.307 198.996C259.729 199.276 259.253 199.603 258.879 199.976L258.459 198.156C258.87 197.839 259.421 197.521 260.111 197.204C260.802 196.868 261.642 196.7 262.631 196.7ZM259.159 198.772H256.919V191.856C257.013 191.819 257.153 191.781 257.339 191.744C257.545 191.688 257.759 191.66 257.983 191.66C258.375 191.66 258.665 191.744 258.851 191.912C259.057 192.061 259.159 192.313 259.159 192.668V198.772ZM270.83 205.268V202.72H273.07V205.156C273.07 206.351 273.388 207.209 274.022 207.732C274.657 208.255 275.534 208.516 276.654 208.516C277.401 208.516 278.036 208.441 278.558 208.292C279.081 208.124 279.492 207.956 279.79 207.788V202.72H282.03V207.704C282.03 208.096 281.974 208.413 281.862 208.656C281.769 208.88 281.526 209.104 281.134 209.328C280.724 209.571 280.136 209.804 279.37 210.028C278.605 210.252 277.69 210.364 276.626 210.364C275.394 210.364 274.34 210.187 273.462 209.832C272.604 209.459 271.95 208.899 271.502 208.152C271.054 207.387 270.83 206.425 270.83 205.268ZM282.03 204.176H279.79V197.12C279.884 197.083 280.024 197.045 280.21 197.008C280.416 196.952 280.621 196.924 280.826 196.924C281.237 196.924 281.536 197.008 281.722 197.176C281.928 197.325 282.03 197.587 282.03 197.96V204.176ZM273.07 204.176H270.83V197.12C270.924 197.083 271.064 197.045 271.25 197.008C271.456 196.952 271.67 196.924 271.894 196.924C272.286 196.924 272.576 197.008 272.762 197.176C272.968 197.325 273.07 197.587 273.07 197.96V204.176ZM290.817 198.576C289.548 198.576 288.493 199.005 287.653 199.864C286.813 200.723 286.393 201.955 286.393 203.56C286.393 205.147 286.794 206.369 287.597 207.228C288.418 208.087 289.492 208.516 290.817 208.516C291.601 208.516 292.254 208.413 292.777 208.208C293.3 207.984 293.766 207.732 294.177 207.452C294.382 207.564 294.55 207.704 294.681 207.872C294.812 208.04 294.877 208.245 294.877 208.488C294.877 209.011 294.485 209.459 293.701 209.832C292.936 210.187 291.974 210.364 290.817 210.364C289.529 210.364 288.372 210.121 287.345 209.636C286.337 209.132 285.544 208.376 284.965 207.368C284.386 206.36 284.097 205.091 284.097 203.56C284.097 202.048 284.396 200.788 284.993 199.78C285.59 198.753 286.393 197.988 287.401 197.484C288.428 196.961 289.548 196.7 290.761 196.7C291.918 196.7 292.87 196.896 293.617 197.288C294.382 197.68 294.765 198.128 294.765 198.632C294.765 198.856 294.7 199.052 294.569 199.22C294.438 199.388 294.27 199.519 294.065 199.612C293.654 199.332 293.197 199.089 292.693 198.884C292.208 198.679 291.582 198.576 290.817 198.576ZM296.6 192.976C296.6 192.584 296.74 192.257 297.02 191.996C297.3 191.716 297.645 191.576 298.056 191.576C298.485 191.576 298.831 191.716 299.092 191.996C299.353 192.257 299.484 192.584 299.484 192.976C299.484 193.368 299.353 193.704 299.092 193.984C298.831 194.245 298.485 194.376 298.056 194.376C297.645 194.376 297.3 194.245 297.02 193.984C296.74 193.704 296.6 193.368 296.6 192.976ZM296.936 202.608H299.176V209.944C299.083 209.981 298.943 210.019 298.756 210.056C298.569 210.112 298.364 210.14 298.14 210.14C297.748 210.14 297.449 210.065 297.244 209.916C297.039 209.748 296.936 209.487 296.936 209.132V202.608ZM299.176 203.7H296.936V197.12C297.029 197.083 297.169 197.045 297.356 197.008C297.561 196.952 297.776 196.924 298 196.924C298.392 196.924 298.681 197.008 298.868 197.176C299.073 197.325 299.176 197.587 299.176 197.96V203.7ZM314.162 203.532C314.162 204.913 313.901 206.117 313.378 207.144C312.855 208.171 312.118 208.964 311.166 209.524C310.214 210.084 309.094 210.364 307.806 210.364C306.518 210.364 305.389 210.084 304.418 209.524C303.466 208.964 302.729 208.171 302.206 207.144C301.683 206.117 301.422 204.913 301.422 203.532C301.422 202.132 301.683 200.928 302.206 199.92C302.747 198.893 303.494 198.1 304.446 197.54C305.417 196.98 306.537 196.7 307.806 196.7C309.075 196.7 310.186 196.98 311.138 197.54C312.09 198.1 312.827 198.893 313.35 199.92C313.891 200.928 314.162 202.132 314.162 203.532ZM307.806 198.548C306.555 198.548 305.557 198.996 304.81 199.892C304.082 200.769 303.718 201.983 303.718 203.532C303.718 205.1 304.073 206.323 304.782 207.2C305.51 208.077 306.518 208.516 307.806 208.516C309.075 208.516 310.065 208.077 310.774 207.2C311.502 206.304 311.866 205.081 311.866 203.532C311.866 201.983 311.502 200.769 310.774 199.892C310.065 198.996 309.075 198.548 307.806 198.548ZM307.722 193.816L310.438 190.764C310.849 190.783 311.175 190.904 311.418 191.128C311.679 191.333 311.81 191.567 311.81 191.828C311.81 192.071 311.754 192.276 311.642 192.444C311.53 192.612 311.343 192.817 311.082 193.06L308.534 195.552C308.179 195.552 307.881 195.459 307.638 195.272C307.414 195.067 307.302 194.843 307.302 194.6C307.302 194.432 307.349 194.292 307.442 194.18C307.535 194.049 307.629 193.928 307.722 193.816ZM327.427 201.46V204.316H325.187V201.572C325.187 200.527 324.888 199.761 324.291 199.276C323.712 198.791 322.928 198.548 321.939 198.548C321.192 198.548 320.529 198.641 319.951 198.828C319.372 199.015 318.877 199.229 318.467 199.472V204.316H316.227V199.584C316.227 199.192 316.301 198.875 316.451 198.632C316.619 198.371 316.899 198.119 317.291 197.876C317.776 197.596 318.42 197.335 319.223 197.092C320.025 196.831 320.931 196.7 321.939 196.7C323.637 196.7 324.972 197.092 325.943 197.876C326.932 198.641 327.427 199.836 327.427 201.46ZM316.227 202.776H318.467V209.944C318.373 209.981 318.233 210.019 318.047 210.056C317.86 210.112 317.655 210.14 317.431 210.14C317.039 210.14 316.74 210.065 316.535 209.916C316.329 209.748 316.227 209.487 316.227 209.132V202.776ZM325.187 202.776H327.427V209.944C327.333 209.981 327.184 210.019 326.979 210.056C326.792 210.112 326.596 210.14 326.391 210.14C325.98 210.14 325.672 210.065 325.467 209.916C325.28 209.748 325.187 209.487 325.187 209.132V202.776ZM328.569 208.824C328.569 208.376 328.7 208.003 328.961 207.704C329.241 207.405 329.624 207.256 330.109 207.256C330.594 207.256 330.968 207.405 331.229 207.704C331.49 208.003 331.621 208.376 331.621 208.824C331.621 209.253 331.49 209.617 331.229 209.916C330.968 210.215 330.594 210.364 330.109 210.364C329.624 210.364 329.241 210.215 328.961 209.916C328.7 209.617 328.569 209.253 328.569 208.824Z" fill="black"/>
<path d="M141.648 102.88C141.648 104.96 141.248 106.71 140.448 108.13C139.668 109.55 138.598 110.63 137.238 111.37C135.878 112.09 134.338 112.45 132.618 112.45C130.898 112.45 129.358 112.09 127.998 111.37C126.638 110.63 125.558 109.55 124.758 108.13C123.978 106.71 123.588 104.96 123.588 102.88C123.588 100.8 123.988 99.05 124.788 97.63C125.608 96.21 126.698 95.14 128.058 94.42C129.418 93.68 130.938 93.31 132.618 93.31C134.318 93.31 135.848 93.68 137.208 94.42C138.568 95.14 139.648 96.21 140.448 97.63C141.248 99.05 141.648 100.8 141.648 102.88ZM137.988 102.88C137.988 100.74 137.498 99.1 136.518 97.96C135.538 96.82 134.238 96.25 132.618 96.25C131.018 96.25 129.728 96.82 128.748 97.96C127.768 99.1 127.278 100.74 127.278 102.88C127.278 105.04 127.758 106.69 128.718 107.83C129.698 108.95 130.998 109.51 132.618 109.51C134.258 109.51 135.558 108.95 136.518 107.83C137.498 106.69 137.988 105.04 137.988 102.88ZM147.477 102.7H150.147C151.367 102.7 152.337 102.43 153.057 101.89C153.777 101.35 154.137 100.55 154.137 99.49C154.137 98.43 153.777 97.63 153.057 97.09C152.337 96.55 151.277 96.28 149.877 96.28C149.437 96.28 149.007 96.3 148.587 96.34C148.187 96.38 147.817 96.43 147.477 96.49V102.7ZM150.357 105.52H143.937V95.26C143.937 94.9 144.037 94.63 144.237 94.45C144.437 94.25 144.707 94.09 145.047 93.97C145.667 93.77 146.407 93.62 147.267 93.52C148.147 93.42 149.037 93.37 149.937 93.37C152.537 93.37 154.487 93.91 155.787 94.99C157.087 96.07 157.737 97.56 157.737 99.46C157.737 100.66 157.437 101.72 156.837 102.64C156.237 103.54 155.387 104.25 154.287 104.77C153.207 105.27 151.897 105.52 150.357 105.52ZM149.967 104.56L152.937 103.66C153.457 104.32 153.987 104.99 154.527 105.67C155.067 106.35 155.587 107.02 156.087 107.68C156.587 108.32 157.037 108.91 157.437 109.45C157.837 109.97 158.157 110.39 158.397 110.71C158.257 111.19 157.997 111.57 157.617 111.85C157.257 112.11 156.857 112.24 156.417 112.24C155.877 112.24 155.447 112.12 155.127 111.88C154.827 111.62 154.527 111.27 154.227 110.83L149.967 104.56ZM143.937 104.29H147.537V111.94C147.377 112 147.137 112.05 146.817 112.09C146.517 112.15 146.197 112.18 145.857 112.18C145.177 112.18 144.687 112.06 144.387 111.82C144.087 111.56 143.937 111.13 143.937 110.53V104.29ZM172.638 102.79C172.638 104.99 172.108 106.66 171.048 107.8C169.988 108.92 168.478 109.48 166.518 109.48C166.078 109.48 165.618 109.46 165.138 109.42C164.678 109.38 164.268 109.32 163.908 109.24V96.49C164.268 96.43 164.648 96.39 165.048 96.37C165.448 96.33 165.888 96.31 166.368 96.31C167.568 96.31 168.638 96.54 169.578 97C170.518 97.44 171.258 98.14 171.798 99.1C172.358 100.04 172.638 101.27 172.638 102.79ZM176.298 102.76C176.298 100.64 175.878 98.89 175.038 97.51C174.198 96.13 173.018 95.1 171.498 94.42C169.998 93.72 168.248 93.37 166.248 93.37C165.468 93.37 164.648 93.41 163.788 93.49C162.948 93.57 162.168 93.72 161.448 93.94C161.108 94.06 160.838 94.22 160.638 94.42C160.438 94.6 160.338 94.87 160.338 95.23V110.11C160.338 110.91 160.818 111.47 161.778 111.79C162.518 112.05 163.328 112.21 164.208 112.27C165.108 112.35 165.878 112.39 166.518 112.39C168.498 112.39 170.218 112.04 171.678 111.34C173.138 110.64 174.268 109.58 175.068 108.16C175.888 106.72 176.298 104.92 176.298 102.76ZM178.584 100.12H182.094V111.79C181.954 111.83 181.734 111.88 181.434 111.94C181.134 112 180.824 112.03 180.504 112.03C179.924 112.03 179.454 111.86 179.094 111.52C178.754 111.16 178.584 110.7 178.584 110.14V100.12ZM182.094 105.61L178.584 105.58V95.68C178.584 95.1 178.754 94.64 179.094 94.3C179.454 93.96 179.924 93.79 180.504 93.79C180.824 93.79 181.134 93.82 181.434 93.88C181.734 93.94 181.954 93.99 182.094 94.03V105.61ZM180.504 104.11V101.26H189.534C189.634 101.4 189.724 101.59 189.804 101.83C189.884 102.07 189.924 102.34 189.924 102.64C189.924 103.12 189.814 103.49 189.594 103.75C189.374 103.99 189.054 104.11 188.634 104.11H180.504ZM180.504 112.03V109.15H190.584C190.664 109.29 190.744 109.49 190.824 109.75C190.904 109.99 190.944 110.26 190.944 110.56C190.944 111.04 190.834 111.41 190.614 111.67C190.394 111.91 190.084 112.03 189.684 112.03H180.504ZM180.504 96.67V93.79H190.434C190.534 93.93 190.624 94.12 190.704 94.36C190.784 94.6 190.824 94.86 190.824 95.14C190.824 95.64 190.704 96.02 190.464 96.28C190.244 96.54 189.934 96.67 189.534 96.67H180.504ZM193.226 97.51L196.406 97.39C196.486 98.13 196.546 98.92 196.586 99.76C196.626 100.6 196.656 101.44 196.676 102.28C196.696 103.1 196.706 103.9 196.706 104.68V111.97C196.566 112.01 196.346 112.05 196.046 112.09C195.746 112.15 195.436 112.18 195.116 112.18C194.456 112.18 193.976 112.06 193.676 111.82C193.376 111.58 193.226 111.17 193.226 110.59V97.51ZM208.496 108.25L205.316 108.34C205.156 106.78 205.066 105.24 205.046 103.72C205.026 102.2 205.016 100.73 205.016 99.31V93.79C205.176 93.75 205.396 93.7 205.676 93.64C205.976 93.58 206.296 93.55 206.636 93.55C207.296 93.55 207.766 93.68 208.046 93.94C208.346 94.18 208.496 94.59 208.496 95.17V108.25ZM208.496 107.05V105.46V111.55C208.276 111.73 207.976 111.88 207.596 112C207.216 112.14 206.776 112.21 206.276 112.21C205.696 112.21 205.166 112.11 204.686 111.91C204.226 111.71 203.826 111.29 203.486 110.65L198.896 102.46C198.636 101.96 198.356 101.45 198.056 100.93C197.776 100.39 197.506 99.86 197.246 99.34C197.006 98.82 196.786 98.35 196.586 97.93L193.226 98.71V94.36C193.446 94.12 193.756 93.93 194.156 93.79C194.556 93.65 194.996 93.58 195.476 93.58C196.056 93.58 196.576 93.68 197.036 93.88C197.516 94.08 197.926 94.5 198.266 95.14L202.886 103.3C203.166 103.8 203.446 104.32 203.726 104.86C204.006 105.4 204.266 105.93 204.506 106.45C204.746 106.95 204.956 107.41 205.136 107.83L208.496 107.05ZM228.571 102.79C228.571 104.99 228.041 106.66 226.981 107.8C225.921 108.92 224.411 109.48 222.451 109.48C222.011 109.48 221.551 109.46 221.071 109.42C220.611 109.38 220.201 109.32 219.841 109.24V96.49C220.201 96.43 220.581 96.39 220.981 96.37C221.381 96.33 221.821 96.31 222.301 96.31C223.501 96.31 224.571 96.54 225.511 97C226.451 97.44 227.191 98.14 227.731 99.1C228.291 100.04 228.571 101.27 228.571 102.79ZM232.231 102.76C232.231 100.64 231.811 98.89 230.971 97.51C230.131 96.13 228.951 95.1 227.431 94.42C225.931 93.72 224.181 93.37 222.181 93.37C221.401 93.37 220.581 93.41 219.721 93.49C218.881 93.57 218.101 93.72 217.381 93.94C217.041 94.06 216.771 94.22 216.571 94.42C216.371 94.6 216.271 94.87 216.271 95.23V110.11C216.271 110.91 216.751 111.47 217.711 111.79C218.451 112.05 219.261 112.21 220.141 112.27C221.041 112.35 221.811 112.39 222.451 112.39C224.431 112.39 226.151 112.04 227.611 111.34C229.071 110.64 230.201 109.58 231.001 108.16C231.821 106.72 232.231 104.92 232.231 102.76ZM234.517 100.12H238.027V111.79C237.887 111.83 237.667 111.88 237.367 111.94C237.067 112 236.757 112.03 236.437 112.03C235.857 112.03 235.387 111.86 235.027 111.52C234.687 111.16 234.517 110.7 234.517 110.14V100.12ZM238.027 105.61L234.517 105.58V95.68C234.517 95.1 234.687 94.64 235.027 94.3C235.387 93.96 235.857 93.79 236.437 93.79C236.757 93.79 237.067 93.82 237.367 93.88C237.667 93.94 237.887 93.99 238.027 94.03V105.61ZM236.437 104.11V101.26H245.467C245.567 101.4 245.657 101.59 245.737 101.83C245.817 102.07 245.857 102.34 245.857 102.64C245.857 103.12 245.747 103.49 245.527 103.75C245.307 103.99 244.987 104.11 244.567 104.11H236.437ZM236.437 112.03V109.15H246.517C246.597 109.29 246.677 109.49 246.757 109.75C246.837 109.99 246.877 110.26 246.877 110.56C246.877 111.04 246.767 111.41 246.547 111.67C246.327 111.91 246.017 112.03 245.617 112.03H236.437ZM236.437 96.67V93.79H246.367C246.467 93.93 246.557 94.12 246.637 94.36C246.717 94.6 246.757 94.86 246.757 95.14C246.757 95.64 246.637 96.02 246.397 96.28C246.177 96.54 245.867 96.67 245.467 96.67H236.437ZM253.666 100.12H257.176V111.79C257.036 111.83 256.816 111.88 256.516 111.94C256.216 112 255.906 112.03 255.586 112.03C255.006 112.03 254.536 111.86 254.176 111.52C253.836 111.16 253.666 110.7 253.666 110.14V100.12ZM257.176 105.61L253.666 105.58V95.68C253.666 95.1 253.836 94.64 254.176 94.3C254.536 93.96 255.006 93.79 255.586 93.79C255.906 93.79 256.216 93.82 256.516 93.88C256.816 93.94 257.036 93.99 257.176 94.03V105.61ZM255.586 104.11V101.26H264.616C264.716 101.4 264.806 101.59 264.886 101.83C264.966 102.07 265.006 102.34 265.006 102.64C265.006 103.12 264.896 103.49 264.676 103.75C264.456 103.99 264.136 104.11 263.716 104.11H255.586ZM255.586 112.03V109.15H265.666C265.746 109.29 265.826 109.49 265.906 109.75C265.986 109.99 266.026 110.26 266.026 110.56C266.026 111.04 265.916 111.41 265.696 111.67C265.476 111.91 265.166 112.03 264.766 112.03H255.586ZM255.586 96.67V93.79H265.516C265.616 93.93 265.706 94.12 265.786 94.36C265.866 94.6 265.906 94.86 265.906 95.14C265.906 95.64 265.786 96.02 265.546 96.28C265.326 96.54 265.016 96.67 264.616 96.67H255.586ZM268.308 97.51L271.488 97.39C271.568 98.13 271.628 98.92 271.668 99.76C271.708 100.6 271.738 101.44 271.758 102.28C271.778 103.1 271.788 103.9 271.788 104.68V111.97C271.648 112.01 271.428 112.05 271.128 112.09C270.828 112.15 270.518 112.18 270.198 112.18C269.538 112.18 269.058 112.06 268.758 111.82C268.458 111.58 268.308 111.17 268.308 110.59V97.51ZM283.578 108.25L280.398 108.34C280.238 106.78 280.148 105.24 280.128 103.72C280.108 102.2 280.098 100.73 280.098 99.31V93.79C280.258 93.75 280.478 93.7 280.758 93.64C281.058 93.58 281.378 93.55 281.718 93.55C282.378 93.55 282.848 93.68 283.128 93.94C283.428 94.18 283.578 94.59 283.578 95.17V108.25ZM283.578 107.05V105.46V111.55C283.358 111.73 283.058 111.88 282.678 112C282.298 112.14 281.858 112.21 281.358 112.21C280.778 112.21 280.248 112.11 279.768 111.91C279.308 111.71 278.908 111.29 278.568 110.65L273.978 102.46C273.718 101.96 273.438 101.45 273.138 100.93C272.858 100.39 272.588 99.86 272.328 99.34C272.088 98.82 271.868 98.35 271.668 97.93L268.308 98.71V94.36C268.528 94.12 268.838 93.93 269.238 93.79C269.638 93.65 270.078 93.58 270.558 93.58C271.138 93.58 271.658 93.68 272.118 93.88C272.598 94.08 273.008 94.5 273.348 95.14L277.968 103.3C278.248 103.8 278.528 104.32 278.808 104.86C279.088 105.4 279.348 105.93 279.588 106.45C279.828 106.95 280.038 107.41 280.218 107.83L283.578 107.05ZM295.848 111.61C295.688 111.75 295.398 111.88 294.978 112C294.578 112.14 294.138 112.21 293.658 112.21C293.098 112.21 292.608 112.13 292.188 111.97C291.768 111.79 291.488 111.55 291.348 111.25C291.028 110.65 290.658 109.86 290.238 108.88C289.838 107.88 289.398 106.76 288.918 105.52C288.458 104.28 287.998 103.01 287.538 101.71C287.078 100.41 286.648 99.13 286.248 97.87C285.868 96.61 285.528 95.48 285.228 94.48C285.428 94.28 285.698 94.09 286.038 93.91C286.398 93.73 286.788 93.64 287.208 93.64C287.728 93.64 288.138 93.76 288.438 94C288.738 94.24 288.968 94.63 289.128 95.17C289.868 97.51 290.598 99.78 291.318 101.98C292.038 104.16 292.808 106.39 293.628 108.67H293.778C294.278 107.27 294.788 105.76 295.308 104.14C295.828 102.5 296.338 100.82 296.838 99.1C297.358 97.36 297.828 95.67 298.248 94.03C298.468 93.91 298.708 93.82 298.968 93.76C299.248 93.68 299.548 93.64 299.868 93.64C300.388 93.64 300.818 93.76 301.158 94C301.498 94.24 301.668 94.62 301.668 95.14C301.668 95.48 301.558 96.07 301.338 96.91C301.118 97.73 300.828 98.69 300.468 99.79C300.128 100.89 299.738 102.04 299.298 103.24C298.878 104.44 298.448 105.6 298.008 106.72C297.568 107.84 297.158 108.83 296.778 109.69C296.418 110.55 296.108 111.19 295.848 111.61ZM303.454 100.15H307.024V111.94C306.864 112 306.634 112.05 306.334 112.09C306.034 112.15 305.714 112.18 305.374 112.18C304.694 112.18 304.204 112.06 303.904 111.82C303.604 111.56 303.454 111.13 303.454 110.53V100.15ZM307.024 104.14H303.454V93.79C303.614 93.75 303.844 93.7 304.144 93.64C304.464 93.58 304.784 93.55 305.104 93.55C305.764 93.55 306.244 93.67 306.544 93.91C306.864 94.15 307.024 94.59 307.024 95.23V104.14ZM304.294 89.89L307.324 87.1C307.924 87.1 308.384 87.25 308.704 87.55C309.044 87.83 309.214 88.18 309.214 88.6C309.214 88.92 309.134 89.2 308.974 89.44C308.834 89.68 308.574 89.94 308.194 90.22L305.464 92.26C304.904 92.24 304.474 92.11 304.174 91.87C303.894 91.63 303.754 91.34 303.754 91C303.754 90.8 303.794 90.61 303.874 90.43C303.954 90.25 304.094 90.07 304.294 89.89ZM327.373 102.88C327.373 104.96 326.973 106.71 326.173 108.13C325.393 109.55 324.323 110.63 322.963 111.37C321.603 112.09 320.063 112.45 318.343 112.45C316.623 112.45 315.083 112.09 313.723 111.37C312.363 110.63 311.283 109.55 310.483 108.13C309.703 106.71 309.313 104.96 309.313 102.88C309.313 100.8 309.713 99.05 310.513 97.63C311.333 96.21 312.423 95.14 313.783 94.42C315.143 93.68 316.663 93.31 318.343 93.31C320.043 93.31 321.573 93.68 322.933 94.42C324.293 95.14 325.373 96.21 326.173 97.63C326.973 99.05 327.373 100.8 327.373 102.88ZM323.713 102.88C323.713 100.74 323.223 99.1 322.243 97.96C321.263 96.82 319.963 96.25 318.343 96.25C316.743 96.25 315.453 96.82 314.473 97.96C313.493 99.1 313.003 100.74 313.003 102.88C313.003 105.04 313.483 106.69 314.443 107.83C315.423 108.95 316.723 109.51 318.343 109.51C319.983 109.51 321.283 108.95 322.243 107.83C323.223 106.69 323.713 105.04 323.713 102.88Z" fill="black"/>
</svg>
