<svg width="40" height="34" viewBox="0 0 40 34" fill="none" xmlns="http://www.w3.org/2000/svg">
<rect x="11.6772" width="17.4716" height="33.9726" rx="1" fill="#FFBD00"/>
<rect x="12.6479" y="2.91193" width="15.5303" height="28.1487" rx="1" fill="white"/>
<rect x="15.5601" y="0.970642" width="9.70645" height="0.970645" rx="0.485323" fill="white"/>
<path d="M5.85323 26.2074C5.85323 26.2074 1 22.5675 1 16.0965C0.999999 9.62554 5.85323 6.79449 5.85323 6.79449" stroke="#FFBD00" stroke-width="0.3"/>
<path d="M7.79426 23.2955C7.79426 23.2955 4.88232 20.7475 4.88232 16.2179C4.88232 11.6882 7.79426 9.70644 7.79426 9.70644" stroke="#FFBD00" stroke-width="0.3"/>
<path d="M34.9725 6.79449C34.9725 6.79449 39.8257 10.4344 39.8257 16.9054C39.8257 23.3763 34.9725 26.2074 34.9725 26.2074" stroke="#FFBD00" stroke-width="0.3"/>
<path d="M33.0314 9.70642C33.0314 9.70642 35.9434 12.2544 35.9434 16.784C35.9434 21.3137 33.0314 23.2955 33.0314 23.2955" stroke="#FFBD00" stroke-width="0.3"/>
</svg>
