<svg width="372" height="282" viewBox="0 0 372 282" fill="none" xmlns="http://www.w3.org/2000/svg">
<rect width="372" height="282" fill="#FFBD00"/>
<path d="M34.25 94.55H37.125C38.3583 94.55 39.325 94.2833 40.025 93.75C40.725 93.2167 41.075 92.425 41.075 91.375C41.075 90.3417 40.7083 89.5583 39.975 89.025C39.2417 88.4917 38.1917 88.225 36.825 88.225C36.375 88.225 35.9167 88.25 35.45 88.3C35 88.3333 34.6 88.3833 34.25 88.45V94.55ZM37.125 96.25H32.225V87.9C32.225 87.6333 32.2917 87.4333 32.425 87.3C32.575 87.15 32.7833 87.0333 33.05 86.95C33.5333 86.8 34.125 86.6917 34.825 86.625C35.5417 86.5583 36.2333 86.525 36.9 86.525C38.9833 86.525 40.5417 86.95 41.575 87.8C42.6083 88.65 43.125 89.8417 43.125 91.375C43.125 92.3583 42.9 93.2167 42.45 93.95C42 94.6833 41.3333 95.25 40.45 95.65C39.5667 96.05 38.4583 96.25 37.125 96.25ZM37.175 95.6L38.675 94.85C39.1417 95.4333 39.625 96.0417 40.125 96.675C40.625 97.3083 41.1083 97.925 41.575 98.525C42.0417 99.125 42.4583 99.6667 42.825 100.15C43.1917 100.617 43.475 100.983 43.675 101.25C43.6083 101.533 43.4583 101.758 43.225 101.925C43.0083 102.092 42.7833 102.175 42.55 102.175C42.2667 102.175 42.0333 102.108 41.85 101.975C41.6667 101.825 41.475 101.617 41.275 101.35L37.175 95.6ZM32.225 95.7H34.275V101.95C34.175 101.983 34.0417 102.017 33.875 102.05C33.7083 102.1 33.525 102.125 33.325 102.125C32.9583 102.125 32.6833 102.05 32.5 101.9C32.3167 101.75 32.225 101.517 32.225 101.2V95.7ZM45.8275 97.5L45.7275 95.925L53.2775 94.9C53.2109 93.9833 52.8942 93.2333 52.3275 92.65C51.7609 92.05 50.9775 91.75 49.9775 91.75C48.9442 91.75 48.0859 92.125 47.4025 92.875C46.7359 93.6083 46.4025 94.6667 46.4025 96.05V96.6C46.5192 97.9333 46.9525 98.95 47.7025 99.65C48.4692 100.333 49.5109 100.675 50.8275 100.675C51.5275 100.675 52.1609 100.558 52.7275 100.325C53.2942 100.092 53.7442 99.8417 54.0775 99.575C54.2609 99.6917 54.4025 99.8333 54.5025 100C54.6192 100.15 54.6775 100.325 54.6775 100.525C54.6775 100.842 54.4942 101.142 54.1275 101.425C53.7775 101.692 53.3025 101.908 52.7025 102.075C52.1192 102.242 51.4609 102.325 50.7275 102.325C49.4442 102.325 48.3275 102.092 47.3775 101.625C46.4442 101.158 45.7192 100.467 45.2025 99.55C44.7025 98.6167 44.4525 97.4833 44.4525 96.15C44.4525 95.2 44.5859 94.3583 44.8525 93.625C45.1359 92.875 45.5192 92.2417 46.0025 91.725C46.5025 91.2083 47.0942 90.8167 47.7775 90.55C48.4609 90.2667 49.2025 90.125 50.0025 90.125C51.0192 90.125 51.9109 90.3417 52.6775 90.775C53.4609 91.2083 54.0692 91.8167 54.5025 92.6C54.9525 93.3667 55.1775 94.25 55.1775 95.25C55.1775 95.6167 55.0942 95.8833 54.9275 96.05C54.7609 96.2 54.5275 96.2917 54.2275 96.325L45.8275 97.5ZM62.1664 91.8C61.0331 91.8 60.0914 92.1833 59.3414 92.95C58.5914 93.7167 58.2164 94.8167 58.2164 96.25C58.2164 97.6667 58.5747 98.7583 59.2914 99.525C60.0247 100.292 60.9831 100.675 62.1664 100.675C62.8664 100.675 63.4497 100.583 63.9164 100.4C64.3831 100.2 64.7997 99.975 65.1664 99.725C65.3497 99.825 65.4997 99.95 65.6164 100.1C65.7331 100.25 65.7914 100.433 65.7914 100.65C65.7914 101.117 65.4414 101.517 64.7414 101.85C64.0581 102.167 63.1997 102.325 62.1664 102.325C61.0164 102.325 59.9831 102.108 59.0664 101.675C58.1664 101.225 57.4581 100.55 56.9414 99.65C56.4247 98.75 56.1664 97.6167 56.1664 96.25C56.1664 94.9 56.4331 93.775 56.9664 92.875C57.4997 91.9583 58.2164 91.275 59.1164 90.825C60.0331 90.3583 61.0331 90.125 62.1164 90.125C63.1497 90.125 63.9997 90.3 64.6664 90.65C65.3497 91 65.6914 91.4 65.6914 91.85C65.6914 92.05 65.6331 92.225 65.5164 92.375C65.3997 92.525 65.2497 92.6417 65.0664 92.725C64.6997 92.475 64.2914 92.2583 63.8414 92.075C63.4081 91.8917 62.8497 91.8 62.1664 91.8ZM67.3299 86.8C67.3299 86.45 67.4549 86.1583 67.7049 85.925C67.9549 85.675 68.2632 85.55 68.6299 85.55C69.0132 85.55 69.3215 85.675 69.5549 85.925C69.7882 86.1583 69.9049 86.45 69.9049 86.8C69.9049 87.15 69.7882 87.45 69.5549 87.7C69.3215 87.9333 69.0132 88.05 68.6299 88.05C68.2632 88.05 67.9549 87.9333 67.7049 87.7C67.4549 87.45 67.3299 87.15 67.3299 86.8ZM67.6299 95.4H69.6299V101.95C69.5465 101.983 69.4215 102.017 69.2549 102.05C69.0882 102.1 68.9049 102.125 68.7049 102.125C68.3549 102.125 68.0882 102.058 67.9049 101.925C67.7215 101.775 67.6299 101.542 67.6299 101.225V95.4ZM69.6299 96.375H67.6299V90.5C67.7132 90.4667 67.8382 90.4333 68.0049 90.4C68.1882 90.35 68.3799 90.325 68.5799 90.325C68.9299 90.325 69.1882 90.4 69.3549 90.55C69.5382 90.6833 69.6299 90.9167 69.6299 91.25V96.375ZM77.4352 90.125C78.4685 90.125 79.3935 90.35 80.2102 90.8C81.0435 91.2333 81.6935 91.9 82.1602 92.8C82.6435 93.7 82.8852 94.8417 82.8852 96.225C82.8852 97.625 82.6352 98.775 82.1352 99.675C81.6518 100.575 80.9768 101.242 80.1102 101.675C79.2435 102.108 78.2352 102.325 77.0852 102.325C76.2685 102.325 75.5268 102.225 74.8602 102.025C74.2102 101.825 73.6768 101.608 73.2602 101.375C72.9102 101.142 72.6685 100.925 72.5352 100.725C72.4018 100.525 72.3352 100.25 72.3352 99.9V91.575H74.3352V99.9C74.5852 100.083 74.9518 100.258 75.4352 100.425C75.9185 100.592 76.4685 100.675 77.0852 100.675C78.2185 100.675 79.1268 100.317 79.8102 99.6C80.5102 98.8833 80.8602 97.7583 80.8602 96.225C80.8602 94.675 80.5102 93.55 79.8102 92.85C79.1102 92.1333 78.2185 91.775 77.1352 91.775C76.4685 91.775 75.8768 91.9083 75.3602 92.175C74.8435 92.425 74.4185 92.7167 74.0852 93.05L73.7102 91.425C74.0768 91.1417 74.5685 90.8583 75.1852 90.575C75.8018 90.275 76.5518 90.125 77.4352 90.125ZM74.3352 91.975H72.3352V85.8C72.4185 85.7667 72.5435 85.7333 72.7102 85.7C72.8935 85.65 73.0852 85.625 73.2852 85.625C73.6352 85.625 73.8935 85.7 74.0602 85.85C74.2435 85.9833 74.3352 86.2083 74.3352 86.525V91.975ZM84.5809 86.8C84.5809 86.45 84.7059 86.1583 84.9559 85.925C85.2059 85.675 85.5142 85.55 85.8809 85.55C86.2642 85.55 86.5725 85.675 86.8059 85.925C87.0392 86.1583 87.1559 86.45 87.1559 86.8C87.1559 87.15 87.0392 87.45 86.8059 87.7C86.5725 87.9333 86.2642 88.05 85.8809 88.05C85.5142 88.05 85.2059 87.9333 84.9559 87.7C84.7059 87.45 84.5809 87.15 84.5809 86.8ZM84.8809 95.4H86.8809V101.95C86.7975 101.983 86.6725 102.017 86.5059 102.05C86.3392 102.1 86.1559 102.125 85.9559 102.125C85.6059 102.125 85.3392 102.058 85.1559 101.925C84.9725 101.775 84.8809 101.542 84.8809 101.225V95.4ZM86.8809 96.375H84.8809V90.5C84.9642 90.4667 85.0892 90.4333 85.2559 90.4C85.4392 90.35 85.6309 90.325 85.8309 90.325C86.1809 90.325 86.4392 90.4 86.6059 90.55C86.7892 90.6833 86.8809 90.9167 86.8809 91.25V96.375ZM98.8611 94V96.875H96.8611V94.15C96.8611 93.3333 96.6195 92.7333 96.1361 92.35C95.6695 91.9667 95.0445 91.775 94.2611 91.775C93.7445 91.775 93.2445 91.8583 92.7611 92.025C92.2778 92.1917 91.8695 92.3833 91.5361 92.6V96.875H89.5361V92.7C89.5361 92.3667 89.6028 92.0833 89.7361 91.85C89.8861 91.6167 90.1361 91.3917 90.4861 91.175C90.9361 90.8917 91.5028 90.65 92.1861 90.45C92.8861 90.2333 93.5861 90.125 94.2861 90.125C95.1361 90.125 95.8861 90.2583 96.5361 90.525C97.1861 90.775 97.6695 91.125 97.9861 91.575C98.0861 91.675 98.1695 91.7667 98.2361 91.85C98.3028 91.9333 98.3695 92.0417 98.4361 92.175C98.5528 92.375 98.6528 92.6333 98.7361 92.95C98.8195 93.2667 98.8611 93.6167 98.8611 94ZM106.186 94.05V96.875H104.186V94.15C104.186 93.3333 103.953 92.7333 103.486 92.35C103.019 91.9667 102.394 91.775 101.611 91.775C101.028 91.775 100.461 91.9 99.9111 92.15C99.3778 92.3833 98.8945 92.725 98.4611 93.175L97.6611 91.725C98.0945 91.2917 98.6611 90.9167 99.3611 90.6C100.061 90.2833 100.861 90.125 101.761 90.125C102.661 90.125 103.436 90.2667 104.086 90.55C104.753 90.8333 105.269 91.2667 105.636 91.85C106.003 92.4333 106.186 93.1667 106.186 94.05ZM89.5361 95.55H91.5361V101.95C91.4528 101.983 91.3278 102.017 91.1611 102.05C90.9945 102.1 90.8111 102.125 90.6111 102.125C90.2611 102.125 89.9945 102.058 89.8111 101.925C89.6278 101.775 89.5361 101.542 89.5361 101.225V95.55ZM96.8611 95.55H98.8611V101.95C98.7778 101.983 98.6445 102.017 98.4611 102.05C98.2945 102.1 98.1195 102.125 97.9361 102.125C97.5695 102.125 97.2945 102.058 97.1111 101.925C96.9445 101.775 96.8611 101.542 96.8611 101.225V95.55ZM104.186 95.55H106.186V101.95C106.103 101.983 105.969 102.017 105.786 102.05C105.619 102.1 105.444 102.125 105.261 102.125C104.894 102.125 104.619 102.058 104.436 101.925C104.269 101.775 104.186 101.542 104.186 101.225V95.55ZM119.421 96.225C119.421 97.4583 119.188 98.5333 118.721 99.45C118.255 100.367 117.596 101.075 116.746 101.575C115.896 102.075 114.896 102.325 113.746 102.325C112.596 102.325 111.588 102.075 110.721 101.575C109.871 101.075 109.213 100.367 108.746 99.45C108.28 98.5333 108.046 97.4583 108.046 96.225C108.046 94.975 108.28 93.9 108.746 93C109.23 92.0833 109.896 91.375 110.746 90.875C111.613 90.375 112.613 90.125 113.746 90.125C114.88 90.125 115.871 90.375 116.721 90.875C117.571 91.375 118.23 92.0833 118.696 93C119.18 93.9 119.421 94.975 119.421 96.225ZM113.746 91.775C112.63 91.775 111.738 92.175 111.071 92.975C110.421 93.7583 110.096 94.8417 110.096 96.225C110.096 97.625 110.413 98.7167 111.046 99.5C111.696 100.283 112.596 100.675 113.746 100.675C114.88 100.675 115.763 100.283 116.396 99.5C117.046 98.7 117.371 97.6083 117.371 96.225C117.371 94.8417 117.046 93.7583 116.396 92.975C115.763 92.175 114.88 91.775 113.746 91.775ZM129.415 98.925C129.415 99.9917 129.023 100.825 128.24 101.425C127.456 102.025 126.323 102.325 124.84 102.325C123.573 102.325 122.54 102.133 121.74 101.75C120.94 101.35 120.54 100.917 120.54 100.45C120.54 100.25 120.59 100.058 120.69 99.875C120.806 99.675 120.973 99.5167 121.19 99.4C121.64 99.7167 122.165 100.008 122.765 100.275C123.365 100.542 124.048 100.675 124.815 100.675C126.548 100.675 127.415 100.092 127.415 98.925C127.415 98.4417 127.265 98.05 126.965 97.75C126.681 97.4333 126.256 97.2083 125.69 97.075L123.615 96.525C122.598 96.275 121.856 95.8917 121.39 95.375C120.923 94.8417 120.69 94.1833 120.69 93.4C120.69 92.5167 121.048 91.75 121.765 91.1C122.481 90.45 123.573 90.125 125.04 90.125C125.823 90.125 126.506 90.2083 127.09 90.375C127.673 90.525 128.123 90.7333 128.44 91C128.773 91.25 128.94 91.525 128.94 91.825C128.94 92.0417 128.881 92.2333 128.765 92.4C128.665 92.5667 128.523 92.6917 128.34 92.775C128.14 92.6417 127.881 92.5 127.565 92.35C127.265 92.1833 126.906 92.05 126.49 91.95C126.073 91.8333 125.615 91.775 125.115 91.775C124.381 91.775 123.79 91.9167 123.34 92.2C122.89 92.4833 122.665 92.8833 122.665 93.4C122.665 93.7667 122.79 94.0917 123.04 94.375C123.306 94.6417 123.723 94.8417 124.29 94.975L126.015 95.4C127.148 95.6667 127.998 96.0917 128.565 96.675C129.131 97.2417 129.415 97.9917 129.415 98.925ZM134.976 95.4H136.976V98.85C136.976 99.5167 137.168 99.9917 137.551 100.275C137.935 100.542 138.46 100.675 139.126 100.675C139.41 100.675 139.726 100.625 140.076 100.525C140.426 100.425 140.718 100.308 140.951 100.175C141.051 100.275 141.143 100.4 141.226 100.55C141.31 100.7 141.351 100.875 141.351 101.075C141.351 101.442 141.135 101.742 140.701 101.975C140.268 102.208 139.668 102.325 138.901 102.325C137.735 102.325 136.785 102.067 136.051 101.55C135.335 101.033 134.976 100.175 134.976 98.975V95.4ZM136.001 92.35V90.7H141.076C141.126 90.7667 141.176 90.875 141.226 91.025C141.276 91.175 141.301 91.3333 141.301 91.5C141.301 91.7667 141.235 91.975 141.101 92.125C140.968 92.275 140.785 92.35 140.551 92.35H136.001ZM136.976 96.15H134.976V87.1C135.06 87.0667 135.185 87.0333 135.351 87C135.535 86.95 135.726 86.925 135.926 86.925C136.276 86.925 136.535 87 136.701 87.15C136.885 87.2833 136.976 87.5083 136.976 87.825V96.15ZM142.881 97.775V95.5H144.881V97.675C144.881 98.7417 145.164 99.5083 145.731 99.975C146.298 100.442 147.081 100.675 148.081 100.675C148.748 100.675 149.314 100.608 149.781 100.475C150.248 100.325 150.614 100.175 150.881 100.025V95.5H152.881V99.95C152.881 100.3 152.831 100.583 152.731 100.8C152.648 101 152.431 101.2 152.081 101.4C151.714 101.617 151.189 101.825 150.506 102.025C149.823 102.225 149.006 102.325 148.056 102.325C146.956 102.325 146.014 102.167 145.231 101.85C144.464 101.517 143.881 101.017 143.481 100.35C143.081 99.6667 142.881 98.8083 142.881 97.775ZM152.881 96.8H150.881V90.5C150.964 90.4667 151.089 90.4333 151.256 90.4C151.439 90.35 151.623 90.325 151.806 90.325C152.173 90.325 152.439 90.4 152.606 90.55C152.789 90.6833 152.881 90.9167 152.881 91.25V96.8ZM144.881 96.8H142.881V90.5C142.964 90.4667 143.089 90.4333 143.256 90.4C143.439 90.35 143.631 90.325 143.831 90.325C144.181 90.325 144.439 90.4 144.606 90.55C144.789 90.6833 144.881 90.9167 144.881 91.25V96.8ZM163.526 98.925C163.526 99.9917 163.134 100.825 162.351 101.425C161.568 102.025 160.434 102.325 158.951 102.325C157.684 102.325 156.651 102.133 155.851 101.75C155.051 101.35 154.651 100.917 154.651 100.45C154.651 100.25 154.701 100.058 154.801 99.875C154.918 99.675 155.084 99.5167 155.301 99.4C155.751 99.7167 156.276 100.008 156.876 100.275C157.476 100.542 158.159 100.675 158.926 100.675C160.659 100.675 161.526 100.092 161.526 98.925C161.526 98.4417 161.376 98.05 161.076 97.75C160.793 97.4333 160.368 97.2083 159.801 97.075L157.726 96.525C156.709 96.275 155.968 95.8917 155.501 95.375C155.034 94.8417 154.801 94.1833 154.801 93.4C154.801 92.5167 155.159 91.75 155.876 91.1C156.593 90.45 157.684 90.125 159.151 90.125C159.934 90.125 160.618 90.2083 161.201 90.375C161.784 90.525 162.234 90.7333 162.551 91C162.884 91.25 163.051 91.525 163.051 91.825C163.051 92.0417 162.993 92.2333 162.876 92.4C162.776 92.5667 162.634 92.6917 162.451 92.775C162.251 92.6417 161.993 92.5 161.676 92.35C161.376 92.1833 161.018 92.05 160.601 91.95C160.184 91.8333 159.726 91.775 159.226 91.775C158.493 91.775 157.901 91.9167 157.451 92.2C157.001 92.4833 156.776 92.8833 156.776 93.4C156.776 93.7667 156.901 94.0917 157.151 94.375C157.418 94.6417 157.834 94.8417 158.401 94.975L160.126 95.4C161.259 95.6667 162.109 96.0917 162.676 96.675C163.243 97.2417 163.526 97.9917 163.526 98.925ZM173.988 102.325C173.271 102.325 172.596 102.217 171.963 102C171.346 101.8 170.896 101.575 170.613 101.325V99.475C170.946 99.7917 171.363 100.075 171.863 100.325C172.379 100.558 172.996 100.675 173.713 100.675C174.879 100.675 175.813 100.325 176.513 99.625C177.229 98.9083 177.588 97.7667 177.588 96.2C177.588 95.1 177.404 94.2333 177.038 93.6C176.688 92.95 176.213 92.4833 175.613 92.2C175.029 91.9167 174.396 91.775 173.713 91.775C173.113 91.775 172.604 91.85 172.188 92C171.771 92.15 171.396 92.3167 171.063 92.5V100.8H169.063V92.55C169.063 92.2167 169.121 91.95 169.238 91.75C169.354 91.55 169.596 91.3417 169.963 91.125C170.413 90.875 170.946 90.65 171.563 90.45C172.196 90.2333 172.913 90.125 173.713 90.125C174.813 90.125 175.804 90.3417 176.688 90.775C177.588 91.1917 178.296 91.85 178.813 92.75C179.346 93.6333 179.613 94.7833 179.613 96.2C179.613 97.5667 179.371 98.7083 178.888 99.625C178.421 100.525 177.763 101.2 176.913 101.65C176.063 102.1 175.088 102.325 173.988 102.325ZM170.138 106.675C169.788 106.675 169.521 106.6 169.338 106.45C169.154 106.3 169.063 106.067 169.063 105.75V100.075L171.063 100.125V106.5C170.979 106.533 170.854 106.567 170.688 106.6C170.521 106.65 170.338 106.675 170.138 106.675ZM183.46 92.6V96.55H181.46V92.75C181.46 92.3667 181.527 92.0667 181.66 91.85C181.81 91.6167 182.052 91.3917 182.385 91.175C182.818 90.8917 183.41 90.65 184.16 90.45C184.91 90.2333 185.743 90.125 186.66 90.125C187.993 90.125 188.66 90.4583 188.66 91.125C188.66 91.2917 188.635 91.45 188.585 91.6C188.535 91.7333 188.468 91.85 188.385 91.95C188.218 91.9167 188.002 91.8833 187.735 91.85C187.468 91.8167 187.202 91.8 186.935 91.8C186.168 91.8 185.493 91.8833 184.91 92.05C184.327 92.2 183.843 92.3833 183.46 92.6ZM181.46 95.4L183.46 95.7V101.95C183.377 101.983 183.252 102.017 183.085 102.05C182.918 102.1 182.735 102.125 182.535 102.125C182.185 102.125 181.918 102.058 181.735 101.925C181.552 101.775 181.46 101.542 181.46 101.225V95.4ZM200.237 96.225C200.237 97.4583 200.003 98.5333 199.537 99.45C199.07 100.367 198.412 101.075 197.562 101.575C196.712 102.075 195.712 102.325 194.562 102.325C193.412 102.325 192.403 102.075 191.537 101.575C190.687 101.075 190.028 100.367 189.562 99.45C189.095 98.5333 188.862 97.4583 188.862 96.225C188.862 94.975 189.095 93.9 189.562 93C190.045 92.0833 190.712 91.375 191.562 90.875C192.428 90.375 193.428 90.125 194.562 90.125C195.695 90.125 196.687 90.375 197.537 90.875C198.387 91.375 199.045 92.0833 199.512 93C199.995 93.9 200.237 94.975 200.237 96.225ZM194.562 91.775C193.445 91.775 192.553 92.175 191.887 92.975C191.237 93.7583 190.912 94.8417 190.912 96.225C190.912 97.625 191.228 98.7167 191.862 99.5C192.512 100.283 193.412 100.675 194.562 100.675C195.695 100.675 196.578 100.283 197.212 99.5C197.862 98.7 198.187 97.6083 198.187 96.225C198.187 94.8417 197.862 93.7583 197.212 92.975C196.578 92.175 195.695 91.775 194.562 91.775ZM209.955 100.025V91.625L211.955 91.6V100.1C211.955 100.417 211.88 100.675 211.73 100.875C211.597 101.058 211.38 101.242 211.08 101.425C210.747 101.642 210.272 101.842 209.655 102.025C209.038 102.225 208.33 102.325 207.53 102.325C206.33 102.325 205.272 102.117 204.355 101.7C203.438 101.283 202.722 100.633 202.205 99.75C201.688 98.85 201.43 97.6917 201.43 96.275C201.43 94.825 201.68 93.65 202.18 92.75C202.697 91.85 203.388 91.1917 204.255 90.775C205.122 90.3417 206.072 90.125 207.105 90.125C207.755 90.125 208.372 90.2167 208.955 90.4C209.538 90.5833 209.997 90.8083 210.33 91.075V92.925C210.013 92.6083 209.597 92.3417 209.08 92.125C208.58 91.8917 207.988 91.775 207.305 91.775C206.622 91.775 205.988 91.925 205.405 92.225C204.822 92.5083 204.355 92.9833 204.005 93.65C203.655 94.3167 203.48 95.2083 203.48 96.325C203.48 97.8417 203.847 98.95 204.58 99.65C205.313 100.333 206.288 100.675 207.505 100.675C208.088 100.675 208.563 100.617 208.93 100.5C209.313 100.367 209.655 100.208 209.955 100.025ZM211.955 92.1L209.955 92.125V85.8C210.038 85.7667 210.163 85.7333 210.33 85.7C210.513 85.65 210.697 85.625 210.88 85.625C211.247 85.625 211.513 85.7 211.68 85.85C211.863 85.9833 211.955 86.2083 211.955 86.525V92.1ZM214.502 97.775V95.5H216.502V97.675C216.502 98.7417 216.785 99.5083 217.352 99.975C217.919 100.442 218.702 100.675 219.702 100.675C220.369 100.675 220.935 100.608 221.402 100.475C221.869 100.325 222.235 100.175 222.502 100.025V95.5H224.502V99.95C224.502 100.3 224.452 100.583 224.352 100.8C224.269 101 224.052 101.2 223.702 101.4C223.335 101.617 222.81 101.825 222.127 102.025C221.444 102.225 220.627 102.325 219.677 102.325C218.577 102.325 217.635 102.167 216.852 101.85C216.085 101.517 215.502 101.017 215.102 100.35C214.702 99.6667 214.502 98.8083 214.502 97.775ZM224.502 96.8H222.502V90.5C222.585 90.4667 222.71 90.4333 222.877 90.4C223.06 90.35 223.244 90.325 223.427 90.325C223.794 90.325 224.06 90.4 224.227 90.55C224.41 90.6833 224.502 90.9167 224.502 91.25V96.8ZM216.502 96.8H214.502V90.5C214.585 90.4667 214.71 90.4333 214.877 90.4C215.06 90.35 215.252 90.325 215.452 90.325C215.802 90.325 216.06 90.4 216.227 90.55C216.41 90.6833 216.502 90.9167 216.502 91.25V96.8ZM232.347 91.8C231.214 91.8 230.272 92.1833 229.522 92.95C228.772 93.7167 228.397 94.8167 228.397 96.25C228.397 97.6667 228.755 98.7583 229.472 99.525C230.205 100.292 231.164 100.675 232.347 100.675C233.047 100.675 233.63 100.583 234.097 100.4C234.564 100.2 234.98 99.975 235.347 99.725C235.53 99.825 235.68 99.95 235.797 100.1C235.914 100.25 235.972 100.433 235.972 100.65C235.972 101.117 235.622 101.517 234.922 101.85C234.239 102.167 233.38 102.325 232.347 102.325C231.197 102.325 230.164 102.108 229.247 101.675C228.347 101.225 227.639 100.55 227.122 99.65C226.605 98.75 226.347 97.6167 226.347 96.25C226.347 94.9 226.614 93.775 227.147 92.875C227.68 91.9583 228.397 91.275 229.297 90.825C230.214 90.3583 231.214 90.125 232.297 90.125C233.33 90.125 234.18 90.3 234.847 90.65C235.53 91 235.872 91.4 235.872 91.85C235.872 92.05 235.814 92.225 235.697 92.375C235.58 92.525 235.43 92.6417 235.247 92.725C234.88 92.475 234.472 92.2583 234.022 92.075C233.589 91.8917 233.03 91.8 232.347 91.8ZM237.711 95.4H239.711V98.85C239.711 99.5167 239.902 99.9917 240.286 100.275C240.669 100.542 241.194 100.675 241.861 100.675C242.144 100.675 242.461 100.625 242.811 100.525C243.161 100.425 243.452 100.308 243.686 100.175C243.786 100.275 243.877 100.4 243.961 100.55C244.044 100.7 244.086 100.875 244.086 101.075C244.086 101.442 243.869 101.742 243.436 101.975C243.002 102.208 242.402 102.325 241.636 102.325C240.469 102.325 239.519 102.067 238.786 101.55C238.069 101.033 237.711 100.175 237.711 98.975V95.4ZM238.736 92.35V90.7H243.811C243.861 90.7667 243.911 90.875 243.961 91.025C244.011 91.175 244.036 91.3333 244.036 91.5C244.036 91.7667 243.969 91.975 243.836 92.125C243.702 92.275 243.519 92.35 243.286 92.35H238.736ZM239.711 96.15H237.711V87.1C237.794 87.0667 237.919 87.0333 238.086 87C238.269 86.95 238.461 86.925 238.661 86.925C239.011 86.925 239.269 87 239.436 87.15C239.619 87.2833 239.711 87.5083 239.711 87.825V96.15ZM256.096 96.225C256.096 97.4583 255.863 98.5333 255.396 99.45C254.929 100.367 254.271 101.075 253.421 101.575C252.571 102.075 251.571 102.325 250.421 102.325C249.271 102.325 248.263 102.075 247.396 101.575C246.546 101.075 245.888 100.367 245.421 99.45C244.954 98.5333 244.721 97.4583 244.721 96.225C244.721 94.975 244.954 93.9 245.421 93C245.904 92.0833 246.571 91.375 247.421 90.875C248.288 90.375 249.288 90.125 250.421 90.125C251.554 90.125 252.546 90.375 253.396 90.875C254.246 91.375 254.904 92.0833 255.371 93C255.854 93.9 256.096 94.975 256.096 96.225ZM250.421 91.775C249.304 91.775 248.413 92.175 247.746 92.975C247.096 93.7583 246.771 94.8417 246.771 96.225C246.771 97.625 247.088 98.7167 247.721 99.5C248.371 100.283 249.271 100.675 250.421 100.675C251.554 100.675 252.438 100.283 253.071 99.5C253.721 98.7 254.046 97.6083 254.046 96.225C254.046 94.8417 253.721 93.7583 253.071 92.975C252.438 92.175 251.554 91.775 250.421 91.775ZM266.089 98.925C266.089 99.9917 265.698 100.825 264.914 101.425C264.131 102.025 262.998 102.325 261.514 102.325C260.248 102.325 259.214 102.133 258.414 101.75C257.614 101.35 257.214 100.917 257.214 100.45C257.214 100.25 257.264 100.058 257.364 99.875C257.481 99.675 257.648 99.5167 257.864 99.4C258.314 99.7167 258.839 100.008 259.439 100.275C260.039 100.542 260.723 100.675 261.489 100.675C263.223 100.675 264.089 100.092 264.089 98.925C264.089 98.4417 263.939 98.05 263.639 97.75C263.356 97.4333 262.931 97.2083 262.364 97.075L260.289 96.525C259.273 96.275 258.531 95.8917 258.064 95.375C257.598 94.8417 257.364 94.1833 257.364 93.4C257.364 92.5167 257.723 91.75 258.439 91.1C259.156 90.45 260.248 90.125 261.714 90.125C262.498 90.125 263.181 90.2083 263.764 90.375C264.348 90.525 264.798 90.7333 265.114 91C265.448 91.25 265.614 91.525 265.614 91.825C265.614 92.0417 265.556 92.2333 265.439 92.4C265.339 92.5667 265.198 92.6917 265.014 92.775C264.814 92.6417 264.556 92.5 264.239 92.35C263.939 92.1833 263.581 92.05 263.164 91.95C262.748 91.8333 262.289 91.775 261.789 91.775C261.056 91.775 260.464 91.9167 260.014 92.2C259.564 92.4833 259.339 92.8833 259.339 93.4C259.339 93.7667 259.464 94.0917 259.714 94.375C259.981 94.6417 260.398 94.8417 260.964 94.975L262.689 95.4C263.823 95.6667 264.673 96.0917 265.239 96.675C265.806 97.2417 266.089 97.9917 266.089 98.925ZM272.351 97.5L272.251 95.925L279.801 94.9C279.734 93.9833 279.418 93.2333 278.851 92.65C278.284 92.05 277.501 91.75 276.501 91.75C275.468 91.75 274.609 92.125 273.926 92.875C273.259 93.6083 272.926 94.6667 272.926 96.05V96.6C273.043 97.9333 273.476 98.95 274.226 99.65C274.993 100.333 276.034 100.675 277.351 100.675C278.051 100.675 278.684 100.558 279.251 100.325C279.818 100.092 280.268 99.8417 280.601 99.575C280.784 99.6917 280.926 99.8333 281.026 100C281.143 100.15 281.201 100.325 281.201 100.525C281.201 100.842 281.018 101.142 280.651 101.425C280.301 101.692 279.826 101.908 279.226 102.075C278.643 102.242 277.984 102.325 277.251 102.325C275.968 102.325 274.851 102.092 273.901 101.625C272.968 101.158 272.243 100.467 271.726 99.55C271.226 98.6167 270.976 97.4833 270.976 96.15C270.976 95.2 271.109 94.3583 271.376 93.625C271.659 92.875 272.043 92.2417 272.526 91.725C273.026 91.2083 273.618 90.8167 274.301 90.55C274.984 90.2667 275.726 90.125 276.526 90.125C277.543 90.125 278.434 90.3417 279.201 90.775C279.984 91.2083 280.593 91.8167 281.026 92.6C281.476 93.3667 281.701 94.25 281.701 95.25C281.701 95.6167 281.618 95.8833 281.451 96.05C281.284 96.2 281.051 96.2917 280.751 96.325L272.351 97.5ZM293.34 94.375V96.925H291.34V94.475C291.34 93.5417 291.073 92.8583 290.54 92.425C290.023 91.9917 289.323 91.775 288.44 91.775C287.773 91.775 287.182 91.8583 286.665 92.025C286.148 92.1917 285.707 92.3833 285.34 92.6V96.925H283.34V92.7C283.34 92.35 283.407 92.0667 283.54 91.85C283.69 91.6167 283.94 91.3917 284.29 91.175C284.723 90.925 285.298 90.6917 286.015 90.475C286.732 90.2417 287.54 90.125 288.44 90.125C289.957 90.125 291.148 90.475 292.015 91.175C292.898 91.8583 293.34 92.925 293.34 94.375ZM283.34 95.55H285.34V101.95C285.257 101.983 285.132 102.017 284.965 102.05C284.798 102.1 284.615 102.125 284.415 102.125C284.065 102.125 283.798 102.058 283.615 101.925C283.432 101.775 283.34 101.542 283.34 101.225V95.55ZM291.34 95.55H293.34V101.95C293.257 101.983 293.123 102.017 292.94 102.05C292.773 102.1 292.598 102.125 292.415 102.125C292.048 102.125 291.773 102.058 291.59 101.925C291.423 101.775 291.34 101.542 291.34 101.225V95.55ZM41.875 119.375V121.925H39.875V119.475C39.875 118.542 39.6083 117.858 39.075 117.425C38.5583 116.992 37.8583 116.775 36.975 116.775C36.3083 116.775 35.7167 116.858 35.2 117.025C34.6833 117.192 34.2417 117.383 33.875 117.6V121.925H31.875V117.7C31.875 117.35 31.9417 117.067 32.075 116.85C32.225 116.617 32.475 116.392 32.825 116.175C33.2583 115.925 33.8333 115.692 34.55 115.475C35.2667 115.242 36.075 115.125 36.975 115.125C38.4917 115.125 39.6833 115.475 40.55 116.175C41.4333 116.858 41.875 117.925 41.875 119.375ZM31.875 120.55H33.875V126.95C33.7917 126.983 33.6667 127.017 33.5 127.05C33.3333 127.1 33.15 127.125 32.95 127.125C32.6 127.125 32.3333 127.058 32.15 126.925C31.9667 126.775 31.875 126.542 31.875 126.225V120.55ZM39.875 120.55H41.875V126.95C41.7917 126.983 41.6583 127.017 41.475 127.05C41.3083 127.1 41.1333 127.125 40.95 127.125C40.5833 127.125 40.3083 127.058 40.125 126.925C39.9583 126.775 39.875 126.542 39.875 126.225V120.55ZM44.3701 122.775V120.5H46.3701V122.675C46.3701 123.742 46.6535 124.508 47.2201 124.975C47.7868 125.442 48.5701 125.675 49.5701 125.675C50.2368 125.675 50.8035 125.608 51.2701 125.475C51.7368 125.325 52.1035 125.175 52.3701 125.025V120.5H54.3701V124.95C54.3701 125.3 54.3201 125.583 54.2201 125.8C54.1368 126 53.9201 126.2 53.5701 126.4C53.2035 126.617 52.6785 126.825 51.9951 127.025C51.3118 127.225 50.4951 127.325 49.5451 127.325C48.4451 127.325 47.5035 127.167 46.7201 126.85C45.9535 126.517 45.3701 126.017 44.9701 125.35C44.5701 124.667 44.3701 123.808 44.3701 122.775ZM54.3701 121.8H52.3701V115.5C52.4535 115.467 52.5785 115.433 52.7451 115.4C52.9285 115.35 53.1118 115.325 53.2951 115.325C53.6618 115.325 53.9285 115.4 54.0951 115.55C54.2785 115.683 54.3701 115.917 54.3701 116.25V121.8ZM46.3701 121.8H44.3701V115.5C44.4535 115.467 44.5785 115.433 44.7451 115.4C44.9285 115.35 45.1201 115.325 45.3201 115.325C45.6701 115.325 45.9285 115.4 46.0951 115.55C46.2785 115.683 46.3701 115.917 46.3701 116.25V121.8ZM57.5902 122.5L57.4902 120.925L65.0402 119.9C64.9736 118.983 64.6569 118.233 64.0902 117.65C63.5236 117.05 62.7402 116.75 61.7402 116.75C60.7069 116.75 59.8486 117.125 59.1652 117.875C58.4986 118.608 58.1652 119.667 58.1652 121.05V121.6C58.2819 122.933 58.7152 123.95 59.4652 124.65C60.2319 125.333 61.2736 125.675 62.5902 125.675C63.2902 125.675 63.9236 125.558 64.4902 125.325C65.0569 125.092 65.5069 124.842 65.8402 124.575C66.0236 124.692 66.1652 124.833 66.2652 125C66.3819 125.15 66.4402 125.325 66.4402 125.525C66.4402 125.842 66.2569 126.142 65.8902 126.425C65.5402 126.692 65.0652 126.908 64.4652 127.075C63.8819 127.242 63.2236 127.325 62.4902 127.325C61.2069 127.325 60.0902 127.092 59.1402 126.625C58.2069 126.158 57.4819 125.467 56.9652 124.55C56.4652 123.617 56.2152 122.483 56.2152 121.15C56.2152 120.2 56.3486 119.358 56.6152 118.625C56.8986 117.875 57.2819 117.242 57.7652 116.725C58.2652 116.208 58.8569 115.817 59.5402 115.55C60.2236 115.267 60.9652 115.125 61.7652 115.125C62.7819 115.125 63.6736 115.342 64.4402 115.775C65.2236 116.208 65.8319 116.817 66.2652 117.6C66.7152 118.367 66.9402 119.25 66.9402 120.25C66.9402 120.617 66.8569 120.883 66.6902 121.05C66.5236 121.2 66.2902 121.292 65.9902 121.325L57.5902 122.5ZM76.8756 123.925C76.8756 124.992 76.4839 125.825 75.7006 126.425C74.9173 127.025 73.7839 127.325 72.3006 127.325C71.0339 127.325 70.0006 127.133 69.2006 126.75C68.4006 126.35 68.0006 125.917 68.0006 125.45C68.0006 125.25 68.0506 125.058 68.1506 124.875C68.2673 124.675 68.4339 124.517 68.6506 124.4C69.1006 124.717 69.6256 125.008 70.2256 125.275C70.8256 125.542 71.5089 125.675 72.2756 125.675C74.0089 125.675 74.8756 125.092 74.8756 123.925C74.8756 123.442 74.7256 123.05 74.4256 122.75C74.1423 122.433 73.7173 122.208 73.1506 122.075L71.0756 121.525C70.0589 121.275 69.3173 120.892 68.8506 120.375C68.3839 119.842 68.1506 119.183 68.1506 118.4C68.1506 117.517 68.5089 116.75 69.2256 116.1C69.9423 115.45 71.0339 115.125 72.5006 115.125C73.2839 115.125 73.9673 115.208 74.5506 115.375C75.1339 115.525 75.5839 115.733 75.9006 116C76.2339 116.25 76.4006 116.525 76.4006 116.825C76.4006 117.042 76.3423 117.233 76.2256 117.4C76.1256 117.567 75.9839 117.692 75.8006 117.775C75.6006 117.642 75.3423 117.5 75.0256 117.35C74.7256 117.183 74.3673 117.05 73.9506 116.95C73.5339 116.833 73.0756 116.775 72.5756 116.775C71.8423 116.775 71.2506 116.917 70.8006 117.2C70.3506 117.483 70.1256 117.883 70.1256 118.4C70.1256 118.767 70.2506 119.092 70.5006 119.375C70.7673 119.642 71.1839 119.842 71.7506 119.975L73.4756 120.4C74.6089 120.667 75.4589 121.092 76.0256 121.675C76.5923 122.242 76.8756 122.992 76.8756 123.925ZM78.6822 120.4H80.6822V123.85C80.6822 124.517 80.8739 124.992 81.2572 125.275C81.6406 125.542 82.1656 125.675 82.8322 125.675C83.1156 125.675 83.4322 125.625 83.7822 125.525C84.1322 125.425 84.4239 125.308 84.6572 125.175C84.7572 125.275 84.8489 125.4 84.9322 125.55C85.0156 125.7 85.0572 125.875 85.0572 126.075C85.0572 126.442 84.8406 126.742 84.4072 126.975C83.9739 127.208 83.3739 127.325 82.6072 127.325C81.4406 127.325 80.4906 127.067 79.7572 126.55C79.0406 126.033 78.6822 125.175 78.6822 123.975V120.4ZM79.7072 117.35V115.7H84.7822C84.8322 115.767 84.8822 115.875 84.9322 116.025C84.9822 116.175 85.0072 116.333 85.0072 116.5C85.0072 116.767 84.9406 116.975 84.8072 117.125C84.6739 117.275 84.4906 117.35 84.2572 117.35H79.7072ZM80.6822 121.15H78.6822V112.1C78.7656 112.067 78.8906 112.033 79.0572 112C79.2406 111.95 79.4322 111.925 79.6322 111.925C79.9822 111.925 80.2406 112 80.4072 112.15C80.5906 112.283 80.6822 112.508 80.6822 112.825V121.15ZM88.709 117.6V121.55H86.709V117.75C86.709 117.367 86.7757 117.067 86.909 116.85C87.059 116.617 87.3007 116.392 87.634 116.175C88.0673 115.892 88.659 115.65 89.409 115.45C90.159 115.233 90.9923 115.125 91.909 115.125C93.2423 115.125 93.909 115.458 93.909 116.125C93.909 116.292 93.884 116.45 93.834 116.6C93.784 116.733 93.7173 116.85 93.634 116.95C93.4673 116.917 93.2507 116.883 92.984 116.85C92.7173 116.817 92.4507 116.8 92.184 116.8C91.4173 116.8 90.7423 116.883 90.159 117.05C89.5757 117.2 89.0923 117.383 88.709 117.6ZM86.709 120.4L88.709 120.7V126.95C88.6257 126.983 88.5007 127.017 88.334 127.05C88.1673 127.1 87.984 127.125 87.784 127.125C87.434 127.125 87.1673 127.058 86.984 126.925C86.8007 126.775 86.709 126.542 86.709 126.225V120.4ZM105.486 121.225C105.486 122.458 105.252 123.533 104.786 124.45C104.319 125.367 103.661 126.075 102.811 126.575C101.961 127.075 100.961 127.325 99.8107 127.325C98.6607 127.325 97.6524 127.075 96.7857 126.575C95.9357 126.075 95.2774 125.367 94.8107 124.45C94.3441 123.533 94.1107 122.458 94.1107 121.225C94.1107 119.975 94.3441 118.9 94.8107 118C95.2941 117.083 95.9607 116.375 96.8107 115.875C97.6774 115.375 98.6774 115.125 99.8107 115.125C100.944 115.125 101.936 115.375 102.786 115.875C103.636 116.375 104.294 117.083 104.761 118C105.244 118.9 105.486 119.975 105.486 121.225ZM99.8107 116.775C98.6941 116.775 97.8024 117.175 97.1357 117.975C96.4857 118.758 96.1607 119.842 96.1607 121.225C96.1607 122.625 96.4774 123.717 97.1107 124.5C97.7607 125.283 98.6607 125.675 99.8107 125.675C100.944 125.675 101.827 125.283 102.461 124.5C103.111 123.7 103.436 122.608 103.436 121.225C103.436 119.842 103.111 118.758 102.461 117.975C101.827 117.175 100.944 116.775 99.8107 116.775ZM115.209 127.35C113.642 127.35 112.426 127.042 111.559 126.425C110.709 125.808 110.284 124.917 110.284 123.75C110.284 122.667 110.642 121.842 111.359 121.275C112.092 120.692 113.101 120.342 114.384 120.225L117.934 119.875V119.175C117.934 118.342 117.684 117.733 117.184 117.35C116.684 116.967 116.009 116.775 115.159 116.775C114.476 116.775 113.817 116.875 113.184 117.075C112.567 117.275 112.017 117.5 111.534 117.75C111.401 117.633 111.276 117.5 111.159 117.35C111.059 117.183 111.009 117.017 111.009 116.85C111.009 116.417 111.251 116.083 111.734 115.85C112.184 115.617 112.701 115.442 113.284 115.325C113.884 115.192 114.517 115.125 115.184 115.125C116.634 115.125 117.784 115.45 118.634 116.1C119.484 116.75 119.909 117.775 119.909 119.175V125.1C119.909 125.467 119.834 125.75 119.684 125.95C119.551 126.133 119.342 126.308 119.059 126.475C118.659 126.692 118.126 126.892 117.459 127.075C116.792 127.258 116.042 127.35 115.209 127.35ZM115.209 125.7C115.909 125.7 116.484 125.633 116.934 125.5C117.401 125.35 117.734 125.208 117.934 125.075V121.45L114.834 121.775C113.967 121.842 113.326 122.033 112.909 122.35C112.492 122.667 112.284 123.125 112.284 123.725C112.284 124.342 112.526 124.825 113.009 125.175C113.509 125.525 114.242 125.7 115.209 125.7ZM122.51 120.4L124.51 120.7V126.95C124.426 126.983 124.301 127.017 124.135 127.05C123.968 127.1 123.785 127.125 123.585 127.125C123.235 127.125 122.968 127.058 122.785 126.925C122.601 126.775 122.51 126.542 122.51 126.225V120.4ZM124.51 121.65L122.51 121.375V110.8C122.593 110.767 122.718 110.733 122.885 110.7C123.068 110.65 123.251 110.625 123.435 110.625C123.801 110.625 124.068 110.7 124.235 110.85C124.418 110.983 124.51 111.208 124.51 111.525V121.65ZM136.537 119V121.875H134.537V119.15C134.537 118.333 134.295 117.733 133.812 117.35C133.345 116.967 132.72 116.775 131.937 116.775C131.42 116.775 130.92 116.858 130.437 117.025C129.954 117.192 129.545 117.383 129.212 117.6V121.875H127.212V117.7C127.212 117.367 127.279 117.083 127.412 116.85C127.562 116.617 127.812 116.392 128.162 116.175C128.612 115.892 129.179 115.65 129.862 115.45C130.562 115.233 131.262 115.125 131.962 115.125C132.812 115.125 133.562 115.258 134.212 115.525C134.862 115.775 135.345 116.125 135.662 116.575C135.762 116.675 135.845 116.767 135.912 116.85C135.979 116.933 136.045 117.042 136.112 117.175C136.229 117.375 136.329 117.633 136.412 117.95C136.495 118.267 136.537 118.617 136.537 119ZM143.862 119.05V121.875H141.862V119.15C141.862 118.333 141.629 117.733 141.162 117.35C140.695 116.967 140.07 116.775 139.287 116.775C138.704 116.775 138.137 116.9 137.587 117.15C137.054 117.383 136.57 117.725 136.137 118.175L135.337 116.725C135.77 116.292 136.337 115.917 137.037 115.6C137.737 115.283 138.537 115.125 139.437 115.125C140.337 115.125 141.112 115.267 141.762 115.55C142.429 115.833 142.945 116.267 143.312 116.85C143.679 117.433 143.862 118.167 143.862 119.05ZM127.212 120.55H129.212V126.95C129.129 126.983 129.004 127.017 128.837 127.05C128.67 127.1 128.487 127.125 128.287 127.125C127.937 127.125 127.67 127.058 127.487 126.925C127.304 126.775 127.212 126.542 127.212 126.225V120.55ZM134.537 120.55H136.537V126.95C136.454 126.983 136.32 127.017 136.137 127.05C135.97 127.1 135.795 127.125 135.612 127.125C135.245 127.125 134.97 127.058 134.787 126.925C134.62 126.775 134.537 126.542 134.537 126.225V120.55ZM141.862 120.55H143.862V126.95C143.779 126.983 143.645 127.017 143.462 127.05C143.295 127.1 143.12 127.125 142.937 127.125C142.57 127.125 142.295 127.058 142.112 126.925C141.945 126.775 141.862 126.542 141.862 126.225V120.55ZM150.497 127.35C148.93 127.35 147.714 127.042 146.847 126.425C145.997 125.808 145.572 124.917 145.572 123.75C145.572 122.667 145.93 121.842 146.647 121.275C147.38 120.692 148.389 120.342 149.672 120.225L153.222 119.875V119.175C153.222 118.342 152.972 117.733 152.472 117.35C151.972 116.967 151.297 116.775 150.447 116.775C149.764 116.775 149.105 116.875 148.472 117.075C147.855 117.275 147.305 117.5 146.822 117.75C146.689 117.633 146.564 117.5 146.447 117.35C146.347 117.183 146.297 117.017 146.297 116.85C146.297 116.417 146.539 116.083 147.022 115.85C147.472 115.617 147.989 115.442 148.572 115.325C149.172 115.192 149.805 115.125 150.472 115.125C151.922 115.125 153.072 115.45 153.922 116.1C154.772 116.75 155.197 117.775 155.197 119.175V125.1C155.197 125.467 155.122 125.75 154.972 125.95C154.839 126.133 154.63 126.308 154.347 126.475C153.947 126.692 153.414 126.892 152.747 127.075C152.08 127.258 151.33 127.35 150.497 127.35ZM150.497 125.7C151.197 125.7 151.772 125.633 152.222 125.5C152.689 125.35 153.022 125.208 153.222 125.075V121.45L150.122 121.775C149.255 121.842 148.614 122.033 148.197 122.35C147.78 122.667 147.572 123.125 147.572 123.725C147.572 124.342 147.814 124.825 148.297 125.175C148.797 125.525 149.53 125.7 150.497 125.7ZM162.948 116.8C161.814 116.8 160.873 117.183 160.123 117.95C159.373 118.717 158.998 119.817 158.998 121.25C158.998 122.667 159.356 123.758 160.073 124.525C160.806 125.292 161.764 125.675 162.948 125.675C163.648 125.675 164.231 125.583 164.698 125.4C165.164 125.2 165.581 124.975 165.948 124.725C166.131 124.825 166.281 124.95 166.398 125.1C166.514 125.25 166.573 125.433 166.573 125.65C166.573 126.117 166.223 126.517 165.523 126.85C164.839 127.167 163.981 127.325 162.948 127.325C161.798 127.325 160.764 127.108 159.848 126.675C158.948 126.225 158.239 125.55 157.723 124.65C157.206 123.75 156.948 122.617 156.948 121.25C156.948 119.9 157.214 118.775 157.748 117.875C158.281 116.958 158.998 116.275 159.898 115.825C160.814 115.358 161.814 115.125 162.898 115.125C163.931 115.125 164.781 115.3 165.448 115.65C166.131 116 166.473 116.4 166.473 116.85C166.473 117.05 166.414 117.225 166.298 117.375C166.181 117.525 166.031 117.642 165.848 117.725C165.481 117.475 165.073 117.258 164.623 117.075C164.189 116.892 163.631 116.8 162.948 116.8ZM168.718 122.5L168.618 120.925L176.168 119.9C176.101 118.983 175.785 118.233 175.218 117.65C174.651 117.05 173.868 116.75 172.868 116.75C171.835 116.75 170.976 117.125 170.293 117.875C169.626 118.608 169.293 119.667 169.293 121.05V121.6C169.41 122.933 169.843 123.95 170.593 124.65C171.36 125.333 172.401 125.675 173.718 125.675C174.418 125.675 175.051 125.558 175.618 125.325C176.185 125.092 176.635 124.842 176.968 124.575C177.151 124.692 177.293 124.833 177.393 125C177.51 125.15 177.568 125.325 177.568 125.525C177.568 125.842 177.385 126.142 177.018 126.425C176.668 126.692 176.193 126.908 175.593 127.075C175.01 127.242 174.351 127.325 173.618 127.325C172.335 127.325 171.218 127.092 170.268 126.625C169.335 126.158 168.61 125.467 168.093 124.55C167.593 123.617 167.343 122.483 167.343 121.15C167.343 120.2 167.476 119.358 167.743 118.625C168.026 117.875 168.41 117.242 168.893 116.725C169.393 116.208 169.985 115.817 170.668 115.55C171.351 115.267 172.093 115.125 172.893 115.125C173.91 115.125 174.801 115.342 175.568 115.775C176.351 116.208 176.96 116.817 177.393 117.6C177.843 118.367 178.068 119.25 178.068 120.25C178.068 120.617 177.985 120.883 177.818 121.05C177.651 121.2 177.418 121.292 177.118 121.325L168.718 122.5ZM172.568 112.55L174.993 109.825C175.36 109.842 175.651 109.95 175.868 110.15C176.101 110.333 176.218 110.542 176.218 110.775C176.218 110.992 176.168 111.175 176.068 111.325C175.968 111.475 175.801 111.658 175.568 111.875L173.293 114.1C172.976 114.1 172.71 114.017 172.493 113.85C172.293 113.667 172.193 113.467 172.193 113.25C172.193 113.1 172.235 112.975 172.318 112.875C172.401 112.758 172.485 112.65 172.568 112.55ZM189.707 119.375V121.925H187.707V119.475C187.707 118.542 187.44 117.858 186.907 117.425C186.39 116.992 185.69 116.775 184.807 116.775C184.14 116.775 183.549 116.858 183.032 117.025C182.515 117.192 182.074 117.383 181.707 117.6V121.925H179.707V117.7C179.707 117.35 179.774 117.067 179.907 116.85C180.057 116.617 180.307 116.392 180.657 116.175C181.09 115.925 181.665 115.692 182.382 115.475C183.099 115.242 183.907 115.125 184.807 115.125C186.324 115.125 187.515 115.475 188.382 116.175C189.265 116.858 189.707 117.925 189.707 119.375ZM179.707 120.55H181.707V126.95C181.624 126.983 181.499 127.017 181.332 127.05C181.165 127.1 180.982 127.125 180.782 127.125C180.432 127.125 180.165 127.058 179.982 126.925C179.799 126.775 179.707 126.542 179.707 126.225V120.55ZM187.707 120.55H189.707V126.95C189.624 126.983 189.49 127.017 189.307 127.05C189.14 127.1 188.965 127.125 188.782 127.125C188.415 127.125 188.14 127.058 187.957 126.925C187.79 126.775 187.707 126.542 187.707 126.225V120.55ZM192.027 129.35C191.76 129.8 191.435 130.025 191.052 130.025C190.685 130.025 190.385 129.883 190.152 129.6C190.302 129.167 190.469 128.65 190.652 128.05C190.852 127.467 191.035 126.867 191.202 126.25C191.369 125.633 191.494 125.1 191.577 124.65C191.71 124.583 191.852 124.533 192.002 124.5C192.169 124.45 192.344 124.425 192.527 124.425C192.827 124.425 193.06 124.5 193.227 124.65C193.394 124.783 193.477 125.017 193.477 125.35C193.477 125.717 193.385 126.175 193.202 126.725C193.035 127.258 192.835 127.767 192.602 128.25C192.369 128.75 192.177 129.117 192.027 129.35ZM203.245 127.325C202.529 127.325 201.854 127.217 201.22 127C200.604 126.8 200.154 126.575 199.87 126.325V124.475C200.204 124.792 200.62 125.075 201.12 125.325C201.637 125.558 202.254 125.675 202.97 125.675C204.137 125.675 205.07 125.325 205.77 124.625C206.487 123.908 206.845 122.767 206.845 121.2C206.845 120.1 206.662 119.233 206.295 118.6C205.945 117.95 205.47 117.483 204.87 117.2C204.287 116.917 203.654 116.775 202.97 116.775C202.37 116.775 201.862 116.85 201.445 117C201.029 117.15 200.654 117.317 200.32 117.5V125.8H198.32V117.55C198.32 117.217 198.379 116.95 198.495 116.75C198.612 116.55 198.854 116.342 199.22 116.125C199.67 115.875 200.204 115.65 200.82 115.45C201.454 115.233 202.17 115.125 202.97 115.125C204.07 115.125 205.062 115.342 205.945 115.775C206.845 116.192 207.554 116.85 208.07 117.75C208.604 118.633 208.87 119.783 208.87 121.2C208.87 122.567 208.629 123.708 208.145 124.625C207.679 125.525 207.02 126.2 206.17 126.65C205.32 127.1 204.345 127.325 203.245 127.325ZM199.395 131.675C199.045 131.675 198.779 131.6 198.595 131.45C198.412 131.3 198.32 131.067 198.32 130.75V125.075L200.32 125.125V131.5C200.237 131.533 200.112 131.567 199.945 131.6C199.779 131.65 199.595 131.675 199.395 131.675ZM214.892 127.35C213.325 127.35 212.108 127.042 211.242 126.425C210.392 125.808 209.967 124.917 209.967 123.75C209.967 122.667 210.325 121.842 211.042 121.275C211.775 120.692 212.783 120.342 214.067 120.225L217.617 119.875V119.175C217.617 118.342 217.367 117.733 216.867 117.35C216.367 116.967 215.692 116.775 214.842 116.775C214.158 116.775 213.5 116.875 212.867 117.075C212.25 117.275 211.7 117.5 211.217 117.75C211.083 117.633 210.958 117.5 210.842 117.35C210.742 117.183 210.692 117.017 210.692 116.85C210.692 116.417 210.933 116.083 211.417 115.85C211.867 115.617 212.383 115.442 212.967 115.325C213.567 115.192 214.2 115.125 214.867 115.125C216.317 115.125 217.467 115.45 218.317 116.1C219.167 116.75 219.592 117.775 219.592 119.175V125.1C219.592 125.467 219.517 125.75 219.367 125.95C219.233 126.133 219.025 126.308 218.742 126.475C218.342 126.692 217.808 126.892 217.142 127.075C216.475 127.258 215.725 127.35 214.892 127.35ZM214.892 125.7C215.592 125.7 216.167 125.633 216.617 125.5C217.083 125.35 217.417 125.208 217.617 125.075V121.45L214.517 121.775C213.65 121.842 213.008 122.033 212.592 122.35C212.175 122.667 211.967 123.125 211.967 123.725C211.967 124.342 212.208 124.825 212.692 125.175C213.192 125.525 213.925 125.7 214.892 125.7ZM223.992 117.6V121.55H221.992V117.75C221.992 117.367 222.059 117.067 222.192 116.85C222.342 116.617 222.584 116.392 222.917 116.175C223.351 115.892 223.942 115.65 224.692 115.45C225.442 115.233 226.276 115.125 227.192 115.125C228.526 115.125 229.192 115.458 229.192 116.125C229.192 116.292 229.167 116.45 229.117 116.6C229.067 116.733 229.001 116.85 228.917 116.95C228.751 116.917 228.534 116.883 228.267 116.85C228.001 116.817 227.734 116.8 227.467 116.8C226.701 116.8 226.026 116.883 225.442 117.05C224.859 117.2 224.376 117.383 223.992 117.6ZM221.992 120.4L223.992 120.7V126.95C223.909 126.983 223.784 127.017 223.617 127.05C223.451 127.1 223.267 127.125 223.067 127.125C222.717 127.125 222.451 127.058 222.267 126.925C222.084 126.775 221.992 126.542 221.992 126.225V120.4ZM234.291 127.35C232.724 127.35 231.508 127.042 230.641 126.425C229.791 125.808 229.366 124.917 229.366 123.75C229.366 122.667 229.724 121.842 230.441 121.275C231.174 120.692 232.183 120.342 233.466 120.225L237.016 119.875V119.175C237.016 118.342 236.766 117.733 236.266 117.35C235.766 116.967 235.091 116.775 234.241 116.775C233.558 116.775 232.899 116.875 232.266 117.075C231.649 117.275 231.099 117.5 230.616 117.75C230.483 117.633 230.358 117.5 230.241 117.35C230.141 117.183 230.091 117.017 230.091 116.85C230.091 116.417 230.333 116.083 230.816 115.85C231.266 115.617 231.783 115.442 232.366 115.325C232.966 115.192 233.599 115.125 234.266 115.125C235.716 115.125 236.866 115.45 237.716 116.1C238.566 116.75 238.991 117.775 238.991 119.175V125.1C238.991 125.467 238.916 125.75 238.766 125.95C238.633 126.133 238.424 126.308 238.141 126.475C237.741 126.692 237.208 126.892 236.541 127.075C235.874 127.258 235.124 127.35 234.291 127.35ZM234.291 125.7C234.991 125.7 235.566 125.633 236.016 125.5C236.483 125.35 236.816 125.208 237.016 125.075V121.45L233.916 121.775C233.049 121.842 232.408 122.033 231.991 122.35C231.574 122.667 231.366 123.125 231.366 123.725C231.366 124.342 231.608 124.825 232.091 125.175C232.591 125.525 233.324 125.7 234.291 125.7ZM36.8 152.325C36.0833 152.325 35.4083 152.217 34.775 152C34.1583 151.8 33.7083 151.575 33.425 151.325V149.475C33.7583 149.792 34.175 150.075 34.675 150.325C35.1917 150.558 35.8083 150.675 36.525 150.675C37.6917 150.675 38.625 150.325 39.325 149.625C40.0417 148.908 40.4 147.767 40.4 146.2C40.4 145.1 40.2167 144.233 39.85 143.6C39.5 142.95 39.025 142.483 38.425 142.2C37.8417 141.917 37.2083 141.775 36.525 141.775C35.925 141.775 35.4167 141.85 35 142C34.5833 142.15 34.2083 142.317 33.875 142.5V150.8H31.875V142.55C31.875 142.217 31.9333 141.95 32.05 141.75C32.1667 141.55 32.4083 141.342 32.775 141.125C33.225 140.875 33.7583 140.65 34.375 140.45C35.0083 140.233 35.725 140.125 36.525 140.125C37.625 140.125 38.6167 140.342 39.5 140.775C40.4 141.192 41.1083 141.85 41.625 142.75C42.1583 143.633 42.425 144.783 42.425 146.2C42.425 147.567 42.1833 148.708 41.7 149.625C41.2333 150.525 40.575 151.2 39.725 151.65C38.875 152.1 37.9 152.325 36.8 152.325ZM32.95 156.675C32.6 156.675 32.3333 156.6 32.15 156.45C31.9667 156.3 31.875 156.067 31.875 155.75V150.075L33.875 150.125V156.5C33.7917 156.533 33.6667 156.567 33.5 156.6C33.3333 156.65 33.15 156.675 32.95 156.675ZM54.9975 146.225C54.9975 147.458 54.7641 148.533 54.2975 149.45C53.8308 150.367 53.1725 151.075 52.3225 151.575C51.4725 152.075 50.4725 152.325 49.3225 152.325C48.1725 152.325 47.1641 152.075 46.2975 151.575C45.4475 151.075 44.7891 150.367 44.3225 149.45C43.8558 148.533 43.6225 147.458 43.6225 146.225C43.6225 144.975 43.8558 143.9 44.3225 143C44.8058 142.083 45.4725 141.375 46.3225 140.875C47.1891 140.375 48.1891 140.125 49.3225 140.125C50.4558 140.125 51.4475 140.375 52.2975 140.875C53.1475 141.375 53.8058 142.083 54.2725 143C54.7558 143.9 54.9975 144.975 54.9975 146.225ZM49.3225 141.775C48.2058 141.775 47.3141 142.175 46.6475 142.975C45.9975 143.758 45.6725 144.842 45.6725 146.225C45.6725 147.625 45.9891 148.717 46.6225 149.5C47.2725 150.283 48.1725 150.675 49.3225 150.675C50.4558 150.675 51.3391 150.283 51.9725 149.5C52.6225 148.7 52.9475 147.608 52.9475 146.225C52.9475 144.842 52.6225 143.758 51.9725 142.975C51.3391 142.175 50.4558 141.775 49.3225 141.775ZM64.9908 148.925C64.9908 149.992 64.5992 150.825 63.8158 151.425C63.0325 152.025 61.8992 152.325 60.4158 152.325C59.1492 152.325 58.1158 152.133 57.3158 151.75C56.5158 151.35 56.1158 150.917 56.1158 150.45C56.1158 150.25 56.1658 150.058 56.2658 149.875C56.3825 149.675 56.5492 149.517 56.7658 149.4C57.2158 149.717 57.7408 150.008 58.3408 150.275C58.9408 150.542 59.6242 150.675 60.3908 150.675C62.1242 150.675 62.9908 150.092 62.9908 148.925C62.9908 148.442 62.8408 148.05 62.5408 147.75C62.2575 147.433 61.8325 147.208 61.2658 147.075L59.1908 146.525C58.1742 146.275 57.4325 145.892 56.9658 145.375C56.4992 144.842 56.2658 144.183 56.2658 143.4C56.2658 142.517 56.6242 141.75 57.3408 141.1C58.0575 140.45 59.1492 140.125 60.6158 140.125C61.3992 140.125 62.0825 140.208 62.6658 140.375C63.2492 140.525 63.6992 140.733 64.0158 141C64.3492 141.25 64.5158 141.525 64.5158 141.825C64.5158 142.042 64.4575 142.233 64.3408 142.4C64.2408 142.567 64.0992 142.692 63.9158 142.775C63.7158 142.642 63.4575 142.5 63.1408 142.35C62.8408 142.183 62.4825 142.05 62.0658 141.95C61.6492 141.833 61.1908 141.775 60.6908 141.775C59.9575 141.775 59.3658 141.917 58.9158 142.2C58.4658 142.483 58.2408 142.883 58.2408 143.4C58.2408 143.767 58.3658 144.092 58.6158 144.375C58.8825 144.642 59.2992 144.842 59.8658 144.975L61.5908 145.4C62.7242 145.667 63.5742 146.092 64.1408 146.675C64.7075 147.242 64.9908 147.992 64.9908 148.925ZM66.7975 145.4H68.7975V148.85C68.7975 149.517 68.9891 149.992 69.3725 150.275C69.7558 150.542 70.2808 150.675 70.9475 150.675C71.2308 150.675 71.5475 150.625 71.8975 150.525C72.2475 150.425 72.5391 150.308 72.7725 150.175C72.8725 150.275 72.9641 150.4 73.0475 150.55C73.1308 150.7 73.1725 150.875 73.1725 151.075C73.1725 151.442 72.9558 151.742 72.5225 151.975C72.0891 152.208 71.4891 152.325 70.7225 152.325C69.5558 152.325 68.6058 152.067 67.8725 151.55C67.1558 151.033 66.7975 150.175 66.7975 148.975V145.4ZM67.8225 142.35V140.7H72.8975C72.9475 140.767 72.9975 140.875 73.0475 141.025C73.0975 141.175 73.1225 141.333 73.1225 141.5C73.1225 141.767 73.0558 141.975 72.9225 142.125C72.7891 142.275 72.6058 142.35 72.3725 142.35H67.8225ZM68.7975 146.15H66.7975V137.1C66.8808 137.067 67.0058 137.033 67.1725 137C67.3558 136.95 67.5475 136.925 67.7475 136.925C68.0975 136.925 68.3558 137 68.5225 137.15C68.7058 137.283 68.7975 137.508 68.7975 137.825V146.15ZM75.183 147.5L75.083 145.925L82.633 144.9C82.5663 143.983 82.2497 143.233 81.683 142.65C81.1163 142.05 80.333 141.75 79.333 141.75C78.2997 141.75 77.4413 142.125 76.758 142.875C76.0913 143.608 75.758 144.667 75.758 146.05V146.6C75.8747 147.933 76.308 148.95 77.058 149.65C77.8247 150.333 78.8663 150.675 80.183 150.675C80.883 150.675 81.5163 150.558 82.083 150.325C82.6497 150.092 83.0997 149.842 83.433 149.575C83.6163 149.692 83.758 149.833 83.858 150C83.9747 150.15 84.033 150.325 84.033 150.525C84.033 150.842 83.8497 151.142 83.483 151.425C83.133 151.692 82.658 151.908 82.058 152.075C81.4747 152.242 80.8163 152.325 80.083 152.325C78.7997 152.325 77.683 152.092 76.733 151.625C75.7997 151.158 75.0747 150.467 74.558 149.55C74.058 148.617 73.808 147.483 73.808 146.15C73.808 145.2 73.9413 144.358 74.208 143.625C74.4913 142.875 74.8747 142.242 75.358 141.725C75.858 141.208 76.4497 140.817 77.133 140.55C77.8163 140.267 78.558 140.125 79.358 140.125C80.3747 140.125 81.2663 140.342 82.033 140.775C82.8163 141.208 83.4247 141.817 83.858 142.6C84.308 143.367 84.533 144.25 84.533 145.25C84.533 145.617 84.4497 145.883 84.283 146.05C84.1163 146.2 83.883 146.292 83.583 146.325L75.183 147.5ZM88.1719 142.6V146.55H86.1719V142.75C86.1719 142.367 86.2385 142.067 86.3719 141.85C86.5219 141.617 86.7635 141.392 87.0969 141.175C87.5302 140.892 88.1219 140.65 88.8719 140.45C89.6219 140.233 90.4552 140.125 91.3719 140.125C92.7052 140.125 93.3719 140.458 93.3719 141.125C93.3719 141.292 93.3469 141.45 93.2969 141.6C93.2469 141.733 93.1802 141.85 93.0969 141.95C92.9302 141.917 92.7135 141.883 92.4469 141.85C92.1802 141.817 91.9135 141.8 91.6469 141.8C90.8802 141.8 90.2052 141.883 89.6219 142.05C89.0385 142.2 88.5552 142.383 88.1719 142.6ZM86.1719 145.4L88.1719 145.7V151.95C88.0885 151.983 87.9635 152.017 87.7969 152.05C87.6302 152.1 87.4469 152.125 87.2469 152.125C86.8969 152.125 86.6302 152.058 86.4469 151.925C86.2635 151.775 86.1719 151.542 86.1719 151.225V145.4ZM94.2928 136.8C94.2928 136.45 94.4178 136.158 94.6678 135.925C94.9178 135.675 95.2261 135.55 95.5928 135.55C95.9761 135.55 96.2844 135.675 96.5178 135.925C96.7511 136.158 96.8678 136.45 96.8678 136.8C96.8678 137.15 96.7511 137.45 96.5178 137.7C96.2844 137.933 95.9761 138.05 95.5928 138.05C95.2261 138.05 94.9178 137.933 94.6678 137.7C94.4178 137.45 94.2928 137.15 94.2928 136.8ZM94.5928 145.4H96.5928V151.95C96.5094 151.983 96.3844 152.017 96.2178 152.05C96.0511 152.1 95.8678 152.125 95.6678 152.125C95.3178 152.125 95.0511 152.058 94.8678 151.925C94.6844 151.775 94.5928 151.542 94.5928 151.225V145.4ZM96.5928 146.375H94.5928V140.5C94.6761 140.467 94.8011 140.433 94.9678 140.4C95.1511 140.35 95.3428 140.325 95.5428 140.325C95.8928 140.325 96.1511 140.4 96.3178 140.55C96.5011 140.683 96.5928 140.917 96.5928 141.25V146.375ZM109.973 146.225C109.973 147.458 109.74 148.533 109.273 149.45C108.806 150.367 108.148 151.075 107.298 151.575C106.448 152.075 105.448 152.325 104.298 152.325C103.148 152.325 102.14 152.075 101.273 151.575C100.423 151.075 99.7647 150.367 99.298 149.45C98.8314 148.533 98.598 147.458 98.598 146.225C98.598 144.975 98.8314 143.9 99.298 143C99.7814 142.083 100.448 141.375 101.298 140.875C102.165 140.375 103.165 140.125 104.298 140.125C105.431 140.125 106.423 140.375 107.273 140.875C108.123 141.375 108.781 142.083 109.248 143C109.731 143.9 109.973 144.975 109.973 146.225ZM104.298 141.775C103.181 141.775 102.29 142.175 101.623 142.975C100.973 143.758 100.648 144.842 100.648 146.225C100.648 147.625 100.965 148.717 101.598 149.5C102.248 150.283 103.148 150.675 104.298 150.675C105.431 150.675 106.315 150.283 106.948 149.5C107.598 148.7 107.923 147.608 107.923 146.225C107.923 144.842 107.598 143.758 106.948 142.975C106.315 142.175 105.431 141.775 104.298 141.775ZM113.816 142.6V146.55H111.816V142.75C111.816 142.367 111.883 142.067 112.016 141.85C112.166 141.617 112.408 141.392 112.741 141.175C113.175 140.892 113.766 140.65 114.516 140.45C115.266 140.233 116.1 140.125 117.016 140.125C118.35 140.125 119.016 140.458 119.016 141.125C119.016 141.292 118.991 141.45 118.941 141.6C118.891 141.733 118.825 141.85 118.741 141.95C118.575 141.917 118.358 141.883 118.091 141.85C117.825 141.817 117.558 141.8 117.291 141.8C116.525 141.8 115.85 141.883 115.266 142.05C114.683 142.2 114.2 142.383 113.816 142.6ZM111.816 145.4L113.816 145.7V151.95C113.733 151.983 113.608 152.017 113.441 152.05C113.275 152.1 113.091 152.125 112.891 152.125C112.541 152.125 112.275 152.058 112.091 151.925C111.908 151.775 111.816 151.542 111.816 151.225V145.4ZM129.315 144V146.875H127.315V144.15C127.315 143.333 127.074 142.733 126.59 142.35C126.124 141.967 125.499 141.775 124.715 141.775C124.199 141.775 123.699 141.858 123.215 142.025C122.732 142.192 122.324 142.383 121.99 142.6V146.875H119.99V142.7C119.99 142.367 120.057 142.083 120.19 141.85C120.34 141.617 120.59 141.392 120.94 141.175C121.39 140.892 121.957 140.65 122.64 140.45C123.34 140.233 124.04 140.125 124.74 140.125C125.59 140.125 126.34 140.258 126.99 140.525C127.64 140.775 128.124 141.125 128.44 141.575C128.54 141.675 128.624 141.767 128.69 141.85C128.757 141.933 128.824 142.042 128.89 142.175C129.007 142.375 129.107 142.633 129.19 142.95C129.274 143.267 129.315 143.617 129.315 144ZM136.64 144.05V146.875H134.64V144.15C134.64 143.333 134.407 142.733 133.94 142.35C133.474 141.967 132.849 141.775 132.065 141.775C131.482 141.775 130.915 141.9 130.365 142.15C129.832 142.383 129.349 142.725 128.915 143.175L128.115 141.725C128.549 141.292 129.115 140.917 129.815 140.6C130.515 140.283 131.315 140.125 132.215 140.125C133.115 140.125 133.89 140.267 134.54 140.55C135.207 140.833 135.724 141.267 136.09 141.85C136.457 142.433 136.64 143.167 136.64 144.05ZM119.99 145.55H121.99V151.95C121.907 151.983 121.782 152.017 121.615 152.05C121.449 152.1 121.265 152.125 121.065 152.125C120.715 152.125 120.449 152.058 120.265 151.925C120.082 151.775 119.99 151.542 119.99 151.225V145.55ZM127.315 145.55H129.315V151.95C129.232 151.983 129.099 152.017 128.915 152.05C128.749 152.1 128.574 152.125 128.39 152.125C128.024 152.125 127.749 152.058 127.565 151.925C127.399 151.775 127.315 151.542 127.315 151.225V145.55ZM134.64 145.55H136.64V151.95C136.557 151.983 136.424 152.017 136.24 152.05C136.074 152.1 135.899 152.125 135.715 152.125C135.349 152.125 135.074 152.058 134.89 151.925C134.724 151.775 134.64 151.542 134.64 151.225V145.55ZM139.875 147.5L139.775 145.925L147.325 144.9C147.259 143.983 146.942 143.233 146.375 142.65C145.809 142.05 145.025 141.75 144.025 141.75C142.992 141.75 142.134 142.125 141.45 142.875C140.784 143.608 140.45 144.667 140.45 146.05V146.6C140.567 147.933 141 148.95 141.75 149.65C142.517 150.333 143.559 150.675 144.875 150.675C145.575 150.675 146.209 150.558 146.775 150.325C147.342 150.092 147.792 149.842 148.125 149.575C148.309 149.692 148.45 149.833 148.55 150C148.667 150.15 148.725 150.325 148.725 150.525C148.725 150.842 148.542 151.142 148.175 151.425C147.825 151.692 147.35 151.908 146.75 152.075C146.167 152.242 145.509 152.325 144.775 152.325C143.492 152.325 142.375 152.092 141.425 151.625C140.492 151.158 139.767 150.467 139.25 149.55C138.75 148.617 138.5 147.483 138.5 146.15C138.5 145.2 138.634 144.358 138.9 143.625C139.184 142.875 139.567 142.242 140.05 141.725C140.55 141.208 141.142 140.817 141.825 140.55C142.509 140.267 143.25 140.125 144.05 140.125C145.067 140.125 145.959 140.342 146.725 140.775C147.509 141.208 148.117 141.817 148.55 142.6C149 143.367 149.225 144.25 149.225 145.25C149.225 145.617 149.142 145.883 148.975 146.05C148.809 146.2 148.575 146.292 148.275 146.325L139.875 147.5ZM160.864 144.375V146.925H158.864V144.475C158.864 143.542 158.598 142.858 158.064 142.425C157.548 141.992 156.848 141.775 155.964 141.775C155.298 141.775 154.706 141.858 154.189 142.025C153.673 142.192 153.231 142.383 152.864 142.6V146.925H150.864V142.7C150.864 142.35 150.931 142.067 151.064 141.85C151.214 141.617 151.464 141.392 151.814 141.175C152.248 140.925 152.823 140.692 153.539 140.475C154.256 140.242 155.064 140.125 155.964 140.125C157.481 140.125 158.673 140.475 159.539 141.175C160.423 141.858 160.864 142.925 160.864 144.375ZM150.864 145.55H152.864V151.95C152.781 151.983 152.656 152.017 152.489 152.05C152.323 152.1 152.139 152.125 151.939 152.125C151.589 152.125 151.323 152.058 151.139 151.925C150.956 151.775 150.864 151.542 150.864 151.225V145.55ZM158.864 145.55H160.864V151.95C160.781 151.983 160.648 152.017 160.464 152.05C160.298 152.1 160.123 152.125 159.939 152.125C159.573 152.125 159.298 152.058 159.114 151.925C158.948 151.775 158.864 151.542 158.864 151.225V145.55ZM163.384 145.4H165.384V148.85C165.384 149.517 165.576 149.992 165.959 150.275C166.343 150.542 166.868 150.675 167.534 150.675C167.818 150.675 168.134 150.625 168.484 150.525C168.834 150.425 169.126 150.308 169.359 150.175C169.459 150.275 169.551 150.4 169.634 150.55C169.718 150.7 169.759 150.875 169.759 151.075C169.759 151.442 169.543 151.742 169.109 151.975C168.676 152.208 168.076 152.325 167.309 152.325C166.143 152.325 165.193 152.067 164.459 151.55C163.743 151.033 163.384 150.175 163.384 148.975V145.4ZM164.409 142.35V140.7H169.484C169.534 140.767 169.584 140.875 169.634 141.025C169.684 141.175 169.709 141.333 169.709 141.5C169.709 141.767 169.643 141.975 169.509 142.125C169.376 142.275 169.193 142.35 168.959 142.35H164.409ZM165.384 146.15H163.384V137.1C163.468 137.067 163.593 137.033 163.759 137C163.943 136.95 164.134 136.925 164.334 136.925C164.684 136.925 164.943 137 165.109 137.15C165.293 137.283 165.384 137.508 165.384 137.825V146.15ZM171.77 147.5L171.67 145.925L179.22 144.9C179.153 143.983 178.837 143.233 178.27 142.65C177.703 142.05 176.92 141.75 175.92 141.75C174.887 141.75 174.028 142.125 173.345 142.875C172.678 143.608 172.345 144.667 172.345 146.05V146.6C172.462 147.933 172.895 148.95 173.645 149.65C174.412 150.333 175.453 150.675 176.77 150.675C177.47 150.675 178.103 150.558 178.67 150.325C179.237 150.092 179.687 149.842 180.02 149.575C180.203 149.692 180.345 149.833 180.445 150C180.562 150.15 180.62 150.325 180.62 150.525C180.62 150.842 180.437 151.142 180.07 151.425C179.72 151.692 179.245 151.908 178.645 152.075C178.062 152.242 177.403 152.325 176.67 152.325C175.387 152.325 174.27 152.092 173.32 151.625C172.387 151.158 171.662 150.467 171.145 149.55C170.645 148.617 170.395 147.483 170.395 146.15C170.395 145.2 170.528 144.358 170.795 143.625C171.078 142.875 171.462 142.242 171.945 141.725C172.445 141.208 173.037 140.817 173.72 140.55C174.403 140.267 175.145 140.125 175.945 140.125C176.962 140.125 177.853 140.342 178.62 140.775C179.403 141.208 180.012 141.817 180.445 142.6C180.895 143.367 181.12 144.25 181.12 145.25C181.12 145.617 181.037 145.883 180.87 146.05C180.703 146.2 180.47 146.292 180.17 146.325L171.77 147.5ZM191.864 141.8C190.73 141.8 189.789 142.183 189.039 142.95C188.289 143.717 187.914 144.817 187.914 146.25C187.914 147.667 188.272 148.758 188.989 149.525C189.722 150.292 190.68 150.675 191.864 150.675C192.564 150.675 193.147 150.583 193.614 150.4C194.08 150.2 194.497 149.975 194.864 149.725C195.047 149.825 195.197 149.95 195.314 150.1C195.43 150.25 195.489 150.433 195.489 150.65C195.489 151.117 195.139 151.517 194.439 151.85C193.755 152.167 192.897 152.325 191.864 152.325C190.714 152.325 189.68 152.108 188.764 151.675C187.864 151.225 187.155 150.55 186.639 149.65C186.122 148.75 185.864 147.617 185.864 146.25C185.864 144.9 186.13 143.775 186.664 142.875C187.197 141.958 187.914 141.275 188.814 140.825C189.73 140.358 190.73 140.125 191.814 140.125C192.847 140.125 193.697 140.3 194.364 140.65C195.047 141 195.389 141.4 195.389 141.85C195.389 142.05 195.33 142.225 195.214 142.375C195.097 142.525 194.947 142.642 194.764 142.725C194.397 142.475 193.989 142.258 193.539 142.075C193.105 141.892 192.547 141.8 191.864 141.8ZM197.402 145.4L199.402 145.7V151.95C199.319 151.983 199.194 152.017 199.027 152.05C198.86 152.1 198.677 152.125 198.477 152.125C198.127 152.125 197.86 152.058 197.677 151.925C197.494 151.775 197.402 151.542 197.402 151.225V145.4ZM199.402 146.65L197.402 146.375V135.8C197.485 135.767 197.61 135.733 197.777 135.7C197.96 135.65 198.144 135.625 198.327 135.625C198.694 135.625 198.96 135.7 199.127 135.85C199.31 135.983 199.402 136.208 199.402 136.525V146.65ZM206.229 152.35C204.663 152.35 203.446 152.042 202.579 151.425C201.729 150.808 201.304 149.917 201.304 148.75C201.304 147.667 201.663 146.842 202.379 146.275C203.113 145.692 204.121 145.342 205.404 145.225L208.954 144.875V144.175C208.954 143.342 208.704 142.733 208.204 142.35C207.704 141.967 207.029 141.775 206.179 141.775C205.496 141.775 204.838 141.875 204.204 142.075C203.588 142.275 203.038 142.5 202.554 142.75C202.421 142.633 202.296 142.5 202.179 142.35C202.079 142.183 202.029 142.017 202.029 141.85C202.029 141.417 202.271 141.083 202.754 140.85C203.204 140.617 203.721 140.442 204.304 140.325C204.904 140.192 205.538 140.125 206.204 140.125C207.654 140.125 208.804 140.45 209.654 141.1C210.504 141.75 210.929 142.775 210.929 144.175V150.1C210.929 150.467 210.854 150.75 210.704 150.95C210.571 151.133 210.363 151.308 210.079 151.475C209.679 151.692 209.146 151.892 208.479 152.075C207.813 152.258 207.063 152.35 206.229 152.35ZM206.229 150.7C206.929 150.7 207.504 150.633 207.954 150.5C208.421 150.35 208.754 150.208 208.954 150.075V146.45L205.854 146.775C204.988 146.842 204.346 147.033 203.929 147.35C203.513 147.667 203.304 148.125 203.304 148.725C203.304 149.342 203.546 149.825 204.029 150.175C204.529 150.525 205.263 150.7 206.229 150.7ZM221.48 148.925C221.48 149.992 221.088 150.825 220.305 151.425C219.522 152.025 218.388 152.325 216.905 152.325C215.638 152.325 214.605 152.133 213.805 151.75C213.005 151.35 212.605 150.917 212.605 150.45C212.605 150.25 212.655 150.058 212.755 149.875C212.872 149.675 213.038 149.517 213.255 149.4C213.705 149.717 214.23 150.008 214.83 150.275C215.43 150.542 216.113 150.675 216.88 150.675C218.613 150.675 219.48 150.092 219.48 148.925C219.48 148.442 219.33 148.05 219.03 147.75C218.747 147.433 218.322 147.208 217.755 147.075L215.68 146.525C214.663 146.275 213.922 145.892 213.455 145.375C212.988 144.842 212.755 144.183 212.755 143.4C212.755 142.517 213.113 141.75 213.83 141.1C214.547 140.45 215.638 140.125 217.105 140.125C217.888 140.125 218.572 140.208 219.155 140.375C219.738 140.525 220.188 140.733 220.505 141C220.838 141.25 221.005 141.525 221.005 141.825C221.005 142.042 220.947 142.233 220.83 142.4C220.73 142.567 220.588 142.692 220.405 142.775C220.205 142.642 219.947 142.5 219.63 142.35C219.33 142.183 218.972 142.05 218.555 141.95C218.138 141.833 217.68 141.775 217.18 141.775C216.447 141.775 215.855 141.917 215.405 142.2C214.955 142.483 214.73 142.883 214.73 143.4C214.73 143.767 214.855 144.092 215.105 144.375C215.372 144.642 215.788 144.842 216.355 144.975L218.08 145.4C219.213 145.667 220.063 146.092 220.63 146.675C221.197 147.242 221.48 147.992 221.48 148.925ZM223.087 136.8C223.087 136.45 223.212 136.158 223.462 135.925C223.712 135.675 224.02 135.55 224.387 135.55C224.77 135.55 225.078 135.675 225.312 135.925C225.545 136.158 225.662 136.45 225.662 136.8C225.662 137.15 225.545 137.45 225.312 137.7C225.078 137.933 224.77 138.05 224.387 138.05C224.02 138.05 223.712 137.933 223.462 137.7C223.212 137.45 223.087 137.15 223.087 136.8ZM223.387 145.4H225.387V151.95C225.303 151.983 225.178 152.017 225.012 152.05C224.845 152.1 224.662 152.125 224.462 152.125C224.112 152.125 223.845 152.058 223.662 151.925C223.478 151.775 223.387 151.542 223.387 151.225V145.4ZM225.387 146.375H223.387V140.5C223.47 140.467 223.595 140.433 223.762 140.4C223.945 140.35 224.137 140.325 224.337 140.325C224.687 140.325 224.945 140.4 225.112 140.55C225.295 140.683 225.387 140.917 225.387 141.25V146.375ZM229.717 142.725V141.1H235.017C235.067 141.167 235.117 141.275 235.167 141.425C235.217 141.558 235.242 141.717 235.242 141.9C235.242 142.167 235.175 142.375 235.042 142.525C234.909 142.658 234.717 142.725 234.467 142.725H229.717ZM230.067 139.525V142.45H228.092V139.425C228.092 138.442 228.267 137.65 228.617 137.05C228.984 136.433 229.5 135.983 230.167 135.7C230.85 135.4 231.659 135.25 232.592 135.25C233.542 135.25 234.284 135.375 234.817 135.625C235.367 135.875 235.642 136.183 235.642 136.55C235.642 136.733 235.6 136.9 235.517 137.05C235.45 137.2 235.35 137.342 235.217 137.475C234.917 137.308 234.542 137.175 234.092 137.075C233.642 136.958 233.209 136.9 232.792 136.9C231.775 136.9 231.067 137.108 230.667 137.525C230.267 137.942 230.067 138.608 230.067 139.525ZM228.092 141.35H230.092V151.95C230.009 151.983 229.884 152.017 229.717 152.05C229.55 152.1 229.367 152.125 229.167 152.125C228.817 152.125 228.55 152.058 228.367 151.925C228.184 151.775 228.092 151.542 228.092 151.225V141.35ZM237.842 136.8C237.842 136.45 237.967 136.158 238.217 135.925C238.467 135.675 238.775 135.55 239.142 135.55C239.525 135.55 239.834 135.675 240.067 135.925C240.3 136.158 240.417 136.45 240.417 136.8C240.417 137.15 240.3 137.45 240.067 137.7C239.834 137.933 239.525 138.05 239.142 138.05C238.775 138.05 238.467 137.933 238.217 137.7C237.967 137.45 237.842 137.15 237.842 136.8ZM238.142 145.4H240.142V151.95C240.059 151.983 239.934 152.017 239.767 152.05C239.6 152.1 239.417 152.125 239.217 152.125C238.867 152.125 238.6 152.058 238.417 151.925C238.234 151.775 238.142 151.542 238.142 151.225V145.4ZM240.142 146.375H238.142V140.5C238.225 140.467 238.35 140.433 238.517 140.4C238.7 140.35 238.892 140.325 239.092 140.325C239.442 140.325 239.7 140.4 239.867 140.55C240.05 140.683 240.142 140.917 240.142 141.25V146.375ZM248.133 141.8C247 141.8 246.058 142.183 245.308 142.95C244.558 143.717 244.183 144.817 244.183 146.25C244.183 147.667 244.542 148.758 245.258 149.525C245.992 150.292 246.95 150.675 248.133 150.675C248.833 150.675 249.417 150.583 249.883 150.4C250.35 150.2 250.767 149.975 251.133 149.725C251.317 149.825 251.467 149.95 251.583 150.1C251.7 150.25 251.758 150.433 251.758 150.65C251.758 151.117 251.408 151.517 250.708 151.85C250.025 152.167 249.167 152.325 248.133 152.325C246.983 152.325 245.95 152.108 245.033 151.675C244.133 151.225 243.425 150.55 242.908 149.65C242.392 148.75 242.133 147.617 242.133 146.25C242.133 144.9 242.4 143.775 242.933 142.875C243.467 141.958 244.183 141.275 245.083 140.825C246 140.358 247 140.125 248.083 140.125C249.117 140.125 249.967 140.3 250.633 140.65C251.317 141 251.658 141.4 251.658 141.85C251.658 142.05 251.6 142.225 251.483 142.375C251.367 142.525 251.217 142.642 251.033 142.725C250.667 142.475 250.258 142.258 249.808 142.075C249.375 141.892 248.817 141.8 248.133 141.8ZM257.694 152.35C256.128 152.35 254.911 152.042 254.044 151.425C253.194 150.808 252.769 149.917 252.769 148.75C252.769 147.667 253.128 146.842 253.844 146.275C254.578 145.692 255.586 145.342 256.869 145.225L260.419 144.875V144.175C260.419 143.342 260.169 142.733 259.669 142.35C259.169 141.967 258.494 141.775 257.644 141.775C256.961 141.775 256.303 141.875 255.669 142.075C255.053 142.275 254.503 142.5 254.019 142.75C253.886 142.633 253.761 142.5 253.644 142.35C253.544 142.183 253.494 142.017 253.494 141.85C253.494 141.417 253.736 141.083 254.219 140.85C254.669 140.617 255.186 140.442 255.769 140.325C256.369 140.192 257.003 140.125 257.669 140.125C259.119 140.125 260.269 140.45 261.119 141.1C261.969 141.75 262.394 142.775 262.394 144.175V150.1C262.394 150.467 262.319 150.75 262.169 150.95C262.036 151.133 261.828 151.308 261.544 151.475C261.144 151.692 260.611 151.892 259.944 152.075C259.278 152.258 258.528 152.35 257.694 152.35ZM257.694 150.7C258.394 150.7 258.969 150.633 259.419 150.5C259.886 150.35 260.219 150.208 260.419 150.075V146.45L257.319 146.775C256.453 146.842 255.811 147.033 255.394 147.35C254.978 147.667 254.769 148.125 254.769 148.725C254.769 149.342 255.011 149.825 255.494 150.175C255.994 150.525 256.728 150.7 257.694 150.7ZM266.795 142.6V146.55H264.795V142.75C264.795 142.367 264.862 142.067 264.995 141.85C265.145 141.617 265.387 141.392 265.72 141.175C266.153 140.892 266.745 140.65 267.495 140.45C268.245 140.233 269.078 140.125 269.995 140.125C271.328 140.125 271.995 140.458 271.995 141.125C271.995 141.292 271.97 141.45 271.92 141.6C271.87 141.733 271.803 141.85 271.72 141.95C271.553 141.917 271.337 141.883 271.07 141.85C270.803 141.817 270.537 141.8 270.27 141.8C269.503 141.8 268.828 141.883 268.245 142.05C267.662 142.2 267.178 142.383 266.795 142.6ZM264.795 145.4L266.795 145.7V151.95C266.712 151.983 266.587 152.017 266.42 152.05C266.253 152.1 266.07 152.125 265.87 152.125C265.52 152.125 265.253 152.058 265.07 151.925C264.887 151.775 264.795 151.542 264.795 151.225V145.4ZM273.291 145.4L275.291 145.7V151.95C275.207 151.983 275.082 152.017 274.916 152.05C274.749 152.1 274.566 152.125 274.366 152.125C274.016 152.125 273.749 152.058 273.566 151.925C273.382 151.775 273.291 151.542 273.291 151.225V145.4ZM275.291 146.65L273.291 146.375V135.8C273.374 135.767 273.499 135.733 273.666 135.7C273.849 135.65 274.032 135.625 274.216 135.625C274.582 135.625 274.849 135.7 275.016 135.85C275.199 135.983 275.291 136.208 275.291 136.525V146.65ZM288.718 146.225C288.718 147.458 288.485 148.533 288.018 149.45C287.551 150.367 286.893 151.075 286.043 151.575C285.193 152.075 284.193 152.325 283.043 152.325C281.893 152.325 280.885 152.075 280.018 151.575C279.168 151.075 278.51 150.367 278.043 149.45C277.576 148.533 277.343 147.458 277.343 146.225C277.343 144.975 277.576 143.9 278.043 143C278.526 142.083 279.193 141.375 280.043 140.875C280.91 140.375 281.91 140.125 283.043 140.125C284.176 140.125 285.168 140.375 286.018 140.875C286.868 141.375 287.526 142.083 287.993 143C288.476 143.9 288.718 144.975 288.718 146.225ZM283.043 141.775C281.926 141.775 281.035 142.175 280.368 142.975C279.718 143.758 279.393 144.842 279.393 146.225C279.393 147.625 279.71 148.717 280.343 149.5C280.993 150.283 281.893 150.675 283.043 150.675C284.176 150.675 285.06 150.283 285.693 149.5C286.343 148.7 286.668 147.608 286.668 146.225C286.668 144.842 286.343 143.758 285.693 142.975C285.06 142.175 284.176 141.775 283.043 141.775ZM298.712 148.925C298.712 149.992 298.32 150.825 297.537 151.425C296.753 152.025 295.62 152.325 294.137 152.325C292.87 152.325 291.837 152.133 291.037 151.75C290.237 151.35 289.837 150.917 289.837 150.45C289.837 150.25 289.887 150.058 289.987 149.875C290.103 149.675 290.27 149.517 290.487 149.4C290.937 149.717 291.462 150.008 292.062 150.275C292.662 150.542 293.345 150.675 294.112 150.675C295.845 150.675 296.712 150.092 296.712 148.925C296.712 148.442 296.562 148.05 296.262 147.75C295.978 147.433 295.553 147.208 294.987 147.075L292.912 146.525C291.895 146.275 291.153 145.892 290.687 145.375C290.22 144.842 289.987 144.183 289.987 143.4C289.987 142.517 290.345 141.75 291.062 141.1C291.778 140.45 292.87 140.125 294.337 140.125C295.12 140.125 295.803 140.208 296.387 140.375C296.97 140.525 297.42 140.733 297.737 141C298.07 141.25 298.237 141.525 298.237 141.825C298.237 142.042 298.178 142.233 298.062 142.4C297.962 142.567 297.82 142.692 297.637 142.775C297.437 142.642 297.178 142.5 296.862 142.35C296.562 142.183 296.203 142.05 295.787 141.95C295.37 141.833 294.912 141.775 294.412 141.775C293.678 141.775 293.087 141.917 292.637 142.2C292.187 142.483 291.962 142.883 291.962 143.4C291.962 143.767 292.087 144.092 292.337 144.375C292.603 144.642 293.02 144.842 293.587 144.975L295.312 145.4C296.445 145.667 297.295 146.092 297.862 146.675C298.428 147.242 298.712 147.992 298.712 148.925ZM34.225 174.425C33.9417 173.892 33.6 173.175 33.2 172.275C32.8 171.358 32.3833 170.342 31.95 169.225C31.5333 168.092 31.1333 166.942 30.75 165.775C30.8667 165.608 31.0167 165.475 31.2 165.375C31.4 165.275 31.6083 165.225 31.825 165.225C32.1083 165.225 32.3417 165.3 32.525 165.45C32.7083 165.6 32.8583 165.85 32.975 166.2C33.475 167.6 34 168.992 34.55 170.375C35.1 171.758 35.7083 173.192 36.375 174.675H36.475C36.825 173.975 37.1917 173.1 37.575 172.05C37.9583 171 38.325 169.892 38.675 168.725C39.025 167.558 39.3167 166.458 39.55 165.425C39.6667 165.375 39.7917 165.333 39.925 165.3C40.075 165.25 40.2333 165.225 40.4 165.225C40.6833 165.225 40.9167 165.3 41.1 165.45C41.2833 165.583 41.375 165.792 41.375 166.075C41.375 166.342 41.3 166.792 41.15 167.425C41 168.042 40.7917 168.767 40.525 169.6C40.275 170.417 39.975 171.292 39.625 172.225C39.2917 173.142 38.925 174.05 38.525 174.95C38.1417 175.833 37.75 176.633 37.35 177.35C36.5833 178.767 35.8833 179.85 35.25 180.6C34.6167 181.367 34.0333 181.75 33.5 181.75C33.1167 181.75 32.8167 181.65 32.6 181.45C32.4 181.25 32.275 181.017 32.225 180.75C32.5917 180.433 33 180.008 33.45 179.475C33.9167 178.958 34.3583 178.392 34.775 177.775C35.2083 177.175 35.5583 176.6 35.825 176.05C35.5417 175.967 35.275 175.817 35.025 175.6C34.7917 175.383 34.525 174.992 34.225 174.425ZM50.7363 177.35C49.1697 177.35 47.953 177.042 47.0863 176.425C46.2363 175.808 45.8113 174.917 45.8113 173.75C45.8113 172.667 46.1697 171.842 46.8863 171.275C47.6197 170.692 48.628 170.342 49.9113 170.225L53.4613 169.875V169.175C53.4613 168.342 53.2113 167.733 52.7113 167.35C52.2113 166.967 51.5363 166.775 50.6863 166.775C50.003 166.775 49.3447 166.875 48.7113 167.075C48.0947 167.275 47.5447 167.5 47.0613 167.75C46.928 167.633 46.803 167.5 46.6863 167.35C46.5863 167.183 46.5363 167.017 46.5363 166.85C46.5363 166.417 46.778 166.083 47.2613 165.85C47.7113 165.617 48.228 165.442 48.8113 165.325C49.4113 165.192 50.0447 165.125 50.7113 165.125C52.1613 165.125 53.3113 165.45 54.1613 166.1C55.0113 166.75 55.4363 167.775 55.4363 169.175V175.1C55.4363 175.467 55.3613 175.75 55.2113 175.95C55.078 176.133 54.8697 176.308 54.5863 176.475C54.1863 176.692 53.653 176.892 52.9863 177.075C52.3197 177.258 51.5697 177.35 50.7363 177.35ZM50.7363 175.7C51.4363 175.7 52.0113 175.633 52.4613 175.5C52.928 175.35 53.2613 175.208 53.4613 175.075V171.45L50.3613 171.775C49.4947 171.842 48.853 172.033 48.4363 172.35C48.0197 172.667 47.8113 173.125 47.8113 173.725C47.8113 174.342 48.053 174.825 48.5363 175.175C49.0363 175.525 49.7697 175.7 50.7363 175.7ZM58.0369 170.4L60.0369 170.7V176.95C59.9536 176.983 59.8286 177.017 59.6619 177.05C59.4952 177.1 59.3119 177.125 59.1119 177.125C58.7619 177.125 58.4952 177.058 58.3119 176.925C58.1286 176.775 58.0369 176.542 58.0369 176.225V170.4ZM60.0369 171.65L58.0369 171.375V160.8C58.1202 160.767 58.2452 160.733 58.4119 160.7C58.5952 160.65 58.7786 160.625 58.9619 160.625C59.3286 160.625 59.5952 160.7 59.7619 160.85C59.9452 160.983 60.0369 161.208 60.0369 161.525V171.65ZM72.0643 169V171.875H70.0643V169.15C70.0643 168.333 69.8226 167.733 69.3393 167.35C68.8726 166.967 68.2476 166.775 67.4643 166.775C66.9476 166.775 66.4476 166.858 65.9643 167.025C65.4809 167.192 65.0726 167.383 64.7393 167.6V171.875H62.7393V167.7C62.7393 167.367 62.8059 167.083 62.9393 166.85C63.0893 166.617 63.3393 166.392 63.6893 166.175C64.1393 165.892 64.7059 165.65 65.3893 165.45C66.0893 165.233 66.7893 165.125 67.4893 165.125C68.3393 165.125 69.0893 165.258 69.7393 165.525C70.3893 165.775 70.8726 166.125 71.1893 166.575C71.2893 166.675 71.3726 166.767 71.4393 166.85C71.5059 166.933 71.5726 167.042 71.6393 167.175C71.7559 167.375 71.8559 167.633 71.9393 167.95C72.0226 168.267 72.0643 168.617 72.0643 169ZM79.3893 169.05V171.875H77.3893V169.15C77.3893 168.333 77.1559 167.733 76.6893 167.35C76.2226 166.967 75.5976 166.775 74.8143 166.775C74.2309 166.775 73.6643 166.9 73.1143 167.15C72.5809 167.383 72.0976 167.725 71.6643 168.175L70.8643 166.725C71.2976 166.292 71.8643 165.917 72.5643 165.6C73.2643 165.283 74.0643 165.125 74.9643 165.125C75.8643 165.125 76.6393 165.267 77.2893 165.55C77.9559 165.833 78.4726 166.267 78.8393 166.85C79.2059 167.433 79.3893 168.167 79.3893 169.05ZM62.7393 170.55H64.7393V176.95C64.6559 176.983 64.5309 177.017 64.3643 177.05C64.1976 177.1 64.0143 177.125 63.8143 177.125C63.4643 177.125 63.1976 177.058 63.0143 176.925C62.8309 176.775 62.7393 176.542 62.7393 176.225V170.55ZM70.0643 170.55H72.0643V176.95C71.9809 176.983 71.8476 177.017 71.6643 177.05C71.4976 177.1 71.3226 177.125 71.1393 177.125C70.7726 177.125 70.4976 177.058 70.3143 176.925C70.1476 176.775 70.0643 176.542 70.0643 176.225V170.55ZM77.3893 170.55H79.3893V176.95C79.3059 176.983 79.1726 177.017 78.9893 177.05C78.8226 177.1 78.6476 177.125 78.4643 177.125C78.0976 177.125 77.8226 177.058 77.6393 176.925C77.4726 176.775 77.3893 176.542 77.3893 176.225V170.55ZM86.0244 177.35C84.4577 177.35 83.2411 177.042 82.3744 176.425C81.5244 175.808 81.0994 174.917 81.0994 173.75C81.0994 172.667 81.4577 171.842 82.1744 171.275C82.9077 170.692 83.9161 170.342 85.1994 170.225L88.7494 169.875V169.175C88.7494 168.342 88.4994 167.733 87.9994 167.35C87.4994 166.967 86.8244 166.775 85.9744 166.775C85.2911 166.775 84.6327 166.875 83.9994 167.075C83.3827 167.275 82.8327 167.5 82.3494 167.75C82.2161 167.633 82.0911 167.5 81.9744 167.35C81.8744 167.183 81.8244 167.017 81.8244 166.85C81.8244 166.417 82.0661 166.083 82.5494 165.85C82.9994 165.617 83.5161 165.442 84.0994 165.325C84.6994 165.192 85.3327 165.125 85.9994 165.125C87.4494 165.125 88.5994 165.45 89.4494 166.1C90.2994 166.75 90.7244 167.775 90.7244 169.175V175.1C90.7244 175.467 90.6494 175.75 90.4994 175.95C90.3661 176.133 90.1577 176.308 89.8744 176.475C89.4744 176.692 88.9411 176.892 88.2744 177.075C87.6077 177.258 86.8577 177.35 86.0244 177.35ZM86.0244 175.7C86.7244 175.7 87.2994 175.633 87.7494 175.5C88.2161 175.35 88.5494 175.208 88.7494 175.075V171.45L85.6494 171.775C84.7827 171.842 84.1411 172.033 83.7244 172.35C83.3077 172.667 83.0994 173.125 83.0994 173.725C83.0994 174.342 83.3411 174.825 83.8244 175.175C84.3244 175.525 85.0577 175.7 86.0244 175.7ZM98.475 166.8C97.3417 166.8 96.4 167.183 95.65 167.95C94.9 168.717 94.525 169.817 94.525 171.25C94.525 172.667 94.8833 173.758 95.6 174.525C96.3333 175.292 97.2917 175.675 98.475 175.675C99.175 175.675 99.7583 175.583 100.225 175.4C100.692 175.2 101.108 174.975 101.475 174.725C101.658 174.825 101.808 174.95 101.925 175.1C102.042 175.25 102.1 175.433 102.1 175.65C102.1 176.117 101.75 176.517 101.05 176.85C100.367 177.167 99.5083 177.325 98.475 177.325C97.325 177.325 96.2917 177.108 95.375 176.675C94.475 176.225 93.7667 175.55 93.25 174.65C92.7333 173.75 92.475 172.617 92.475 171.25C92.475 169.9 92.7417 168.775 93.275 167.875C93.8083 166.958 94.525 166.275 95.425 165.825C96.3417 165.358 97.3417 165.125 98.425 165.125C99.4583 165.125 100.308 165.3 100.975 165.65C101.658 166 102 166.4 102 166.85C102 167.05 101.942 167.225 101.825 167.375C101.708 167.525 101.558 167.642 101.375 167.725C101.008 167.475 100.6 167.258 100.15 167.075C99.7167 166.892 99.1583 166.8 98.475 166.8ZM104.246 172.5L104.146 170.925L111.696 169.9C111.629 168.983 111.312 168.233 110.746 167.65C110.179 167.05 109.396 166.75 108.396 166.75C107.362 166.75 106.504 167.125 105.821 167.875C105.154 168.608 104.821 169.667 104.821 171.05V171.6C104.937 172.933 105.371 173.95 106.121 174.65C106.887 175.333 107.929 175.675 109.246 175.675C109.946 175.675 110.579 175.558 111.146 175.325C111.712 175.092 112.162 174.842 112.496 174.575C112.679 174.692 112.821 174.833 112.921 175C113.037 175.15 113.096 175.325 113.096 175.525C113.096 175.842 112.912 176.142 112.546 176.425C112.196 176.692 111.721 176.908 111.121 177.075C110.537 177.242 109.879 177.325 109.146 177.325C107.862 177.325 106.746 177.092 105.796 176.625C104.862 176.158 104.137 175.467 103.621 174.55C103.121 173.617 102.871 172.483 102.871 171.15C102.871 170.2 103.004 169.358 103.271 168.625C103.554 167.875 103.937 167.242 104.421 166.725C104.921 166.208 105.512 165.817 106.196 165.55C106.879 165.267 107.621 165.125 108.421 165.125C109.437 165.125 110.329 165.342 111.096 165.775C111.879 166.208 112.487 166.817 112.921 167.6C113.371 168.367 113.596 169.25 113.596 170.25C113.596 170.617 113.512 170.883 113.346 171.05C113.179 171.2 112.946 171.292 112.646 171.325L104.246 172.5ZM125.234 169.375V171.925H123.234V169.475C123.234 168.542 122.968 167.858 122.434 167.425C121.918 166.992 121.218 166.775 120.334 166.775C119.668 166.775 119.076 166.858 118.559 167.025C118.043 167.192 117.601 167.383 117.234 167.6V171.925H115.234V167.7C115.234 167.35 115.301 167.067 115.434 166.85C115.584 166.617 115.834 166.392 116.184 166.175C116.618 165.925 117.193 165.692 117.909 165.475C118.626 165.242 119.434 165.125 120.334 165.125C121.851 165.125 123.043 165.475 123.909 166.175C124.793 166.858 125.234 167.925 125.234 169.375ZM115.234 170.55H117.234V176.95C117.151 176.983 117.026 177.017 116.859 177.05C116.693 177.1 116.509 177.125 116.309 177.125C115.959 177.125 115.693 177.058 115.509 176.925C115.326 176.775 115.234 176.542 115.234 176.225V170.55ZM123.234 170.55H125.234V176.95C125.151 176.983 125.018 177.017 124.834 177.05C124.668 177.1 124.493 177.125 124.309 177.125C123.943 177.125 123.668 177.058 123.484 176.925C123.318 176.775 123.234 176.542 123.234 176.225V170.55ZM131.854 177.35C130.288 177.35 129.071 177.042 128.204 176.425C127.354 175.808 126.929 174.917 126.929 173.75C126.929 172.667 127.288 171.842 128.004 171.275C128.738 170.692 129.746 170.342 131.029 170.225L134.579 169.875V169.175C134.579 168.342 134.329 167.733 133.829 167.35C133.329 166.967 132.654 166.775 131.804 166.775C131.121 166.775 130.463 166.875 129.829 167.075C129.213 167.275 128.663 167.5 128.179 167.75C128.046 167.633 127.921 167.5 127.804 167.35C127.704 167.183 127.654 167.017 127.654 166.85C127.654 166.417 127.896 166.083 128.379 165.85C128.829 165.617 129.346 165.442 129.929 165.325C130.529 165.192 131.163 165.125 131.829 165.125C133.279 165.125 134.429 165.45 135.279 166.1C136.129 166.75 136.554 167.775 136.554 169.175V175.1C136.554 175.467 136.479 175.75 136.329 175.95C136.196 176.133 135.988 176.308 135.704 176.475C135.304 176.692 134.771 176.892 134.104 177.075C133.438 177.258 132.688 177.35 131.854 177.35ZM131.854 175.7C132.554 175.7 133.129 175.633 133.579 175.5C134.046 175.35 134.379 175.208 134.579 175.075V171.45L131.479 171.775C130.613 171.842 129.971 172.033 129.554 172.35C129.138 172.667 128.929 173.125 128.929 173.725C128.929 174.342 129.171 174.825 129.654 175.175C130.154 175.525 130.888 175.7 131.854 175.7ZM140.955 167.6V171.55H138.955V167.75C138.955 167.367 139.022 167.067 139.155 166.85C139.305 166.617 139.547 166.392 139.88 166.175C140.313 165.892 140.905 165.65 141.655 165.45C142.405 165.233 143.238 165.125 144.155 165.125C145.488 165.125 146.155 165.458 146.155 166.125C146.155 166.292 146.13 166.45 146.08 166.6C146.03 166.733 145.963 166.85 145.88 166.95C145.713 166.917 145.497 166.883 145.23 166.85C144.963 166.817 144.697 166.8 144.43 166.8C143.663 166.8 142.988 166.883 142.405 167.05C141.822 167.2 141.338 167.383 140.955 167.6ZM138.955 170.4L140.955 170.7V176.95C140.872 176.983 140.747 177.017 140.58 177.05C140.413 177.1 140.23 177.125 140.03 177.125C139.68 177.125 139.413 177.058 139.23 176.925C139.047 176.775 138.955 176.542 138.955 176.225V170.4ZM147.451 170.4L149.451 170.7V176.95C149.368 176.983 149.243 177.017 149.076 177.05C148.909 177.1 148.726 177.125 148.526 177.125C148.176 177.125 147.909 177.058 147.726 176.925C147.543 176.775 147.451 176.542 147.451 176.225V170.4ZM149.451 171.65L147.451 171.375V160.8C147.534 160.767 147.659 160.733 147.826 160.7C148.009 160.65 148.193 160.625 148.376 160.625C148.743 160.625 149.009 160.7 149.176 160.85C149.359 160.983 149.451 161.208 149.451 161.525V171.65ZM162.878 171.225C162.878 172.458 162.645 173.533 162.178 174.45C161.712 175.367 161.053 176.075 160.203 176.575C159.353 177.075 158.353 177.325 157.203 177.325C156.053 177.325 155.045 177.075 154.178 176.575C153.328 176.075 152.67 175.367 152.203 174.45C151.737 173.533 151.503 172.458 151.503 171.225C151.503 169.975 151.737 168.9 152.203 168C152.687 167.083 153.353 166.375 154.203 165.875C155.07 165.375 156.07 165.125 157.203 165.125C158.337 165.125 159.328 165.375 160.178 165.875C161.028 166.375 161.687 167.083 162.153 168C162.637 168.9 162.878 169.975 162.878 171.225ZM157.203 166.775C156.087 166.775 155.195 167.175 154.528 167.975C153.878 168.758 153.553 169.842 153.553 171.225C153.553 172.625 153.87 173.717 154.503 174.5C155.153 175.283 156.053 175.675 157.203 175.675C158.337 175.675 159.22 175.283 159.853 174.5C160.503 173.7 160.828 172.608 160.828 171.225C160.828 169.842 160.503 168.758 159.853 167.975C159.22 167.175 158.337 166.775 157.203 166.775ZM172.872 173.925C172.872 174.992 172.48 175.825 171.697 176.425C170.913 177.025 169.78 177.325 168.297 177.325C167.03 177.325 165.997 177.133 165.197 176.75C164.397 176.35 163.997 175.917 163.997 175.45C163.997 175.25 164.047 175.058 164.147 174.875C164.263 174.675 164.43 174.517 164.647 174.4C165.097 174.717 165.622 175.008 166.222 175.275C166.822 175.542 167.505 175.675 168.272 175.675C170.005 175.675 170.872 175.092 170.872 173.925C170.872 173.442 170.722 173.05 170.422 172.75C170.138 172.433 169.713 172.208 169.147 172.075L167.072 171.525C166.055 171.275 165.313 170.892 164.847 170.375C164.38 169.842 164.147 169.183 164.147 168.4C164.147 167.517 164.505 166.75 165.222 166.1C165.938 165.45 167.03 165.125 168.497 165.125C169.28 165.125 169.963 165.208 170.547 165.375C171.13 165.525 171.58 165.733 171.897 166C172.23 166.25 172.397 166.525 172.397 166.825C172.397 167.042 172.338 167.233 172.222 167.4C172.122 167.567 171.98 167.692 171.797 167.775C171.597 167.642 171.338 167.5 171.022 167.35C170.722 167.183 170.363 167.05 169.947 166.95C169.53 166.833 169.072 166.775 168.572 166.775C167.838 166.775 167.247 166.917 166.797 167.2C166.347 167.483 166.122 167.883 166.122 168.4C166.122 168.767 166.247 169.092 166.497 169.375C166.763 169.642 167.18 169.842 167.747 169.975L169.472 170.4C170.605 170.667 171.455 171.092 172.022 171.675C172.588 172.242 172.872 172.992 172.872 173.925ZM173.422 175.95C173.422 175.55 173.539 175.217 173.772 174.95C174.022 174.683 174.364 174.55 174.797 174.55C175.231 174.55 175.564 174.683 175.797 174.95C176.031 175.217 176.147 175.55 176.147 175.95C176.147 176.333 176.031 176.658 175.797 176.925C175.564 177.192 175.231 177.325 174.797 177.325C174.364 177.325 174.022 177.192 173.772 176.925C173.539 176.658 173.422 176.333 173.422 175.95Z" fill="black"/>
<path d="M34.925 46.25H37.15C38.1667 46.25 38.975 46.025 39.575 45.575C40.175 45.125 40.475 44.4583 40.475 43.575C40.475 42.6917 40.175 42.025 39.575 41.575C38.975 41.125 38.0917 40.9 36.925 40.9C36.5583 40.9 36.2 40.9167 35.85 40.95C35.5167 40.9833 35.2083 41.025 34.925 41.075V46.25ZM37.325 48.6H31.975V40.05C31.975 39.75 32.0583 39.525 32.225 39.375C32.3917 39.2083 32.6167 39.075 32.9 38.975C33.4167 38.8083 34.0333 38.6833 34.75 38.6C35.4833 38.5167 36.225 38.475 36.975 38.475C39.1417 38.475 40.7667 38.925 41.85 39.825C42.9333 40.725 43.475 41.9667 43.475 43.55C43.475 44.55 43.225 45.4333 42.725 46.2C42.225 46.95 41.5167 47.5417 40.6 47.975C39.7 48.3917 38.6083 48.6 37.325 48.6ZM37 47.8L39.475 47.05C39.9083 47.6 40.35 48.1583 40.8 48.725C41.25 49.2917 41.6833 49.85 42.1 50.4C42.5167 50.9333 42.8917 51.425 43.225 51.875C43.5583 52.3083 43.825 52.6583 44.025 52.925C43.9083 53.325 43.6917 53.6417 43.375 53.875C43.075 54.0917 42.7417 54.2 42.375 54.2C41.925 54.2 41.5667 54.1 41.3 53.9C41.05 53.6833 40.8 53.3917 40.55 53.025L37 47.8ZM31.975 47.575H34.975V53.95C34.8417 54 34.6417 54.0417 34.375 54.075C34.125 54.125 33.8583 54.15 33.575 54.15C33.0083 54.15 32.6 54.05 32.35 53.85C32.1 53.6333 31.975 53.275 31.975 52.775V47.575ZM45.642 44.1H48.567V53.825C48.4503 53.8583 48.267 53.9 48.017 53.95C47.767 54 47.5087 54.025 47.242 54.025C46.7587 54.025 46.367 53.8833 46.067 53.6C45.7837 53.3 45.642 52.9167 45.642 52.45V44.1ZM48.567 48.675L45.642 48.65V40.4C45.642 39.9167 45.7837 39.5333 46.067 39.25C46.367 38.9667 46.7587 38.825 47.242 38.825C47.5087 38.825 47.767 38.85 48.017 38.9C48.267 38.95 48.4503 38.9917 48.567 39.025V48.675ZM47.242 47.425V45.05H54.767C54.8503 45.1667 54.9253 45.325 54.992 45.525C55.0587 45.725 55.092 45.95 55.092 46.2C55.092 46.6 55.0003 46.9083 54.817 47.125C54.6337 47.325 54.367 47.425 54.017 47.425H47.242ZM47.242 54.025V51.625H55.642C55.7087 51.7417 55.7753 51.9083 55.842 52.125C55.9087 52.325 55.942 52.55 55.942 52.8C55.942 53.2 55.8503 53.5083 55.667 53.725C55.4837 53.925 55.2253 54.025 54.892 54.025H47.242ZM47.242 41.225V38.825H55.517C55.6003 38.9417 55.6753 39.1 55.742 39.3C55.8087 39.5 55.842 39.7167 55.842 39.95C55.842 40.3667 55.742 40.6833 55.542 40.9C55.3587 41.1167 55.1003 41.225 54.767 41.225H47.242ZM69.1227 40.7C69.1227 41 69.0393 41.2667 68.8727 41.5C68.706 41.7333 68.506 41.9167 68.2727 42.05C67.856 41.75 67.3727 41.4833 66.8227 41.25C66.2727 41 65.581 40.875 64.7477 40.875C63.7977 40.875 62.9643 41.0917 62.2477 41.525C61.531 41.9417 60.9643 42.5667 60.5477 43.4C60.1477 44.2167 59.9477 45.225 59.9477 46.425C59.9477 48.2417 60.3977 49.6167 61.2977 50.55C62.1977 51.4667 63.3977 51.925 64.8977 51.925C65.681 51.925 66.3643 51.8167 66.9477 51.6C67.531 51.3667 68.031 51.1083 68.4477 50.825C68.6643 50.9583 68.8477 51.15 68.9977 51.4C69.1643 51.6333 69.2477 51.9 69.2477 52.2C69.2477 52.4667 69.1727 52.7083 69.0227 52.925C68.8893 53.1417 68.6643 53.3417 68.3477 53.525C67.9977 53.7417 67.5143 53.9333 66.8977 54.1C66.281 54.2833 65.506 54.375 64.5727 54.375C63.1393 54.375 61.8393 54.0833 60.6727 53.5C59.506 52.9167 58.581 52.0417 57.8977 50.875C57.2143 49.6917 56.8727 48.2083 56.8727 46.425C56.8727 44.675 57.2143 43.2083 57.8977 42.025C58.5977 40.8417 59.5143 39.95 60.6477 39.35C61.7977 38.7333 63.0477 38.425 64.3977 38.425C65.3643 38.425 66.1977 38.5333 66.8977 38.75C67.6143 38.9667 68.1643 39.25 68.5477 39.6C68.931 39.9333 69.1227 40.3 69.1227 40.7ZM70.974 44.1H73.899V53.825C73.7824 53.8583 73.599 53.9 73.349 53.95C73.099 54 72.8407 54.025 72.574 54.025C72.0907 54.025 71.699 53.8833 71.399 53.6C71.1157 53.3 70.974 52.9167 70.974 52.45V44.1ZM73.899 48.675L70.974 48.65V40.4C70.974 39.9167 71.1157 39.5333 71.399 39.25C71.699 38.9667 72.0907 38.825 72.574 38.825C72.8407 38.825 73.099 38.85 73.349 38.9C73.599 38.95 73.7824 38.9917 73.899 39.025V48.675ZM72.574 47.425V45.05H80.099C80.1824 45.1667 80.2574 45.325 80.324 45.525C80.3907 45.725 80.424 45.95 80.424 46.2C80.424 46.6 80.3324 46.9083 80.149 47.125C79.9657 47.325 79.699 47.425 79.349 47.425H72.574ZM72.574 54.025V51.625H80.974C81.0407 51.7417 81.1074 51.9083 81.174 52.125C81.2407 52.325 81.274 52.55 81.274 52.8C81.274 53.2 81.1824 53.5083 80.999 53.725C80.8157 53.925 80.5574 54.025 80.224 54.025H72.574ZM72.574 41.225V38.825H80.849C80.9324 38.9417 81.0074 39.1 81.074 39.3C81.1407 39.5 81.174 39.7167 81.174 39.95C81.174 40.3667 81.074 40.6833 80.874 40.9C80.6907 41.1167 80.4324 41.225 80.099 41.225H72.574ZM83.1762 48.875V40.05C83.1762 39.75 83.2595 39.525 83.4262 39.375C83.5928 39.2083 83.8178 39.075 84.1012 38.975C84.6178 38.8083 85.2428 38.6833 85.9762 38.6C86.7095 38.5167 87.3928 38.475 88.0262 38.475C90.2095 38.475 91.8345 38.9417 92.9012 39.875C93.9845 40.8083 94.5262 42.0667 94.5262 43.65C94.5262 44.7 94.2845 45.6167 93.8012 46.4C93.3345 47.1833 92.6345 47.7917 91.7012 48.225C90.7678 48.6583 89.6178 48.875 88.2512 48.875H83.1762ZM84.7762 54.15C84.2095 54.15 83.8012 54.05 83.5512 53.85C83.3012 53.6333 83.1762 53.275 83.1762 52.775V47.525H86.1762V53.95C86.0428 54 85.8428 54.0417 85.5762 54.075C85.3262 54.125 85.0595 54.15 84.7762 54.15ZM86.1512 46.475H88.0762C89.1428 46.475 89.9845 46.2417 90.6012 45.775C91.2178 45.2917 91.5262 44.5833 91.5262 43.65C91.5262 42.7167 91.2345 42.025 90.6512 41.575C90.0678 41.125 89.2262 40.9 88.1262 40.9C87.7595 40.9 87.4095 40.9167 87.0762 40.95C86.7428 40.9833 86.4345 41.025 86.1512 41.075V46.475ZM107.682 40.7C107.682 41 107.599 41.2667 107.432 41.5C107.266 41.7333 107.066 41.9167 106.832 42.05C106.416 41.75 105.932 41.4833 105.382 41.25C104.832 41 104.141 40.875 103.307 40.875C102.357 40.875 101.524 41.0917 100.807 41.525C100.091 41.9417 99.5239 42.5667 99.1072 43.4C98.7072 44.2167 98.5072 45.225 98.5072 46.425C98.5072 48.2417 98.9572 49.6167 99.8572 50.55C100.757 51.4667 101.957 51.925 103.457 51.925C104.241 51.925 104.924 51.8167 105.507 51.6C106.091 51.3667 106.591 51.1083 107.007 50.825C107.224 50.9583 107.407 51.15 107.557 51.4C107.724 51.6333 107.807 51.9 107.807 52.2C107.807 52.4667 107.732 52.7083 107.582 52.925C107.449 53.1417 107.224 53.3417 106.907 53.525C106.557 53.7417 106.074 53.9333 105.457 54.1C104.841 54.2833 104.066 54.375 103.132 54.375C101.699 54.375 100.399 54.0833 99.2322 53.5C98.0656 52.9167 97.1406 52.0417 96.4572 50.875C95.7739 49.6917 95.4322 48.2083 95.4322 46.425C95.4322 44.675 95.7739 43.2083 96.4572 42.025C97.1572 40.8417 98.0739 39.95 99.2072 39.35C100.357 38.7333 101.607 38.425 102.957 38.425C103.924 38.425 104.757 38.5333 105.457 38.75C106.174 38.9667 106.724 39.25 107.107 39.6C107.491 39.9333 107.682 40.3 107.682 40.7ZM109.559 44.125H112.534V53.95C112.4 54 112.209 54.0417 111.959 54.075C111.709 54.125 111.442 54.15 111.159 54.15C110.592 54.15 110.184 54.05 109.934 53.85C109.684 53.6333 109.559 53.275 109.559 52.775V44.125ZM112.534 47.45H109.559V38.825C109.692 38.7917 109.884 38.75 110.134 38.7C110.4 38.65 110.667 38.625 110.934 38.625C111.484 38.625 111.884 38.725 112.134 38.925C112.4 39.125 112.534 39.4917 112.534 40.025V47.45ZM129.491 46.4C129.491 48.1333 129.158 49.5917 128.491 50.775C127.841 51.9583 126.949 52.8583 125.816 53.475C124.683 54.075 123.399 54.375 121.966 54.375C120.533 54.375 119.249 54.075 118.116 53.475C116.983 52.8583 116.083 51.9583 115.416 50.775C114.766 49.5917 114.441 48.1333 114.441 46.4C114.441 44.6667 114.774 43.2083 115.441 42.025C116.124 40.8417 117.033 39.95 118.166 39.35C119.299 38.7333 120.566 38.425 121.966 38.425C123.383 38.425 124.658 38.7333 125.791 39.35C126.924 39.95 127.824 40.8417 128.491 42.025C129.158 43.2083 129.491 44.6667 129.491 46.4ZM126.441 46.4C126.441 44.6167 126.033 43.25 125.216 42.3C124.399 41.35 123.316 40.875 121.966 40.875C120.633 40.875 119.558 41.35 118.741 42.3C117.924 43.25 117.516 44.6167 117.516 46.4C117.516 48.2 117.916 49.575 118.716 50.525C119.533 51.4583 120.616 51.925 121.966 51.925C123.333 51.925 124.416 51.4583 125.216 50.525C126.033 49.575 126.441 48.2 126.441 46.4ZM121.416 35.575L123.941 33.25C124.441 33.25 124.824 33.375 125.091 33.625C125.374 33.8583 125.516 34.15 125.516 34.5C125.516 34.7667 125.449 35 125.316 35.2C125.199 35.4 124.983 35.6167 124.666 35.85L122.391 37.55C121.924 37.5333 121.566 37.425 121.316 37.225C121.083 37.025 120.966 36.7833 120.966 36.5C120.966 36.3333 120.999 36.175 121.066 36.025C121.133 35.875 121.249 35.725 121.416 35.575ZM131.399 41.925L134.049 41.825C134.115 42.4417 134.165 43.1 134.199 43.8C134.232 44.5 134.257 45.2 134.274 45.9C134.29 46.5833 134.299 47.25 134.299 47.9V53.975C134.182 54.0083 133.999 54.0417 133.749 54.075C133.499 54.125 133.24 54.15 132.974 54.15C132.424 54.15 132.024 54.05 131.774 53.85C131.524 53.65 131.399 53.3083 131.399 52.825V41.925ZM144.124 50.875L141.474 50.95C141.34 49.65 141.265 48.3667 141.249 47.1C141.232 45.8333 141.224 44.6083 141.224 43.425V38.825C141.357 38.7917 141.54 38.75 141.774 38.7C142.024 38.65 142.29 38.625 142.574 38.625C143.124 38.625 143.515 38.7333 143.749 38.95C143.999 39.15 144.124 39.4917 144.124 39.975V50.875ZM144.124 49.875V48.55V53.625C143.94 53.775 143.69 53.9 143.374 54C143.057 54.1167 142.69 54.175 142.274 54.175C141.79 54.175 141.349 54.0917 140.949 53.925C140.565 53.7583 140.232 53.4083 139.949 52.875L136.124 46.05C135.907 45.6333 135.674 45.2083 135.424 44.775C135.19 44.325 134.965 43.8833 134.749 43.45C134.549 43.0167 134.365 42.625 134.199 42.275L131.399 42.925V39.3C131.582 39.1 131.84 38.9417 132.174 38.825C132.507 38.7083 132.874 38.65 133.274 38.65C133.757 38.65 134.19 38.7333 134.574 38.9C134.974 39.0667 135.315 39.4167 135.599 39.95L139.449 46.75C139.682 47.1667 139.915 47.6 140.149 48.05C140.382 48.5 140.599 48.9417 140.799 49.375C140.999 49.7917 141.174 50.175 141.324 50.525L144.124 49.875Z" fill="black"/>
</svg>
