<svg width="372" height="282" viewBox="0 0 372 282" fill="none" xmlns="http://www.w3.org/2000/svg">
<rect width="372" height="282" fill="#FFD41A"/>
<path d="M35.4023 51.925C36.3857 51.925 37.119 51.725 37.6023 51.325C38.0857 50.9083 38.3273 50.3917 38.3273 49.775C38.3273 49.2417 38.1357 48.8 37.7523 48.45C37.3857 48.1 36.819 47.8083 36.0523 47.575L34.3273 47.05C33.5273 46.7833 32.819 46.475 32.2023 46.125C31.6023 45.775 31.1357 45.325 30.8023 44.775C30.469 44.225 30.3023 43.5583 30.3023 42.775C30.3023 41.425 30.8023 40.3667 31.8023 39.6C32.8023 38.8167 34.1607 38.425 35.8773 38.425C36.8107 38.425 37.6357 38.525 38.3523 38.725C39.0857 38.9083 39.6607 39.1667 40.0773 39.5C40.494 39.8333 40.7023 40.2167 40.7023 40.65C40.7023 40.9333 40.6273 41.1917 40.4773 41.425C40.3273 41.6583 40.1357 41.85 39.9023 42C39.519 41.7 38.9857 41.4417 38.3023 41.225C37.6357 41.0083 36.9023 40.9 36.1023 40.9C35.2357 40.9 34.5607 41.075 34.0773 41.425C33.594 41.7583 33.3523 42.2083 33.3523 42.775C33.3523 43.225 33.519 43.5917 33.8523 43.875C34.1857 44.1583 34.7107 44.4 35.4273 44.6L36.8773 45.05C38.294 45.4667 39.394 46.05 40.1773 46.8C40.9773 47.5333 41.3773 48.5333 41.3773 49.8C41.3773 51.15 40.8607 52.25 39.8273 53.1C38.8107 53.95 37.3523 54.375 35.4523 54.375C34.4357 54.375 33.5357 54.2583 32.7523 54.025C31.969 53.8083 31.3523 53.5167 30.9023 53.15C30.4523 52.7667 30.2273 52.35 30.2273 51.9C30.2273 51.5333 30.3357 51.225 30.5523 50.975C30.7857 50.725 31.0357 50.5417 31.3023 50.425C31.719 50.7917 32.269 51.1333 32.9523 51.45C33.6523 51.7667 34.469 51.925 35.4023 51.925ZM43.1068 44.1H46.0318V53.825C45.9152 53.8583 45.7318 53.9 45.4818 53.95C45.2318 54 44.9735 54.025 44.7068 54.025C44.2235 54.025 43.8318 53.8833 43.5318 53.6C43.2485 53.3 43.1068 52.9167 43.1068 52.45V44.1ZM46.0318 48.675L43.1068 48.65V40.4C43.1068 39.9167 43.2485 39.5333 43.5318 39.25C43.8318 38.9667 44.2235 38.825 44.7068 38.825C44.9735 38.825 45.2318 38.85 45.4818 38.9C45.7318 38.95 45.9152 38.9917 46.0318 39.025V48.675ZM44.7068 47.425V45.05H52.2318C52.3152 45.1667 52.3902 45.325 52.4568 45.525C52.5235 45.725 52.5568 45.95 52.5568 46.2C52.5568 46.6 52.4652 46.9083 52.2818 47.125C52.0985 47.325 51.8318 47.425 51.4818 47.425H44.7068ZM44.7068 54.025V51.625H53.1068C53.1735 51.7417 53.2402 51.9083 53.3068 52.125C53.3735 52.325 53.4068 52.55 53.4068 52.8C53.4068 53.2 53.3152 53.5083 53.1318 53.725C52.9485 53.925 52.6902 54.025 52.3568 54.025H44.7068ZM44.7068 41.225V38.825H52.9818C53.0652 38.9417 53.1402 39.1 53.2068 39.3C53.2735 39.5 53.3068 39.7167 53.3068 39.95C53.3068 40.3667 53.2068 40.6833 53.0068 40.9C52.8235 41.1167 52.5652 41.225 52.2318 41.225H44.7068ZM67.8875 46.675V51.975C67.8875 52.3583 67.7958 52.6667 67.6125 52.9C67.4292 53.1167 67.1542 53.325 66.7875 53.525C66.3542 53.7583 65.7375 53.9583 64.9375 54.125C64.1375 54.2917 63.3375 54.375 62.5375 54.375C60.9708 54.375 59.5625 54.1 58.3125 53.55C57.0792 52.9833 56.1042 52.1167 55.3875 50.95C54.6875 49.7667 54.3375 48.2583 54.3375 46.425C54.3375 44.6583 54.6958 43.1833 55.4125 42C56.1458 40.8167 57.1208 39.925 58.3375 39.325C59.5542 38.725 60.8958 38.425 62.3625 38.425C63.3458 38.425 64.2042 38.5333 64.9375 38.75C65.6875 38.9667 66.2625 39.25 66.6625 39.6C67.0792 39.9333 67.2875 40.3 67.2875 40.7C67.2875 41 67.2042 41.2667 67.0375 41.5C66.8708 41.7333 66.6792 41.9167 66.4625 42.05C66.0125 41.7667 65.4792 41.5 64.8625 41.25C64.2458 41 63.4792 40.875 62.5625 40.875C61.5792 40.875 60.6958 41.0917 59.9125 41.525C59.1292 41.9583 58.5125 42.5917 58.0625 43.425C57.6292 44.2417 57.4125 45.2417 57.4125 46.425C57.4125 47.6917 57.6375 48.7333 58.0875 49.55C58.5375 50.35 59.1542 50.95 59.9375 51.35C60.7208 51.75 61.6042 51.95 62.5875 51.95C63.0875 51.95 63.5542 51.9083 63.9875 51.825C64.4208 51.725 64.7542 51.6167 64.9875 51.5V47.775H61.6625C61.5958 47.6583 61.5292 47.5 61.4625 47.3C61.3958 47.0833 61.3625 46.8583 61.3625 46.625C61.3625 46.2083 61.4542 45.9 61.6375 45.7C61.8208 45.5 62.0792 45.4 62.4125 45.4H66.6125C66.9792 45.4 67.2792 45.5167 67.5125 45.75C67.7625 45.9667 67.8875 46.275 67.8875 46.675ZM76.3479 54.375C75.0479 54.375 73.9312 54.1417 72.9979 53.675C72.0645 53.1917 71.3479 52.5167 70.8479 51.65C70.3645 50.7833 70.1229 49.775 70.1229 48.625V46.8H73.0729V48.5C73.0729 49.6167 73.3812 50.4667 73.9979 51.05C74.6312 51.6333 75.4145 51.925 76.3479 51.925C77.2979 51.925 78.0812 51.6333 78.6979 51.05C79.3145 50.4667 79.6229 49.6167 79.6229 48.5V46.8H82.5979V48.625C82.5979 49.775 82.3479 50.7833 81.8479 51.65C81.3645 52.5167 80.6562 53.1917 79.7229 53.675C78.7895 54.1417 77.6645 54.375 76.3479 54.375ZM73.0729 47.675H70.1229V38.825C70.2395 38.7917 70.4312 38.75 70.6979 38.7C70.9645 38.65 71.2312 38.625 71.4979 38.625C72.0479 38.625 72.4479 38.725 72.6979 38.925C72.9479 39.125 73.0729 39.4917 73.0729 40.025V47.675ZM82.5979 47.7H79.6229V38.825C79.7562 38.7917 79.9479 38.75 80.1979 38.7C80.4645 38.65 80.7312 38.625 80.9979 38.625C81.5645 38.625 81.9729 38.725 82.2229 38.925C82.4729 39.125 82.5979 39.4917 82.5979 40.025V47.7ZM85.3047 44.125H88.2797V53.95C88.1464 54 87.9547 54.0417 87.7047 54.075C87.4547 54.125 87.188 54.15 86.9047 54.15C86.338 54.15 85.9297 54.05 85.6797 53.85C85.4297 53.6333 85.3047 53.275 85.3047 52.775V44.125ZM88.2797 47.45H85.3047V38.825C85.438 38.7917 85.6297 38.75 85.8797 38.7C86.1464 38.65 86.413 38.625 86.6797 38.625C87.2297 38.625 87.6297 38.725 87.8797 38.925C88.1464 39.125 88.2797 39.4917 88.2797 40.025V47.45ZM100.412 50.15C100.245 50.2667 100.037 50.3667 99.7871 50.45C99.5371 50.5333 99.2538 50.575 98.9371 50.575C98.5371 50.575 98.1954 50.525 97.9121 50.425C97.6288 50.3083 97.4371 50.1167 97.3371 49.85C96.6204 48.15 96.0038 46.6583 95.4871 45.375C94.9704 44.075 94.5621 42.9833 94.2621 42.1H94.1621C94.1121 43.2333 94.0621 44.2917 94.0121 45.275C93.9621 46.2417 93.9121 47.1833 93.8621 48.1C93.8288 49 93.7871 49.925 93.7371 50.875C93.7038 51.825 93.6454 52.85 93.5621 53.95C93.4288 54 93.2371 54.05 92.9871 54.1C92.7538 54.15 92.5121 54.175 92.2621 54.175C91.7621 54.175 91.3788 54.0833 91.1121 53.9C90.8621 53.7 90.7371 53.4 90.7371 53C90.7371 52.7167 90.7538 52.2167 90.7871 51.5C90.8371 50.7667 90.8871 49.9 90.9371 48.9C91.0038 47.9 91.0704 46.85 91.1371 45.75C91.2204 44.6333 91.2954 43.5333 91.3621 42.45C91.4454 41.35 91.5288 40.35 91.6121 39.45C91.7454 39.3 91.9704 39.1417 92.2871 38.975C92.6204 38.8083 93.0454 38.725 93.5621 38.725C94.1454 38.725 94.6204 38.825 94.9871 39.025C95.3538 39.225 95.6204 39.55 95.7871 40C96.1371 40.7167 96.4871 41.525 96.8371 42.425C97.1871 43.3083 97.5288 44.2 97.8621 45.1C98.2121 45.9833 98.5454 46.8083 98.8621 47.575H98.9621C99.5621 45.9583 100.162 44.4 100.762 42.9C101.362 41.3833 101.87 40.1083 102.287 39.075C102.487 38.975 102.737 38.8917 103.037 38.825C103.337 38.7583 103.637 38.725 103.937 38.725C104.504 38.725 104.954 38.8167 105.287 39C105.637 39.1667 105.845 39.425 105.912 39.775C105.979 40.075 106.054 40.5667 106.137 41.25C106.22 41.9333 106.304 42.7333 106.387 43.65C106.47 44.55 106.545 45.5 106.612 46.5C106.695 47.4833 106.77 48.45 106.837 49.4C106.904 50.35 106.962 51.2083 107.012 51.975C107.079 52.7417 107.12 53.35 107.137 53.8C106.937 53.9333 106.72 54.025 106.487 54.075C106.27 54.1417 106.004 54.175 105.687 54.175C105.287 54.175 104.937 54.0917 104.637 53.925C104.354 53.7583 104.195 53.45 104.162 53C104.079 51.55 103.995 50.1417 103.912 48.775C103.845 47.4083 103.787 46.1583 103.737 45.025C103.704 43.8917 103.662 42.9417 103.612 42.175H103.512C103.229 42.9917 102.829 44.0333 102.312 45.3C101.812 46.55 101.179 48.1667 100.412 50.15ZM109.465 44.125H112.44V53.95C112.307 54 112.115 54.0417 111.865 54.075C111.615 54.125 111.348 54.15 111.065 54.15C110.498 54.15 110.09 54.05 109.84 53.85C109.59 53.6333 109.465 53.275 109.465 52.775V44.125ZM112.44 47.45H109.465V38.825C109.598 38.7917 109.79 38.75 110.04 38.7C110.307 38.65 110.573 38.625 110.84 38.625C111.39 38.625 111.79 38.725 112.04 38.925C112.307 39.125 112.44 39.4917 112.44 40.025V47.45ZM115.172 44.1H118.097V53.825C117.981 53.8583 117.797 53.9 117.547 53.95C117.297 54 117.039 54.025 116.772 54.025C116.289 54.025 115.897 53.8833 115.597 53.6C115.314 53.3 115.172 52.9167 115.172 52.45V44.1ZM118.097 48.675L115.172 48.65V40.4C115.172 39.9167 115.314 39.5333 115.597 39.25C115.897 38.9667 116.289 38.825 116.772 38.825C117.039 38.825 117.297 38.85 117.547 38.9C117.797 38.95 117.981 38.9917 118.097 39.025V48.675ZM116.772 47.425V45.05H124.297C124.381 45.1667 124.456 45.325 124.522 45.525C124.589 45.725 124.622 45.95 124.622 46.2C124.622 46.6 124.531 46.9083 124.347 47.125C124.164 47.325 123.897 47.425 123.547 47.425H116.772ZM116.772 54.025V51.625H125.172C125.239 51.7417 125.306 51.9083 125.372 52.125C125.439 52.325 125.472 52.55 125.472 52.8C125.472 53.2 125.381 53.5083 125.197 53.725C125.014 53.925 124.756 54.025 124.422 54.025H116.772ZM116.772 41.225V38.825H125.047C125.131 38.9417 125.206 39.1 125.272 39.3C125.339 39.5 125.372 39.7167 125.372 39.95C125.372 40.3667 125.272 40.6833 125.072 40.9C124.889 41.1167 124.631 41.225 124.297 41.225H116.772ZM127.374 41.925L130.024 41.825C130.091 42.4417 130.141 43.1 130.174 43.8C130.208 44.5 130.233 45.2 130.249 45.9C130.266 46.5833 130.274 47.25 130.274 47.9V53.975C130.158 54.0083 129.974 54.0417 129.724 54.075C129.474 54.125 129.216 54.15 128.949 54.15C128.399 54.15 127.999 54.05 127.749 53.85C127.499 53.65 127.374 53.3083 127.374 52.825V41.925ZM140.099 50.875L137.449 50.95C137.316 49.65 137.241 48.3667 137.224 47.1C137.208 45.8333 137.199 44.6083 137.199 43.425V38.825C137.333 38.7917 137.516 38.75 137.749 38.7C137.999 38.65 138.266 38.625 138.549 38.625C139.099 38.625 139.491 38.7333 139.724 38.95C139.974 39.15 140.099 39.4917 140.099 39.975V50.875ZM140.099 49.875V48.55V53.625C139.916 53.775 139.666 53.9 139.349 54C139.033 54.1167 138.666 54.175 138.249 54.175C137.766 54.175 137.324 54.0917 136.924 53.925C136.541 53.7583 136.208 53.4083 135.924 52.875L132.099 46.05C131.883 45.6333 131.649 45.2083 131.399 44.775C131.166 44.325 130.941 43.8833 130.724 43.45C130.524 43.0167 130.341 42.625 130.174 42.275L127.374 42.925V39.3C127.558 39.1 127.816 38.9417 128.149 38.825C128.483 38.7083 128.849 38.65 129.249 38.65C129.733 38.65 130.166 38.7333 130.549 38.9C130.949 39.0667 131.291 39.4167 131.574 39.95L135.424 46.75C135.658 47.1667 135.891 47.6 136.124 48.05C136.358 48.5 136.574 48.9417 136.774 49.375C136.974 49.7917 137.149 50.175 137.299 50.525L140.099 49.875ZM146.624 41.25L146.549 38.825H153.374C153.44 38.9417 153.507 39.1083 153.574 39.325C153.64 39.525 153.674 39.7417 153.674 39.975C153.674 40.3917 153.574 40.7083 153.374 40.925C153.19 41.1417 152.932 41.25 152.599 41.25H146.624ZM148.474 38.825L148.549 41.25H141.724C141.64 41.1333 141.565 40.975 141.499 40.775C141.432 40.5583 141.399 40.325 141.399 40.075C141.399 39.6583 141.49 39.35 141.674 39.15C141.874 38.9333 142.14 38.825 142.474 38.825H148.474ZM146.024 40.575H148.999V53.95C148.882 54 148.69 54.0417 148.424 54.075C148.174 54.125 147.907 54.15 147.624 54.15C147.057 54.15 146.649 54.05 146.399 53.85C146.149 53.6333 146.024 53.275 146.024 52.775V40.575ZM168.543 46.4C168.543 48.1333 168.209 49.5917 167.543 50.775C166.893 51.9583 166.001 52.8583 164.868 53.475C163.734 54.075 162.451 54.375 161.018 54.375C159.584 54.375 158.301 54.075 157.168 53.475C156.034 52.8583 155.134 51.9583 154.468 50.775C153.818 49.5917 153.493 48.1333 153.493 46.4C153.493 44.6667 153.826 43.2083 154.493 42.025C155.176 40.8417 156.084 39.95 157.218 39.35C158.351 38.7333 159.618 38.425 161.018 38.425C162.434 38.425 163.709 38.7333 164.843 39.35C165.976 39.95 166.876 40.8417 167.543 42.025C168.209 43.2083 168.543 44.6667 168.543 46.4ZM165.493 46.4C165.493 44.6167 165.084 43.25 164.268 42.3C163.451 41.35 162.368 40.875 161.018 40.875C159.684 40.875 158.609 41.35 157.793 42.3C156.976 43.25 156.568 44.6167 156.568 46.4C156.568 48.2 156.968 49.575 157.768 50.525C158.584 51.4583 159.668 51.925 161.018 51.925C162.384 51.925 163.468 51.4583 164.268 50.525C165.084 49.575 165.493 48.2 165.493 46.4ZM184.455 46.325C184.455 45.0583 184.222 44.0333 183.755 43.25C183.305 42.45 182.689 41.8667 181.905 41.5C181.122 41.1167 180.23 40.925 179.23 40.925C178.83 40.925 178.464 40.9417 178.13 40.975C177.797 40.9917 177.48 41.025 177.18 41.075V51.7C177.48 51.7667 177.822 51.8167 178.205 51.85C178.605 51.8833 178.989 51.9 179.355 51.9C180.989 51.9 182.247 51.4333 183.13 50.5C184.014 49.55 184.455 48.1583 184.455 46.325ZM187.505 46.3C187.505 48.1 187.164 49.6 186.48 50.8C185.814 51.9833 184.872 52.8667 183.655 53.45C182.439 54.0333 181.005 54.325 179.355 54.325C178.822 54.325 178.18 54.2917 177.43 54.225C176.697 54.175 176.022 54.0417 175.405 53.825C174.605 53.5583 174.205 53.0917 174.205 52.425V40.025C174.205 39.725 174.289 39.5 174.455 39.35C174.622 39.1833 174.847 39.05 175.13 38.95C175.73 38.7667 176.38 38.6417 177.08 38.575C177.797 38.5083 178.48 38.475 179.13 38.475C180.797 38.475 182.255 38.7667 183.505 39.35C184.772 39.9167 185.755 40.775 186.455 41.925C187.155 43.075 187.505 44.5333 187.505 46.3ZM189.411 44.1H192.336V53.825C192.219 53.8583 192.036 53.9 191.786 53.95C191.536 54 191.277 54.025 191.011 54.025C190.527 54.025 190.136 53.8833 189.836 53.6C189.552 53.3 189.411 52.9167 189.411 52.45V44.1ZM192.336 48.675L189.411 48.65V40.4C189.411 39.9167 189.552 39.5333 189.836 39.25C190.136 38.9667 190.527 38.825 191.011 38.825C191.277 38.825 191.536 38.85 191.786 38.9C192.036 38.95 192.219 38.9917 192.336 39.025V48.675ZM191.011 47.425V45.05H198.536C198.619 45.1667 198.694 45.325 198.761 45.525C198.827 45.725 198.861 45.95 198.861 46.2C198.861 46.6 198.769 46.9083 198.586 47.125C198.402 47.325 198.136 47.425 197.786 47.425H191.011ZM191.011 54.025V51.625H199.411C199.477 51.7417 199.544 51.9083 199.611 52.125C199.677 52.325 199.711 52.55 199.711 52.8C199.711 53.2 199.619 53.5083 199.436 53.725C199.252 53.925 198.994 54.025 198.661 54.025H191.011ZM191.011 41.225V38.825H199.286C199.369 38.9417 199.444 39.1 199.511 39.3C199.577 39.5 199.611 39.7167 199.611 39.95C199.611 40.3667 199.511 40.6833 199.311 40.9C199.127 41.1167 198.869 41.225 198.536 41.225H191.011ZM205.368 44.1H208.293V53.825C208.176 53.8583 207.993 53.9 207.743 53.95C207.493 54 207.234 54.025 206.968 54.025C206.484 54.025 206.093 53.8833 205.793 53.6C205.509 53.3 205.368 52.9167 205.368 52.45V44.1ZM208.293 48.675L205.368 48.65V40.4C205.368 39.9167 205.509 39.5333 205.793 39.25C206.093 38.9667 206.484 38.825 206.968 38.825C207.234 38.825 207.493 38.85 207.743 38.9C207.993 38.95 208.176 38.9917 208.293 39.025V48.675ZM206.968 47.425V45.05H214.493C214.576 45.1667 214.651 45.325 214.718 45.525C214.784 45.725 214.818 45.95 214.818 46.2C214.818 46.6 214.726 46.9083 214.543 47.125C214.359 47.325 214.093 47.425 213.743 47.425H206.968ZM206.968 54.025V51.625H215.368C215.434 51.7417 215.501 51.9083 215.568 52.125C215.634 52.325 215.668 52.55 215.668 52.8C215.668 53.2 215.576 53.5083 215.393 53.725C215.209 53.925 214.951 54.025 214.618 54.025H206.968ZM206.968 41.225V38.825H215.243C215.326 38.9417 215.401 39.1 215.468 39.3C215.534 39.5 215.568 39.7167 215.568 39.95C215.568 40.3667 215.468 40.6833 215.268 40.9C215.084 41.1167 214.826 41.225 214.493 41.225H206.968ZM217.57 41.925L220.22 41.825C220.286 42.4417 220.336 43.1 220.37 43.8C220.403 44.5 220.428 45.2 220.445 45.9C220.461 46.5833 220.47 47.25 220.47 47.9V53.975C220.353 54.0083 220.17 54.0417 219.92 54.075C219.67 54.125 219.411 54.15 219.145 54.15C218.595 54.15 218.195 54.05 217.945 53.85C217.695 53.65 217.57 53.3083 217.57 52.825V41.925ZM230.295 50.875L227.645 50.95C227.511 49.65 227.436 48.3667 227.42 47.1C227.403 45.8333 227.395 44.6083 227.395 43.425V38.825C227.528 38.7917 227.711 38.75 227.945 38.7C228.195 38.65 228.461 38.625 228.745 38.625C229.295 38.625 229.686 38.7333 229.92 38.95C230.17 39.15 230.295 39.4917 230.295 39.975V50.875ZM230.295 49.875V48.55V53.625C230.111 53.775 229.861 53.9 229.545 54C229.228 54.1167 228.861 54.175 228.445 54.175C227.961 54.175 227.52 54.0917 227.12 53.925C226.736 53.7583 226.403 53.4083 226.12 52.875L222.295 46.05C222.078 45.6333 221.845 45.2083 221.595 44.775C221.361 44.325 221.136 43.8833 220.92 43.45C220.72 43.0167 220.536 42.625 220.37 42.275L217.57 42.925V39.3C217.753 39.1 218.011 38.9417 218.345 38.825C218.678 38.7083 219.045 38.65 219.445 38.65C219.928 38.65 220.361 38.7333 220.745 38.9C221.145 39.0667 221.486 39.4167 221.77 39.95L225.62 46.75C225.853 47.1667 226.086 47.6 226.32 48.05C226.553 48.5 226.77 48.9417 226.97 49.375C227.17 49.7917 227.345 50.175 227.495 50.525L230.295 49.875ZM240.519 53.675C240.386 53.7917 240.144 53.9 239.794 54C239.461 54.1167 239.094 54.175 238.694 54.175C238.227 54.175 237.819 54.1083 237.469 53.975C237.119 53.825 236.886 53.625 236.769 53.375C236.502 52.875 236.194 52.2167 235.844 51.4C235.511 50.5667 235.144 49.6333 234.744 48.6C234.361 47.5667 233.977 46.5083 233.594 45.425C233.211 44.3417 232.852 43.275 232.519 42.225C232.202 41.175 231.919 40.2333 231.669 39.4C231.836 39.2333 232.061 39.075 232.344 38.925C232.644 38.775 232.969 38.7 233.319 38.7C233.752 38.7 234.094 38.8 234.344 39C234.594 39.2 234.786 39.525 234.919 39.975C235.536 41.925 236.144 43.8167 236.744 45.65C237.344 47.4667 237.986 49.325 238.669 51.225H238.794C239.211 50.0583 239.636 48.8 240.069 47.45C240.502 46.0833 240.927 44.6833 241.344 43.25C241.777 41.8 242.169 40.3917 242.519 39.025C242.702 38.925 242.902 38.85 243.119 38.8C243.352 38.7333 243.602 38.7 243.869 38.7C244.302 38.7 244.661 38.8 244.944 39C245.227 39.2 245.369 39.5167 245.369 39.95C245.369 40.2333 245.277 40.725 245.094 41.425C244.911 42.1083 244.669 42.9083 244.369 43.825C244.086 44.7417 243.761 45.7 243.394 46.7C243.044 47.7 242.686 48.6667 242.319 49.6C241.952 50.5333 241.611 51.3583 241.294 52.075C240.994 52.7917 240.736 53.325 240.519 53.675ZM246.857 44.125H249.832V53.95C249.699 54 249.507 54.0417 249.257 54.075C249.007 54.125 248.741 54.15 248.457 54.15C247.891 54.15 247.482 54.05 247.232 53.85C246.982 53.6333 246.857 53.275 246.857 52.775V44.125ZM249.832 47.45H246.857V38.825C246.991 38.7917 247.182 38.75 247.432 38.7C247.699 38.65 247.966 38.625 248.232 38.625C248.782 38.625 249.182 38.725 249.432 38.925C249.699 39.125 249.832 39.4917 249.832 40.025V47.45ZM247.557 35.575L250.082 33.25C250.582 33.25 250.966 33.375 251.232 33.625C251.516 33.8583 251.657 34.15 251.657 34.5C251.657 34.7667 251.591 35 251.457 35.2C251.341 35.4 251.124 35.6167 250.807 35.85L248.532 37.55C248.066 37.5333 247.707 37.425 247.457 37.225C247.224 37.025 247.107 36.7833 247.107 36.5C247.107 36.3333 247.141 36.175 247.207 36.025C247.274 35.875 247.391 35.725 247.557 35.575ZM266.79 46.4C266.79 48.1333 266.457 49.5917 265.79 50.775C265.14 51.9583 264.248 52.8583 263.115 53.475C261.982 54.075 260.698 54.375 259.265 54.375C257.832 54.375 256.548 54.075 255.415 53.475C254.282 52.8583 253.382 51.9583 252.715 50.775C252.065 49.5917 251.74 48.1333 251.74 46.4C251.74 44.6667 252.073 43.2083 252.74 42.025C253.423 40.8417 254.332 39.95 255.465 39.35C256.598 38.7333 257.865 38.425 259.265 38.425C260.682 38.425 261.957 38.7333 263.09 39.35C264.223 39.95 265.123 40.8417 265.79 42.025C266.457 43.2083 266.79 44.6667 266.79 46.4ZM263.74 46.4C263.74 44.6167 263.332 43.25 262.515 42.3C261.698 41.35 260.615 40.875 259.265 40.875C257.932 40.875 256.857 41.35 256.04 42.3C255.223 43.25 254.815 44.6167 254.815 46.4C254.815 48.2 255.215 49.575 256.015 50.525C256.832 51.4583 257.915 51.925 259.265 51.925C260.632 51.925 261.715 51.4583 262.515 50.525C263.332 49.575 263.74 48.2 263.74 46.4Z" fill="black"/>
<path d="M35.425 100.625C36.5417 100.625 37.3833 100.375 37.95 99.875C38.5333 99.3583 38.825 98.7 38.825 97.9C38.825 97.2167 38.6 96.65 38.15 96.2C37.7167 95.75 37.025 95.3917 36.075 95.125L33.9 94.475C33.2 94.2583 32.5917 93.9833 32.075 93.65C31.5583 93.3 31.1583 92.875 30.875 92.375C30.6083 91.8583 30.475 91.2583 30.475 90.575C30.475 89.2917 30.9417 88.2917 31.875 87.575C32.8083 86.8417 34.05 86.475 35.6 86.475C36.5 86.475 37.3 86.575 38 86.775C38.7167 86.9583 39.275 87.2 39.675 87.5C40.0917 87.8 40.3 88.1167 40.3 88.45C40.3 88.6667 40.2417 88.8667 40.125 89.05C40.0083 89.2167 39.8583 89.35 39.675 89.45C39.2583 89.1167 38.6917 88.825 37.975 88.575C37.275 88.325 36.5083 88.2 35.675 88.2C34.7083 88.2 33.9417 88.4167 33.375 88.85C32.8083 89.2667 32.525 89.8417 32.525 90.575C32.525 91.1583 32.725 91.6333 33.125 92C33.5417 92.3667 34.2083 92.6833 35.125 92.95L36.65 93.4C37.9667 93.7667 39 94.3 39.75 95C40.5167 95.7 40.9 96.6667 40.9 97.9C40.9 99.2167 40.4167 100.283 39.45 101.1C38.5 101.917 37.1583 102.325 35.425 102.325C34.4083 102.325 33.5167 102.217 32.75 102C32 101.767 31.4083 101.483 30.975 101.15C30.5583 100.8 30.35 100.458 30.35 100.125C30.35 99.8417 30.4333 99.6083 30.6 99.425C30.7833 99.225 30.9917 99.0833 31.225 99C31.6083 99.3667 32.15 99.7333 32.85 100.1C33.55 100.45 34.4083 100.625 35.425 100.625ZM42.5359 86.8C42.5359 86.45 42.6609 86.1583 42.9109 85.925C43.1609 85.675 43.4693 85.55 43.8359 85.55C44.2193 85.55 44.5276 85.675 44.7609 85.925C44.9943 86.1583 45.1109 86.45 45.1109 86.8C45.1109 87.15 44.9943 87.45 44.7609 87.7C44.5276 87.9333 44.2193 88.05 43.8359 88.05C43.4693 88.05 43.1609 87.9333 42.9109 87.7C42.6609 87.45 42.5359 87.15 42.5359 86.8ZM42.8359 95.4H44.8359V101.95C44.7526 101.983 44.6276 102.017 44.4609 102.05C44.2943 102.1 44.1109 102.125 43.9109 102.125C43.5609 102.125 43.2943 102.058 43.1109 101.925C42.9276 101.775 42.8359 101.542 42.8359 101.225V95.4ZM44.8359 96.375H42.8359V90.5C42.9193 90.4667 43.0443 90.4333 43.2109 90.4C43.3943 90.35 43.5859 90.325 43.7859 90.325C44.1359 90.325 44.3943 90.4 44.5609 90.55C44.7443 90.6833 44.8359 90.9167 44.8359 91.25V96.375ZM55.6412 98.925C55.6412 99.9917 55.2495 100.825 54.4662 101.425C53.6829 102.025 52.5495 102.325 51.0662 102.325C49.7995 102.325 48.7662 102.133 47.9662 101.75C47.1662 101.35 46.7662 100.917 46.7662 100.45C46.7662 100.25 46.8162 100.058 46.9162 99.875C47.0329 99.675 47.1995 99.5167 47.4162 99.4C47.8662 99.7167 48.3912 100.008 48.9912 100.275C49.5912 100.542 50.2745 100.675 51.0412 100.675C52.7745 100.675 53.6412 100.092 53.6412 98.925C53.6412 98.4417 53.4912 98.05 53.1912 97.75C52.9079 97.4333 52.4829 97.2083 51.9162 97.075L49.8412 96.525C48.8245 96.275 48.0829 95.8917 47.6162 95.375C47.1495 94.8417 46.9162 94.1833 46.9162 93.4C46.9162 92.5167 47.2745 91.75 47.9912 91.1C48.7079 90.45 49.7995 90.125 51.2662 90.125C52.0495 90.125 52.7329 90.2083 53.3162 90.375C53.8995 90.525 54.3495 90.7333 54.6662 91C54.9995 91.25 55.1662 91.525 55.1662 91.825C55.1662 92.0417 55.1079 92.2333 54.9912 92.4C54.8912 92.5667 54.7495 92.6917 54.5662 92.775C54.3662 92.6417 54.1079 92.5 53.7912 92.35C53.4912 92.1833 53.1329 92.05 52.7162 91.95C52.2995 91.8333 51.8412 91.775 51.3412 91.775C50.6079 91.775 50.0162 91.9167 49.5662 92.2C49.1162 92.4833 48.8912 92.8833 48.8912 93.4C48.8912 93.7667 49.0162 94.0917 49.2662 94.375C49.5329 94.6417 49.9495 94.8417 50.5162 94.975L52.2412 95.4C53.3745 95.6667 54.2245 96.0917 54.7912 96.675C55.3579 97.2417 55.6412 97.9917 55.6412 98.925ZM57.4479 95.4H59.4479V98.85C59.4479 99.5167 59.6395 99.9917 60.0229 100.275C60.4062 100.542 60.9312 100.675 61.5979 100.675C61.8812 100.675 62.1979 100.625 62.5479 100.525C62.8979 100.425 63.1895 100.308 63.4229 100.175C63.5229 100.275 63.6145 100.4 63.6979 100.55C63.7812 100.7 63.8229 100.875 63.8229 101.075C63.8229 101.442 63.6062 101.742 63.1729 101.975C62.7395 102.208 62.1395 102.325 61.3729 102.325C60.2062 102.325 59.2562 102.067 58.5229 101.55C57.8062 101.033 57.4479 100.175 57.4479 98.975V95.4ZM58.4729 92.35V90.7H63.5479C63.5979 90.7667 63.6479 90.875 63.6979 91.025C63.7479 91.175 63.7729 91.3333 63.7729 91.5C63.7729 91.7667 63.7062 91.975 63.5729 92.125C63.4395 92.275 63.2562 92.35 63.0229 92.35H58.4729ZM59.4479 96.15H57.4479V87.1C57.5312 87.0667 57.6562 87.0333 57.8229 87C58.0062 86.95 58.1979 86.925 58.3979 86.925C58.7479 86.925 59.0062 87 59.1729 87.15C59.3562 87.2833 59.4479 87.5083 59.4479 87.825V96.15ZM65.8334 97.5L65.7334 95.925L73.2834 94.9C73.2167 93.9833 72.9001 93.2333 72.3334 92.65C71.7667 92.05 70.9834 91.75 69.9834 91.75C68.9501 91.75 68.0917 92.125 67.4084 92.875C66.7417 93.6083 66.4084 94.6667 66.4084 96.05V96.6C66.5251 97.9333 66.9584 98.95 67.7084 99.65C68.4751 100.333 69.5167 100.675 70.8334 100.675C71.5334 100.675 72.1667 100.558 72.7334 100.325C73.3001 100.092 73.7501 99.8417 74.0834 99.575C74.2667 99.6917 74.4084 99.8333 74.5084 100C74.6251 100.15 74.6834 100.325 74.6834 100.525C74.6834 100.842 74.5001 101.142 74.1334 101.425C73.7834 101.692 73.3084 101.908 72.7084 102.075C72.1251 102.242 71.4667 102.325 70.7334 102.325C69.4501 102.325 68.3334 102.092 67.3834 101.625C66.4501 101.158 65.7251 100.467 65.2084 99.55C64.7084 98.6167 64.4584 97.4833 64.4584 96.15C64.4584 95.2 64.5917 94.3583 64.8584 93.625C65.1417 92.875 65.5251 92.2417 66.0084 91.725C66.5084 91.2083 67.1001 90.8167 67.7834 90.55C68.4667 90.2667 69.2084 90.125 70.0084 90.125C71.0251 90.125 71.9167 90.3417 72.6834 90.775C73.4667 91.2083 74.0751 91.8167 74.5084 92.6C74.9584 93.3667 75.1834 94.25 75.1834 95.25C75.1834 95.6167 75.1001 95.8833 74.9334 96.05C74.7667 96.2 74.5334 96.2917 74.2334 96.325L65.8334 97.5ZM86.1473 94V96.875H84.1473V94.15C84.1473 93.3333 83.9056 92.7333 83.4223 92.35C82.9556 91.9667 82.3306 91.775 81.5473 91.775C81.0306 91.775 80.5306 91.8583 80.0473 92.025C79.5639 92.1917 79.1556 92.3833 78.8223 92.6V96.875H76.8223V92.7C76.8223 92.3667 76.8889 92.0833 77.0223 91.85C77.1723 91.6167 77.4223 91.3917 77.7723 91.175C78.2223 90.8917 78.7889 90.65 79.4723 90.45C80.1723 90.2333 80.8723 90.125 81.5723 90.125C82.4223 90.125 83.1723 90.2583 83.8223 90.525C84.4723 90.775 84.9556 91.125 85.2723 91.575C85.3723 91.675 85.4556 91.7667 85.5223 91.85C85.5889 91.9333 85.6556 92.0417 85.7223 92.175C85.8389 92.375 85.9389 92.6333 86.0223 92.95C86.1056 93.2667 86.1473 93.6167 86.1473 94ZM93.4723 94.05V96.875H91.4723V94.15C91.4723 93.3333 91.2389 92.7333 90.7723 92.35C90.3056 91.9667 89.6806 91.775 88.8973 91.775C88.3139 91.775 87.7473 91.9 87.1973 92.15C86.6639 92.3833 86.1806 92.725 85.7473 93.175L84.9473 91.725C85.3806 91.2917 85.9473 90.9167 86.6473 90.6C87.3473 90.2833 88.1473 90.125 89.0473 90.125C89.9473 90.125 90.7223 90.2667 91.3723 90.55C92.0389 90.8333 92.5556 91.2667 92.9223 91.85C93.2889 92.4333 93.4723 93.1667 93.4723 94.05ZM76.8223 95.55H78.8223V101.95C78.7389 101.983 78.6139 102.017 78.4473 102.05C78.2806 102.1 78.0973 102.125 77.8973 102.125C77.5473 102.125 77.2806 102.058 77.0973 101.925C76.9139 101.775 76.8223 101.542 76.8223 101.225V95.55ZM84.1473 95.55H86.1473V101.95C86.0639 101.983 85.9306 102.017 85.7473 102.05C85.5806 102.1 85.4056 102.125 85.2223 102.125C84.8556 102.125 84.5806 102.058 84.3973 101.925C84.2306 101.775 84.1473 101.542 84.1473 101.225V95.55ZM91.4723 95.55H93.4723V101.95C93.3889 101.983 93.2556 102.017 93.0723 102.05C92.9056 102.1 92.7306 102.125 92.5473 102.125C92.1806 102.125 91.9056 102.058 91.7223 101.925C91.5556 101.775 91.4723 101.542 91.4723 101.225V95.55ZM100.107 102.35C98.5408 102.35 97.3241 102.042 96.4574 101.425C95.6074 100.808 95.1824 99.9167 95.1824 98.75C95.1824 97.6667 95.5408 96.8417 96.2574 96.275C96.9908 95.6917 97.9991 95.3417 99.2824 95.225L102.832 94.875V94.175C102.832 93.3417 102.582 92.7333 102.082 92.35C101.582 91.9667 100.907 91.775 100.057 91.775C99.3741 91.775 98.7158 91.875 98.0824 92.075C97.4658 92.275 96.9158 92.5 96.4324 92.75C96.2991 92.6333 96.1741 92.5 96.0574 92.35C95.9574 92.1833 95.9074 92.0167 95.9074 91.85C95.9074 91.4167 96.1491 91.0833 96.6324 90.85C97.0824 90.6167 97.5991 90.4417 98.1824 90.325C98.7824 90.1917 99.4158 90.125 100.082 90.125C101.532 90.125 102.682 90.45 103.532 91.1C104.382 91.75 104.807 92.775 104.807 94.175V100.1C104.807 100.467 104.732 100.75 104.582 100.95C104.449 101.133 104.241 101.308 103.957 101.475C103.557 101.692 103.024 101.892 102.357 102.075C101.691 102.258 100.941 102.35 100.107 102.35ZM100.107 100.7C100.807 100.7 101.382 100.633 101.832 100.5C102.299 100.35 102.632 100.208 102.832 100.075V96.45L99.7324 96.775C98.8658 96.8417 98.2241 97.0333 97.8074 97.35C97.3908 97.6667 97.1824 98.125 97.1824 98.725C97.1824 99.3417 97.4241 99.825 97.9074 100.175C98.4074 100.525 99.1408 100.7 100.107 100.7ZM118.838 100.025V91.625L120.838 91.6V100.1C120.838 100.417 120.763 100.675 120.613 100.875C120.48 101.058 120.263 101.242 119.963 101.425C119.63 101.642 119.155 101.842 118.538 102.025C117.921 102.225 117.213 102.325 116.413 102.325C115.213 102.325 114.155 102.117 113.238 101.7C112.321 101.283 111.605 100.633 111.088 99.75C110.571 98.85 110.313 97.6917 110.313 96.275C110.313 94.825 110.563 93.65 111.063 92.75C111.58 91.85 112.271 91.1917 113.138 90.775C114.005 90.3417 114.955 90.125 115.988 90.125C116.638 90.125 117.255 90.2167 117.838 90.4C118.421 90.5833 118.88 90.8083 119.213 91.075V92.925C118.896 92.6083 118.48 92.3417 117.963 92.125C117.463 91.8917 116.871 91.775 116.188 91.775C115.505 91.775 114.871 91.925 114.288 92.225C113.705 92.5083 113.238 92.9833 112.888 93.65C112.538 94.3167 112.363 95.2083 112.363 96.325C112.363 97.8417 112.73 98.95 113.463 99.65C114.196 100.333 115.171 100.675 116.388 100.675C116.971 100.675 117.446 100.617 117.813 100.5C118.196 100.367 118.538 100.208 118.838 100.025ZM120.838 92.1L118.838 92.125V85.8C118.921 85.7667 119.046 85.7333 119.213 85.7C119.396 85.65 119.58 85.625 119.763 85.625C120.13 85.625 120.396 85.7 120.563 85.85C120.746 85.9833 120.838 86.2083 120.838 86.525V92.1ZM124.11 97.5L124.01 95.925L131.56 94.9C131.493 93.9833 131.176 93.2333 130.61 92.65C130.043 92.05 129.26 91.75 128.26 91.75C127.226 91.75 126.368 92.125 125.685 92.875C125.018 93.6083 124.685 94.6667 124.685 96.05V96.6C124.801 97.9333 125.235 98.95 125.985 99.65C126.751 100.333 127.793 100.675 129.11 100.675C129.81 100.675 130.443 100.558 131.01 100.325C131.576 100.092 132.026 99.8417 132.36 99.575C132.543 99.6917 132.685 99.8333 132.785 100C132.901 100.15 132.96 100.325 132.96 100.525C132.96 100.842 132.776 101.142 132.41 101.425C132.06 101.692 131.585 101.908 130.985 102.075C130.401 102.242 129.743 102.325 129.01 102.325C127.726 102.325 126.61 102.092 125.66 101.625C124.726 101.158 124.001 100.467 123.485 99.55C122.985 98.6167 122.735 97.4833 122.735 96.15C122.735 95.2 122.868 94.3583 123.135 93.625C123.418 92.875 123.801 92.2417 124.285 91.725C124.785 91.2083 125.376 90.8167 126.06 90.55C126.743 90.2667 127.485 90.125 128.285 90.125C129.301 90.125 130.193 90.3417 130.96 90.775C131.743 91.2083 132.351 91.8167 132.785 92.6C133.235 93.3667 133.46 94.25 133.46 95.25C133.46 95.6167 133.376 95.8833 133.21 96.05C133.043 96.2 132.81 96.2917 132.51 96.325L124.11 97.5ZM143.654 101.65C142.687 101.65 141.795 101.467 140.979 101.1C140.162 100.717 139.504 100.1 139.004 99.25C138.504 98.4 138.254 97.275 138.254 95.875C138.254 94.6083 138.495 93.55 138.979 92.7C139.479 91.85 140.162 91.2083 141.029 90.775C141.895 90.3417 142.887 90.125 144.004 90.125C144.77 90.125 145.47 90.225 146.104 90.425C146.754 90.6083 147.295 90.8417 147.729 91.125C147.979 91.2917 148.179 91.4833 148.329 91.7C148.495 91.9 148.579 92.15 148.579 92.45V100.175H146.579V92.475C146.295 92.2917 145.937 92.1333 145.504 92C145.087 91.85 144.587 91.775 144.004 91.775C142.887 91.775 141.987 92.1167 141.304 92.8C140.62 93.4833 140.279 94.5 140.279 95.85C140.279 97.35 140.62 98.4167 141.304 99.05C142.004 99.6833 142.862 100 143.879 100C144.612 100 145.204 99.875 145.654 99.625C146.104 99.375 146.462 99.1 146.729 98.8L146.829 100.575C146.579 100.842 146.179 101.092 145.629 101.325C145.095 101.542 144.437 101.65 143.654 101.65ZM146.579 102.375V99.75H148.579V102.5C148.579 103.6 148.337 104.483 147.854 105.15C147.387 105.817 146.737 106.3 145.904 106.6C145.087 106.9 144.162 107.05 143.129 107.05C142.295 107.05 141.579 106.958 140.979 106.775C140.379 106.592 139.97 106.442 139.754 106.325C139.254 106.042 139.004 105.683 139.004 105.25C139.004 105.017 139.054 104.817 139.154 104.65C139.27 104.5 139.412 104.383 139.579 104.3C139.929 104.567 140.42 104.808 141.054 105.025C141.704 105.258 142.395 105.375 143.129 105.375C144.245 105.375 145.095 105.133 145.679 104.65C146.279 104.167 146.579 103.408 146.579 102.375ZM151.756 97.5L151.656 95.925L159.206 94.9C159.14 93.9833 158.823 93.2333 158.256 92.65C157.69 92.05 156.906 91.75 155.906 91.75C154.873 91.75 154.015 92.125 153.331 92.875C152.665 93.6083 152.331 94.6667 152.331 96.05V96.6C152.448 97.9333 152.881 98.95 153.631 99.65C154.398 100.333 155.44 100.675 156.756 100.675C157.456 100.675 158.09 100.558 158.656 100.325C159.223 100.092 159.673 99.8417 160.006 99.575C160.19 99.6917 160.331 99.8333 160.431 100C160.548 100.15 160.606 100.325 160.606 100.525C160.606 100.842 160.423 101.142 160.056 101.425C159.706 101.692 159.231 101.908 158.631 102.075C158.048 102.242 157.39 102.325 156.656 102.325C155.373 102.325 154.256 102.092 153.306 101.625C152.373 101.158 151.648 100.467 151.131 99.55C150.631 98.6167 150.381 97.4833 150.381 96.15C150.381 95.2 150.515 94.3583 150.781 93.625C151.065 92.875 151.448 92.2417 151.931 91.725C152.431 91.2083 153.023 90.8167 153.706 90.55C154.39 90.2667 155.131 90.125 155.931 90.125C156.948 90.125 157.84 90.3417 158.606 90.775C159.39 91.2083 159.998 91.8167 160.431 92.6C160.881 93.3667 161.106 94.25 161.106 95.25C161.106 95.6167 161.023 95.8833 160.856 96.05C160.69 96.2 160.456 96.2917 160.156 96.325L151.756 97.5ZM171.042 98.925C171.042 99.9917 170.65 100.825 169.867 101.425C169.083 102.025 167.95 102.325 166.467 102.325C165.2 102.325 164.167 102.133 163.367 101.75C162.567 101.35 162.167 100.917 162.167 100.45C162.167 100.25 162.217 100.058 162.317 99.875C162.433 99.675 162.6 99.5167 162.817 99.4C163.267 99.7167 163.792 100.008 164.392 100.275C164.992 100.542 165.675 100.675 166.442 100.675C168.175 100.675 169.042 100.092 169.042 98.925C169.042 98.4417 168.892 98.05 168.592 97.75C168.308 97.4333 167.883 97.2083 167.317 97.075L165.242 96.525C164.225 96.275 163.483 95.8917 163.017 95.375C162.55 94.8417 162.317 94.1833 162.317 93.4C162.317 92.5167 162.675 91.75 163.392 91.1C164.108 90.45 165.2 90.125 166.667 90.125C167.45 90.125 168.133 90.2083 168.717 90.375C169.3 90.525 169.75 90.7333 170.067 91C170.4 91.25 170.567 91.525 170.567 91.825C170.567 92.0417 170.508 92.2333 170.392 92.4C170.292 92.5667 170.15 92.6917 169.967 92.775C169.767 92.6417 169.508 92.5 169.192 92.35C168.892 92.1833 168.533 92.05 168.117 91.95C167.7 91.8333 167.242 91.775 166.742 91.775C166.008 91.775 165.417 91.9167 164.967 92.2C164.517 92.4833 164.292 92.8833 164.292 93.4C164.292 93.7667 164.417 94.0917 164.667 94.375C164.933 94.6417 165.35 94.8417 165.917 94.975L167.642 95.4C168.775 95.6667 169.625 96.0917 170.192 96.675C170.758 97.2417 171.042 97.9917 171.042 98.925ZM172.848 95.4H174.848V98.85C174.848 99.5167 175.04 99.9917 175.423 100.275C175.807 100.542 176.332 100.675 176.998 100.675C177.282 100.675 177.598 100.625 177.948 100.525C178.298 100.425 178.59 100.308 178.823 100.175C178.923 100.275 179.015 100.4 179.098 100.55C179.182 100.7 179.223 100.875 179.223 101.075C179.223 101.442 179.007 101.742 178.573 101.975C178.14 102.208 177.54 102.325 176.773 102.325C175.607 102.325 174.657 102.067 173.923 101.55C173.207 101.033 172.848 100.175 172.848 98.975V95.4ZM173.873 92.35V90.7H178.948C178.998 90.7667 179.048 90.875 179.098 91.025C179.148 91.175 179.173 91.3333 179.173 91.5C179.173 91.7667 179.107 91.975 178.973 92.125C178.84 92.275 178.657 92.35 178.423 92.35H173.873ZM174.848 96.15H172.848V87.1C172.932 87.0667 173.057 87.0333 173.223 87C173.407 86.95 173.598 86.925 173.798 86.925C174.148 86.925 174.407 87 174.573 87.15C174.757 87.2833 174.848 87.5083 174.848 87.825V96.15ZM180.7 86.8C180.7 86.45 180.825 86.1583 181.075 85.925C181.325 85.675 181.633 85.55 182 85.55C182.383 85.55 182.692 85.675 182.925 85.925C183.158 86.1583 183.275 86.45 183.275 86.8C183.275 87.15 183.158 87.45 182.925 87.7C182.692 87.9333 182.383 88.05 182 88.05C181.633 88.05 181.325 87.9333 181.075 87.7C180.825 87.45 180.7 87.15 180.7 86.8ZM181 95.4H183V101.95C182.917 101.983 182.792 102.017 182.625 102.05C182.458 102.1 182.275 102.125 182.075 102.125C181.725 102.125 181.458 102.058 181.275 101.925C181.092 101.775 181 101.542 181 101.225V95.4ZM183 96.375H181V90.5C181.083 90.4667 181.208 90.4333 181.375 90.4C181.558 90.35 181.75 90.325 181.95 90.325C182.3 90.325 182.558 90.4 182.725 90.55C182.908 90.6833 183 90.9167 183 91.25V96.375ZM196.38 96.225C196.38 97.4583 196.147 98.5333 195.68 99.45C195.214 100.367 194.555 101.075 193.705 101.575C192.855 102.075 191.855 102.325 190.705 102.325C189.555 102.325 188.547 102.075 187.68 101.575C186.83 101.075 186.172 100.367 185.705 99.45C185.239 98.5333 185.005 97.4583 185.005 96.225C185.005 94.975 185.239 93.9 185.705 93C186.189 92.0833 186.855 91.375 187.705 90.875C188.572 90.375 189.572 90.125 190.705 90.125C191.839 90.125 192.83 90.375 193.68 90.875C194.53 91.375 195.189 92.0833 195.655 93C196.139 93.9 196.38 94.975 196.38 96.225ZM190.705 91.775C189.589 91.775 188.697 92.175 188.03 92.975C187.38 93.7583 187.055 94.8417 187.055 96.225C187.055 97.625 187.372 98.7167 188.005 99.5C188.655 100.283 189.555 100.675 190.705 100.675C191.839 100.675 192.722 100.283 193.355 99.5C194.005 98.7 194.33 97.6083 194.33 96.225C194.33 94.8417 194.005 93.7583 193.355 92.975C192.722 92.175 191.839 91.775 190.705 91.775ZM190.63 87.55L193.055 84.825C193.422 84.8417 193.714 84.95 193.93 85.15C194.164 85.3333 194.28 85.5417 194.28 85.775C194.28 85.9917 194.23 86.175 194.13 86.325C194.03 86.475 193.864 86.6583 193.63 86.875L191.355 89.1C191.039 89.1 190.772 89.0167 190.555 88.85C190.355 88.6667 190.255 88.4667 190.255 88.25C190.255 88.1 190.297 87.975 190.38 87.875C190.464 87.7583 190.547 87.65 190.63 87.55ZM208.224 94.375V96.925H206.224V94.475C206.224 93.5417 205.957 92.8583 205.424 92.425C204.907 91.9917 204.207 91.775 203.324 91.775C202.657 91.775 202.065 91.8583 201.549 92.025C201.032 92.1917 200.59 92.3833 200.224 92.6V96.925H198.224V92.7C198.224 92.35 198.29 92.0667 198.424 91.85C198.574 91.6167 198.824 91.3917 199.174 91.175C199.607 90.925 200.182 90.6917 200.899 90.475C201.615 90.2417 202.424 90.125 203.324 90.125C204.84 90.125 206.032 90.475 206.899 91.175C207.782 91.8583 208.224 92.925 208.224 94.375ZM198.224 95.55H200.224V101.95C200.14 101.983 200.015 102.017 199.849 102.05C199.682 102.1 199.499 102.125 199.299 102.125C198.949 102.125 198.682 102.058 198.499 101.925C198.315 101.775 198.224 101.542 198.224 101.225V95.55ZM206.224 95.55H208.224V101.95C208.14 101.983 208.007 102.017 207.824 102.05C207.657 102.1 207.482 102.125 207.299 102.125C206.932 102.125 206.657 102.058 206.474 101.925C206.307 101.775 206.224 101.542 206.224 101.225V95.55ZM215.199 97.5L215.099 95.925L222.649 94.9C222.582 93.9833 222.265 93.2333 221.699 92.65C221.132 92.05 220.349 91.75 219.349 91.75C218.315 91.75 217.457 92.125 216.774 92.875C216.107 93.6083 215.774 94.6667 215.774 96.05V96.6C215.89 97.9333 216.324 98.95 217.074 99.65C217.84 100.333 218.882 100.675 220.199 100.675C220.899 100.675 221.532 100.558 222.099 100.325C222.665 100.092 223.115 99.8417 223.449 99.575C223.632 99.6917 223.774 99.8333 223.874 100C223.99 100.15 224.049 100.325 224.049 100.525C224.049 100.842 223.865 101.142 223.499 101.425C223.149 101.692 222.674 101.908 222.074 102.075C221.49 102.242 220.832 102.325 220.099 102.325C218.815 102.325 217.699 102.092 216.749 101.625C215.815 101.158 215.09 100.467 214.574 99.55C214.074 98.6167 213.824 97.4833 213.824 96.15C213.824 95.2 213.957 94.3583 214.224 93.625C214.507 92.875 214.89 92.2417 215.374 91.725C215.874 91.2083 216.465 90.8167 217.149 90.55C217.832 90.2667 218.574 90.125 219.374 90.125C220.39 90.125 221.282 90.3417 222.049 90.775C222.832 91.2083 223.44 91.8167 223.874 92.6C224.324 93.3667 224.549 94.25 224.549 95.25C224.549 95.6167 224.465 95.8833 224.299 96.05C224.132 96.2 223.899 96.2917 223.599 96.325L215.199 97.5ZM236.188 94.375V96.925H234.188V94.475C234.188 93.5417 233.921 92.8583 233.388 92.425C232.871 91.9917 232.171 91.775 231.288 91.775C230.621 91.775 230.029 91.8583 229.513 92.025C228.996 92.1917 228.554 92.3833 228.188 92.6V96.925H226.188V92.7C226.188 92.35 226.254 92.0667 226.388 91.85C226.538 91.6167 226.788 91.3917 227.138 91.175C227.571 90.925 228.146 90.6917 228.863 90.475C229.579 90.2417 230.388 90.125 231.288 90.125C232.804 90.125 233.996 90.475 234.863 91.175C235.746 91.8583 236.188 92.925 236.188 94.375ZM226.188 95.55H228.188V101.95C228.104 101.983 227.979 102.017 227.813 102.05C227.646 102.1 227.463 102.125 227.263 102.125C226.913 102.125 226.646 102.058 226.463 101.925C226.279 101.775 226.188 101.542 226.188 101.225V95.55ZM234.188 95.55H236.188V101.95C236.104 101.983 235.971 102.017 235.788 102.05C235.621 102.1 235.446 102.125 235.263 102.125C234.896 102.125 234.621 102.058 234.438 101.925C234.271 101.775 234.188 101.542 234.188 101.225V95.55ZM242.463 95.4H244.463V98.85C244.463 99.5167 244.654 99.9917 245.038 100.275C245.421 100.542 245.946 100.675 246.613 100.675C246.896 100.675 247.213 100.625 247.563 100.525C247.913 100.425 248.204 100.308 248.438 100.175C248.538 100.275 248.629 100.4 248.713 100.55C248.796 100.7 248.838 100.875 248.838 101.075C248.838 101.442 248.621 101.742 248.188 101.975C247.754 102.208 247.154 102.325 246.388 102.325C245.221 102.325 244.271 102.067 243.538 101.55C242.821 101.033 242.463 100.175 242.463 98.975V95.4ZM243.488 92.35V90.7H248.563C248.613 90.7667 248.663 90.875 248.713 91.025C248.763 91.175 248.788 91.3333 248.788 91.5C248.788 91.7667 248.721 91.975 248.588 92.125C248.454 92.275 248.271 92.35 248.038 92.35H243.488ZM244.463 96.15H242.463V87.1C242.546 87.0667 242.671 87.0333 242.838 87C243.021 86.95 243.213 86.925 243.413 86.925C243.763 86.925 244.021 87 244.188 87.15C244.371 87.2833 244.463 87.5083 244.463 87.825V96.15ZM250.314 86.8C250.314 86.45 250.439 86.1583 250.689 85.925C250.939 85.675 251.248 85.55 251.614 85.55C251.998 85.55 252.306 85.675 252.539 85.925C252.773 86.1583 252.889 86.45 252.889 86.8C252.889 87.15 252.773 87.45 252.539 87.7C252.306 87.9333 251.998 88.05 251.614 88.05C251.248 88.05 250.939 87.9333 250.689 87.7C250.439 87.45 250.314 87.15 250.314 86.8ZM250.614 95.4H252.614V101.95C252.531 101.983 252.406 102.017 252.239 102.05C252.073 102.1 251.889 102.125 251.689 102.125C251.339 102.125 251.073 102.058 250.889 101.925C250.706 101.775 250.614 101.542 250.614 101.225V95.4ZM252.614 96.375H250.614V90.5C250.698 90.4667 250.823 90.4333 250.989 90.4C251.173 90.35 251.364 90.325 251.564 90.325C251.914 90.325 252.173 90.4 252.339 90.55C252.523 90.6833 252.614 90.9167 252.614 91.25V96.375ZM255.995 97.5L255.895 95.925L263.445 94.9C263.378 93.9833 263.061 93.2333 262.495 92.65C261.928 92.05 261.145 91.75 260.145 91.75C259.111 91.75 258.253 92.125 257.57 92.875C256.903 93.6083 256.57 94.6667 256.57 96.05V96.6C256.686 97.9333 257.12 98.95 257.87 99.65C258.636 100.333 259.678 100.675 260.995 100.675C261.695 100.675 262.328 100.558 262.895 100.325C263.461 100.092 263.911 99.8417 264.245 99.575C264.428 99.6917 264.57 99.8333 264.67 100C264.786 100.15 264.845 100.325 264.845 100.525C264.845 100.842 264.661 101.142 264.295 101.425C263.945 101.692 263.47 101.908 262.87 102.075C262.286 102.242 261.628 102.325 260.895 102.325C259.611 102.325 258.495 102.092 257.545 101.625C256.611 101.158 255.886 100.467 255.37 99.55C254.87 98.6167 254.62 97.4833 254.62 96.15C254.62 95.2 254.753 94.3583 255.02 93.625C255.303 92.875 255.686 92.2417 256.17 91.725C256.67 91.2083 257.261 90.8167 257.945 90.55C258.628 90.2667 259.37 90.125 260.17 90.125C261.186 90.125 262.078 90.3417 262.845 90.775C263.628 91.2083 264.236 91.8167 264.67 92.6C265.12 93.3667 265.345 94.25 265.345 95.25C265.345 95.6167 265.261 95.8833 265.095 96.05C264.928 96.2 264.695 96.2917 264.395 96.325L255.995 97.5ZM276.308 94V96.875H274.308V94.15C274.308 93.3333 274.067 92.7333 273.583 92.35C273.117 91.9667 272.492 91.775 271.708 91.775C271.192 91.775 270.692 91.8583 270.208 92.025C269.725 92.1917 269.317 92.3833 268.983 92.6V96.875H266.983V92.7C266.983 92.3667 267.05 92.0833 267.183 91.85C267.333 91.6167 267.583 91.3917 267.933 91.175C268.383 90.8917 268.95 90.65 269.633 90.45C270.333 90.2333 271.033 90.125 271.733 90.125C272.583 90.125 273.333 90.2583 273.983 90.525C274.633 90.775 275.117 91.125 275.433 91.575C275.533 91.675 275.617 91.7667 275.683 91.85C275.75 91.9333 275.817 92.0417 275.883 92.175C276 92.375 276.1 92.6333 276.183 92.95C276.267 93.2667 276.308 93.6167 276.308 94ZM283.633 94.05V96.875H281.633V94.15C281.633 93.3333 281.4 92.7333 280.933 92.35C280.467 91.9667 279.842 91.775 279.058 91.775C278.475 91.775 277.908 91.9 277.358 92.15C276.825 92.3833 276.342 92.725 275.908 93.175L275.108 91.725C275.542 91.2917 276.108 90.9167 276.808 90.6C277.508 90.2833 278.308 90.125 279.208 90.125C280.108 90.125 280.883 90.2667 281.533 90.55C282.2 90.8333 282.717 91.2667 283.083 91.85C283.45 92.4333 283.633 93.1667 283.633 94.05ZM266.983 95.55H268.983V101.95C268.9 101.983 268.775 102.017 268.608 102.05C268.442 102.1 268.258 102.125 268.058 102.125C267.708 102.125 267.442 102.058 267.258 101.925C267.075 101.775 266.983 101.542 266.983 101.225V95.55ZM274.308 95.55H276.308V101.95C276.225 101.983 276.092 102.017 275.908 102.05C275.742 102.1 275.567 102.125 275.383 102.125C275.017 102.125 274.742 102.058 274.558 101.925C274.392 101.775 274.308 101.542 274.308 101.225V95.55ZM281.633 95.55H283.633V101.95C283.55 101.983 283.417 102.017 283.233 102.05C283.067 102.1 282.892 102.125 282.708 102.125C282.342 102.125 282.067 102.058 281.883 101.925C281.717 101.775 281.633 101.542 281.633 101.225V95.55ZM291.069 102.325C290.352 102.325 289.677 102.217 289.044 102C288.427 101.8 287.977 101.575 287.694 101.325V99.475C288.027 99.7917 288.444 100.075 288.944 100.325C289.46 100.558 290.077 100.675 290.794 100.675C291.96 100.675 292.894 100.325 293.594 99.625C294.31 98.9083 294.669 97.7667 294.669 96.2C294.669 95.1 294.485 94.2333 294.119 93.6C293.769 92.95 293.294 92.4833 292.694 92.2C292.11 91.9167 291.477 91.775 290.794 91.775C290.194 91.775 289.685 91.85 289.269 92C288.852 92.15 288.477 92.3167 288.144 92.5V100.8H286.144V92.55C286.144 92.2167 286.202 91.95 286.319 91.75C286.435 91.55 286.677 91.3417 287.044 91.125C287.494 90.875 288.027 90.65 288.644 90.45C289.277 90.2333 289.994 90.125 290.794 90.125C291.894 90.125 292.885 90.3417 293.769 90.775C294.669 91.1917 295.377 91.85 295.894 92.75C296.427 93.6333 296.694 94.7833 296.694 96.2C296.694 97.5667 296.452 98.7083 295.969 99.625C295.502 100.525 294.844 101.2 293.994 101.65C293.144 102.1 292.169 102.325 291.069 102.325ZM287.219 106.675C286.869 106.675 286.602 106.6 286.419 106.45C286.235 106.3 286.144 106.067 286.144 105.75V100.075L288.144 100.125V106.5C288.06 106.533 287.935 106.567 287.769 106.6C287.602 106.65 287.419 106.675 287.219 106.675ZM309.266 96.225C309.266 97.4583 309.033 98.5333 308.566 99.45C308.099 100.367 307.441 101.075 306.591 101.575C305.741 102.075 304.741 102.325 303.591 102.325C302.441 102.325 301.433 102.075 300.566 101.575C299.716 101.075 299.058 100.367 298.591 99.45C298.124 98.5333 297.891 97.4583 297.891 96.225C297.891 94.975 298.124 93.9 298.591 93C299.074 92.0833 299.741 91.375 300.591 90.875C301.458 90.375 302.458 90.125 303.591 90.125C304.724 90.125 305.716 90.375 306.566 90.875C307.416 91.375 308.074 92.0833 308.541 93C309.024 93.9 309.266 94.975 309.266 96.225ZM303.591 91.775C302.474 91.775 301.583 92.175 300.916 92.975C300.266 93.7583 299.941 94.8417 299.941 96.225C299.941 97.625 300.258 98.7167 300.891 99.5C301.541 100.283 302.441 100.675 303.591 100.675C304.724 100.675 305.608 100.283 306.241 99.5C306.891 98.7 307.216 97.6083 307.216 96.225C307.216 94.8417 306.891 93.7583 306.241 92.975C305.608 92.175 304.724 91.775 303.591 91.775ZM32.875 117.6V121.55H30.875V117.75C30.875 117.367 30.9417 117.067 31.075 116.85C31.225 116.617 31.4667 116.392 31.8 116.175C32.2333 115.892 32.825 115.65 33.575 115.45C34.325 115.233 35.1583 115.125 36.075 115.125C37.4083 115.125 38.075 115.458 38.075 116.125C38.075 116.292 38.05 116.45 38 116.6C37.95 116.733 37.8833 116.85 37.8 116.95C37.6333 116.917 37.4167 116.883 37.15 116.85C36.8833 116.817 36.6167 116.8 36.35 116.8C35.5833 116.8 34.9083 116.883 34.325 117.05C33.7417 117.2 33.2583 117.383 32.875 117.6ZM30.875 120.4L32.875 120.7V126.95C32.7917 126.983 32.6667 127.017 32.5 127.05C32.3333 127.1 32.15 127.125 31.95 127.125C31.6 127.125 31.3333 127.058 31.15 126.925C30.9667 126.775 30.875 126.542 30.875 126.225V120.4ZM39.6518 122.5L39.5518 120.925L47.1018 119.9C47.0351 118.983 46.7184 118.233 46.1518 117.65C45.5851 117.05 44.8018 116.75 43.8018 116.75C42.7684 116.75 41.9101 117.125 41.2268 117.875C40.5601 118.608 40.2268 119.667 40.2268 121.05V121.6C40.3434 122.933 40.7768 123.95 41.5268 124.65C42.2934 125.333 43.3351 125.675 44.6518 125.675C45.3518 125.675 45.9851 125.558 46.5518 125.325C47.1184 125.092 47.5684 124.842 47.9018 124.575C48.0851 124.692 48.2268 124.833 48.3268 125C48.4434 125.15 48.5018 125.325 48.5018 125.525C48.5018 125.842 48.3184 126.142 47.9518 126.425C47.6018 126.692 47.1268 126.908 46.5268 127.075C45.9434 127.242 45.2851 127.325 44.5518 127.325C43.2684 127.325 42.1518 127.092 41.2018 126.625C40.2684 126.158 39.5434 125.467 39.0268 124.55C38.5268 123.617 38.2768 122.483 38.2768 121.15C38.2768 120.2 38.4101 119.358 38.6768 118.625C38.9601 117.875 39.3434 117.242 39.8268 116.725C40.3268 116.208 40.9184 115.817 41.6018 115.55C42.2851 115.267 43.0268 115.125 43.8268 115.125C44.8434 115.125 45.7351 115.342 46.5018 115.775C47.2851 116.208 47.8934 116.817 48.3268 117.6C48.7768 118.367 49.0018 119.25 49.0018 120.25C49.0018 120.617 48.9184 120.883 48.7518 121.05C48.5851 121.2 48.3518 121.292 48.0518 121.325L39.6518 122.5ZM54.7656 127.35C53.199 127.35 51.9823 127.042 51.1156 126.425C50.2656 125.808 49.8406 124.917 49.8406 123.75C49.8406 122.667 50.199 121.842 50.9156 121.275C51.649 120.692 52.6573 120.342 53.9406 120.225L57.4906 119.875V119.175C57.4906 118.342 57.2406 117.733 56.7406 117.35C56.2406 116.967 55.5656 116.775 54.7156 116.775C54.0323 116.775 53.374 116.875 52.7406 117.075C52.124 117.275 51.574 117.5 51.0906 117.75C50.9573 117.633 50.8323 117.5 50.7156 117.35C50.6156 117.183 50.5656 117.017 50.5656 116.85C50.5656 116.417 50.8073 116.083 51.2906 115.85C51.7406 115.617 52.2573 115.442 52.8406 115.325C53.4406 115.192 54.074 115.125 54.7406 115.125C56.1906 115.125 57.3406 115.45 58.1906 116.1C59.0406 116.75 59.4656 117.775 59.4656 119.175V125.1C59.4656 125.467 59.3906 125.75 59.2406 125.95C59.1073 126.133 58.899 126.308 58.6156 126.475C58.2156 126.692 57.6823 126.892 57.0156 127.075C56.349 127.258 55.599 127.35 54.7656 127.35ZM54.7656 125.7C55.4656 125.7 56.0406 125.633 56.4906 125.5C56.9573 125.35 57.2906 125.208 57.4906 125.075V121.45L54.3906 121.775C53.524 121.842 52.8823 122.033 52.4656 122.35C52.049 122.667 51.8406 123.125 51.8406 123.725C51.8406 124.342 52.0823 124.825 52.5656 125.175C53.0656 125.525 53.799 125.7 54.7656 125.7ZM62.0662 120.4L64.0662 120.7V126.95C63.9829 126.983 63.8579 127.017 63.6912 127.05C63.5245 127.1 63.3412 127.125 63.1412 127.125C62.7912 127.125 62.5245 127.058 62.3412 126.925C62.1579 126.775 62.0662 126.542 62.0662 126.225V120.4ZM64.0662 121.65L62.0662 121.375V110.8C62.1495 110.767 62.2745 110.733 62.4412 110.7C62.6245 110.65 62.8079 110.625 62.9912 110.625C63.3579 110.625 63.6245 110.7 63.7912 110.85C63.9745 110.983 64.0662 111.208 64.0662 111.525V121.65ZM78.3984 125.025V116.625L80.3984 116.6V125.1C80.3984 125.417 80.3234 125.675 80.1734 125.875C80.0401 126.058 79.8234 126.242 79.5234 126.425C79.1901 126.642 78.7151 126.842 78.0984 127.025C77.4818 127.225 76.7734 127.325 75.9734 127.325C74.7734 127.325 73.7151 127.117 72.7984 126.7C71.8818 126.283 71.1651 125.633 70.6484 124.75C70.1318 123.85 69.8734 122.692 69.8734 121.275C69.8734 119.825 70.1234 118.65 70.6234 117.75C71.1401 116.85 71.8318 116.192 72.6984 115.775C73.5651 115.342 74.5151 115.125 75.5484 115.125C76.1984 115.125 76.8151 115.217 77.3984 115.4C77.9818 115.583 78.4401 115.808 78.7734 116.075V117.925C78.4568 117.608 78.0401 117.342 77.5234 117.125C77.0234 116.892 76.4318 116.775 75.7484 116.775C75.0651 116.775 74.4318 116.925 73.8484 117.225C73.2651 117.508 72.7984 117.983 72.4484 118.65C72.0984 119.317 71.9234 120.208 71.9234 121.325C71.9234 122.842 72.2901 123.95 73.0234 124.65C73.7568 125.333 74.7318 125.675 75.9484 125.675C76.5318 125.675 77.0068 125.617 77.3734 125.5C77.7568 125.367 78.0984 125.208 78.3984 125.025ZM80.3984 117.1L78.3984 117.125V110.8C78.4818 110.767 78.6068 110.733 78.7734 110.7C78.9568 110.65 79.1401 110.625 79.3234 110.625C79.6901 110.625 79.9568 110.7 80.1234 110.85C80.3068 110.983 80.3984 111.208 80.3984 111.525V117.1ZM83.6703 122.5L83.5703 120.925L91.1203 119.9C91.0536 118.983 90.737 118.233 90.1703 117.65C89.6036 117.05 88.8203 116.75 87.8203 116.75C86.787 116.75 85.9286 117.125 85.2453 117.875C84.5786 118.608 84.2453 119.667 84.2453 121.05V121.6C84.362 122.933 84.7953 123.95 85.5453 124.65C86.312 125.333 87.3536 125.675 88.6703 125.675C89.3703 125.675 90.0036 125.558 90.5703 125.325C91.137 125.092 91.587 124.842 91.9203 124.575C92.1036 124.692 92.2453 124.833 92.3453 125C92.462 125.15 92.5203 125.325 92.5203 125.525C92.5203 125.842 92.337 126.142 91.9703 126.425C91.6203 126.692 91.1453 126.908 90.5453 127.075C89.962 127.242 89.3036 127.325 88.5703 127.325C87.287 127.325 86.1703 127.092 85.2203 126.625C84.287 126.158 83.562 125.467 83.0453 124.55C82.5453 123.617 82.2953 122.483 82.2953 121.15C82.2953 120.2 82.4286 119.358 82.6953 118.625C82.9786 117.875 83.362 117.242 83.8453 116.725C84.3453 116.208 84.937 115.817 85.6203 115.55C86.3036 115.267 87.0453 115.125 87.8453 115.125C88.862 115.125 89.7536 115.342 90.5203 115.775C91.3036 116.208 91.912 116.817 92.3453 117.6C92.7953 118.367 93.0203 119.25 93.0203 120.25C93.0203 120.617 92.937 120.883 92.7703 121.05C92.6036 121.2 92.3703 121.292 92.0703 121.325L83.6703 122.5ZM98.4391 120.4H100.439V123.85C100.439 124.517 100.631 124.992 101.014 125.275C101.397 125.542 101.922 125.675 102.589 125.675C102.872 125.675 103.189 125.625 103.539 125.525C103.889 125.425 104.181 125.308 104.414 125.175C104.514 125.275 104.606 125.4 104.689 125.55C104.772 125.7 104.814 125.875 104.814 126.075C104.814 126.442 104.597 126.742 104.164 126.975C103.731 127.208 103.131 127.325 102.364 127.325C101.197 127.325 100.247 127.067 99.5141 126.55C98.7974 126.033 98.4391 125.175 98.4391 123.975V120.4ZM99.4641 117.35V115.7H104.539C104.589 115.767 104.639 115.875 104.689 116.025C104.739 116.175 104.764 116.333 104.764 116.5C104.764 116.767 104.697 116.975 104.564 117.125C104.431 117.275 104.247 117.35 104.014 117.35H99.4641ZM100.439 121.15H98.4391V112.1C98.5224 112.067 98.6474 112.033 98.8141 112C98.9974 111.95 99.1891 111.925 99.3891 111.925C99.7391 111.925 99.9974 112 100.164 112.15C100.347 112.283 100.439 112.508 100.439 112.825V121.15ZM106.344 122.775V120.5H108.344V122.675C108.344 123.742 108.627 124.508 109.194 124.975C109.76 125.442 110.544 125.675 111.544 125.675C112.21 125.675 112.777 125.608 113.244 125.475C113.71 125.325 114.077 125.175 114.344 125.025V120.5H116.344V124.95C116.344 125.3 116.294 125.583 116.194 125.8C116.11 126 115.894 126.2 115.544 126.4C115.177 126.617 114.652 126.825 113.969 127.025C113.285 127.225 112.469 127.325 111.519 127.325C110.419 127.325 109.477 127.167 108.694 126.85C107.927 126.517 107.344 126.017 106.944 125.35C106.544 124.667 106.344 123.808 106.344 122.775ZM116.344 121.8H114.344V115.5C114.427 115.467 114.552 115.433 114.719 115.4C114.902 115.35 115.085 115.325 115.269 115.325C115.635 115.325 115.902 115.4 116.069 115.55C116.252 115.683 116.344 115.917 116.344 116.25V121.8ZM108.344 121.8H106.344V115.5C106.427 115.467 106.552 115.433 106.719 115.4C106.902 115.35 107.094 115.325 107.294 115.325C107.644 115.325 107.902 115.4 108.069 115.55C108.252 115.683 108.344 115.917 108.344 116.25V121.8ZM126.989 123.925C126.989 124.992 126.597 125.825 125.814 126.425C125.031 127.025 123.897 127.325 122.414 127.325C121.147 127.325 120.114 127.133 119.314 126.75C118.514 126.35 118.114 125.917 118.114 125.45C118.114 125.25 118.164 125.058 118.264 124.875C118.381 124.675 118.547 124.517 118.764 124.4C119.214 124.717 119.739 125.008 120.339 125.275C120.939 125.542 121.622 125.675 122.389 125.675C124.122 125.675 124.989 125.092 124.989 123.925C124.989 123.442 124.839 123.05 124.539 122.75C124.256 122.433 123.831 122.208 123.264 122.075L121.189 121.525C120.172 121.275 119.431 120.892 118.964 120.375C118.497 119.842 118.264 119.183 118.264 118.4C118.264 117.517 118.622 116.75 119.339 116.1C120.056 115.45 121.147 115.125 122.614 115.125C123.397 115.125 124.081 115.208 124.664 115.375C125.247 115.525 125.697 115.733 126.014 116C126.347 116.25 126.514 116.525 126.514 116.825C126.514 117.042 126.456 117.233 126.339 117.4C126.239 117.567 126.097 117.692 125.914 117.775C125.714 117.642 125.456 117.5 125.139 117.35C124.839 117.183 124.481 117.05 124.064 116.95C123.647 116.833 123.189 116.775 122.689 116.775C121.956 116.775 121.364 116.917 120.914 117.2C120.464 117.483 120.239 117.883 120.239 118.4C120.239 118.767 120.364 119.092 120.614 119.375C120.881 119.642 121.297 119.842 121.864 119.975L123.589 120.4C124.722 120.667 125.572 121.092 126.139 121.675C126.706 122.242 126.989 122.992 126.989 123.925ZM133.25 122.5L133.15 120.925L140.7 119.9C140.634 118.983 140.317 118.233 139.75 117.65C139.184 117.05 138.4 116.75 137.4 116.75C136.367 116.75 135.509 117.125 134.825 117.875C134.159 118.608 133.825 119.667 133.825 121.05V121.6C133.942 122.933 134.375 123.95 135.125 124.65C135.892 125.333 136.934 125.675 138.25 125.675C138.95 125.675 139.584 125.558 140.15 125.325C140.717 125.092 141.167 124.842 141.5 124.575C141.684 124.692 141.825 124.833 141.925 125C142.042 125.15 142.1 125.325 142.1 125.525C142.1 125.842 141.917 126.142 141.55 126.425C141.2 126.692 140.725 126.908 140.125 127.075C139.542 127.242 138.884 127.325 138.15 127.325C136.867 127.325 135.75 127.092 134.8 126.625C133.867 126.158 133.142 125.467 132.625 124.55C132.125 123.617 131.875 122.483 131.875 121.15C131.875 120.2 132.009 119.358 132.275 118.625C132.559 117.875 132.942 117.242 133.425 116.725C133.925 116.208 134.517 115.817 135.2 115.55C135.884 115.267 136.625 115.125 137.425 115.125C138.442 115.125 139.334 115.342 140.1 115.775C140.884 116.208 141.492 116.817 141.925 117.6C142.375 118.367 142.6 119.25 142.6 120.25C142.6 120.617 142.517 120.883 142.35 121.05C142.184 121.2 141.95 121.292 141.65 121.325L133.25 122.5ZM154.239 119.375V121.925H152.239V119.475C152.239 118.542 151.973 117.858 151.439 117.425C150.923 116.992 150.223 116.775 149.339 116.775C148.673 116.775 148.081 116.858 147.564 117.025C147.048 117.192 146.606 117.383 146.239 117.6V121.925H144.239V117.7C144.239 117.35 144.306 117.067 144.439 116.85C144.589 116.617 144.839 116.392 145.189 116.175C145.623 115.925 146.198 115.692 146.914 115.475C147.631 115.242 148.439 115.125 149.339 115.125C150.856 115.125 152.048 115.475 152.914 116.175C153.798 116.858 154.239 117.925 154.239 119.375ZM144.239 120.55H146.239V126.95C146.156 126.983 146.031 127.017 145.864 127.05C145.698 127.1 145.514 127.125 145.314 127.125C144.964 127.125 144.698 127.058 144.514 126.925C144.331 126.775 144.239 126.542 144.239 126.225V120.55ZM152.239 120.55H154.239V126.95C154.156 126.983 154.023 127.017 153.839 127.05C153.673 127.1 153.498 127.125 153.314 127.125C152.948 127.125 152.673 127.058 152.489 126.925C152.323 126.775 152.239 126.542 152.239 126.225V120.55ZM165.067 115.225C165.35 115.225 165.575 115.3 165.742 115.45C165.925 115.6 166.017 115.817 166.017 116.1C166.017 116.317 165.925 116.725 165.742 117.325C165.559 117.925 165.317 118.642 165.017 119.475C164.717 120.308 164.384 121.183 164.017 122.1C163.667 123 163.3 123.875 162.917 124.725C162.55 125.558 162.209 126.283 161.892 126.9C161.809 126.967 161.659 127.025 161.442 127.075C161.242 127.125 161.025 127.15 160.792 127.15C160.509 127.15 160.259 127.1 160.042 127C159.825 126.917 159.675 126.792 159.592 126.625C159.409 126.292 159.167 125.808 158.867 125.175C158.584 124.525 158.275 123.792 157.942 122.975C157.609 122.158 157.267 121.317 156.917 120.45C156.584 119.567 156.275 118.725 155.992 117.925C155.709 117.108 155.475 116.392 155.292 115.775C155.409 115.608 155.567 115.475 155.767 115.375C155.967 115.275 156.167 115.225 156.367 115.225C156.667 115.225 156.9 115.3 157.067 115.45C157.234 115.6 157.375 115.85 157.492 116.2L159.042 120.675C159.175 121.058 159.35 121.533 159.567 122.1C159.784 122.667 160 123.233 160.217 123.8C160.434 124.367 160.609 124.842 160.742 125.225H160.842C161.509 123.542 162.134 121.883 162.717 120.25C163.3 118.6 163.8 116.992 164.217 115.425C164.434 115.292 164.717 115.225 165.067 115.225ZM167.67 118.425H169.67V127.05C169.603 127.067 169.487 127.092 169.32 127.125C169.153 127.175 168.978 127.2 168.795 127.2C168.428 127.2 168.145 127.125 167.945 126.975C167.762 126.808 167.67 126.575 167.67 126.275V118.425ZM169.67 119.7H167.67V115.525C167.753 115.492 167.878 115.458 168.045 115.425C168.212 115.392 168.387 115.375 168.57 115.375C168.937 115.375 169.212 115.458 169.395 115.625C169.578 115.775 169.67 116 169.67 116.3V119.7ZM168.27 112.55L170.695 109.825C171.062 109.842 171.353 109.95 171.57 110.15C171.803 110.333 171.92 110.542 171.92 110.775C171.92 110.992 171.87 111.175 171.77 111.325C171.67 111.475 171.503 111.658 171.27 111.875L168.995 114.1C168.678 114.1 168.412 114.017 168.195 113.85C167.995 113.667 167.895 113.467 167.895 113.25C167.895 113.1 167.937 112.975 168.02 112.875C168.103 112.758 168.187 112.65 168.27 112.55ZM183.05 121.225C183.05 122.458 182.817 123.533 182.35 124.45C181.884 125.367 181.225 126.075 180.375 126.575C179.525 127.075 178.525 127.325 177.375 127.325C176.225 127.325 175.217 127.075 174.35 126.575C173.5 126.075 172.842 125.367 172.375 124.45C171.909 123.533 171.675 122.458 171.675 121.225C171.675 119.975 171.909 118.9 172.375 118C172.859 117.083 173.525 116.375 174.375 115.875C175.242 115.375 176.242 115.125 177.375 115.125C178.509 115.125 179.5 115.375 180.35 115.875C181.2 116.375 181.859 117.083 182.325 118C182.809 118.9 183.05 119.975 183.05 121.225ZM177.375 116.775C176.259 116.775 175.367 117.175 174.7 117.975C174.05 118.758 173.725 119.842 173.725 121.225C173.725 122.625 174.042 123.717 174.675 124.5C175.325 125.283 176.225 125.675 177.375 125.675C178.509 125.675 179.392 125.283 180.025 124.5C180.675 123.7 181 122.608 181 121.225C181 119.842 180.675 118.758 180.025 117.975C179.392 117.175 178.509 116.775 177.375 116.775ZM193.044 123.925C193.044 124.992 192.652 125.825 191.869 126.425C191.085 127.025 189.952 127.325 188.469 127.325C187.202 127.325 186.169 127.133 185.369 126.75C184.569 126.35 184.169 125.917 184.169 125.45C184.169 125.25 184.219 125.058 184.319 124.875C184.435 124.675 184.602 124.517 184.819 124.4C185.269 124.717 185.794 125.008 186.394 125.275C186.994 125.542 187.677 125.675 188.444 125.675C190.177 125.675 191.044 125.092 191.044 123.925C191.044 123.442 190.894 123.05 190.594 122.75C190.31 122.433 189.885 122.208 189.319 122.075L187.244 121.525C186.227 121.275 185.485 120.892 185.019 120.375C184.552 119.842 184.319 119.183 184.319 118.4C184.319 117.517 184.677 116.75 185.394 116.1C186.11 115.45 187.202 115.125 188.669 115.125C189.452 115.125 190.135 115.208 190.719 115.375C191.302 115.525 191.752 115.733 192.069 116C192.402 116.25 192.569 116.525 192.569 116.825C192.569 117.042 192.51 117.233 192.394 117.4C192.294 117.567 192.152 117.692 191.969 117.775C191.769 117.642 191.51 117.5 191.194 117.35C190.894 117.183 190.535 117.05 190.119 116.95C189.702 116.833 189.244 116.775 188.744 116.775C188.01 116.775 187.419 116.917 186.969 117.2C186.519 117.483 186.294 117.883 186.294 118.4C186.294 118.767 186.419 119.092 186.669 119.375C186.935 119.642 187.352 119.842 187.919 119.975L189.644 120.4C190.777 120.667 191.627 121.092 192.194 121.675C192.76 122.242 193.044 122.992 193.044 123.925ZM202.705 127.35C201.138 127.35 199.922 127.042 199.055 126.425C198.205 125.808 197.78 124.917 197.78 123.75C197.78 122.667 198.138 121.842 198.855 121.275C199.588 120.692 200.597 120.342 201.88 120.225L205.43 119.875V119.175C205.43 118.342 205.18 117.733 204.68 117.35C204.18 116.967 203.505 116.775 202.655 116.775C201.972 116.775 201.313 116.875 200.68 117.075C200.063 117.275 199.513 117.5 199.03 117.75C198.897 117.633 198.772 117.5 198.655 117.35C198.555 117.183 198.505 117.017 198.505 116.85C198.505 116.417 198.747 116.083 199.23 115.85C199.68 115.617 200.197 115.442 200.78 115.325C201.38 115.192 202.013 115.125 202.68 115.125C204.13 115.125 205.28 115.45 206.13 116.1C206.98 116.75 207.405 117.775 207.405 119.175V125.1C207.405 125.467 207.33 125.75 207.18 125.95C207.047 126.133 206.838 126.308 206.555 126.475C206.155 126.692 205.622 126.892 204.955 127.075C204.288 127.258 203.538 127.35 202.705 127.35ZM202.705 125.7C203.405 125.7 203.98 125.633 204.43 125.5C204.897 125.35 205.23 125.208 205.43 125.075V121.45L202.33 121.775C201.463 121.842 200.822 122.033 200.405 122.35C199.988 122.667 199.78 123.125 199.78 123.725C199.78 124.342 200.022 124.825 200.505 125.175C201.005 125.525 201.738 125.7 202.705 125.7ZM213.586 120.4H215.586V123.85C215.586 124.517 215.777 124.992 216.161 125.275C216.544 125.542 217.069 125.675 217.736 125.675C218.019 125.675 218.336 125.625 218.686 125.525C219.036 125.425 219.327 125.308 219.561 125.175C219.661 125.275 219.752 125.4 219.836 125.55C219.919 125.7 219.961 125.875 219.961 126.075C219.961 126.442 219.744 126.742 219.311 126.975C218.877 127.208 218.277 127.325 217.511 127.325C216.344 127.325 215.394 127.067 214.661 126.55C213.944 126.033 213.586 125.175 213.586 123.975V120.4ZM214.611 117.35V115.7H219.686C219.736 115.767 219.786 115.875 219.836 116.025C219.886 116.175 219.911 116.333 219.911 116.5C219.911 116.767 219.844 116.975 219.711 117.125C219.577 117.275 219.394 117.35 219.161 117.35H214.611ZM215.586 121.15H213.586V112.1C213.669 112.067 213.794 112.033 213.961 112C214.144 111.95 214.336 111.925 214.536 111.925C214.886 111.925 215.144 112 215.311 112.15C215.494 112.283 215.586 112.508 215.586 112.825V121.15ZM223.612 117.6V121.55H221.612V117.75C221.612 117.367 221.679 117.067 221.812 116.85C221.962 116.617 222.204 116.392 222.537 116.175C222.971 115.892 223.562 115.65 224.312 115.45C225.062 115.233 225.896 115.125 226.812 115.125C228.146 115.125 228.812 115.458 228.812 116.125C228.812 116.292 228.787 116.45 228.737 116.6C228.687 116.733 228.621 116.85 228.537 116.95C228.371 116.917 228.154 116.883 227.887 116.85C227.621 116.817 227.354 116.8 227.087 116.8C226.321 116.8 225.646 116.883 225.062 117.05C224.479 117.2 223.996 117.383 223.612 117.6ZM221.612 120.4L223.612 120.7V126.95C223.529 126.983 223.404 127.017 223.237 127.05C223.071 127.1 222.887 127.125 222.687 127.125C222.337 127.125 222.071 127.058 221.887 126.925C221.704 126.775 221.612 126.542 221.612 126.225V120.4ZM233.911 127.35C232.344 127.35 231.128 127.042 230.261 126.425C229.411 125.808 228.986 124.917 228.986 123.75C228.986 122.667 229.344 121.842 230.061 121.275C230.794 120.692 231.803 120.342 233.086 120.225L236.636 119.875V119.175C236.636 118.342 236.386 117.733 235.886 117.35C235.386 116.967 234.711 116.775 233.861 116.775C233.178 116.775 232.519 116.875 231.886 117.075C231.269 117.275 230.719 117.5 230.236 117.75C230.103 117.633 229.978 117.5 229.861 117.35C229.761 117.183 229.711 117.017 229.711 116.85C229.711 116.417 229.953 116.083 230.436 115.85C230.886 115.617 231.403 115.442 231.986 115.325C232.586 115.192 233.219 115.125 233.886 115.125C235.336 115.125 236.486 115.45 237.336 116.1C238.186 116.75 238.611 117.775 238.611 119.175V125.1C238.611 125.467 238.536 125.75 238.386 125.95C238.253 126.133 238.044 126.308 237.761 126.475C237.361 126.692 236.828 126.892 236.161 127.075C235.494 127.258 234.744 127.35 233.911 127.35ZM233.911 125.7C234.611 125.7 235.186 125.633 235.636 125.5C236.103 125.35 236.436 125.208 236.636 125.075V121.45L233.536 121.775C232.669 121.842 232.028 122.033 231.611 122.35C231.194 122.667 230.986 123.125 230.986 123.725C230.986 124.342 231.228 124.825 231.711 125.175C232.211 125.525 232.944 125.7 233.911 125.7ZM249.369 115.225C249.652 115.225 249.877 115.3 250.044 115.45C250.227 115.6 250.319 115.817 250.319 116.1C250.319 116.317 250.227 116.725 250.044 117.325C249.86 117.925 249.619 118.642 249.319 119.475C249.019 120.308 248.685 121.183 248.319 122.1C247.969 123 247.602 123.875 247.219 124.725C246.852 125.558 246.51 126.283 246.194 126.9C246.11 126.967 245.96 127.025 245.744 127.075C245.544 127.125 245.327 127.15 245.094 127.15C244.81 127.15 244.56 127.1 244.344 127C244.127 126.917 243.977 126.792 243.894 126.625C243.71 126.292 243.469 125.808 243.169 125.175C242.885 124.525 242.577 123.792 242.244 122.975C241.91 122.158 241.569 121.317 241.219 120.45C240.885 119.567 240.577 118.725 240.294 117.925C240.01 117.108 239.777 116.392 239.594 115.775C239.71 115.608 239.869 115.475 240.069 115.375C240.269 115.275 240.469 115.225 240.669 115.225C240.969 115.225 241.202 115.3 241.369 115.45C241.535 115.6 241.677 115.85 241.794 116.2L243.344 120.675C243.477 121.058 243.652 121.533 243.869 122.1C244.085 122.667 244.302 123.233 244.519 123.8C244.735 124.367 244.91 124.842 245.044 125.225H245.144C245.81 123.542 246.435 121.883 247.019 120.25C247.602 118.6 248.102 116.992 248.519 115.425C248.735 115.292 249.019 115.225 249.369 115.225ZM252.376 122.5L252.276 120.925L259.826 119.9C259.76 118.983 259.443 118.233 258.876 117.65C258.31 117.05 257.526 116.75 256.526 116.75C255.493 116.75 254.635 117.125 253.951 117.875C253.285 118.608 252.951 119.667 252.951 121.05V121.6C253.068 122.933 253.501 123.95 254.251 124.65C255.018 125.333 256.06 125.675 257.376 125.675C258.076 125.675 258.71 125.558 259.276 125.325C259.843 125.092 260.293 124.842 260.626 124.575C260.81 124.692 260.951 124.833 261.051 125C261.168 125.15 261.226 125.325 261.226 125.525C261.226 125.842 261.043 126.142 260.676 126.425C260.326 126.692 259.851 126.908 259.251 127.075C258.668 127.242 258.01 127.325 257.276 127.325C255.993 127.325 254.876 127.092 253.926 126.625C252.993 126.158 252.268 125.467 251.751 124.55C251.251 123.617 251.001 122.483 251.001 121.15C251.001 120.2 251.135 119.358 251.401 118.625C251.685 117.875 252.068 117.242 252.551 116.725C253.051 116.208 253.643 115.817 254.326 115.55C255.01 115.267 255.751 115.125 256.551 115.125C257.568 115.125 258.46 115.342 259.226 115.775C260.01 116.208 260.618 116.817 261.051 117.6C261.501 118.367 261.726 119.25 261.726 120.25C261.726 120.617 261.643 120.883 261.476 121.05C261.31 121.2 261.076 121.292 260.776 121.325L252.376 122.5ZM256.226 112.55L258.651 109.825C259.018 109.842 259.31 109.95 259.526 110.15C259.76 110.333 259.876 110.542 259.876 110.775C259.876 110.992 259.826 111.175 259.726 111.325C259.626 111.475 259.46 111.658 259.226 111.875L256.951 114.1C256.635 114.1 256.368 114.017 256.151 113.85C255.951 113.667 255.851 113.467 255.851 113.25C255.851 113.1 255.893 112.975 255.976 112.875C256.06 112.758 256.143 112.65 256.226 112.55ZM271.662 123.925C271.662 124.992 271.27 125.825 270.487 126.425C269.703 127.025 268.57 127.325 267.087 127.325C265.82 127.325 264.787 127.133 263.987 126.75C263.187 126.35 262.787 125.917 262.787 125.45C262.787 125.25 262.837 125.058 262.937 124.875C263.053 124.675 263.22 124.517 263.437 124.4C263.887 124.717 264.412 125.008 265.012 125.275C265.612 125.542 266.295 125.675 267.062 125.675C268.795 125.675 269.662 125.092 269.662 123.925C269.662 123.442 269.512 123.05 269.212 122.75C268.928 122.433 268.503 122.208 267.937 122.075L265.862 121.525C264.845 121.275 264.103 120.892 263.637 120.375C263.17 119.842 262.937 119.183 262.937 118.4C262.937 117.517 263.295 116.75 264.012 116.1C264.728 115.45 265.82 115.125 267.287 115.125C268.07 115.125 268.753 115.208 269.337 115.375C269.92 115.525 270.37 115.733 270.687 116C271.02 116.25 271.187 116.525 271.187 116.825C271.187 117.042 271.128 117.233 271.012 117.4C270.912 117.567 270.77 117.692 270.587 117.775C270.387 117.642 270.128 117.5 269.812 117.35C269.512 117.183 269.153 117.05 268.737 116.95C268.32 116.833 267.862 116.775 267.362 116.775C266.628 116.775 266.037 116.917 265.587 117.2C265.137 117.483 264.912 117.883 264.912 118.4C264.912 118.767 265.037 119.092 265.287 119.375C265.553 119.642 265.97 119.842 266.537 119.975L268.262 120.4C269.395 120.667 270.245 121.092 270.812 121.675C271.378 122.242 271.662 122.992 271.662 123.925ZM285.073 125.025V116.625L287.073 116.6V125.1C287.073 125.417 286.998 125.675 286.848 125.875C286.715 126.058 286.498 126.242 286.198 126.425C285.865 126.642 285.39 126.842 284.773 127.025C284.157 127.225 283.448 127.325 282.648 127.325C281.448 127.325 280.39 127.117 279.473 126.7C278.557 126.283 277.84 125.633 277.323 124.75C276.807 123.85 276.548 122.692 276.548 121.275C276.548 119.825 276.798 118.65 277.298 117.75C277.815 116.85 278.507 116.192 279.373 115.775C280.24 115.342 281.19 115.125 282.223 115.125C282.873 115.125 283.49 115.217 284.073 115.4C284.657 115.583 285.115 115.808 285.448 116.075V117.925C285.132 117.608 284.715 117.342 284.198 117.125C283.698 116.892 283.107 116.775 282.423 116.775C281.74 116.775 281.107 116.925 280.523 117.225C279.94 117.508 279.473 117.983 279.123 118.65C278.773 119.317 278.598 120.208 278.598 121.325C278.598 122.842 278.965 123.95 279.698 124.65C280.432 125.333 281.407 125.675 282.623 125.675C283.207 125.675 283.682 125.617 284.048 125.5C284.432 125.367 284.773 125.208 285.073 125.025ZM287.073 117.1L285.073 117.125V110.8C285.157 110.767 285.282 110.733 285.448 110.7C285.632 110.65 285.815 110.625 285.998 110.625C286.365 110.625 286.632 110.7 286.798 110.85C286.982 110.983 287.073 111.208 287.073 111.525V117.1ZM290.345 122.5L290.245 120.925L297.795 119.9C297.728 118.983 297.412 118.233 296.845 117.65C296.278 117.05 295.495 116.75 294.495 116.75C293.462 116.75 292.603 117.125 291.92 117.875C291.253 118.608 290.92 119.667 290.92 121.05V121.6C291.037 122.933 291.47 123.95 292.22 124.65C292.987 125.333 294.028 125.675 295.345 125.675C296.045 125.675 296.678 125.558 297.245 125.325C297.812 125.092 298.262 124.842 298.595 124.575C298.778 124.692 298.92 124.833 299.02 125C299.137 125.15 299.195 125.325 299.195 125.525C299.195 125.842 299.012 126.142 298.645 126.425C298.295 126.692 297.82 126.908 297.22 127.075C296.637 127.242 295.978 127.325 295.245 127.325C293.962 127.325 292.845 127.092 291.895 126.625C290.962 126.158 290.237 125.467 289.72 124.55C289.22 123.617 288.97 122.483 288.97 121.15C288.97 120.2 289.103 119.358 289.37 118.625C289.653 117.875 290.037 117.242 290.52 116.725C291.02 116.208 291.612 115.817 292.295 115.55C292.978 115.267 293.72 115.125 294.52 115.125C295.537 115.125 296.428 115.342 297.195 115.775C297.978 116.208 298.587 116.817 299.02 117.6C299.47 118.367 299.695 119.25 299.695 120.25C299.695 120.617 299.612 120.883 299.445 121.05C299.278 121.2 299.045 121.292 298.745 121.325L290.345 122.5ZM40.875 144.375V146.925H38.875V144.475C38.875 143.542 38.6083 142.858 38.075 142.425C37.5583 141.992 36.8583 141.775 35.975 141.775C35.3083 141.775 34.7167 141.858 34.2 142.025C33.6833 142.192 33.2417 142.383 32.875 142.6V146.925H30.875V142.7C30.875 142.35 30.9417 142.067 31.075 141.85C31.225 141.617 31.475 141.392 31.825 141.175C32.2583 140.925 32.8333 140.692 33.55 140.475C34.2667 140.242 35.075 140.125 35.975 140.125C37.4917 140.125 38.6833 140.475 39.55 141.175C40.4333 141.858 40.875 142.925 40.875 144.375ZM30.875 145.55H32.875V151.95C32.7917 151.983 32.6667 152.017 32.5 152.05C32.3333 152.1 32.15 152.125 31.95 152.125C31.6 152.125 31.3333 152.058 31.15 151.925C30.9667 151.775 30.875 151.542 30.875 151.225V145.55ZM38.875 145.55H40.875V151.95C40.7917 151.983 40.6583 152.017 40.475 152.05C40.3083 152.1 40.1333 152.125 39.95 152.125C39.5833 152.125 39.3083 152.058 39.125 151.925C38.9583 151.775 38.875 151.542 38.875 151.225V145.55ZM43.3701 147.775V145.5H45.3701V147.675C45.3701 148.742 45.6535 149.508 46.2201 149.975C46.7868 150.442 47.5701 150.675 48.5701 150.675C49.2368 150.675 49.8035 150.608 50.2701 150.475C50.7368 150.325 51.1035 150.175 51.3701 150.025V145.5H53.3701V149.95C53.3701 150.3 53.3201 150.583 53.2201 150.8C53.1368 151 52.9201 151.2 52.5701 151.4C52.2035 151.617 51.6785 151.825 50.9951 152.025C50.3118 152.225 49.4951 152.325 48.5451 152.325C47.4451 152.325 46.5035 152.167 45.7201 151.85C44.9535 151.517 44.3701 151.017 43.9701 150.35C43.5701 149.667 43.3701 148.808 43.3701 147.775ZM53.3701 146.8H51.3701V140.5C51.4535 140.467 51.5785 140.433 51.7451 140.4C51.9285 140.35 52.1118 140.325 52.2951 140.325C52.6618 140.325 52.9285 140.4 53.0951 140.55C53.2785 140.683 53.3701 140.917 53.3701 141.25V146.8ZM45.3701 146.8H43.3701V140.5C43.4535 140.467 43.5785 140.433 43.7451 140.4C43.9285 140.35 44.1201 140.325 44.3201 140.325C44.6701 140.325 44.9285 140.4 45.0951 140.55C45.2785 140.683 45.3701 140.917 45.3701 141.25V146.8ZM56.5902 147.5L56.4902 145.925L64.0402 144.9C63.9736 143.983 63.6569 143.233 63.0902 142.65C62.5236 142.05 61.7402 141.75 60.7402 141.75C59.7069 141.75 58.8486 142.125 58.1652 142.875C57.4986 143.608 57.1652 144.667 57.1652 146.05V146.6C57.2819 147.933 57.7152 148.95 58.4652 149.65C59.2319 150.333 60.2736 150.675 61.5902 150.675C62.2902 150.675 62.9236 150.558 63.4902 150.325C64.0569 150.092 64.5069 149.842 64.8402 149.575C65.0236 149.692 65.1652 149.833 65.2652 150C65.3819 150.15 65.4402 150.325 65.4402 150.525C65.4402 150.842 65.2569 151.142 64.8902 151.425C64.5402 151.692 64.0652 151.908 63.4652 152.075C62.8819 152.242 62.2236 152.325 61.4902 152.325C60.2069 152.325 59.0902 152.092 58.1402 151.625C57.2069 151.158 56.4819 150.467 55.9652 149.55C55.4652 148.617 55.2152 147.483 55.2152 146.15C55.2152 145.2 55.3486 144.358 55.6152 143.625C55.8986 142.875 56.2819 142.242 56.7652 141.725C57.2652 141.208 57.8569 140.817 58.5402 140.55C59.2236 140.267 59.9652 140.125 60.7652 140.125C61.7819 140.125 62.6736 140.342 63.4402 140.775C64.2236 141.208 64.8319 141.817 65.2652 142.6C65.7152 143.367 65.9402 144.25 65.9402 145.25C65.9402 145.617 65.8569 145.883 65.6902 146.05C65.5236 146.2 65.2902 146.292 64.9902 146.325L56.5902 147.5ZM75.8756 148.925C75.8756 149.992 75.4839 150.825 74.7006 151.425C73.9173 152.025 72.7839 152.325 71.3006 152.325C70.0339 152.325 69.0006 152.133 68.2006 151.75C67.4006 151.35 67.0006 150.917 67.0006 150.45C67.0006 150.25 67.0506 150.058 67.1506 149.875C67.2673 149.675 67.4339 149.517 67.6506 149.4C68.1006 149.717 68.6256 150.008 69.2256 150.275C69.8256 150.542 70.5089 150.675 71.2756 150.675C73.0089 150.675 73.8756 150.092 73.8756 148.925C73.8756 148.442 73.7256 148.05 73.4256 147.75C73.1423 147.433 72.7173 147.208 72.1506 147.075L70.0756 146.525C69.0589 146.275 68.3173 145.892 67.8506 145.375C67.3839 144.842 67.1506 144.183 67.1506 143.4C67.1506 142.517 67.5089 141.75 68.2256 141.1C68.9423 140.45 70.0339 140.125 71.5006 140.125C72.2839 140.125 72.9673 140.208 73.5506 140.375C74.1339 140.525 74.5839 140.733 74.9006 141C75.2339 141.25 75.4006 141.525 75.4006 141.825C75.4006 142.042 75.3423 142.233 75.2256 142.4C75.1256 142.567 74.9839 142.692 74.8006 142.775C74.6006 142.642 74.3423 142.5 74.0256 142.35C73.7256 142.183 73.3673 142.05 72.9506 141.95C72.5339 141.833 72.0756 141.775 71.5756 141.775C70.8423 141.775 70.2506 141.917 69.8006 142.2C69.3506 142.483 69.1256 142.883 69.1256 143.4C69.1256 143.767 69.2506 144.092 69.5006 144.375C69.7673 144.642 70.1839 144.842 70.7506 144.975L72.4756 145.4C73.6089 145.667 74.4589 146.092 75.0256 146.675C75.5923 147.242 75.8756 147.992 75.8756 148.925ZM77.6822 145.4H79.6822V148.85C79.6822 149.517 79.8739 149.992 80.2572 150.275C80.6406 150.542 81.1656 150.675 81.8322 150.675C82.1156 150.675 82.4322 150.625 82.7822 150.525C83.1322 150.425 83.4239 150.308 83.6572 150.175C83.7572 150.275 83.8489 150.4 83.9322 150.55C84.0156 150.7 84.0572 150.875 84.0572 151.075C84.0572 151.442 83.8406 151.742 83.4072 151.975C82.9739 152.208 82.3739 152.325 81.6072 152.325C80.4406 152.325 79.4906 152.067 78.7572 151.55C78.0406 151.033 77.6822 150.175 77.6822 148.975V145.4ZM78.7072 142.35V140.7H83.7822C83.8322 140.767 83.8822 140.875 83.9322 141.025C83.9822 141.175 84.0072 141.333 84.0072 141.5C84.0072 141.767 83.9406 141.975 83.8072 142.125C83.6739 142.275 83.4906 142.35 83.2572 142.35H78.7072ZM79.6822 146.15H77.6822V137.1C77.7656 137.067 77.8906 137.033 78.0572 137C78.2406 136.95 78.4322 136.925 78.6322 136.925C78.9822 136.925 79.2406 137 79.4072 137.15C79.5906 137.283 79.6822 137.508 79.6822 137.825V146.15ZM87.709 142.6V146.55H85.709V142.75C85.709 142.367 85.7757 142.067 85.909 141.85C86.059 141.617 86.3007 141.392 86.634 141.175C87.0673 140.892 87.659 140.65 88.409 140.45C89.159 140.233 89.9923 140.125 90.909 140.125C92.2423 140.125 92.909 140.458 92.909 141.125C92.909 141.292 92.884 141.45 92.834 141.6C92.784 141.733 92.7173 141.85 92.634 141.95C92.4673 141.917 92.2507 141.883 91.984 141.85C91.7173 141.817 91.4507 141.8 91.184 141.8C90.4173 141.8 89.7423 141.883 89.159 142.05C88.5757 142.2 88.0923 142.383 87.709 142.6ZM85.709 145.4L87.709 145.7V151.95C87.6257 151.983 87.5007 152.017 87.334 152.05C87.1673 152.1 86.984 152.125 86.784 152.125C86.434 152.125 86.1673 152.058 85.984 151.925C85.8007 151.775 85.709 151.542 85.709 151.225V145.4ZM98.0078 152.35C96.4411 152.35 95.2245 152.042 94.3578 151.425C93.5078 150.808 93.0828 149.917 93.0828 148.75C93.0828 147.667 93.4411 146.842 94.1578 146.275C94.8911 145.692 95.8995 145.342 97.1828 145.225L100.733 144.875V144.175C100.733 143.342 100.483 142.733 99.9828 142.35C99.4828 141.967 98.8078 141.775 97.9578 141.775C97.2745 141.775 96.6161 141.875 95.9828 142.075C95.3661 142.275 94.8161 142.5 94.3328 142.75C94.1995 142.633 94.0745 142.5 93.9578 142.35C93.8578 142.183 93.8078 142.017 93.8078 141.85C93.8078 141.417 94.0495 141.083 94.5328 140.85C94.9828 140.617 95.4995 140.442 96.0828 140.325C96.6828 140.192 97.3161 140.125 97.9828 140.125C99.4328 140.125 100.583 140.45 101.433 141.1C102.283 141.75 102.708 142.775 102.708 144.175V150.1C102.708 150.467 102.633 150.75 102.483 150.95C102.349 151.133 102.141 151.308 101.858 151.475C101.458 151.692 100.924 151.892 100.258 152.075C99.5911 152.258 98.8411 152.35 98.0078 152.35ZM98.0078 150.7C98.7078 150.7 99.2828 150.633 99.7328 150.5C100.199 150.35 100.533 150.208 100.733 150.075V146.45L97.6328 146.775C96.7661 146.842 96.1245 147.033 95.7078 147.35C95.2911 147.667 95.0828 148.125 95.0828 148.725C95.0828 149.342 95.3245 149.825 95.8078 150.175C96.3078 150.525 97.0411 150.7 98.0078 150.7ZM116.138 143.4C115.838 144.45 115.513 145.5 115.163 146.55C114.83 147.6 114.505 148.583 114.188 149.5C113.872 150.417 113.58 151.208 113.313 151.875C113.18 151.958 113.03 152.025 112.863 152.075C112.697 152.125 112.472 152.15 112.188 152.15C111.922 152.15 111.672 152.1 111.438 152C111.222 151.917 111.072 151.775 110.988 151.575C110.822 151.242 110.63 150.758 110.413 150.125C110.213 149.492 109.997 148.767 109.763 147.95C109.547 147.133 109.322 146.292 109.088 145.425C108.855 144.542 108.638 143.692 108.438 142.875C108.255 142.058 108.097 141.333 107.963 140.7C108.08 140.583 108.222 140.475 108.388 140.375C108.572 140.275 108.788 140.225 109.038 140.225C109.355 140.225 109.588 140.317 109.738 140.5C109.905 140.667 110.022 140.942 110.088 141.325C110.238 142.025 110.405 142.817 110.588 143.7C110.788 144.583 110.988 145.458 111.188 146.325C111.405 147.192 111.597 147.975 111.763 148.675C111.947 149.358 112.08 149.867 112.163 150.2H112.263C112.397 149.8 112.605 149.15 112.888 148.25C113.172 147.333 113.505 146.292 113.888 145.125C114.288 143.958 114.688 142.775 115.088 141.575C115.222 141.492 115.38 141.433 115.563 141.4C115.747 141.35 115.947 141.325 116.163 141.325C116.463 141.325 116.713 141.383 116.913 141.5C117.113 141.6 117.247 141.758 117.313 141.975C117.713 143.125 118.088 144.258 118.438 145.375C118.788 146.475 119.097 147.458 119.363 148.325C119.63 149.175 119.822 149.808 119.938 150.225H120.063C120.447 148.742 120.863 147.15 121.313 145.45C121.763 143.75 122.13 142.083 122.413 140.45C122.647 140.3 122.93 140.225 123.263 140.225C123.547 140.225 123.772 140.292 123.938 140.425C124.105 140.558 124.188 140.767 124.188 141.05C124.188 141.233 124.13 141.583 124.013 142.1C123.913 142.617 123.772 143.225 123.588 143.925C123.405 144.625 123.197 145.375 122.963 146.175C122.747 146.958 122.522 147.725 122.288 148.475C122.055 149.208 121.83 149.875 121.613 150.475C121.413 151.075 121.238 151.542 121.088 151.875C121.005 151.942 120.863 152 120.663 152.05C120.48 152.117 120.263 152.15 120.013 152.15C119.33 152.15 118.93 151.992 118.813 151.675C118.58 151.075 118.313 150.333 118.013 149.45C117.713 148.55 117.405 147.583 117.088 146.55C116.772 145.5 116.455 144.45 116.138 143.4ZM126.307 147.5L126.207 145.925L133.757 144.9C133.69 143.983 133.374 143.233 132.807 142.65C132.24 142.05 131.457 141.75 130.457 141.75C129.424 141.75 128.565 142.125 127.882 142.875C127.215 143.608 126.882 144.667 126.882 146.05V146.6C126.999 147.933 127.432 148.95 128.182 149.65C128.949 150.333 129.99 150.675 131.307 150.675C132.007 150.675 132.64 150.558 133.207 150.325C133.774 150.092 134.224 149.842 134.557 149.575C134.74 149.692 134.882 149.833 134.982 150C135.099 150.15 135.157 150.325 135.157 150.525C135.157 150.842 134.974 151.142 134.607 151.425C134.257 151.692 133.782 151.908 133.182 152.075C132.599 152.242 131.94 152.325 131.207 152.325C129.924 152.325 128.807 152.092 127.857 151.625C126.924 151.158 126.199 150.467 125.682 149.55C125.182 148.617 124.932 147.483 124.932 146.15C124.932 145.2 125.065 144.358 125.332 143.625C125.615 142.875 125.999 142.242 126.482 141.725C126.982 141.208 127.574 140.817 128.257 140.55C128.94 140.267 129.682 140.125 130.482 140.125C131.499 140.125 132.39 140.342 133.157 140.775C133.94 141.208 134.549 141.817 134.982 142.6C135.432 143.367 135.657 144.25 135.657 145.25C135.657 145.617 135.574 145.883 135.407 146.05C135.24 146.2 135.007 146.292 134.707 146.325L126.307 147.5ZM142.446 140.125C143.479 140.125 144.404 140.35 145.221 140.8C146.054 141.233 146.704 141.9 147.171 142.8C147.654 143.7 147.896 144.842 147.896 146.225C147.896 147.625 147.646 148.775 147.146 149.675C146.663 150.575 145.988 151.242 145.121 151.675C144.254 152.108 143.246 152.325 142.096 152.325C141.279 152.325 140.538 152.225 139.871 152.025C139.221 151.825 138.688 151.608 138.271 151.375C137.921 151.142 137.679 150.925 137.546 150.725C137.413 150.525 137.346 150.25 137.346 149.9V141.575H139.346V149.9C139.596 150.083 139.963 150.258 140.446 150.425C140.929 150.592 141.479 150.675 142.096 150.675C143.229 150.675 144.138 150.317 144.821 149.6C145.521 148.883 145.871 147.758 145.871 146.225C145.871 144.675 145.521 143.55 144.821 142.85C144.121 142.133 143.229 141.775 142.146 141.775C141.479 141.775 140.888 141.908 140.371 142.175C139.854 142.425 139.429 142.717 139.096 143.05L138.721 141.425C139.088 141.142 139.579 140.858 140.196 140.575C140.813 140.275 141.563 140.125 142.446 140.125ZM139.346 141.975H137.346V135.8C137.429 135.767 137.554 135.733 137.721 135.7C137.904 135.65 138.096 135.625 138.296 135.625C138.646 135.625 138.904 135.7 139.071 135.85C139.254 135.983 139.346 136.208 139.346 136.525V141.975ZM148.047 150.95C148.047 150.55 148.164 150.217 148.397 149.95C148.647 149.683 148.989 149.55 149.422 149.55C149.856 149.55 150.189 149.683 150.422 149.95C150.656 150.217 150.772 150.55 150.772 150.95C150.772 151.333 150.656 151.658 150.422 151.925C150.189 152.192 149.856 152.325 149.422 152.325C148.989 152.325 148.647 152.192 148.397 151.925C148.164 151.658 148.047 151.333 148.047 150.95Z" fill="black"/>
</svg>
