<svg width="437" height="331" viewBox="0 0 437 331" fill="none" xmlns="http://www.w3.org/2000/svg">
<rect width="437" height="331" fill="#FFD41A"/>
<path d="M89.7828 109.51C90.9628 109.51 91.8428 109.27 92.4228 108.79C93.0028 108.29 93.2928 107.67 93.2928 106.93C93.2928 106.29 93.0628 105.76 92.6028 105.34C92.1628 104.92 91.4828 104.57 90.5628 104.29L88.4928 103.66C87.5328 103.34 86.6828 102.97 85.9428 102.55C85.2228 102.13 84.6628 101.59 84.2628 100.93C83.8628 100.27 83.6628 99.47 83.6628 98.53C83.6628 96.91 84.2628 95.64 85.4628 94.72C86.6628 93.78 88.2928 93.31 90.3528 93.31C91.4728 93.31 92.4628 93.43 93.3228 93.67C94.2028 93.89 94.8928 94.2 95.3928 94.6C95.8928 95 96.1428 95.46 96.1428 95.98C96.1428 96.32 96.0528 96.63 95.8728 96.91C95.6928 97.19 95.4628 97.42 95.1828 97.6C94.7228 97.24 94.0828 96.93 93.2628 96.67C92.4628 96.41 91.5828 96.28 90.6228 96.28C89.5828 96.28 88.7728 96.49 88.1928 96.91C87.6128 97.31 87.3228 97.85 87.3228 98.53C87.3228 99.07 87.5228 99.51 87.9228 99.85C88.3228 100.19 88.9528 100.48 89.8128 100.72L91.5528 101.26C93.2528 101.76 94.5728 102.46 95.5128 103.36C96.4728 104.24 96.9528 105.44 96.9528 106.96C96.9528 108.58 96.3328 109.9 95.0928 110.92C93.8728 111.94 92.1228 112.45 89.8428 112.45C88.6228 112.45 87.5428 112.31 86.6028 112.03C85.6628 111.77 84.9228 111.42 84.3828 110.98C83.8428 110.52 83.5728 110.02 83.5728 109.48C83.5728 109.04 83.7028 108.67 83.9628 108.37C84.2428 108.07 84.5428 107.85 84.8628 107.71C85.3628 108.15 86.0228 108.56 86.8428 108.94C87.6828 109.32 88.6628 109.51 89.7828 109.51ZM99.0282 100.12H102.538V111.79C102.398 111.83 102.178 111.88 101.878 111.94C101.578 112 101.268 112.03 100.948 112.03C100.368 112.03 99.8982 111.86 99.5382 111.52C99.1982 111.16 99.0282 110.7 99.0282 110.14V100.12ZM102.538 105.61L99.0282 105.58V95.68C99.0282 95.1 99.1982 94.64 99.5382 94.3C99.8982 93.96 100.368 93.79 100.948 93.79C101.268 93.79 101.578 93.82 101.878 93.88C102.178 93.94 102.398 93.99 102.538 94.03V105.61ZM100.948 104.11V101.26H109.978C110.078 101.4 110.168 101.59 110.248 101.83C110.328 102.07 110.368 102.34 110.368 102.64C110.368 103.12 110.258 103.49 110.038 103.75C109.818 103.99 109.498 104.11 109.078 104.11H100.948ZM100.948 112.03V109.15H111.028C111.108 109.29 111.188 109.49 111.268 109.75C111.348 109.99 111.388 110.26 111.388 110.56C111.388 111.04 111.278 111.41 111.058 111.67C110.838 111.91 110.528 112.03 110.128 112.03H100.948ZM100.948 96.67V93.79H110.878C110.978 93.93 111.068 94.12 111.148 94.36C111.228 94.6 111.268 94.86 111.268 95.14C111.268 95.64 111.148 96.02 110.908 96.28C110.688 96.54 110.378 96.67 109.978 96.67H100.948ZM128.765 103.21V109.57C128.765 110.03 128.655 110.4 128.435 110.68C128.215 110.94 127.885 111.19 127.445 111.43C126.925 111.71 126.185 111.95 125.225 112.15C124.265 112.35 123.305 112.45 122.345 112.45C120.465 112.45 118.775 112.12 117.275 111.46C115.795 110.78 114.625 109.74 113.765 108.34C112.925 106.92 112.505 105.11 112.505 102.91C112.505 100.79 112.935 99.02 113.795 97.6C114.675 96.18 115.845 95.11 117.305 94.39C118.765 93.67 120.375 93.31 122.135 93.31C123.315 93.31 124.345 93.44 125.225 93.7C126.125 93.96 126.815 94.3 127.295 94.72C127.795 95.12 128.045 95.56 128.045 96.04C128.045 96.4 127.945 96.72 127.745 97C127.545 97.28 127.315 97.5 127.055 97.66C126.515 97.32 125.875 97 125.135 96.7C124.395 96.4 123.475 96.25 122.375 96.25C121.195 96.25 120.135 96.51 119.195 97.03C118.255 97.55 117.515 98.31 116.975 99.31C116.455 100.29 116.195 101.49 116.195 102.91C116.195 104.43 116.465 105.68 117.005 106.66C117.545 107.62 118.285 108.34 119.225 108.82C120.165 109.3 121.225 109.54 122.405 109.54C123.005 109.54 123.565 109.49 124.085 109.39C124.605 109.27 125.005 109.14 125.285 109V104.53H121.295C121.215 104.39 121.135 104.2 121.055 103.96C120.975 103.7 120.935 103.43 120.935 103.15C120.935 102.65 121.045 102.28 121.265 102.04C121.485 101.8 121.795 101.68 122.195 101.68H127.235C127.675 101.68 128.035 101.82 128.315 102.1C128.615 102.36 128.765 102.73 128.765 103.21ZM138.917 112.45C137.357 112.45 136.017 112.17 134.897 111.61C133.777 111.03 132.917 110.22 132.317 109.18C131.737 108.14 131.447 106.93 131.447 105.55V103.36H134.987V105.4C134.987 106.74 135.357 107.76 136.097 108.46C136.857 109.16 137.797 109.51 138.917 109.51C140.057 109.51 140.997 109.16 141.737 108.46C142.477 107.76 142.847 106.74 142.847 105.4V103.36H146.417V105.55C146.417 106.93 146.117 108.14 145.517 109.18C144.937 110.22 144.087 111.03 142.967 111.61C141.847 112.17 140.497 112.45 138.917 112.45ZM134.987 104.41H131.447V93.79C131.587 93.75 131.817 93.7 132.137 93.64C132.457 93.58 132.777 93.55 133.097 93.55C133.757 93.55 134.237 93.67 134.537 93.91C134.837 94.15 134.987 94.59 134.987 95.23V104.41ZM146.417 104.44H142.847V93.79C143.007 93.75 143.237 93.7 143.537 93.64C143.857 93.58 144.177 93.55 144.497 93.55C145.177 93.55 145.667 93.67 145.967 93.91C146.267 94.15 146.417 94.59 146.417 95.23V104.44ZM149.666 100.15H153.236V111.94C153.076 112 152.846 112.05 152.546 112.09C152.246 112.15 151.926 112.18 151.586 112.18C150.906 112.18 150.416 112.06 150.116 111.82C149.816 111.56 149.666 111.13 149.666 110.53V100.15ZM153.236 104.14H149.666V93.79C149.826 93.75 150.056 93.7 150.356 93.64C150.676 93.58 150.996 93.55 151.316 93.55C151.976 93.55 152.456 93.67 152.756 93.91C153.076 94.15 153.236 94.59 153.236 95.23V104.14ZM167.795 107.38C167.595 107.52 167.345 107.64 167.045 107.74C166.745 107.84 166.405 107.89 166.025 107.89C165.545 107.89 165.135 107.83 164.795 107.71C164.455 107.57 164.225 107.34 164.105 107.02C163.245 104.98 162.505 103.19 161.885 101.65C161.265 100.09 160.775 98.78 160.415 97.72H160.295C160.235 99.08 160.175 100.35 160.115 101.53C160.055 102.69 159.995 103.82 159.935 104.92C159.895 106 159.845 107.11 159.785 108.25C159.745 109.39 159.675 110.62 159.575 111.94C159.415 112 159.185 112.06 158.885 112.12C158.605 112.18 158.315 112.21 158.015 112.21C157.415 112.21 156.955 112.1 156.635 111.88C156.335 111.64 156.185 111.28 156.185 110.8C156.185 110.46 156.205 109.86 156.245 109C156.305 108.12 156.365 107.08 156.425 105.88C156.505 104.68 156.585 103.42 156.665 102.1C156.765 100.76 156.855 99.44 156.935 98.14C157.035 96.82 157.135 95.62 157.235 94.54C157.395 94.36 157.665 94.17 158.045 93.97C158.445 93.77 158.955 93.67 159.575 93.67C160.275 93.67 160.845 93.79 161.285 94.03C161.725 94.27 162.045 94.66 162.245 95.2C162.665 96.06 163.085 97.03 163.505 98.11C163.925 99.17 164.335 100.24 164.735 101.32C165.155 102.38 165.555 103.37 165.935 104.29H166.055C166.775 102.35 167.495 100.48 168.215 98.68C168.935 96.86 169.545 95.33 170.045 94.09C170.285 93.97 170.585 93.87 170.945 93.79C171.305 93.71 171.665 93.67 172.025 93.67C172.705 93.67 173.245 93.78 173.645 94C174.065 94.2 174.315 94.51 174.395 94.93C174.475 95.29 174.565 95.88 174.665 96.7C174.765 97.52 174.865 98.48 174.965 99.58C175.065 100.66 175.155 101.8 175.235 103C175.335 104.18 175.425 105.34 175.505 106.48C175.585 107.62 175.655 108.65 175.715 109.57C175.795 110.49 175.845 111.22 175.865 111.76C175.625 111.92 175.365 112.03 175.085 112.09C174.825 112.17 174.505 112.21 174.125 112.21C173.645 112.21 173.225 112.11 172.865 111.91C172.525 111.71 172.335 111.34 172.295 110.8C172.195 109.06 172.095 107.37 171.995 105.73C171.915 104.09 171.845 102.59 171.785 101.23C171.745 99.87 171.695 98.73 171.635 97.81H171.515C171.175 98.79 170.695 100.04 170.075 101.56C169.475 103.06 168.715 105 167.795 107.38ZM178.658 100.15H182.228V111.94C182.068 112 181.838 112.05 181.538 112.09C181.238 112.15 180.918 112.18 180.578 112.18C179.898 112.18 179.408 112.06 179.108 111.82C178.808 111.56 178.658 111.13 178.658 110.53V100.15ZM182.228 104.14H178.658V93.79C178.818 93.75 179.048 93.7 179.348 93.64C179.668 93.58 179.988 93.55 180.308 93.55C180.968 93.55 181.448 93.67 181.748 93.91C182.068 94.15 182.228 94.59 182.228 95.23V104.14ZM185.507 100.12H189.017V111.79C188.877 111.83 188.657 111.88 188.357 111.94C188.057 112 187.747 112.03 187.427 112.03C186.847 112.03 186.377 111.86 186.017 111.52C185.677 111.16 185.507 110.7 185.507 110.14V100.12ZM189.017 105.61L185.507 105.58V95.68C185.507 95.1 185.677 94.64 186.017 94.3C186.377 93.96 186.847 93.79 187.427 93.79C187.747 93.79 188.057 93.82 188.357 93.88C188.657 93.94 188.877 93.99 189.017 94.03V105.61ZM187.427 104.11V101.26H196.457C196.557 101.4 196.647 101.59 196.727 101.83C196.807 102.07 196.847 102.34 196.847 102.64C196.847 103.12 196.737 103.49 196.517 103.75C196.297 103.99 195.977 104.11 195.557 104.11H187.427ZM187.427 112.03V109.15H197.507C197.587 109.29 197.667 109.49 197.747 109.75C197.827 109.99 197.867 110.26 197.867 110.56C197.867 111.04 197.757 111.41 197.537 111.67C197.317 111.91 197.007 112.03 196.607 112.03H187.427ZM187.427 96.67V93.79H197.357C197.457 93.93 197.547 94.12 197.627 94.36C197.707 94.6 197.747 94.86 197.747 95.14C197.747 95.64 197.627 96.02 197.387 96.28C197.167 96.54 196.857 96.67 196.457 96.67H187.427ZM200.149 97.51L203.329 97.39C203.409 98.13 203.469 98.92 203.509 99.76C203.549 100.6 203.579 101.44 203.599 102.28C203.619 103.1 203.629 103.9 203.629 104.68V111.97C203.489 112.01 203.269 112.05 202.969 112.09C202.669 112.15 202.359 112.18 202.039 112.18C201.379 112.18 200.899 112.06 200.599 111.82C200.299 111.58 200.149 111.17 200.149 110.59V97.51ZM215.419 108.25L212.239 108.34C212.079 106.78 211.989 105.24 211.969 103.72C211.949 102.2 211.939 100.73 211.939 99.31V93.79C212.099 93.75 212.319 93.7 212.599 93.64C212.899 93.58 213.219 93.55 213.559 93.55C214.219 93.55 214.689 93.68 214.969 93.94C215.269 94.18 215.419 94.59 215.419 95.17V108.25ZM215.419 107.05V105.46V111.55C215.199 111.73 214.899 111.88 214.519 112C214.139 112.14 213.699 112.21 213.199 112.21C212.619 112.21 212.089 112.11 211.609 111.91C211.149 111.71 210.749 111.29 210.409 110.65L205.819 102.46C205.559 101.96 205.279 101.45 204.979 100.93C204.699 100.39 204.429 99.86 204.169 99.34C203.929 98.82 203.709 98.35 203.509 97.93L200.149 98.71V94.36C200.369 94.12 200.679 93.93 201.079 93.79C201.479 93.65 201.919 93.58 202.399 93.58C202.979 93.58 203.499 93.68 203.959 93.88C204.439 94.08 204.849 94.5 205.189 95.14L209.809 103.3C210.089 103.8 210.369 104.32 210.649 104.86C210.929 105.4 211.189 105.93 211.429 106.45C211.669 106.95 211.879 107.41 212.059 107.83L215.419 107.05ZM223.248 96.7L223.158 93.79H231.348C231.428 93.93 231.508 94.13 231.588 94.39C231.668 94.63 231.708 94.89 231.708 95.17C231.708 95.67 231.588 96.05 231.348 96.31C231.128 96.57 230.818 96.7 230.418 96.7H223.248ZM225.468 93.79L225.558 96.7H217.368C217.268 96.56 217.178 96.37 217.098 96.13C217.018 95.87 216.978 95.59 216.978 95.29C216.978 94.79 217.088 94.42 217.308 94.18C217.548 93.92 217.868 93.79 218.268 93.79H225.468ZM222.528 95.89H226.098V111.94C225.958 112 225.728 112.05 225.408 112.09C225.108 112.15 224.788 112.18 224.448 112.18C223.768 112.18 223.278 112.06 222.978 111.82C222.678 111.56 222.528 111.13 222.528 110.53V95.89ZM249.551 102.88C249.551 104.96 249.151 106.71 248.351 108.13C247.571 109.55 246.501 110.63 245.141 111.37C243.781 112.09 242.241 112.45 240.521 112.45C238.801 112.45 237.261 112.09 235.901 111.37C234.541 110.63 233.461 109.55 232.661 108.13C231.881 106.71 231.491 104.96 231.491 102.88C231.491 100.8 231.891 99.05 232.691 97.63C233.511 96.21 234.601 95.14 235.961 94.42C237.321 93.68 238.841 93.31 240.521 93.31C242.221 93.31 243.751 93.68 245.111 94.42C246.471 95.14 247.551 96.21 248.351 97.63C249.151 99.05 249.551 100.8 249.551 102.88ZM245.891 102.88C245.891 100.74 245.401 99.1 244.421 97.96C243.441 96.82 242.141 96.25 240.521 96.25C238.921 96.25 237.631 96.82 236.651 97.96C235.671 99.1 235.181 100.74 235.181 102.88C235.181 105.04 235.661 106.69 236.621 107.83C237.601 108.95 238.901 109.51 240.521 109.51C242.161 109.51 243.461 108.95 244.421 107.83C245.401 106.69 245.891 105.04 245.891 102.88ZM268.647 102.79C268.647 104.99 268.117 106.66 267.057 107.8C265.997 108.92 264.487 109.48 262.527 109.48C262.087 109.48 261.627 109.46 261.147 109.42C260.687 109.38 260.277 109.32 259.917 109.24V96.49C260.277 96.43 260.657 96.39 261.057 96.37C261.457 96.33 261.897 96.31 262.377 96.31C263.577 96.31 264.647 96.54 265.587 97C266.527 97.44 267.267 98.14 267.807 99.1C268.367 100.04 268.647 101.27 268.647 102.79ZM272.307 102.76C272.307 100.64 271.887 98.89 271.047 97.51C270.207 96.13 269.027 95.1 267.507 94.42C266.007 93.72 264.257 93.37 262.257 93.37C261.477 93.37 260.657 93.41 259.797 93.49C258.957 93.57 258.177 93.72 257.457 93.94C257.117 94.06 256.847 94.22 256.647 94.42C256.447 94.6 256.347 94.87 256.347 95.23V110.11C256.347 110.91 256.827 111.47 257.787 111.79C258.527 112.05 259.337 112.21 260.217 112.27C261.117 112.35 261.887 112.39 262.527 112.39C264.507 112.39 266.227 112.04 267.687 111.34C269.147 110.64 270.277 109.58 271.077 108.16C271.897 106.72 272.307 104.92 272.307 102.76ZM274.593 100.12H278.103V111.79C277.963 111.83 277.743 111.88 277.443 111.94C277.143 112 276.833 112.03 276.513 112.03C275.933 112.03 275.463 111.86 275.103 111.52C274.763 111.16 274.593 110.7 274.593 110.14V100.12ZM278.103 105.61L274.593 105.58V95.68C274.593 95.1 274.763 94.64 275.103 94.3C275.463 93.96 275.933 93.79 276.513 93.79C276.833 93.79 277.143 93.82 277.443 93.88C277.743 93.94 277.963 93.99 278.103 94.03V105.61ZM276.513 104.11V101.26H285.543C285.643 101.4 285.733 101.59 285.813 101.83C285.893 102.07 285.933 102.34 285.933 102.64C285.933 103.12 285.823 103.49 285.603 103.75C285.383 103.99 285.063 104.11 284.643 104.11H276.513ZM276.513 112.03V109.15H286.593C286.673 109.29 286.753 109.49 286.833 109.75C286.913 109.99 286.953 110.26 286.953 110.56C286.953 111.04 286.843 111.41 286.623 111.67C286.403 111.91 286.093 112.03 285.693 112.03H276.513ZM276.513 96.67V93.79H286.443C286.543 93.93 286.633 94.12 286.713 94.36C286.793 94.6 286.833 94.86 286.833 95.14C286.833 95.64 286.713 96.02 286.473 96.28C286.253 96.54 285.943 96.67 285.543 96.67H276.513ZM293.741 100.12H297.251V111.79C297.111 111.83 296.891 111.88 296.591 111.94C296.291 112 295.981 112.03 295.661 112.03C295.081 112.03 294.611 111.86 294.251 111.52C293.911 111.16 293.741 110.7 293.741 110.14V100.12ZM297.251 105.61L293.741 105.58V95.68C293.741 95.1 293.911 94.64 294.251 94.3C294.611 93.96 295.081 93.79 295.661 93.79C295.981 93.79 296.291 93.82 296.591 93.88C296.891 93.94 297.111 93.99 297.251 94.03V105.61ZM295.661 104.11V101.26H304.691C304.791 101.4 304.881 101.59 304.961 101.83C305.041 102.07 305.081 102.34 305.081 102.64C305.081 103.12 304.971 103.49 304.751 103.75C304.531 103.99 304.211 104.11 303.791 104.11H295.661ZM295.661 112.03V109.15H305.741C305.821 109.29 305.901 109.49 305.981 109.75C306.061 109.99 306.101 110.26 306.101 110.56C306.101 111.04 305.991 111.41 305.771 111.67C305.551 111.91 305.241 112.03 304.841 112.03H295.661ZM295.661 96.67V93.79H305.591C305.691 93.93 305.781 94.12 305.861 94.36C305.941 94.6 305.981 94.86 305.981 95.14C305.981 95.64 305.861 96.02 305.621 96.28C305.401 96.54 305.091 96.67 304.691 96.67H295.661ZM308.384 97.51L311.564 97.39C311.644 98.13 311.704 98.92 311.744 99.76C311.784 100.6 311.814 101.44 311.834 102.28C311.854 103.1 311.864 103.9 311.864 104.68V111.97C311.724 112.01 311.504 112.05 311.204 112.09C310.904 112.15 310.594 112.18 310.274 112.18C309.614 112.18 309.134 112.06 308.834 111.82C308.534 111.58 308.384 111.17 308.384 110.59V97.51ZM323.654 108.25L320.474 108.34C320.314 106.78 320.224 105.24 320.204 103.72C320.184 102.2 320.174 100.73 320.174 99.31V93.79C320.334 93.75 320.554 93.7 320.834 93.64C321.134 93.58 321.454 93.55 321.794 93.55C322.454 93.55 322.924 93.68 323.204 93.94C323.504 94.18 323.654 94.59 323.654 95.17V108.25ZM323.654 107.05V105.46V111.55C323.434 111.73 323.134 111.88 322.754 112C322.374 112.14 321.934 112.21 321.434 112.21C320.854 112.21 320.324 112.11 319.844 111.91C319.384 111.71 318.984 111.29 318.644 110.65L314.054 102.46C313.794 101.96 313.514 101.45 313.214 100.93C312.934 100.39 312.664 99.86 312.404 99.34C312.164 98.82 311.944 98.35 311.744 97.93L308.384 98.71V94.36C308.604 94.12 308.914 93.93 309.314 93.79C309.714 93.65 310.154 93.58 310.634 93.58C311.214 93.58 311.734 93.68 312.194 93.88C312.674 94.08 313.084 94.5 313.424 95.14L318.044 103.3C318.324 103.8 318.604 104.32 318.884 104.86C319.164 105.4 319.424 105.93 319.664 106.45C319.904 106.95 320.114 107.41 320.294 107.83L323.654 107.05ZM335.923 111.61C335.763 111.75 335.473 111.88 335.053 112C334.653 112.14 334.213 112.21 333.733 112.21C333.173 112.21 332.683 112.13 332.263 111.97C331.843 111.79 331.563 111.55 331.423 111.25C331.103 110.65 330.733 109.86 330.313 108.88C329.913 107.88 329.473 106.76 328.993 105.52C328.533 104.28 328.073 103.01 327.613 101.71C327.153 100.41 326.723 99.13 326.323 97.87C325.943 96.61 325.603 95.48 325.303 94.48C325.503 94.28 325.773 94.09 326.113 93.91C326.473 93.73 326.863 93.64 327.283 93.64C327.803 93.64 328.213 93.76 328.513 94C328.813 94.24 329.043 94.63 329.203 95.17C329.943 97.51 330.673 99.78 331.393 101.98C332.113 104.16 332.883 106.39 333.703 108.67H333.853C334.353 107.27 334.863 105.76 335.383 104.14C335.903 102.5 336.413 100.82 336.913 99.1C337.433 97.36 337.903 95.67 338.323 94.03C338.543 93.91 338.783 93.82 339.043 93.76C339.323 93.68 339.623 93.64 339.943 93.64C340.463 93.64 340.893 93.76 341.233 94C341.573 94.24 341.743 94.62 341.743 95.14C341.743 95.48 341.633 96.07 341.413 96.91C341.193 97.73 340.903 98.69 340.543 99.79C340.203 100.89 339.813 102.04 339.373 103.24C338.953 104.44 338.523 105.6 338.083 106.72C337.643 107.84 337.233 108.83 336.853 109.69C336.493 110.55 336.183 111.19 335.923 111.61ZM343.529 100.15H347.099V111.94C346.939 112 346.709 112.05 346.409 112.09C346.109 112.15 345.789 112.18 345.449 112.18C344.769 112.18 344.279 112.06 343.979 111.82C343.679 111.56 343.529 111.13 343.529 110.53V100.15ZM347.099 104.14H343.529V93.79C343.689 93.75 343.919 93.7 344.219 93.64C344.539 93.58 344.859 93.55 345.179 93.55C345.839 93.55 346.319 93.67 346.619 93.91C346.939 94.15 347.099 94.59 347.099 95.23V104.14ZM344.369 89.89L347.399 87.1C347.999 87.1 348.459 87.25 348.779 87.55C349.119 87.83 349.289 88.18 349.289 88.6C349.289 88.92 349.209 89.2 349.049 89.44C348.909 89.68 348.649 89.94 348.269 90.22L345.539 92.26C344.979 92.24 344.549 92.11 344.249 91.87C343.969 91.63 343.829 91.34 343.829 91C343.829 90.8 343.869 90.61 343.949 90.43C344.029 90.25 344.169 90.07 344.369 89.89ZM367.448 102.88C367.448 104.96 367.048 106.71 366.248 108.13C365.468 109.55 364.398 110.63 363.038 111.37C361.678 112.09 360.138 112.45 358.418 112.45C356.698 112.45 355.158 112.09 353.798 111.37C352.438 110.63 351.358 109.55 350.558 108.13C349.778 106.71 349.388 104.96 349.388 102.88C349.388 100.8 349.788 99.05 350.588 97.63C351.408 96.21 352.498 95.14 353.858 94.42C355.218 93.68 356.738 93.31 358.418 93.31C360.118 93.31 361.648 93.68 363.008 94.42C364.368 95.14 365.448 96.21 366.248 97.63C367.048 99.05 367.448 100.8 367.448 102.88ZM363.788 102.88C363.788 100.74 363.298 99.1 362.318 97.96C361.338 96.82 360.038 96.25 358.418 96.25C356.818 96.25 355.528 96.82 354.548 97.96C353.568 99.1 353.078 100.74 353.078 102.88C353.078 105.04 353.558 106.69 354.518 107.83C355.498 108.95 356.798 109.51 358.418 109.51C360.058 109.51 361.358 108.95 362.318 107.83C363.298 106.69 363.788 105.04 363.788 102.88Z" fill="black"/>
<path d="M75.7648 158.46C77.0154 158.46 77.9581 158.18 78.5928 157.62C79.2461 157.041 79.5728 156.304 79.5728 155.408C79.5728 154.643 79.3208 154.008 78.8168 153.504C78.3314 153 77.5568 152.599 76.4928 152.3L74.0568 151.572C73.2728 151.329 72.5914 151.021 72.0128 150.648C71.4341 150.256 70.9861 149.78 70.6688 149.22C70.3701 148.641 70.2208 147.969 70.2208 147.204C70.2208 145.767 70.7434 144.647 71.7888 143.844C72.8341 143.023 74.2248 142.612 75.9608 142.612C76.9688 142.612 77.8648 142.724 78.6488 142.948C79.4514 143.153 80.0768 143.424 80.5248 143.76C80.9914 144.096 81.2248 144.451 81.2248 144.824C81.2248 145.067 81.1594 145.291 81.0288 145.496C80.8981 145.683 80.7301 145.832 80.5248 145.944C80.0581 145.571 79.4234 145.244 78.6208 144.964C77.8368 144.684 76.9781 144.544 76.0448 144.544C74.9621 144.544 74.1034 144.787 73.4688 145.272C72.8341 145.739 72.5168 146.383 72.5168 147.204C72.5168 147.857 72.7408 148.389 73.1888 148.8C73.6554 149.211 74.4021 149.565 75.4288 149.864L77.1368 150.368C78.6114 150.779 79.7688 151.376 80.6088 152.16C81.4674 152.944 81.8968 154.027 81.8968 155.408C81.8968 156.883 81.3554 158.077 80.2728 158.992C79.2088 159.907 77.7061 160.364 75.7648 160.364C74.6261 160.364 73.6274 160.243 72.7688 160C71.9288 159.739 71.2661 159.421 70.7808 159.048C70.3141 158.656 70.0808 158.273 70.0808 157.9C70.0808 157.583 70.1741 157.321 70.3608 157.116C70.5661 156.892 70.7994 156.733 71.0608 156.64C71.4901 157.051 72.0968 157.461 72.8808 157.872C73.6648 158.264 74.6261 158.46 75.7648 158.46ZM83.729 142.976C83.729 142.584 83.869 142.257 84.149 141.996C84.429 141.716 84.7743 141.576 85.185 141.576C85.6143 141.576 85.9597 141.716 86.221 141.996C86.4823 142.257 86.613 142.584 86.613 142.976C86.613 143.368 86.4823 143.704 86.221 143.984C85.9597 144.245 85.6143 144.376 85.185 144.376C84.7743 144.376 84.429 144.245 84.149 143.984C83.869 143.704 83.729 143.368 83.729 142.976ZM84.065 152.608H86.305V159.944C86.2117 159.981 86.0717 160.019 85.885 160.056C85.6983 160.112 85.493 160.14 85.269 160.14C84.877 160.14 84.5783 160.065 84.373 159.916C84.1677 159.748 84.065 159.487 84.065 159.132V152.608ZM86.305 153.7H84.065V147.12C84.1583 147.083 84.2983 147.045 84.485 147.008C84.6903 146.952 84.905 146.924 85.129 146.924C85.521 146.924 85.8103 147.008 85.997 147.176C86.2023 147.325 86.305 147.587 86.305 147.96V153.7ZM98.4069 156.556C98.4069 157.751 97.9682 158.684 97.0909 159.356C96.2136 160.028 94.9442 160.364 93.2829 160.364C91.8642 160.364 90.7069 160.149 89.8109 159.72C88.9149 159.272 88.4669 158.787 88.4669 158.264C88.4669 158.04 88.5229 157.825 88.6349 157.62C88.7656 157.396 88.9522 157.219 89.1949 157.088C89.6989 157.443 90.2869 157.769 90.9589 158.068C91.6309 158.367 92.3962 158.516 93.2549 158.516C95.1962 158.516 96.1669 157.863 96.1669 156.556C96.1669 156.015 95.9989 155.576 95.6629 155.24C95.3456 154.885 94.8696 154.633 94.2349 154.484L91.9109 153.868C90.7722 153.588 89.9416 153.159 89.4189 152.58C88.8962 151.983 88.6349 151.245 88.6349 150.368C88.6349 149.379 89.0362 148.52 89.8389 147.792C90.6416 147.064 91.8642 146.7 93.5069 146.7C94.3842 146.7 95.1496 146.793 95.8029 146.98C96.4562 147.148 96.9602 147.381 97.3149 147.68C97.6882 147.96 97.8749 148.268 97.8749 148.604C97.8749 148.847 97.8096 149.061 97.6789 149.248C97.5669 149.435 97.4082 149.575 97.2029 149.668C96.9789 149.519 96.6896 149.36 96.3349 149.192C95.9989 149.005 95.5976 148.856 95.1309 148.744C94.6642 148.613 94.1509 148.548 93.5909 148.548C92.7696 148.548 92.1069 148.707 91.6029 149.024C91.0989 149.341 90.8469 149.789 90.8469 150.368C90.8469 150.779 90.9869 151.143 91.2669 151.46C91.5656 151.759 92.0322 151.983 92.6669 152.132L94.5989 152.608C95.8682 152.907 96.8202 153.383 97.4549 154.036C98.0896 154.671 98.4069 155.511 98.4069 156.556ZM100.43 152.608H102.67V156.472C102.67 157.219 102.885 157.751 103.314 158.068C103.744 158.367 104.332 158.516 105.078 158.516C105.396 158.516 105.75 158.46 106.142 158.348C106.534 158.236 106.861 158.105 107.122 157.956C107.234 158.068 107.337 158.208 107.43 158.376C107.524 158.544 107.57 158.74 107.57 158.964C107.57 159.375 107.328 159.711 106.842 159.972C106.357 160.233 105.685 160.364 104.826 160.364C103.52 160.364 102.456 160.075 101.634 159.496C100.832 158.917 100.43 157.956 100.43 156.612V152.608ZM101.578 149.192V147.344H107.262C107.318 147.419 107.374 147.54 107.43 147.708C107.486 147.876 107.514 148.053 107.514 148.24C107.514 148.539 107.44 148.772 107.29 148.94C107.141 149.108 106.936 149.192 106.674 149.192H101.578ZM102.67 153.448H100.43V143.312C100.524 143.275 100.664 143.237 100.85 143.2C101.056 143.144 101.27 143.116 101.494 143.116C101.886 143.116 102.176 143.2 102.362 143.368C102.568 143.517 102.67 143.769 102.67 144.124V153.448ZM109.822 154.96L109.71 153.196L118.166 152.048C118.091 151.021 117.737 150.181 117.102 149.528C116.467 148.856 115.59 148.52 114.47 148.52C113.313 148.52 112.351 148.94 111.586 149.78C110.839 150.601 110.466 151.787 110.466 153.336V153.952C110.597 155.445 111.082 156.584 111.922 157.368C112.781 158.133 113.947 158.516 115.422 158.516C116.206 158.516 116.915 158.385 117.55 158.124C118.185 157.863 118.689 157.583 119.062 157.284C119.267 157.415 119.426 157.573 119.538 157.76C119.669 157.928 119.734 158.124 119.734 158.348C119.734 158.703 119.529 159.039 119.118 159.356C118.726 159.655 118.194 159.897 117.522 160.084C116.869 160.271 116.131 160.364 115.31 160.364C113.873 160.364 112.622 160.103 111.558 159.58C110.513 159.057 109.701 158.283 109.122 157.256C108.562 156.211 108.282 154.941 108.282 153.448C108.282 152.384 108.431 151.441 108.73 150.62C109.047 149.78 109.477 149.071 110.018 148.492C110.578 147.913 111.241 147.475 112.006 147.176C112.771 146.859 113.602 146.7 114.498 146.7C115.637 146.7 116.635 146.943 117.494 147.428C118.371 147.913 119.053 148.595 119.538 149.472C120.042 150.331 120.294 151.32 120.294 152.44C120.294 152.851 120.201 153.149 120.014 153.336C119.827 153.504 119.566 153.607 119.23 153.644L109.822 154.96ZM132.574 151.04V154.26H130.334V151.208C130.334 150.293 130.063 149.621 129.522 149.192C128.999 148.763 128.299 148.548 127.422 148.548C126.843 148.548 126.283 148.641 125.742 148.828C125.2 149.015 124.743 149.229 124.37 149.472V154.26H122.13V149.584C122.13 149.211 122.204 148.893 122.354 148.632C122.522 148.371 122.802 148.119 123.194 147.876C123.698 147.559 124.332 147.288 125.098 147.064C125.882 146.821 126.666 146.7 127.45 146.7C128.402 146.7 129.242 146.849 129.97 147.148C130.698 147.428 131.239 147.82 131.594 148.324C131.706 148.436 131.799 148.539 131.874 148.632C131.948 148.725 132.023 148.847 132.098 148.996C132.228 149.22 132.34 149.509 132.434 149.864C132.527 150.219 132.574 150.611 132.574 151.04ZM140.778 151.096V154.26H138.538V151.208C138.538 150.293 138.276 149.621 137.754 149.192C137.231 148.763 136.531 148.548 135.654 148.548C135 148.548 134.366 148.688 133.75 148.968C133.152 149.229 132.611 149.612 132.126 150.116L131.23 148.492C131.715 148.007 132.35 147.587 133.134 147.232C133.918 146.877 134.814 146.7 135.822 146.7C136.83 146.7 137.698 146.859 138.426 147.176C139.172 147.493 139.751 147.979 140.162 148.632C140.572 149.285 140.778 150.107 140.778 151.096ZM122.13 152.776H124.37V159.944C124.276 159.981 124.136 160.019 123.95 160.056C123.763 160.112 123.558 160.14 123.334 160.14C122.942 160.14 122.643 160.065 122.438 159.916C122.232 159.748 122.13 159.487 122.13 159.132V152.776ZM130.334 152.776H132.574V159.944C132.48 159.981 132.331 160.019 132.126 160.056C131.939 160.112 131.743 160.14 131.538 160.14C131.127 160.14 130.819 160.065 130.614 159.916C130.427 159.748 130.334 159.487 130.334 159.132V152.776ZM138.538 152.776H140.778V159.944C140.684 159.981 140.535 160.019 140.33 160.056C140.143 160.112 139.947 160.14 139.742 160.14C139.331 160.14 139.023 160.065 138.818 159.916C138.631 159.748 138.538 159.487 138.538 159.132V152.776ZM148.209 160.392C146.454 160.392 145.092 160.047 144.121 159.356C143.169 158.665 142.693 157.667 142.693 156.36C142.693 155.147 143.094 154.223 143.897 153.588C144.718 152.935 145.848 152.543 147.285 152.412L151.261 152.02V151.236C151.261 150.303 150.981 149.621 150.421 149.192C149.861 148.763 149.105 148.548 148.153 148.548C147.388 148.548 146.65 148.66 145.941 148.884C145.25 149.108 144.634 149.36 144.093 149.64C143.944 149.509 143.804 149.36 143.673 149.192C143.561 149.005 143.505 148.819 143.505 148.632C143.505 148.147 143.776 147.773 144.317 147.512C144.821 147.251 145.4 147.055 146.053 146.924C146.725 146.775 147.434 146.7 148.181 146.7C149.805 146.7 151.093 147.064 152.045 147.792C152.997 148.52 153.473 149.668 153.473 151.236V157.872C153.473 158.283 153.389 158.6 153.221 158.824C153.072 159.029 152.838 159.225 152.521 159.412C152.073 159.655 151.476 159.879 150.729 160.084C149.982 160.289 149.142 160.392 148.209 160.392ZM148.209 158.544C148.993 158.544 149.637 158.469 150.141 158.32C150.664 158.152 151.037 157.993 151.261 157.844V153.784L147.789 154.148C146.818 154.223 146.1 154.437 145.633 154.792C145.166 155.147 144.933 155.66 144.933 156.332C144.933 157.023 145.204 157.564 145.745 157.956C146.305 158.348 147.126 158.544 148.209 158.544ZM169.187 157.788V148.38L171.427 148.352V157.872C171.427 158.227 171.343 158.516 171.175 158.74C171.026 158.945 170.783 159.151 170.447 159.356C170.074 159.599 169.542 159.823 168.851 160.028C168.161 160.252 167.367 160.364 166.471 160.364C165.127 160.364 163.942 160.131 162.915 159.664C161.889 159.197 161.086 158.469 160.507 157.48C159.929 156.472 159.639 155.175 159.639 153.588C159.639 151.964 159.919 150.648 160.479 149.64C161.058 148.632 161.833 147.895 162.803 147.428C163.774 146.943 164.838 146.7 165.995 146.7C166.723 146.7 167.414 146.803 168.067 147.008C168.721 147.213 169.234 147.465 169.607 147.764V149.836C169.253 149.481 168.786 149.183 168.207 148.94C167.647 148.679 166.985 148.548 166.219 148.548C165.454 148.548 164.745 148.716 164.091 149.052C163.438 149.369 162.915 149.901 162.523 150.648C162.131 151.395 161.935 152.393 161.935 153.644C161.935 155.343 162.346 156.584 163.167 157.368C163.989 158.133 165.081 158.516 166.443 158.516C167.097 158.516 167.629 158.451 168.039 158.32C168.469 158.171 168.851 157.993 169.187 157.788ZM171.427 148.912L169.187 148.94V141.856C169.281 141.819 169.421 141.781 169.607 141.744C169.813 141.688 170.018 141.66 170.223 141.66C170.634 141.66 170.933 141.744 171.119 141.912C171.325 142.061 171.427 142.313 171.427 142.668V148.912ZM175.092 154.96L174.98 153.196L183.436 152.048C183.361 151.021 183.006 150.181 182.372 149.528C181.737 148.856 180.86 148.52 179.74 148.52C178.582 148.52 177.621 148.94 176.856 149.78C176.109 150.601 175.736 151.787 175.736 153.336V153.952C175.866 155.445 176.352 156.584 177.192 157.368C178.05 158.133 179.217 158.516 180.692 158.516C181.476 158.516 182.185 158.385 182.82 158.124C183.454 157.863 183.958 157.583 184.332 157.284C184.537 157.415 184.696 157.573 184.808 157.76C184.938 157.928 185.004 158.124 185.004 158.348C185.004 158.703 184.798 159.039 184.388 159.356C183.996 159.655 183.464 159.897 182.792 160.084C182.138 160.271 181.401 160.364 180.58 160.364C179.142 160.364 177.892 160.103 176.828 159.58C175.782 159.057 174.97 158.283 174.392 157.256C173.832 156.211 173.552 154.941 173.552 153.448C173.552 152.384 173.701 151.441 174 150.62C174.317 149.78 174.746 149.071 175.288 148.492C175.848 147.913 176.51 147.475 177.276 147.176C178.041 146.859 178.872 146.7 179.768 146.7C180.906 146.7 181.905 146.943 182.764 147.428C183.641 147.913 184.322 148.595 184.808 149.472C185.312 150.331 185.564 151.32 185.564 152.44C185.564 152.851 185.47 153.149 185.284 153.336C185.097 153.504 184.836 153.607 184.5 153.644L175.092 154.96ZM196.981 159.608C195.898 159.608 194.899 159.403 193.985 158.992C193.07 158.563 192.333 157.872 191.773 156.92C191.213 155.968 190.933 154.708 190.933 153.14C190.933 151.721 191.203 150.536 191.745 149.584C192.305 148.632 193.07 147.913 194.041 147.428C195.011 146.943 196.122 146.7 197.373 146.7C198.231 146.7 199.015 146.812 199.725 147.036C200.453 147.241 201.059 147.503 201.545 147.82C201.825 148.007 202.049 148.221 202.217 148.464C202.403 148.688 202.497 148.968 202.497 149.304V157.956H200.257V149.332C199.939 149.127 199.538 148.949 199.053 148.8C198.586 148.632 198.026 148.548 197.373 148.548C196.122 148.548 195.114 148.931 194.349 149.696C193.583 150.461 193.201 151.6 193.201 153.112C193.201 154.792 193.583 155.987 194.349 156.696C195.133 157.405 196.094 157.76 197.233 157.76C198.054 157.76 198.717 157.62 199.221 157.34C199.725 157.06 200.126 156.752 200.425 156.416L200.537 158.404C200.257 158.703 199.809 158.983 199.193 159.244C198.595 159.487 197.858 159.608 196.981 159.608ZM200.257 160.42V157.48H202.497V160.56C202.497 161.792 202.226 162.781 201.685 163.528C201.162 164.275 200.434 164.816 199.501 165.152C198.586 165.488 197.55 165.656 196.393 165.656C195.459 165.656 194.657 165.553 193.985 165.348C193.313 165.143 192.855 164.975 192.613 164.844C192.053 164.527 191.773 164.125 191.773 163.64C191.773 163.379 191.829 163.155 191.941 162.968C192.071 162.8 192.23 162.669 192.417 162.576C192.809 162.875 193.359 163.145 194.069 163.388C194.797 163.649 195.571 163.78 196.393 163.78C197.643 163.78 198.595 163.509 199.249 162.968C199.921 162.427 200.257 161.577 200.257 160.42ZM206.056 154.96L205.944 153.196L214.4 152.048C214.325 151.021 213.97 150.181 213.336 149.528C212.701 148.856 211.824 148.52 210.704 148.52C209.546 148.52 208.585 148.94 207.82 149.78C207.073 150.601 206.7 151.787 206.7 153.336V153.952C206.83 155.445 207.316 156.584 208.156 157.368C209.014 158.133 210.181 158.516 211.656 158.516C212.44 158.516 213.149 158.385 213.784 158.124C214.418 157.863 214.922 157.583 215.296 157.284C215.501 157.415 215.66 157.573 215.772 157.76C215.902 157.928 215.968 158.124 215.968 158.348C215.968 158.703 215.762 159.039 215.352 159.356C214.96 159.655 214.428 159.897 213.756 160.084C213.102 160.271 212.365 160.364 211.544 160.364C210.106 160.364 208.856 160.103 207.792 159.58C206.746 159.057 205.934 158.283 205.356 157.256C204.796 156.211 204.516 154.941 204.516 153.448C204.516 152.384 204.665 151.441 204.964 150.62C205.281 149.78 205.71 149.071 206.252 148.492C206.812 147.913 207.474 147.475 208.24 147.176C209.005 146.859 209.836 146.7 210.732 146.7C211.87 146.7 212.869 146.943 213.728 147.428C214.605 147.913 215.286 148.595 215.772 149.472C216.276 150.331 216.528 151.32 216.528 152.44C216.528 152.851 216.434 153.149 216.248 153.336C216.061 153.504 215.8 153.607 215.464 153.644L206.056 154.96ZM227.655 156.556C227.655 157.751 227.217 158.684 226.339 159.356C225.462 160.028 224.193 160.364 222.531 160.364C221.113 160.364 219.955 160.149 219.059 159.72C218.163 159.272 217.715 158.787 217.715 158.264C217.715 158.04 217.771 157.825 217.883 157.62C218.014 157.396 218.201 157.219 218.443 157.088C218.947 157.443 219.535 157.769 220.207 158.068C220.879 158.367 221.645 158.516 222.503 158.516C224.445 158.516 225.415 157.863 225.415 156.556C225.415 156.015 225.247 155.576 224.911 155.24C224.594 154.885 224.118 154.633 223.483 154.484L221.159 153.868C220.021 153.588 219.19 153.159 218.667 152.58C218.145 151.983 217.883 151.245 217.883 150.368C217.883 149.379 218.285 148.52 219.087 147.792C219.89 147.064 221.113 146.7 222.755 146.7C223.633 146.7 224.398 146.793 225.051 146.98C225.705 147.148 226.209 147.381 226.563 147.68C226.937 147.96 227.123 148.268 227.123 148.604C227.123 148.847 227.058 149.061 226.927 149.248C226.815 149.435 226.657 149.575 226.451 149.668C226.227 149.519 225.938 149.36 225.583 149.192C225.247 149.005 224.846 148.856 224.379 148.744C223.913 148.613 223.399 148.548 222.839 148.548C222.018 148.548 221.355 148.707 220.851 149.024C220.347 149.341 220.095 149.789 220.095 150.368C220.095 150.779 220.235 151.143 220.515 151.46C220.814 151.759 221.281 151.983 221.915 152.132L223.847 152.608C225.117 152.907 226.069 153.383 226.703 154.036C227.338 154.671 227.655 155.511 227.655 156.556ZM229.679 152.608H231.919V156.472C231.919 157.219 232.133 157.751 232.563 158.068C232.992 158.367 233.58 158.516 234.327 158.516C234.644 158.516 234.999 158.46 235.391 158.348C235.783 158.236 236.109 158.105 236.371 157.956C236.483 158.068 236.585 158.208 236.679 158.376C236.772 158.544 236.819 158.74 236.819 158.964C236.819 159.375 236.576 159.711 236.091 159.972C235.605 160.233 234.933 160.364 234.075 160.364C232.768 160.364 231.704 160.075 230.883 159.496C230.08 158.917 229.679 157.956 229.679 156.612V152.608ZM230.827 149.192V147.344H236.511C236.567 147.419 236.623 147.54 236.679 147.708C236.735 147.876 236.763 148.053 236.763 148.24C236.763 148.539 236.688 148.772 236.539 148.94C236.389 149.108 236.184 149.192 235.923 149.192H230.827ZM231.919 153.448H229.679V143.312C229.772 143.275 229.912 143.237 230.099 143.2C230.304 143.144 230.519 143.116 230.743 143.116C231.135 143.116 231.424 143.2 231.611 143.368C231.816 143.517 231.919 143.769 231.919 144.124V153.448ZM238.473 142.976C238.473 142.584 238.613 142.257 238.893 141.996C239.173 141.716 239.518 141.576 239.929 141.576C240.358 141.576 240.703 141.716 240.965 141.996C241.226 142.257 241.357 142.584 241.357 142.976C241.357 143.368 241.226 143.704 240.965 143.984C240.703 144.245 240.358 144.376 239.929 144.376C239.518 144.376 239.173 144.245 238.893 143.984C238.613 143.704 238.473 143.368 238.473 142.976ZM238.809 152.608H241.049V159.944C240.955 159.981 240.815 160.019 240.629 160.056C240.442 160.112 240.237 160.14 240.013 160.14C239.621 160.14 239.322 160.065 239.117 159.916C238.911 159.748 238.809 159.487 238.809 159.132V152.608ZM241.049 153.7H238.809V147.12C238.902 147.083 239.042 147.045 239.229 147.008C239.434 146.952 239.649 146.924 239.873 146.924C240.265 146.924 240.554 147.008 240.741 147.176C240.946 147.325 241.049 147.587 241.049 147.96V153.7ZM256.035 153.532C256.035 154.913 255.773 156.117 255.251 157.144C254.728 158.171 253.991 158.964 253.039 159.524C252.087 160.084 250.967 160.364 249.679 160.364C248.391 160.364 247.261 160.084 246.291 159.524C245.339 158.964 244.601 158.171 244.079 157.144C243.556 156.117 243.295 154.913 243.295 153.532C243.295 152.132 243.556 150.928 244.079 149.92C244.62 148.893 245.367 148.1 246.319 147.54C247.289 146.98 248.409 146.7 249.679 146.7C250.948 146.7 252.059 146.98 253.011 147.54C253.963 148.1 254.7 148.893 255.223 149.92C255.764 150.928 256.035 152.132 256.035 153.532ZM249.679 148.548C248.428 148.548 247.429 148.996 246.683 149.892C245.955 150.769 245.591 151.983 245.591 153.532C245.591 155.1 245.945 156.323 246.655 157.2C247.383 158.077 248.391 158.516 249.679 158.516C250.948 158.516 251.937 158.077 252.647 157.2C253.375 156.304 253.739 155.081 253.739 153.532C253.739 151.983 253.375 150.769 252.647 149.892C251.937 148.996 250.948 148.548 249.679 148.548ZM249.595 143.816L252.311 140.764C252.721 140.783 253.048 140.904 253.291 141.128C253.552 141.333 253.683 141.567 253.683 141.828C253.683 142.071 253.627 142.276 253.515 142.444C253.403 142.612 253.216 142.817 252.955 143.06L250.407 145.552C250.052 145.552 249.753 145.459 249.511 145.272C249.287 145.067 249.175 144.843 249.175 144.6C249.175 144.432 249.221 144.292 249.315 144.18C249.408 144.049 249.501 143.928 249.595 143.816ZM269.299 151.46V154.316H267.059V151.572C267.059 150.527 266.761 149.761 266.163 149.276C265.585 148.791 264.801 148.548 263.811 148.548C263.065 148.548 262.402 148.641 261.823 148.828C261.245 149.015 260.75 149.229 260.339 149.472V154.316H258.099V149.584C258.099 149.192 258.174 148.875 258.323 148.632C258.491 148.371 258.771 148.119 259.163 147.876C259.649 147.596 260.293 147.335 261.095 147.092C261.898 146.831 262.803 146.7 263.811 146.7C265.51 146.7 266.845 147.092 267.815 147.876C268.805 148.641 269.299 149.836 269.299 151.46ZM258.099 152.776H260.339V159.944C260.246 159.981 260.106 160.019 259.919 160.056C259.733 160.112 259.527 160.14 259.303 160.14C258.911 160.14 258.613 160.065 258.407 159.916C258.202 159.748 258.099 159.487 258.099 159.132V152.776ZM267.059 152.776H269.299V159.944C269.206 159.981 269.057 160.019 268.851 160.056C268.665 160.112 268.469 160.14 268.263 160.14C267.853 160.14 267.545 160.065 267.339 159.916C267.153 159.748 267.059 159.487 267.059 159.132V152.776ZM277.111 154.96L276.999 153.196L285.455 152.048C285.381 151.021 285.026 150.181 284.391 149.528C283.757 148.856 282.879 148.52 281.759 148.52C280.602 148.52 279.641 148.94 278.875 149.78C278.129 150.601 277.755 151.787 277.755 153.336V153.952C277.886 155.445 278.371 156.584 279.211 157.368C280.07 158.133 281.237 158.516 282.711 158.516C283.495 158.516 284.205 158.385 284.839 158.124C285.474 157.863 285.978 157.583 286.351 157.284C286.557 157.415 286.715 157.573 286.827 157.76C286.958 157.928 287.023 158.124 287.023 158.348C287.023 158.703 286.818 159.039 286.407 159.356C286.015 159.655 285.483 159.897 284.811 160.084C284.158 160.271 283.421 160.364 282.599 160.364C281.162 160.364 279.911 160.103 278.847 159.58C277.802 159.057 276.99 158.283 276.411 157.256C275.851 156.211 275.571 154.941 275.571 153.448C275.571 152.384 275.721 151.441 276.019 150.62C276.337 149.78 276.766 149.071 277.307 148.492C277.867 147.913 278.53 147.475 279.295 147.176C280.061 146.859 280.891 146.7 281.787 146.7C282.926 146.7 283.925 146.943 284.783 147.428C285.661 147.913 286.342 148.595 286.827 149.472C287.331 150.331 287.583 151.32 287.583 152.44C287.583 152.851 287.49 153.149 287.303 153.336C287.117 153.504 286.855 153.607 286.519 153.644L277.111 154.96ZM300.619 151.46V154.316H298.379V151.572C298.379 150.527 298.08 149.761 297.483 149.276C296.904 148.791 296.12 148.548 295.131 148.548C294.384 148.548 293.721 148.641 293.143 148.828C292.564 149.015 292.069 149.229 291.659 149.472V154.316H289.419V149.584C289.419 149.192 289.493 148.875 289.643 148.632C289.811 148.371 290.091 148.119 290.483 147.876C290.968 147.596 291.612 147.335 292.415 147.092C293.217 146.831 294.123 146.7 295.131 146.7C296.829 146.7 298.164 147.092 299.135 147.876C300.124 148.641 300.619 149.836 300.619 151.46ZM289.419 152.776H291.659V159.944C291.565 159.981 291.425 160.019 291.239 160.056C291.052 160.112 290.847 160.14 290.623 160.14C290.231 160.14 289.932 160.065 289.727 159.916C289.521 159.748 289.419 159.487 289.419 159.132V152.776ZM298.379 152.776H300.619V159.944C300.525 159.981 300.376 160.019 300.171 160.056C299.984 160.112 299.788 160.14 299.583 160.14C299.172 160.14 298.864 160.065 298.659 159.916C298.472 159.748 298.379 159.487 298.379 159.132V152.776ZM307.647 152.608H309.887V156.472C309.887 157.219 310.101 157.751 310.531 158.068C310.96 158.367 311.548 158.516 312.295 158.516C312.612 158.516 312.967 158.46 313.359 158.348C313.751 158.236 314.077 158.105 314.339 157.956C314.451 158.068 314.553 158.208 314.647 158.376C314.74 158.544 314.787 158.74 314.787 158.964C314.787 159.375 314.544 159.711 314.059 159.972C313.573 160.233 312.901 160.364 312.043 160.364C310.736 160.364 309.672 160.075 308.851 159.496C308.048 158.917 307.647 157.956 307.647 156.612V152.608ZM308.795 149.192V147.344H314.479C314.535 147.419 314.591 147.54 314.647 147.708C314.703 147.876 314.731 148.053 314.731 148.24C314.731 148.539 314.656 148.772 314.507 148.94C314.357 149.108 314.152 149.192 313.891 149.192H308.795ZM309.887 153.448H307.647V143.312C307.74 143.275 307.88 143.237 308.067 143.2C308.272 143.144 308.487 143.116 308.711 143.116C309.103 143.116 309.392 143.2 309.579 143.368C309.784 143.517 309.887 143.769 309.887 144.124V153.448ZM316.441 142.976C316.441 142.584 316.581 142.257 316.861 141.996C317.141 141.716 317.486 141.576 317.897 141.576C318.326 141.576 318.671 141.716 318.933 141.996C319.194 142.257 319.325 142.584 319.325 142.976C319.325 143.368 319.194 143.704 318.933 143.984C318.671 144.245 318.326 144.376 317.897 144.376C317.486 144.376 317.141 144.245 316.861 143.984C316.581 143.704 316.441 143.368 316.441 142.976ZM316.777 152.608H319.017V159.944C318.923 159.981 318.783 160.019 318.597 160.056C318.41 160.112 318.205 160.14 317.981 160.14C317.589 160.14 317.29 160.065 317.085 159.916C316.879 159.748 316.777 159.487 316.777 159.132V152.608ZM319.017 153.7H316.777V147.12C316.87 147.083 317.01 147.045 317.197 147.008C317.402 146.952 317.617 146.924 317.841 146.924C318.233 146.924 318.522 147.008 318.709 147.176C318.914 147.325 319.017 147.587 319.017 147.96V153.7ZM322.803 154.96L322.691 153.196L331.147 152.048C331.072 151.021 330.717 150.181 330.083 149.528C329.448 148.856 328.571 148.52 327.451 148.52C326.293 148.52 325.332 148.94 324.567 149.78C323.82 150.601 323.447 151.787 323.447 153.336V153.952C323.577 155.445 324.063 156.584 324.903 157.368C325.761 158.133 326.928 158.516 328.403 158.516C329.187 158.516 329.896 158.385 330.531 158.124C331.165 157.863 331.669 157.583 332.043 157.284C332.248 157.415 332.407 157.573 332.519 157.76C332.649 157.928 332.715 158.124 332.715 158.348C332.715 158.703 332.509 159.039 332.099 159.356C331.707 159.655 331.175 159.897 330.503 160.084C329.849 160.271 329.112 160.364 328.291 160.364C326.853 160.364 325.603 160.103 324.539 159.58C323.493 159.057 322.681 158.283 322.103 157.256C321.543 156.211 321.263 154.941 321.263 153.448C321.263 152.384 321.412 151.441 321.711 150.62C322.028 149.78 322.457 149.071 322.999 148.492C323.559 147.913 324.221 147.475 324.987 147.176C325.752 146.859 326.583 146.7 327.479 146.7C328.617 146.7 329.616 146.943 330.475 147.428C331.352 147.913 332.033 148.595 332.519 149.472C333.023 150.331 333.275 151.32 333.275 152.44C333.275 152.851 333.181 153.149 332.995 153.336C332.808 153.504 332.547 153.607 332.211 153.644L322.803 154.96ZM345.554 151.04V154.26H343.314V151.208C343.314 150.293 343.043 149.621 342.502 149.192C341.979 148.763 341.279 148.548 340.402 148.548C339.823 148.548 339.263 148.641 338.722 148.828C338.181 149.015 337.723 149.229 337.35 149.472V154.26H335.11V149.584C335.11 149.211 335.185 148.893 335.334 148.632C335.502 148.371 335.782 148.119 336.174 147.876C336.678 147.559 337.313 147.288 338.078 147.064C338.862 146.821 339.646 146.7 340.43 146.7C341.382 146.7 342.222 146.849 342.95 147.148C343.678 147.428 344.219 147.82 344.574 148.324C344.686 148.436 344.779 148.539 344.854 148.632C344.929 148.725 345.003 148.847 345.078 148.996C345.209 149.22 345.321 149.509 345.414 149.864C345.507 150.219 345.554 150.611 345.554 151.04ZM353.758 151.096V154.26H351.518V151.208C351.518 150.293 351.257 149.621 350.734 149.192C350.211 148.763 349.511 148.548 348.634 148.548C347.981 148.548 347.346 148.688 346.73 148.968C346.133 149.229 345.591 149.612 345.106 150.116L344.21 148.492C344.695 148.007 345.33 147.587 346.114 147.232C346.898 146.877 347.794 146.7 348.802 146.7C349.81 146.7 350.678 146.859 351.406 147.176C352.153 147.493 352.731 147.979 353.142 148.632C353.553 149.285 353.758 150.107 353.758 151.096ZM335.11 152.776H337.35V159.944C337.257 159.981 337.117 160.019 336.93 160.056C336.743 160.112 336.538 160.14 336.314 160.14C335.922 160.14 335.623 160.065 335.418 159.916C335.213 159.748 335.11 159.487 335.11 159.132V152.776ZM343.314 152.776H345.554V159.944C345.461 159.981 345.311 160.019 345.106 160.056C344.919 160.112 344.723 160.14 344.518 160.14C344.107 160.14 343.799 160.065 343.594 159.916C343.407 159.748 343.314 159.487 343.314 159.132V152.776ZM351.518 152.776H353.758V159.944C353.665 159.981 353.515 160.019 353.31 160.056C353.123 160.112 352.927 160.14 352.722 160.14C352.311 160.14 352.003 160.065 351.798 159.916C351.611 159.748 351.518 159.487 351.518 159.132V152.776ZM362.086 160.364C361.283 160.364 360.527 160.243 359.818 160C359.127 159.776 358.623 159.524 358.306 159.244V157.172C358.679 157.527 359.146 157.844 359.706 158.124C360.284 158.385 360.975 158.516 361.778 158.516C363.084 158.516 364.13 158.124 364.914 157.34C365.716 156.537 366.118 155.259 366.118 153.504C366.118 152.272 365.912 151.301 365.502 150.592C365.11 149.864 364.578 149.341 363.906 149.024C363.252 148.707 362.543 148.548 361.778 148.548C361.106 148.548 360.536 148.632 360.07 148.8C359.603 148.968 359.183 149.155 358.81 149.36V158.656H356.57V149.416C356.57 149.043 356.635 148.744 356.766 148.52C356.896 148.296 357.167 148.063 357.578 147.82C358.082 147.54 358.679 147.288 359.37 147.064C360.079 146.821 360.882 146.7 361.778 146.7C363.01 146.7 364.12 146.943 365.11 147.428C366.118 147.895 366.911 148.632 367.49 149.64C368.087 150.629 368.386 151.917 368.386 153.504C368.386 155.035 368.115 156.313 367.574 157.34C367.051 158.348 366.314 159.104 365.362 159.608C364.41 160.112 363.318 160.364 362.086 160.364ZM357.774 165.236C357.382 165.236 357.083 165.152 356.878 164.984C356.672 164.816 356.57 164.555 356.57 164.2V157.844L358.81 157.9V165.04C358.716 165.077 358.576 165.115 358.39 165.152C358.203 165.208 357.998 165.236 357.774 165.236ZM382.467 153.532C382.467 154.913 382.205 156.117 381.683 157.144C381.16 158.171 380.423 158.964 379.471 159.524C378.519 160.084 377.399 160.364 376.111 160.364C374.823 160.364 373.693 160.084 372.723 159.524C371.771 158.964 371.033 158.171 370.511 157.144C369.988 156.117 369.727 154.913 369.727 153.532C369.727 152.132 369.988 150.928 370.511 149.92C371.052 148.893 371.799 148.1 372.751 147.54C373.721 146.98 374.841 146.7 376.111 146.7C377.38 146.7 378.491 146.98 379.443 147.54C380.395 148.1 381.132 148.893 381.655 149.92C382.196 150.928 382.467 152.132 382.467 153.532ZM376.111 148.548C374.86 148.548 373.861 148.996 373.115 149.892C372.387 150.769 372.023 151.983 372.023 153.532C372.023 155.1 372.377 156.323 373.087 157.2C373.815 158.077 374.823 158.516 376.111 158.516C377.38 158.516 378.369 158.077 379.079 157.2C379.807 156.304 380.171 155.081 380.171 153.532C380.171 151.983 379.807 150.769 379.079 149.892C378.369 148.996 377.38 148.548 376.111 148.548ZM78.383 174.472V178.896H76.143V174.64C76.143 174.211 76.2176 173.875 76.367 173.632C76.535 173.371 76.8056 173.119 77.179 172.876C77.6643 172.559 78.327 172.288 79.167 172.064C80.007 171.821 80.9403 171.7 81.967 171.7C83.4603 171.7 84.207 172.073 84.207 172.82C84.207 173.007 84.179 173.184 84.123 173.352C84.067 173.501 83.9923 173.632 83.899 173.744C83.7123 173.707 83.4696 173.669 83.171 173.632C82.8723 173.595 82.5736 173.576 82.275 173.576C81.4163 173.576 80.6603 173.669 80.007 173.856C79.3536 174.024 78.8123 174.229 78.383 174.472ZM76.143 177.608L78.383 177.944V184.944C78.2896 184.981 78.1496 185.019 77.963 185.056C77.7763 185.112 77.571 185.14 77.347 185.14C76.955 185.14 76.6563 185.065 76.451 184.916C76.2456 184.748 76.143 184.487 76.143 184.132V177.608ZM85.9729 179.96L85.8609 178.196L94.3169 177.048C94.2423 176.021 93.8876 175.181 93.2529 174.528C92.6183 173.856 91.7409 173.52 90.6209 173.52C89.4636 173.52 88.5023 173.94 87.7369 174.78C86.9903 175.601 86.6169 176.787 86.6169 178.336V178.952C86.7476 180.445 87.2329 181.584 88.0729 182.368C88.9316 183.133 90.0983 183.516 91.5729 183.516C92.3569 183.516 93.0663 183.385 93.7009 183.124C94.3356 182.863 94.8396 182.583 95.2129 182.284C95.4183 182.415 95.5769 182.573 95.6889 182.76C95.8196 182.928 95.8849 183.124 95.8849 183.348C95.8849 183.703 95.6796 184.039 95.2689 184.356C94.8769 184.655 94.3449 184.897 93.6729 185.084C93.0196 185.271 92.2823 185.364 91.4609 185.364C90.0236 185.364 88.7729 185.103 87.7089 184.58C86.6636 184.057 85.8516 183.283 85.2729 182.256C84.7129 181.211 84.4329 179.941 84.4329 178.448C84.4329 177.384 84.5823 176.441 84.8809 175.62C85.1983 174.78 85.6276 174.071 86.1689 173.492C86.7289 172.913 87.3916 172.475 88.1569 172.176C88.9223 171.859 89.7529 171.7 90.6489 171.7C91.7876 171.7 92.7863 171.943 93.6449 172.428C94.5223 172.913 95.2036 173.595 95.6889 174.472C96.1929 175.331 96.4449 176.32 96.4449 177.44C96.4449 177.851 96.3516 178.149 96.1649 178.336C95.9783 178.504 95.7169 178.607 95.3809 178.644L85.9729 179.96ZM102.9 185.392C101.146 185.392 99.7831 185.047 98.8125 184.356C97.8605 183.665 97.3845 182.667 97.3845 181.36C97.3845 180.147 97.7858 179.223 98.5885 178.588C99.4098 177.935 100.539 177.543 101.976 177.412L105.952 177.02V176.236C105.952 175.303 105.672 174.621 105.112 174.192C104.552 173.763 103.796 173.548 102.844 173.548C102.079 173.548 101.342 173.66 100.632 173.884C99.9418 174.108 99.3258 174.36 98.7845 174.64C98.6351 174.509 98.4951 174.36 98.3645 174.192C98.2525 174.005 98.1965 173.819 98.1965 173.632C98.1965 173.147 98.4671 172.773 99.0085 172.512C99.5125 172.251 100.091 172.055 100.744 171.924C101.416 171.775 102.126 171.7 102.872 171.7C104.496 171.7 105.784 172.064 106.736 172.792C107.688 173.52 108.164 174.668 108.164 176.236V182.872C108.164 183.283 108.08 183.6 107.912 183.824C107.763 184.029 107.53 184.225 107.212 184.412C106.764 184.655 106.167 184.879 105.42 185.084C104.674 185.289 103.834 185.392 102.9 185.392ZM102.9 183.544C103.684 183.544 104.328 183.469 104.832 183.32C105.355 183.152 105.728 182.993 105.952 182.844V178.784L102.48 179.148C101.51 179.223 100.791 179.437 100.324 179.792C99.8578 180.147 99.6245 180.66 99.6245 181.332C99.6245 182.023 99.8951 182.564 100.436 182.956C100.996 183.348 101.818 183.544 102.9 183.544ZM111.077 177.608L113.317 177.944V184.944C113.224 184.981 113.084 185.019 112.897 185.056C112.71 185.112 112.505 185.14 112.281 185.14C111.889 185.14 111.59 185.065 111.385 184.916C111.18 184.748 111.077 184.487 111.077 184.132V177.608ZM113.317 179.008L111.077 178.7V166.856C111.17 166.819 111.31 166.781 111.497 166.744C111.702 166.688 111.908 166.66 112.113 166.66C112.524 166.66 112.822 166.744 113.009 166.912C113.214 167.061 113.317 167.313 113.317 167.668V179.008ZM129.369 182.788V173.38L131.609 173.352V182.872C131.609 183.227 131.525 183.516 131.357 183.74C131.208 183.945 130.965 184.151 130.629 184.356C130.256 184.599 129.724 184.823 129.033 185.028C128.343 185.252 127.549 185.364 126.653 185.364C125.309 185.364 124.124 185.131 123.097 184.664C122.071 184.197 121.268 183.469 120.689 182.48C120.111 181.472 119.821 180.175 119.821 178.588C119.821 176.964 120.101 175.648 120.661 174.64C121.24 173.632 122.015 172.895 122.985 172.428C123.956 171.943 125.02 171.7 126.177 171.7C126.905 171.7 127.596 171.803 128.249 172.008C128.903 172.213 129.416 172.465 129.789 172.764V174.836C129.435 174.481 128.968 174.183 128.389 173.94C127.829 173.679 127.167 173.548 126.401 173.548C125.636 173.548 124.927 173.716 124.273 174.052C123.62 174.369 123.097 174.901 122.705 175.648C122.313 176.395 122.117 177.393 122.117 178.644C122.117 180.343 122.528 181.584 123.349 182.368C124.171 183.133 125.263 183.516 126.625 183.516C127.279 183.516 127.811 183.451 128.221 183.32C128.651 183.171 129.033 182.993 129.369 182.788ZM131.609 173.912L129.369 173.94V166.856C129.463 166.819 129.603 166.781 129.789 166.744C129.995 166.688 130.2 166.66 130.405 166.66C130.816 166.66 131.115 166.744 131.301 166.912C131.507 167.061 131.609 167.313 131.609 167.668V173.912ZM135.274 179.96L135.162 178.196L143.618 177.048C143.543 176.021 143.188 175.181 142.554 174.528C141.919 173.856 141.042 173.52 139.922 173.52C138.764 173.52 137.803 173.94 137.038 174.78C136.291 175.601 135.918 176.787 135.918 178.336V178.952C136.048 180.445 136.534 181.584 137.374 182.368C138.232 183.133 139.399 183.516 140.874 183.516C141.658 183.516 142.367 183.385 143.002 183.124C143.636 182.863 144.14 182.583 144.514 182.284C144.719 182.415 144.878 182.573 144.99 182.76C145.12 182.928 145.186 183.124 145.186 183.348C145.186 183.703 144.98 184.039 144.57 184.356C144.178 184.655 143.646 184.897 142.974 185.084C142.32 185.271 141.583 185.364 140.762 185.364C139.324 185.364 138.074 185.103 137.01 184.58C135.964 184.057 135.152 183.283 134.574 182.256C134.014 181.211 133.734 179.941 133.734 178.448C133.734 177.384 133.883 176.441 134.182 175.62C134.499 174.78 134.928 174.071 135.47 173.492C136.03 172.913 136.692 172.475 137.458 172.176C138.223 171.859 139.054 171.7 139.95 171.7C141.088 171.7 142.087 171.943 142.946 172.428C143.823 172.913 144.504 173.595 144.99 174.472C145.494 175.331 145.746 176.32 145.746 177.44C145.746 177.851 145.652 178.149 145.466 178.336C145.279 178.504 145.018 178.607 144.682 178.644L135.274 179.96ZM151.815 177.608H154.055V181.472C154.055 182.219 154.269 182.751 154.699 183.068C155.128 183.367 155.716 183.516 156.463 183.516C156.78 183.516 157.135 183.46 157.527 183.348C157.919 183.236 158.245 183.105 158.507 182.956C158.619 183.068 158.721 183.208 158.815 183.376C158.908 183.544 158.955 183.74 158.955 183.964C158.955 184.375 158.712 184.711 158.227 184.972C157.741 185.233 157.069 185.364 156.211 185.364C154.904 185.364 153.84 185.075 153.019 184.496C152.216 183.917 151.815 182.956 151.815 181.612V177.608ZM152.963 174.192V172.344H158.647C158.703 172.419 158.759 172.54 158.815 172.708C158.871 172.876 158.899 173.053 158.899 173.24C158.899 173.539 158.824 173.772 158.675 173.94C158.525 174.108 158.32 174.192 158.059 174.192H152.963ZM154.055 178.448H151.815V168.312C151.908 168.275 152.048 168.237 152.235 168.2C152.44 168.144 152.655 168.116 152.879 168.116C153.271 168.116 153.56 168.2 153.747 168.368C153.952 168.517 154.055 168.769 154.055 169.124V178.448ZM160.668 180.268V177.72H162.908V180.156C162.908 181.351 163.225 182.209 163.86 182.732C164.495 183.255 165.372 183.516 166.492 183.516C167.239 183.516 167.873 183.441 168.396 183.292C168.919 183.124 169.329 182.956 169.628 182.788V177.72H171.868V182.704C171.868 183.096 171.812 183.413 171.7 183.656C171.607 183.88 171.364 184.104 170.972 184.328C170.561 184.571 169.973 184.804 169.208 185.028C168.443 185.252 167.528 185.364 166.464 185.364C165.232 185.364 164.177 185.187 163.3 184.832C162.441 184.459 161.788 183.899 161.34 183.152C160.892 182.387 160.668 181.425 160.668 180.268ZM171.868 179.176H169.628V172.12C169.721 172.083 169.861 172.045 170.048 172.008C170.253 171.952 170.459 171.924 170.664 171.924C171.075 171.924 171.373 172.008 171.56 172.176C171.765 172.325 171.868 172.587 171.868 172.96V179.176ZM162.908 179.176H160.668V172.12C160.761 172.083 160.901 172.045 161.088 172.008C161.293 171.952 161.508 171.924 161.732 171.924C162.124 171.924 162.413 172.008 162.6 172.176C162.805 172.325 162.908 172.587 162.908 172.96V179.176ZM183.791 181.556C183.791 182.751 183.352 183.684 182.475 184.356C181.597 185.028 180.328 185.364 178.667 185.364C177.248 185.364 176.091 185.149 175.195 184.72C174.299 184.272 173.851 183.787 173.851 183.264C173.851 183.04 173.907 182.825 174.019 182.62C174.149 182.396 174.336 182.219 174.579 182.088C175.083 182.443 175.671 182.769 176.343 183.068C177.015 183.367 177.78 183.516 178.639 183.516C180.58 183.516 181.551 182.863 181.551 181.556C181.551 181.015 181.383 180.576 181.047 180.24C180.729 179.885 180.253 179.633 179.619 179.484L177.295 178.868C176.156 178.588 175.325 178.159 174.803 177.58C174.28 176.983 174.019 176.245 174.019 175.368C174.019 174.379 174.42 173.52 175.223 172.792C176.025 172.064 177.248 171.7 178.891 171.7C179.768 171.7 180.533 171.793 181.187 171.98C181.84 172.148 182.344 172.381 182.699 172.68C183.072 172.96 183.259 173.268 183.259 173.604C183.259 173.847 183.193 174.061 183.063 174.248C182.951 174.435 182.792 174.575 182.587 174.668C182.363 174.519 182.073 174.36 181.719 174.192C181.383 174.005 180.981 173.856 180.515 173.744C180.048 173.613 179.535 173.548 178.975 173.548C178.153 173.548 177.491 173.707 176.987 174.024C176.483 174.341 176.231 174.789 176.231 175.368C176.231 175.779 176.371 176.143 176.651 176.46C176.949 176.759 177.416 176.983 178.051 177.132L179.983 177.608C181.252 177.907 182.204 178.383 182.839 179.036C183.473 179.671 183.791 180.511 183.791 181.556ZM190.803 179.96L190.691 178.196L199.147 177.048C199.073 176.021 198.718 175.181 198.083 174.528C197.449 173.856 196.571 173.52 195.451 173.52C194.294 173.52 193.333 173.94 192.567 174.78C191.821 175.601 191.447 176.787 191.447 178.336V178.952C191.578 180.445 192.063 181.584 192.903 182.368C193.762 183.133 194.929 183.516 196.403 183.516C197.187 183.516 197.897 183.385 198.531 183.124C199.166 182.863 199.67 182.583 200.043 182.284C200.249 182.415 200.407 182.573 200.519 182.76C200.65 182.928 200.715 183.124 200.715 183.348C200.715 183.703 200.51 184.039 200.099 184.356C199.707 184.655 199.175 184.897 198.503 185.084C197.85 185.271 197.113 185.364 196.291 185.364C194.854 185.364 193.603 185.103 192.539 184.58C191.494 184.057 190.682 183.283 190.103 182.256C189.543 181.211 189.263 179.941 189.263 178.448C189.263 177.384 189.413 176.441 189.711 175.62C190.029 174.78 190.458 174.071 190.999 173.492C191.559 172.913 192.222 172.475 192.987 172.176C193.753 171.859 194.583 171.7 195.479 171.7C196.618 171.7 197.617 171.943 198.475 172.428C199.353 172.913 200.034 173.595 200.519 174.472C201.023 175.331 201.275 176.32 201.275 177.44C201.275 177.851 201.182 178.149 200.995 178.336C200.809 178.504 200.547 178.607 200.211 178.644L190.803 179.96ZM214.311 176.46V179.316H212.071V176.572C212.071 175.527 211.772 174.761 211.175 174.276C210.596 173.791 209.812 173.548 208.823 173.548C208.076 173.548 207.414 173.641 206.835 173.828C206.256 174.015 205.762 174.229 205.351 174.472V179.316H203.111V174.584C203.111 174.192 203.186 173.875 203.335 173.632C203.503 173.371 203.783 173.119 204.175 172.876C204.66 172.596 205.304 172.335 206.107 172.092C206.91 171.831 207.815 171.7 208.823 171.7C210.522 171.7 211.856 172.092 212.827 172.876C213.816 173.641 214.311 174.836 214.311 176.46ZM203.111 177.776H205.351V184.944C205.258 184.981 205.118 185.019 204.931 185.056C204.744 185.112 204.539 185.14 204.315 185.14C203.923 185.14 203.624 185.065 203.419 184.916C203.214 184.748 203.111 184.487 203.111 184.132V177.776ZM212.071 177.776H214.311V184.944C214.218 184.981 214.068 185.019 213.863 185.056C213.676 185.112 213.48 185.14 213.275 185.14C212.864 185.14 212.556 185.065 212.351 184.916C212.164 184.748 212.071 184.487 212.071 184.132V177.776ZM226.438 171.812C226.755 171.812 227.007 171.896 227.194 172.064C227.399 172.232 227.502 172.475 227.502 172.792C227.502 173.035 227.399 173.492 227.194 174.164C226.989 174.836 226.718 175.639 226.382 176.572C226.046 177.505 225.673 178.485 225.262 179.512C224.87 180.52 224.459 181.5 224.03 182.452C223.619 183.385 223.237 184.197 222.882 184.888C222.789 184.963 222.621 185.028 222.378 185.084C222.154 185.14 221.911 185.168 221.65 185.168C221.333 185.168 221.053 185.112 220.81 185C220.567 184.907 220.399 184.767 220.306 184.58C220.101 184.207 219.83 183.665 219.494 182.956C219.177 182.228 218.831 181.407 218.458 180.492C218.085 179.577 217.702 178.635 217.31 177.664C216.937 176.675 216.591 175.732 216.274 174.836C215.957 173.921 215.695 173.119 215.49 172.428C215.621 172.241 215.798 172.092 216.022 171.98C216.246 171.868 216.47 171.812 216.694 171.812C217.03 171.812 217.291 171.896 217.478 172.064C217.665 172.232 217.823 172.512 217.954 172.904L219.69 177.916C219.839 178.345 220.035 178.877 220.278 179.512C220.521 180.147 220.763 180.781 221.006 181.416C221.249 182.051 221.445 182.583 221.594 183.012H221.706C222.453 181.127 223.153 179.269 223.806 177.44C224.459 175.592 225.019 173.791 225.486 172.036C225.729 171.887 226.046 171.812 226.438 171.812ZM229.353 175.396H231.593V185.056C231.519 185.075 231.388 185.103 231.201 185.14C231.015 185.196 230.819 185.224 230.613 185.224C230.203 185.224 229.885 185.14 229.661 184.972C229.456 184.785 229.353 184.524 229.353 184.188V175.396ZM231.593 176.824H229.353V172.148C229.447 172.111 229.587 172.073 229.773 172.036C229.96 171.999 230.156 171.98 230.361 171.98C230.772 171.98 231.08 172.073 231.285 172.26C231.491 172.428 231.593 172.68 231.593 173.016V176.824ZM230.025 168.816L232.741 165.764C233.152 165.783 233.479 165.904 233.721 166.128C233.983 166.333 234.113 166.567 234.113 166.828C234.113 167.071 234.057 167.276 233.945 167.444C233.833 167.612 233.647 167.817 233.385 168.06L230.837 170.552C230.483 170.552 230.184 170.459 229.941 170.272C229.717 170.067 229.605 169.843 229.605 169.6C229.605 169.432 229.652 169.292 229.745 169.18C229.839 169.049 229.932 168.928 230.025 168.816ZM246.579 178.532C246.579 179.913 246.318 181.117 245.795 182.144C245.273 183.171 244.535 183.964 243.583 184.524C242.631 185.084 241.511 185.364 240.223 185.364C238.935 185.364 237.806 185.084 236.835 184.524C235.883 183.964 235.146 183.171 234.623 182.144C234.101 181.117 233.839 179.913 233.839 178.532C233.839 177.132 234.101 175.928 234.623 174.92C235.165 173.893 235.911 173.1 236.863 172.54C237.834 171.98 238.954 171.7 240.223 171.7C241.493 171.7 242.603 171.98 243.555 172.54C244.507 173.1 245.245 173.893 245.767 174.92C246.309 175.928 246.579 177.132 246.579 178.532ZM240.223 173.548C238.973 173.548 237.974 173.996 237.227 174.892C236.499 175.769 236.135 176.983 236.135 178.532C236.135 180.1 236.49 181.323 237.199 182.2C237.927 183.077 238.935 183.516 240.223 183.516C241.493 183.516 242.482 183.077 243.191 182.2C243.919 181.304 244.283 180.081 244.283 178.532C244.283 176.983 243.919 175.769 243.191 174.892C242.482 173.996 241.493 173.548 240.223 173.548ZM257.772 181.556C257.772 182.751 257.333 183.684 256.456 184.356C255.578 185.028 254.309 185.364 252.648 185.364C251.229 185.364 250.072 185.149 249.176 184.72C248.28 184.272 247.832 183.787 247.832 183.264C247.832 183.04 247.888 182.825 248 182.62C248.13 182.396 248.317 182.219 248.56 182.088C249.064 182.443 249.652 182.769 250.324 183.068C250.996 183.367 251.761 183.516 252.62 183.516C254.561 183.516 255.532 182.863 255.532 181.556C255.532 181.015 255.364 180.576 255.028 180.24C254.71 179.885 254.234 179.633 253.6 179.484L251.276 178.868C250.137 178.588 249.306 178.159 248.784 177.58C248.261 176.983 248 176.245 248 175.368C248 174.379 248.401 173.52 249.204 172.792C250.006 172.064 251.229 171.7 252.872 171.7C253.749 171.7 254.514 171.793 255.168 171.98C255.821 172.148 256.325 172.381 256.68 172.68C257.053 172.96 257.24 173.268 257.24 173.604C257.24 173.847 257.174 174.061 257.044 174.248C256.932 174.435 256.773 174.575 256.568 174.668C256.344 174.519 256.054 174.36 255.7 174.192C255.364 174.005 254.962 173.856 254.496 173.744C254.029 173.613 253.516 173.548 252.956 173.548C252.134 173.548 251.472 173.707 250.968 174.024C250.464 174.341 250.212 174.789 250.212 175.368C250.212 175.779 250.352 176.143 250.632 176.46C250.93 176.759 251.397 176.983 252.032 177.132L253.964 177.608C255.233 177.907 256.185 178.383 256.82 179.036C257.454 179.671 257.772 180.511 257.772 181.556ZM268.593 185.392C266.838 185.392 265.475 185.047 264.505 184.356C263.553 183.665 263.077 182.667 263.077 181.36C263.077 180.147 263.478 179.223 264.281 178.588C265.102 177.935 266.231 177.543 267.669 177.412L271.645 177.02V176.236C271.645 175.303 271.365 174.621 270.805 174.192C270.245 173.763 269.489 173.548 268.537 173.548C267.771 173.548 267.034 173.66 266.325 173.884C265.634 174.108 265.018 174.36 264.477 174.64C264.327 174.509 264.187 174.36 264.057 174.192C263.945 174.005 263.889 173.819 263.889 173.632C263.889 173.147 264.159 172.773 264.701 172.512C265.205 172.251 265.783 172.055 266.437 171.924C267.109 171.775 267.818 171.7 268.565 171.7C270.189 171.7 271.477 172.064 272.429 172.792C273.381 173.52 273.857 174.668 273.857 176.236V182.872C273.857 183.283 273.773 183.6 273.605 183.824C273.455 184.029 273.222 184.225 272.905 184.412C272.457 184.655 271.859 184.879 271.113 185.084C270.366 185.289 269.526 185.392 268.593 185.392ZM268.593 183.544C269.377 183.544 270.021 183.469 270.525 183.32C271.047 183.152 271.421 182.993 271.645 182.844V178.784L268.173 179.148C267.202 179.223 266.483 179.437 266.017 179.792C265.55 180.147 265.317 180.66 265.317 181.332C265.317 182.023 265.587 182.564 266.129 182.956C266.689 183.348 267.51 183.544 268.593 183.544ZM280.779 177.608H283.019V181.472C283.019 182.219 283.233 182.751 283.663 183.068C284.092 183.367 284.68 183.516 285.427 183.516C285.744 183.516 286.099 183.46 286.491 183.348C286.883 183.236 287.209 183.105 287.471 182.956C287.583 183.068 287.685 183.208 287.779 183.376C287.872 183.544 287.919 183.74 287.919 183.964C287.919 184.375 287.676 184.711 287.191 184.972C286.705 185.233 286.033 185.364 285.175 185.364C283.868 185.364 282.804 185.075 281.983 184.496C281.18 183.917 280.779 182.956 280.779 181.612V177.608ZM281.927 174.192V172.344H287.611C287.667 172.419 287.723 172.54 287.779 172.708C287.835 172.876 287.863 173.053 287.863 173.24C287.863 173.539 287.788 173.772 287.639 173.94C287.489 174.108 287.284 174.192 287.023 174.192H281.927ZM283.019 178.448H280.779V168.312C280.872 168.275 281.012 168.237 281.199 168.2C281.404 168.144 281.619 168.116 281.843 168.116C282.235 168.116 282.524 168.2 282.711 168.368C282.916 168.517 283.019 168.769 283.019 169.124V178.448ZM292.009 174.472V178.896H289.769V174.64C289.769 174.211 289.843 173.875 289.993 173.632C290.161 173.371 290.431 173.119 290.805 172.876C291.29 172.559 291.953 172.288 292.793 172.064C293.633 171.821 294.566 171.7 295.593 171.7C297.086 171.7 297.833 172.073 297.833 172.82C297.833 173.007 297.805 173.184 297.749 173.352C297.693 173.501 297.618 173.632 297.525 173.744C297.338 173.707 297.095 173.669 296.797 173.632C296.498 173.595 296.199 173.576 295.901 173.576C295.042 173.576 294.286 173.669 293.633 173.856C292.979 174.024 292.438 174.229 292.009 174.472ZM289.769 177.608L292.009 177.944V184.944C291.915 184.981 291.775 185.019 291.589 185.056C291.402 185.112 291.197 185.14 290.973 185.14C290.581 185.14 290.282 185.065 290.077 184.916C289.871 184.748 289.769 184.487 289.769 184.132V177.608ZM303.543 185.392C301.789 185.392 300.426 185.047 299.455 184.356C298.503 183.665 298.027 182.667 298.027 181.36C298.027 180.147 298.429 179.223 299.231 178.588C300.053 177.935 301.182 177.543 302.619 177.412L306.595 177.02V176.236C306.595 175.303 306.315 174.621 305.755 174.192C305.195 173.763 304.439 173.548 303.487 173.548C302.722 173.548 301.985 173.66 301.275 173.884C300.585 174.108 299.969 174.36 299.427 174.64C299.278 174.509 299.138 174.36 299.007 174.192C298.895 174.005 298.839 173.819 298.839 173.632C298.839 173.147 299.11 172.773 299.651 172.512C300.155 172.251 300.734 172.055 301.387 171.924C302.059 171.775 302.769 171.7 303.515 171.7C305.139 171.7 306.427 172.064 307.379 172.792C308.331 173.52 308.807 174.668 308.807 176.236V182.872C308.807 183.283 308.723 183.6 308.555 183.824C308.406 184.029 308.173 184.225 307.855 184.412C307.407 184.655 306.81 184.879 306.063 185.084C305.317 185.289 304.477 185.392 303.543 185.392ZM303.543 183.544C304.327 183.544 304.971 183.469 305.475 183.32C305.998 183.152 306.371 182.993 306.595 182.844V178.784L303.123 179.148C302.153 179.223 301.434 179.437 300.967 179.792C300.501 180.147 300.267 180.66 300.267 181.332C300.267 182.023 300.538 182.564 301.079 182.956C301.639 183.348 302.461 183.544 303.543 183.544ZM320.856 171.812C321.173 171.812 321.425 171.896 321.612 172.064C321.817 172.232 321.92 172.475 321.92 172.792C321.92 173.035 321.817 173.492 321.612 174.164C321.407 174.836 321.136 175.639 320.8 176.572C320.464 177.505 320.091 178.485 319.68 179.512C319.288 180.52 318.877 181.5 318.448 182.452C318.037 183.385 317.655 184.197 317.3 184.888C317.207 184.963 317.039 185.028 316.796 185.084C316.572 185.14 316.329 185.168 316.068 185.168C315.751 185.168 315.471 185.112 315.228 185C314.985 184.907 314.817 184.767 314.724 184.58C314.519 184.207 314.248 183.665 313.912 182.956C313.595 182.228 313.249 181.407 312.876 180.492C312.503 179.577 312.12 178.635 311.728 177.664C311.355 176.675 311.009 175.732 310.692 174.836C310.375 173.921 310.113 173.119 309.908 172.428C310.039 172.241 310.216 172.092 310.44 171.98C310.664 171.868 310.888 171.812 311.112 171.812C311.448 171.812 311.709 171.896 311.896 172.064C312.083 172.232 312.241 172.512 312.372 172.904L314.108 177.916C314.257 178.345 314.453 178.877 314.696 179.512C314.939 180.147 315.181 180.781 315.424 181.416C315.667 182.051 315.863 182.583 316.012 183.012H316.124C316.871 181.127 317.571 179.269 318.224 177.44C318.877 175.592 319.437 173.791 319.904 172.036C320.147 171.887 320.464 171.812 320.856 171.812ZM324.225 179.96L324.113 178.196L332.569 177.048C332.494 176.021 332.139 175.181 331.505 174.528C330.87 173.856 329.993 173.52 328.873 173.52C327.715 173.52 326.754 173.94 325.989 174.78C325.242 175.601 324.869 176.787 324.869 178.336V178.952C324.999 180.445 325.485 181.584 326.325 182.368C327.183 183.133 328.35 183.516 329.825 183.516C330.609 183.516 331.318 183.385 331.953 183.124C332.587 182.863 333.091 182.583 333.465 182.284C333.67 182.415 333.829 182.573 333.941 182.76C334.071 182.928 334.137 183.124 334.137 183.348C334.137 183.703 333.931 184.039 333.521 184.356C333.129 184.655 332.597 184.897 331.925 185.084C331.271 185.271 330.534 185.364 329.713 185.364C328.275 185.364 327.025 185.103 325.961 184.58C324.915 184.057 324.103 183.283 323.525 182.256C322.965 181.211 322.685 179.941 322.685 178.448C322.685 177.384 322.834 176.441 323.133 175.62C323.45 174.78 323.879 174.071 324.421 173.492C324.981 172.913 325.643 172.475 326.409 172.176C327.174 171.859 328.005 171.7 328.901 171.7C330.039 171.7 331.038 171.943 331.897 172.428C332.774 172.913 333.455 173.595 333.941 174.472C334.445 175.331 334.697 176.32 334.697 177.44C334.697 177.851 334.603 178.149 334.417 178.336C334.23 178.504 333.969 178.607 333.633 178.644L324.225 179.96ZM328.537 168.816L331.253 165.764C331.663 165.783 331.99 165.904 332.233 166.128C332.494 166.333 332.625 166.567 332.625 166.828C332.625 167.071 332.569 167.276 332.457 167.444C332.345 167.612 332.158 167.817 331.897 168.06L329.349 170.552C328.994 170.552 328.695 170.459 328.453 170.272C328.229 170.067 328.117 169.843 328.117 169.6C328.117 169.432 328.163 169.292 328.257 169.18C328.35 169.049 328.443 168.928 328.537 168.816ZM345.824 181.556C345.824 182.751 345.385 183.684 344.508 184.356C343.631 185.028 342.361 185.364 340.7 185.364C339.281 185.364 338.124 185.149 337.228 184.72C336.332 184.272 335.884 183.787 335.884 183.264C335.884 183.04 335.94 182.825 336.052 182.62C336.183 182.396 336.369 182.219 336.612 182.088C337.116 182.443 337.704 182.769 338.376 183.068C339.048 183.367 339.813 183.516 340.672 183.516C342.613 183.516 343.584 182.863 343.584 181.556C343.584 181.015 343.416 180.576 343.08 180.24C342.763 179.885 342.287 179.633 341.652 179.484L339.328 178.868C338.189 178.588 337.359 178.159 336.836 177.58C336.313 176.983 336.052 176.245 336.052 175.368C336.052 174.379 336.453 173.52 337.256 172.792C338.059 172.064 339.281 171.7 340.924 171.7C341.801 171.7 342.567 171.793 343.22 171.98C343.873 172.148 344.377 172.381 344.732 172.68C345.105 172.96 345.292 173.268 345.292 173.604C345.292 173.847 345.227 174.061 345.096 174.248C344.984 174.435 344.825 174.575 344.62 174.668C344.396 174.519 344.107 174.36 343.752 174.192C343.416 174.005 343.015 173.856 342.548 173.744C342.081 173.613 341.568 173.548 341.008 173.548C340.187 173.548 339.524 173.707 339.02 174.024C338.516 174.341 338.264 174.789 338.264 175.368C338.264 175.779 338.404 176.143 338.684 176.46C338.983 176.759 339.449 176.983 340.084 177.132L342.016 177.608C343.285 177.907 344.237 178.383 344.872 179.036C345.507 179.671 345.824 180.511 345.824 181.556ZM360.845 182.788V173.38L363.085 173.352V182.872C363.085 183.227 363.001 183.516 362.833 183.74C362.684 183.945 362.441 184.151 362.105 184.356C361.732 184.599 361.2 184.823 360.509 185.028C359.818 185.252 359.025 185.364 358.129 185.364C356.785 185.364 355.6 185.131 354.573 184.664C353.546 184.197 352.744 183.469 352.165 182.48C351.586 181.472 351.297 180.175 351.297 178.588C351.297 176.964 351.577 175.648 352.137 174.64C352.716 173.632 353.49 172.895 354.461 172.428C355.432 171.943 356.496 171.7 357.653 171.7C358.381 171.7 359.072 171.803 359.725 172.008C360.378 172.213 360.892 172.465 361.265 172.764V174.836C360.91 174.481 360.444 174.183 359.865 173.94C359.305 173.679 358.642 173.548 357.877 173.548C357.112 173.548 356.402 173.716 355.749 174.052C355.096 174.369 354.573 174.901 354.181 175.648C353.789 176.395 353.593 177.393 353.593 178.644C353.593 180.343 354.004 181.584 354.825 182.368C355.646 183.133 356.738 183.516 358.101 183.516C358.754 183.516 359.286 183.451 359.697 183.32C360.126 183.171 360.509 182.993 360.845 182.788ZM363.085 173.912L360.845 173.94V166.856C360.938 166.819 361.078 166.781 361.265 166.744C361.47 166.688 361.676 166.66 361.881 166.66C362.292 166.66 362.59 166.744 362.777 166.912C362.982 167.061 363.085 167.313 363.085 167.668V173.912ZM366.749 179.96L366.637 178.196L375.093 177.048C375.019 176.021 374.664 175.181 374.029 174.528C373.395 173.856 372.517 173.52 371.397 173.52C370.24 173.52 369.279 173.94 368.513 174.78C367.767 175.601 367.393 176.787 367.393 178.336V178.952C367.524 180.445 368.009 181.584 368.849 182.368C369.708 183.133 370.875 183.516 372.349 183.516C373.133 183.516 373.843 183.385 374.477 183.124C375.112 182.863 375.616 182.583 375.989 182.284C376.195 182.415 376.353 182.573 376.465 182.76C376.596 182.928 376.661 183.124 376.661 183.348C376.661 183.703 376.456 184.039 376.045 184.356C375.653 184.655 375.121 184.897 374.449 185.084C373.796 185.271 373.059 185.364 372.237 185.364C370.8 185.364 369.549 185.103 368.485 184.58C367.44 184.057 366.628 183.283 366.049 182.256C365.489 181.211 365.209 179.941 365.209 178.448C365.209 177.384 365.359 176.441 365.657 175.62C365.975 174.78 366.404 174.071 366.945 173.492C367.505 172.913 368.168 172.475 368.933 172.176C369.699 171.859 370.529 171.7 371.425 171.7C372.564 171.7 373.563 171.943 374.421 172.428C375.299 172.913 375.98 173.595 376.465 174.472C376.969 175.331 377.221 176.32 377.221 177.44C377.221 177.851 377.128 178.149 376.941 178.336C376.755 178.504 376.493 178.607 376.157 178.644L366.749 179.96ZM170.389 201.46V204.316H168.149V201.572C168.149 200.527 167.85 199.761 167.253 199.276C166.674 198.791 165.89 198.548 164.901 198.548C164.154 198.548 163.491 198.641 162.913 198.828C162.334 199.015 161.839 199.229 161.429 199.472V204.316H159.189V199.584C159.189 199.192 159.263 198.875 159.413 198.632C159.581 198.371 159.861 198.119 160.253 197.876C160.738 197.596 161.382 197.335 162.185 197.092C162.987 196.831 163.893 196.7 164.901 196.7C166.599 196.7 167.934 197.092 168.905 197.876C169.894 198.641 170.389 199.836 170.389 201.46ZM159.189 202.776H161.429V209.944C161.335 209.981 161.195 210.019 161.009 210.056C160.822 210.112 160.617 210.14 160.393 210.14C160.001 210.14 159.702 210.065 159.497 209.916C159.291 209.748 159.189 209.487 159.189 209.132V202.776ZM168.149 202.776H170.389V209.944C170.295 209.981 170.146 210.019 169.941 210.056C169.754 210.112 169.558 210.14 169.353 210.14C168.942 210.14 168.634 210.065 168.429 209.916C168.242 209.748 168.149 209.487 168.149 209.132V202.776ZM173.183 205.268V202.72H175.423V205.156C175.423 206.351 175.741 207.209 176.375 207.732C177.01 208.255 177.887 208.516 179.007 208.516C179.754 208.516 180.389 208.441 180.911 208.292C181.434 208.124 181.845 207.956 182.143 207.788V202.72H184.383V207.704C184.383 208.096 184.327 208.413 184.215 208.656C184.122 208.88 183.879 209.104 183.487 209.328C183.077 209.571 182.489 209.804 181.723 210.028C180.958 210.252 180.043 210.364 178.979 210.364C177.747 210.364 176.693 210.187 175.815 209.832C174.957 209.459 174.303 208.899 173.855 208.152C173.407 207.387 173.183 206.425 173.183 205.268ZM184.383 204.176H182.143V197.12C182.237 197.083 182.377 197.045 182.563 197.008C182.769 196.952 182.974 196.924 183.179 196.924C183.59 196.924 183.889 197.008 184.075 197.176C184.281 197.325 184.383 197.587 184.383 197.96V204.176ZM175.423 204.176H173.183V197.12C173.277 197.083 173.417 197.045 173.603 197.008C173.809 196.952 174.023 196.924 174.247 196.924C174.639 196.924 174.929 197.008 175.115 197.176C175.321 197.325 175.423 197.587 175.423 197.96V204.176ZM187.99 204.96L187.878 203.196L196.334 202.048C196.259 201.021 195.904 200.181 195.27 199.528C194.635 198.856 193.758 198.52 192.638 198.52C191.48 198.52 190.519 198.94 189.754 199.78C189.007 200.601 188.634 201.787 188.634 203.336V203.952C188.764 205.445 189.25 206.584 190.09 207.368C190.948 208.133 192.115 208.516 193.59 208.516C194.374 208.516 195.083 208.385 195.718 208.124C196.352 207.863 196.856 207.583 197.23 207.284C197.435 207.415 197.594 207.573 197.706 207.76C197.836 207.928 197.902 208.124 197.902 208.348C197.902 208.703 197.696 209.039 197.286 209.356C196.894 209.655 196.362 209.897 195.69 210.084C195.036 210.271 194.299 210.364 193.478 210.364C192.04 210.364 190.79 210.103 189.726 209.58C188.68 209.057 187.868 208.283 187.29 207.256C186.73 206.211 186.45 204.941 186.45 203.448C186.45 202.384 186.599 201.441 186.898 200.62C187.215 199.78 187.644 199.071 188.186 198.492C188.746 197.913 189.408 197.475 190.174 197.176C190.939 196.859 191.77 196.7 192.666 196.7C193.804 196.7 194.803 196.943 195.662 197.428C196.539 197.913 197.22 198.595 197.706 199.472C198.21 200.331 198.462 201.32 198.462 202.44C198.462 202.851 198.368 203.149 198.182 203.336C197.995 203.504 197.734 203.607 197.398 203.644L187.99 204.96ZM209.589 206.556C209.589 207.751 209.151 208.684 208.273 209.356C207.396 210.028 206.127 210.364 204.465 210.364C203.047 210.364 201.889 210.149 200.993 209.72C200.097 209.272 199.649 208.787 199.649 208.264C199.649 208.04 199.705 207.825 199.817 207.62C199.948 207.396 200.135 207.219 200.377 207.088C200.881 207.443 201.469 207.769 202.141 208.068C202.813 208.367 203.579 208.516 204.437 208.516C206.379 208.516 207.349 207.863 207.349 206.556C207.349 206.015 207.181 205.576 206.845 205.24C206.528 204.885 206.052 204.633 205.417 204.484L203.093 203.868C201.955 203.588 201.124 203.159 200.601 202.58C200.079 201.983 199.817 201.245 199.817 200.368C199.817 199.379 200.219 198.52 201.021 197.792C201.824 197.064 203.047 196.7 204.689 196.7C205.567 196.7 206.332 196.793 206.985 196.98C207.639 197.148 208.143 197.381 208.497 197.68C208.871 197.96 209.057 198.268 209.057 198.604C209.057 198.847 208.992 199.061 208.861 199.248C208.749 199.435 208.591 199.575 208.385 199.668C208.161 199.519 207.872 199.36 207.517 199.192C207.181 199.005 206.78 198.856 206.313 198.744C205.847 198.613 205.333 198.548 204.773 198.548C203.952 198.548 203.289 198.707 202.785 199.024C202.281 199.341 202.029 199.789 202.029 200.368C202.029 200.779 202.169 201.143 202.449 201.46C202.748 201.759 203.215 201.983 203.849 202.132L205.781 202.608C207.051 202.907 208.003 203.383 208.637 204.036C209.272 204.671 209.589 205.511 209.589 206.556ZM211.613 202.608H213.853V206.472C213.853 207.219 214.067 207.751 214.497 208.068C214.926 208.367 215.514 208.516 216.261 208.516C216.578 208.516 216.933 208.46 217.325 208.348C217.717 208.236 218.043 208.105 218.305 207.956C218.417 208.068 218.519 208.208 218.613 208.376C218.706 208.544 218.753 208.74 218.753 208.964C218.753 209.375 218.51 209.711 218.025 209.972C217.539 210.233 216.867 210.364 216.009 210.364C214.702 210.364 213.638 210.075 212.817 209.496C212.014 208.917 211.613 207.956 211.613 206.612V202.608ZM212.761 199.192V197.344H218.445C218.501 197.419 218.557 197.54 218.613 197.708C218.669 197.876 218.697 198.053 218.697 198.24C218.697 198.539 218.622 198.772 218.473 198.94C218.323 199.108 218.118 199.192 217.857 199.192H212.761ZM213.853 203.448H211.613V193.312C211.706 193.275 211.846 193.237 212.033 193.2C212.238 193.144 212.453 193.116 212.677 193.116C213.069 193.116 213.358 193.2 213.545 193.368C213.75 193.517 213.853 193.769 213.853 194.124V203.448ZM222.843 199.472V203.896H220.603V199.64C220.603 199.211 220.677 198.875 220.827 198.632C220.995 198.371 221.265 198.119 221.639 197.876C222.124 197.559 222.787 197.288 223.627 197.064C224.467 196.821 225.4 196.7 226.427 196.7C227.92 196.7 228.667 197.073 228.667 197.82C228.667 198.007 228.639 198.184 228.583 198.352C228.527 198.501 228.452 198.632 228.359 198.744C228.172 198.707 227.929 198.669 227.631 198.632C227.332 198.595 227.033 198.576 226.735 198.576C225.876 198.576 225.12 198.669 224.467 198.856C223.813 199.024 223.272 199.229 222.843 199.472ZM220.603 202.608L222.843 202.944V209.944C222.749 209.981 222.609 210.019 222.423 210.056C222.236 210.112 222.031 210.14 221.807 210.14C221.415 210.14 221.116 210.065 220.911 209.916C220.705 209.748 220.603 209.487 220.603 209.132V202.608ZM234.377 210.392C232.623 210.392 231.26 210.047 230.289 209.356C229.337 208.665 228.861 207.667 228.861 206.36C228.861 205.147 229.263 204.223 230.065 203.588C230.887 202.935 232.016 202.543 233.453 202.412L237.429 202.02V201.236C237.429 200.303 237.149 199.621 236.589 199.192C236.029 198.763 235.273 198.548 234.321 198.548C233.556 198.548 232.819 198.66 232.109 198.884C231.419 199.108 230.803 199.36 230.261 199.64C230.112 199.509 229.972 199.36 229.841 199.192C229.729 199.005 229.673 198.819 229.673 198.632C229.673 198.147 229.944 197.773 230.485 197.512C230.989 197.251 231.568 197.055 232.221 196.924C232.893 196.775 233.603 196.7 234.349 196.7C235.973 196.7 237.261 197.064 238.213 197.792C239.165 198.52 239.641 199.668 239.641 201.236V207.872C239.641 208.283 239.557 208.6 239.389 208.824C239.24 209.029 239.007 209.225 238.689 209.412C238.241 209.655 237.644 209.879 236.897 210.084C236.151 210.289 235.311 210.392 234.377 210.392ZM234.377 208.544C235.161 208.544 235.805 208.469 236.309 208.32C236.832 208.152 237.205 207.993 237.429 207.844V203.784L233.957 204.148C232.987 204.223 232.268 204.437 231.801 204.792C231.335 205.147 231.101 205.66 231.101 206.332C231.101 207.023 231.372 207.564 231.913 207.956C232.473 208.348 233.295 208.544 234.377 208.544ZM254.684 200.368C254.348 201.544 253.984 202.72 253.592 203.896C253.218 205.072 252.854 206.173 252.5 207.2C252.145 208.227 251.818 209.113 251.52 209.86C251.37 209.953 251.202 210.028 251.016 210.084C250.829 210.14 250.577 210.168 250.26 210.168C249.961 210.168 249.681 210.112 249.42 210C249.177 209.907 249.009 209.748 248.916 209.524C248.729 209.151 248.514 208.609 248.272 207.9C248.048 207.191 247.805 206.379 247.544 205.464C247.301 204.549 247.049 203.607 246.788 202.636C246.526 201.647 246.284 200.695 246.06 199.78C245.854 198.865 245.677 198.053 245.528 197.344C245.658 197.213 245.817 197.092 246.004 196.98C246.209 196.868 246.452 196.812 246.732 196.812C247.086 196.812 247.348 196.915 247.516 197.12C247.702 197.307 247.833 197.615 247.908 198.044C248.076 198.828 248.262 199.715 248.468 200.704C248.692 201.693 248.916 202.673 249.14 203.644C249.382 204.615 249.597 205.492 249.784 206.276C249.989 207.041 250.138 207.611 250.232 207.984H250.344C250.493 207.536 250.726 206.808 251.044 205.8C251.361 204.773 251.734 203.607 252.164 202.3C252.612 200.993 253.06 199.668 253.508 198.324C253.657 198.231 253.834 198.165 254.04 198.128C254.245 198.072 254.469 198.044 254.712 198.044C255.048 198.044 255.328 198.109 255.552 198.24C255.776 198.352 255.925 198.529 256 198.772C256.448 200.06 256.868 201.329 257.26 202.58C257.652 203.812 257.997 204.913 258.296 205.884C258.594 206.836 258.809 207.545 258.94 208.012H259.08C259.509 206.351 259.976 204.568 260.48 202.664C260.984 200.76 261.394 198.893 261.712 197.064C261.973 196.896 262.29 196.812 262.664 196.812C262.981 196.812 263.233 196.887 263.42 197.036C263.606 197.185 263.7 197.419 263.7 197.736C263.7 197.941 263.634 198.333 263.504 198.912C263.392 199.491 263.233 200.172 263.028 200.956C262.822 201.74 262.589 202.58 262.328 203.476C262.085 204.353 261.833 205.212 261.572 206.052C261.31 206.873 261.058 207.62 260.816 208.292C260.592 208.964 260.396 209.487 260.228 209.86C260.134 209.935 259.976 210 259.752 210.056C259.546 210.131 259.304 210.168 259.024 210.168C258.258 210.168 257.81 209.991 257.68 209.636C257.418 208.964 257.12 208.133 256.784 207.144C256.448 206.136 256.102 205.053 255.748 203.896C255.393 202.72 255.038 201.544 254.684 200.368ZM266.073 204.96L265.961 203.196L274.417 202.048C274.342 201.021 273.987 200.181 273.353 199.528C272.718 198.856 271.841 198.52 270.721 198.52C269.563 198.52 268.602 198.94 267.837 199.78C267.09 200.601 266.717 201.787 266.717 203.336V203.952C266.847 205.445 267.333 206.584 268.173 207.368C269.031 208.133 270.198 208.516 271.673 208.516C272.457 208.516 273.166 208.385 273.801 208.124C274.435 207.863 274.939 207.583 275.313 207.284C275.518 207.415 275.677 207.573 275.789 207.76C275.919 207.928 275.985 208.124 275.985 208.348C275.985 208.703 275.779 209.039 275.369 209.356C274.977 209.655 274.445 209.897 273.773 210.084C273.119 210.271 272.382 210.364 271.561 210.364C270.123 210.364 268.873 210.103 267.809 209.58C266.763 209.057 265.951 208.283 265.373 207.256C264.813 206.211 264.533 204.941 264.533 203.448C264.533 202.384 264.682 201.441 264.981 200.62C265.298 199.78 265.727 199.071 266.269 198.492C266.829 197.913 267.491 197.475 268.257 197.176C269.022 196.859 269.853 196.7 270.749 196.7C271.887 196.7 272.886 196.943 273.745 197.428C274.622 197.913 275.303 198.595 275.789 199.472C276.293 200.331 276.545 201.32 276.545 202.44C276.545 202.851 276.451 203.149 276.265 203.336C276.078 203.504 275.817 203.607 275.481 203.644L266.073 204.96ZM284.148 196.7C285.305 196.7 286.341 196.952 287.256 197.456C288.189 197.941 288.917 198.688 289.44 199.696C289.981 200.704 290.252 201.983 290.252 203.532C290.252 205.1 289.972 206.388 289.412 207.396C288.871 208.404 288.115 209.151 287.144 209.636C286.173 210.121 285.044 210.364 283.756 210.364C282.841 210.364 282.011 210.252 281.264 210.028C280.536 209.804 279.939 209.561 279.472 209.3C279.08 209.039 278.809 208.796 278.66 208.572C278.511 208.348 278.436 208.04 278.436 207.648V198.324H280.676V207.648C280.956 207.853 281.367 208.049 281.908 208.236C282.449 208.423 283.065 208.516 283.756 208.516C285.025 208.516 286.043 208.115 286.808 207.312C287.592 206.509 287.984 205.249 287.984 203.532C287.984 201.796 287.592 200.536 286.808 199.752C286.024 198.949 285.025 198.548 283.812 198.548C283.065 198.548 282.403 198.697 281.824 198.996C281.245 199.276 280.769 199.603 280.396 199.976L279.976 198.156C280.387 197.839 280.937 197.521 281.628 197.204C282.319 196.868 283.159 196.7 284.148 196.7ZM280.676 198.772H278.436V191.856C278.529 191.819 278.669 191.781 278.856 191.744C279.061 191.688 279.276 191.66 279.5 191.66C279.892 191.66 280.181 191.744 280.368 191.912C280.573 192.061 280.676 192.313 280.676 192.668V198.772ZM290.422 208.824C290.422 208.376 290.552 208.003 290.814 207.704C291.094 207.405 291.476 207.256 291.962 207.256C292.447 207.256 292.82 207.405 293.082 207.704C293.343 208.003 293.474 208.376 293.474 208.824C293.474 209.253 293.343 209.617 293.082 209.916C292.82 210.215 292.447 210.364 291.962 210.364C291.476 210.364 291.094 210.215 290.814 209.916C290.552 209.617 290.422 209.253 290.422 208.824Z" fill="black"/>
</svg>
